<svg width="104" height="89" viewBox="0 0 104 89" fill="none" xmlns="http://www.w3.org/2000/svg">
<g opacity="0.2">
<path d="M13.0319 57.8529C21.4254 56.5853 45.7199 64.9368 61.1135 80.3476C61.1135 80.3476 68.0796 77.001 71.762 72.1182C71.762 72.1182 77.7947 79.7447 81.7995 71.6078C81.7995 71.6078 91.7138 72.6431 89.539 60.6183C89.539 60.6183 95.0942 49.6036 79.9487 43.9231C79.9487 43.9231 101.986 36.3738 64.037 24.0663C64.037 24.0663 68.9475 19.5598 56.5195 15.3428C44.0892 11.1307 39.5631 17.8167 39.5631 17.8167C39.5631 17.8167 33.3685 7.11196 24.9272 19.1783C24.9272 19.1783 19.3053 14.9448 18.0005 24.1467C18.0005 24.1467 7.13544 27.2725 12.8906 33.5682C12.8906 33.5682 17.0513 37.7186 15.7154 39.2914C14.3795 40.8643 13.556 42.3166 15.5653 46.025C12.602 50.1273 13.0319 57.8529 13.0319 57.8529Z" stroke="white" stroke-width="3" stroke-miterlimit="10" stroke-linecap="round"/>
<path d="M15.0198 45.4215C15.0198 45.4215 15.0862 45.3565 15.2795 45.2127C15.4724 45.0567 15.7163 44.8946 16.0512 44.679C16.2188 44.5772 16.4009 44.4702 16.6069 44.3505C16.8133 44.2428 17.0341 44.13 17.2766 44.0092C17.5116 43.8789 17.7741 43.7795 18.0507 43.6628C18.3251 43.5509 18.6109 43.4144 18.9247 43.321C19.2309 43.218 19.5515 43.1098 19.8866 42.9964C20.2272 42.9095 20.5751 42.8201 20.9351 42.7303C21.2948 42.6283 21.6676 42.5626 22.0503 42.5014C22.4329 42.4402 22.8225 42.3642 23.2199 42.3099C23.6203 42.2751 24.0278 42.2375 24.4354 42.2C24.6417 42.1824 24.8479 42.1648 25.0565 42.1423L25.6837 42.1355C26.1017 42.1269 26.5224 42.1255 26.9503 42.1215C27.3756 42.1103 27.7952 42.1625 28.2237 42.1828C28.6499 42.2081 29.0689 42.236 29.4928 42.2661C29.9098 42.3111 30.3274 42.3804 30.7398 42.4352C31.1522 42.49 31.5623 42.5498 31.9674 42.6072C32.3726 42.6646 32.7619 42.7687 33.148 42.8412C33.9185 43.0156 34.6779 43.1366 35.3689 43.3398C36.0622 43.5381 36.7187 43.7251 37.3287 43.8964C37.9383 44.0555 38.4808 44.2553 38.9643 44.4274C39.4478 44.5996 39.865 44.7467 40.2136 44.8738C40.9032 45.1183 41.2984 45.2612 41.2984 45.2612C41.5856 45.3655 41.7347 45.6755 41.6302 45.9629C41.528 46.2454 41.2231 46.397 40.9385 46.2998L40.909 46.286C40.909 46.286 40.519 46.1576 39.8323 45.9324C39.489 45.8198 39.0744 45.6799 38.6011 45.5245C38.1251 45.3619 37.5927 45.1789 36.9932 45.0366C36.4007 44.8794 35.7543 44.7092 35.0761 44.53C34.3953 44.3436 33.6608 44.2461 32.9077 44.086C32.5314 44.018 32.1497 43.9235 31.7619 43.8802C31.3692 43.8346 30.9765 43.789 30.5789 43.7411C30.179 43.6981 29.7787 43.643 29.3765 43.6049C28.97 43.5889 28.5658 43.5679 28.1592 43.5519C27.7553 43.5431 27.3456 43.4955 26.9449 43.5182C26.5416 43.5337 26.1407 43.5443 25.7446 43.5572L25.1518 43.5801C24.9554 43.6023 24.759 43.6245 24.5699 43.6441C24.1843 43.6859 23.8036 43.73 23.4253 43.7692C23.0548 43.83 22.6944 43.9077 22.3338 43.9731C21.9804 44.036 21.6296 44.1061 21.3014 44.2047C20.9706 44.2962 20.647 44.385 20.3379 44.4686C20.0343 44.5788 19.7452 44.6837 19.4656 44.7811C19.1834 44.8713 18.9265 44.9973 18.6787 45.1036C18.4336 45.2171 18.1928 45.3086 17.9867 45.4284C17.7781 45.5409 17.5789 45.6459 17.4015 45.7431C17.2316 45.8497 17.0712 45.9488 16.9276 46.0378C16.6574 46.2177 16.4234 46.3844 16.3139 46.4773C16.1995 46.5679 16.1141 46.648 16.1141 46.648C15.784 46.956 15.2704 46.9379 14.9605 46.6128C14.6529 46.2827 14.6713 45.7688 14.9964 45.4586L15.0273 45.431L15.0198 45.4215Z" fill="white"/>
<path d="M70.9508 72.1591C70.9508 72.1591 70.949 72.0862 70.9357 71.9479C70.9302 71.8312 70.9026 71.6081 70.8691 71.3462C70.8258 71.0797 70.7809 70.7525 70.691 70.3802C70.6206 70.0049 70.4957 69.5922 70.3744 69.1331C70.2193 68.6822 70.085 68.187 69.8774 67.6816C69.7737 67.4288 69.6817 67.1636 69.5704 66.9014C69.4519 66.6417 69.3258 66.3726 69.2069 66.1008C68.9666 65.55 68.6464 65.0158 68.3621 64.4565C68.0298 63.9227 67.7113 63.3593 67.3524 62.8311C66.9767 62.3131 66.6343 61.7625 66.2326 61.2743C65.831 60.7862 65.4628 60.2777 65.0549 59.8286C64.6469 59.3795 64.2564 58.9446 63.8786 58.5336C63.4795 58.1427 63.1052 57.7755 62.7586 57.4391C62.4142 57.0979 62.0901 56.7901 61.7821 56.5379C61.4836 56.2782 61.2202 56.0588 61.0014 55.8724C60.5687 55.5018 60.325 55.2917 60.325 55.2917L60.305 55.2704C60.0937 55.0935 60.0734 54.7777 60.253 54.5735C60.4276 54.3669 60.7334 54.3418 60.942 54.5115C60.942 54.5115 61.1979 54.7213 61.6523 55.084C61.8783 55.2678 62.1538 55.4868 62.4717 55.7436C62.7942 55.9906 63.1377 56.2954 63.4991 56.6386C63.8678 56.9792 64.2663 57.3458 64.6921 57.7312C65.0918 58.1464 65.5116 58.583 65.9488 59.0337C66.3836 59.4894 66.7859 60.0019 67.2194 60.499C67.6529 60.996 68.0272 61.5555 68.4373 62.0896C68.8307 62.634 69.1837 63.2134 69.5504 63.7634C69.8718 64.3461 70.2241 64.9012 70.4966 65.4731C70.6378 65.7613 70.7786 66.0374 70.9074 66.3138C71.0361 66.5902 71.1454 66.8696 71.2642 67.1414C71.5066 67.6751 71.6661 68.2061 71.8488 68.6879C71.9953 69.1828 72.1428 69.6241 72.2362 70.0402C72.3414 70.4437 72.4093 70.8117 72.468 71.1094C72.5172 71.4147 72.5524 71.6473 72.5718 71.8366C72.5884 72.0064 72.5955 72.0938 72.5955 72.0938C72.6363 72.5453 72.3035 72.9361 71.8571 72.9795C71.4059 73.0206 71.0155 72.6878 70.9724 72.2413C70.9724 72.2413 70.9721 72.2291 70.9695 72.2219L70.9659 72.1782L70.9508 72.1591Z" fill="white"/>
<path d="M13.4543 50.2557C13.4543 50.2557 13.5217 50.2272 13.6492 50.1727C13.7839 50.1156 13.9764 50.0376 14.2149 49.951C14.6943 49.7729 15.3763 49.5335 16.212 49.312C16.6272 49.194 17.0865 49.0845 17.5677 48.9794C18.0463 48.867 18.5646 48.7852 19.097 48.686C19.6304 48.6233 20.1822 48.5211 20.7478 48.4795C21.3107 48.4306 21.8857 48.3813 22.4644 48.3758C22.7537 48.373 23.0377 48.3558 23.3297 48.3603C23.6193 48.3697 23.9017 48.3817 24.1841 48.3937C24.7509 48.4006 25.3071 48.4687 25.8436 48.5275C26.3821 48.5693 26.8955 48.6774 27.3818 48.7668C27.6237 48.8139 27.8631 48.8538 28.0929 48.9013C28.3181 48.9586 28.5361 49.0185 28.7442 49.0739C29.1631 49.1918 29.5495 49.2765 29.8807 49.3894C30.2096 49.5072 30.5017 49.6139 30.7374 49.7001C31.2136 49.8749 31.4811 49.97 31.4811 49.97C31.8149 50.0902 31.9849 50.4579 31.8646 50.792C31.7466 51.1211 31.3839 51.2937 31.0576 51.1831L31.0084 51.1601C31.0084 51.1601 30.7461 51.0794 30.302 50.9257C30.0788 50.8513 29.804 50.7587 29.4948 50.6501C29.181 50.5513 28.8143 50.4759 28.4227 50.3767C28.2244 50.326 28.0189 50.2779 27.8085 50.2275C27.5911 50.1918 27.3688 50.1539 27.1393 50.1186C26.6804 50.048 26.1987 49.9488 25.6898 49.9208C25.1828 49.8758 24.6634 49.819 24.1261 49.8258C23.8585 49.8207 23.5909 49.8156 23.3232 49.8105C23.0533 49.8103 22.784 49.8345 22.5095 49.8441C21.9699 49.8559 21.4267 49.914 20.8956 49.9718C20.3642 50.0175 19.8465 50.1236 19.345 50.1952C18.8467 50.2984 18.3626 50.3841 17.9132 50.4982C17.4589 50.6099 17.0312 50.7161 16.6452 50.8357C15.8656 51.0655 15.2296 51.2964 14.7939 51.4709C14.5725 51.5595 14.4089 51.6271 14.3031 51.6736C14.19 51.7228 14.1276 51.7537 14.1276 51.7537L14.1059 51.7616C13.6949 51.9476 13.2111 51.7633 13.0254 51.3521C12.8397 50.941 13.0242 50.4568 13.4353 50.2708C13.4353 50.2708 13.4448 50.2632 13.4497 50.2656L13.4543 50.2557Z" fill="white"/>
<path d="M40.3383 18.0712C40.3383 18.0712 40.3244 18.1007 40.3112 18.1546C40.2928 18.194 40.273 18.2748 40.2443 18.3875C40.1865 18.6007 40.1119 18.9141 40.0563 19.3024C39.9907 19.6861 39.9563 20.1444 39.9423 20.6363C39.9485 20.8794 39.9357 21.1376 39.9666 21.3923C39.9781 21.6499 40.0066 21.9094 40.0546 22.1661C40.0832 22.4256 40.1505 22.6793 40.2057 22.9333C40.2536 23.19 40.3495 23.421 40.4188 23.6576C40.4809 23.8968 40.5933 24.1055 40.6742 24.3175C40.755 24.5295 40.8546 24.7142 40.9466 24.8894C41.041 25.0596 41.1111 25.2305 41.2045 25.3643C41.2907 25.5007 41.369 25.6154 41.4323 25.7111C41.5588 25.9024 41.6322 26.0148 41.6322 26.0148L41.6627 26.0651C41.84 26.3402 41.7643 26.7071 41.4892 26.8847C41.2237 27.0547 40.8767 26.9884 40.6878 26.738C40.6878 26.738 40.5996 26.6186 40.4459 26.4086C40.3702 26.3011 40.2744 26.1723 40.1686 26.0266C40.0578 25.8787 39.9631 25.6963 39.8487 25.5047C39.7344 25.3131 39.6049 25.1024 39.5014 24.8618C39.3957 24.6262 39.2558 24.3865 39.1711 24.1187C39.0791 23.8535 38.953 23.5843 38.8848 23.2942C38.802 23.0093 38.7167 22.7171 38.6652 22.4168C38.5992 22.1217 38.5527 21.8237 38.5232 21.5277C38.4766 21.2296 38.474 20.9402 38.452 20.6537C38.435 20.0872 38.4554 19.5563 38.5046 19.1049C38.5488 18.6512 38.6169 18.2747 38.6757 18.008C38.7064 17.8782 38.7279 17.7682 38.7549 17.6847C38.7751 17.6161 38.7886 17.5744 38.7886 17.5744C38.9087 17.1381 39.3569 16.8854 39.7929 17.0053C40.2288 17.1252 40.4811 17.5735 40.361 18.0098C40.3564 18.0196 40.3518 18.0295 40.3449 18.0442L40.3333 18.0689L40.3383 18.0712Z" fill="white"/>
<path d="M25.6471 19.5632C25.6471 19.5632 25.6241 19.6125 25.5704 19.7015C25.5289 19.7902 25.4592 19.9137 25.3713 20.0887C25.1978 20.4339 24.9725 20.941 24.7235 21.5631C24.6124 21.8775 24.4727 22.2145 24.3606 22.5824C24.2337 22.9434 24.1222 23.3356 24.016 23.7423C23.895 24.1421 23.8258 24.5721 23.7274 25.0005C23.651 25.4331 23.5893 25.8727 23.5375 26.3168C23.5173 26.7577 23.4461 27.2049 23.4718 27.6372C23.4831 28.0749 23.4674 28.5059 23.529 28.9131C23.5761 29.3254 23.6107 29.7259 23.7101 30.0907C23.8022 30.4581 23.848 30.8218 23.9774 31.1225C24.0876 31.4384 24.1897 31.7203 24.2741 31.976C24.3947 32.2185 24.4998 32.4299 24.587 32.6027C24.7612 32.9485 24.8611 33.1454 24.8611 33.1454L24.8893 33.2006C24.9971 33.4191 24.909 33.6842 24.6905 33.7922C24.4792 33.8975 24.2268 33.8214 24.1121 33.6177C24.1121 33.6177 23.9948 33.4066 23.7835 33.0375C23.679 32.8505 23.5541 32.63 23.4113 32.371C23.2997 32.0966 23.1726 31.7909 23.0374 31.4515C22.8806 31.1198 22.8049 30.7301 22.6852 30.3318C22.5557 29.929 22.4935 29.4975 22.4212 29.0493C22.3295 28.6041 22.3222 28.1323 22.2857 27.6588C22.2393 27.1807 22.2879 26.705 22.2875 26.2184C22.319 25.7407 22.3649 25.2578 22.4233 24.7867C22.5037 24.3199 22.5575 23.8586 22.6605 23.4204C22.7464 22.9802 22.8547 22.5564 22.9685 22.1593C23.0724 21.7575 23.2016 21.3916 23.3045 21.0434C23.5398 20.3608 23.754 19.8005 23.9289 19.4139C24.0115 19.2244 24.0876 19.0618 24.1383 18.9534C24.1867 18.8499 24.2121 18.7957 24.2121 18.7957C24.4083 18.3891 24.8952 18.2206 25.3015 18.4167C25.7078 18.6127 25.8759 19.0998 25.6797 19.5064C25.6751 19.5162 25.6682 19.531 25.6636 19.5409L25.6543 19.5606L25.6471 19.5632Z" fill="white"/>
<path d="M79.8628 44.7355C79.8628 44.7355 79.6162 44.6982 79.1819 44.6391C78.7376 44.5754 78.127 44.4699 77.3916 44.336C77.0252 44.2726 76.6289 44.1833 76.2133 44.097C75.795 44.0034 75.3505 43.9275 74.9001 43.8129C74.4474 43.7032 73.9799 43.5866 73.5052 43.4726C73.0282 43.3635 72.5529 43.2252 72.0753 43.0918C71.5976 42.9584 71.12 42.8251 70.6496 42.6891C70.1769 42.558 69.7252 42.3947 69.2814 42.2531C68.8399 42.1066 68.4132 41.9671 68.0062 41.8367C67.5968 41.7112 67.2233 41.5605 66.877 41.4285C65.487 40.8983 64.5611 40.5432 64.5611 40.5432C64.2762 40.4339 64.1318 40.1141 64.2435 39.8241C64.3505 39.5439 64.6581 39.3995 64.9427 39.4967L64.9722 39.5105C64.9722 39.5105 65.8923 39.8268 67.2735 40.2989C67.6195 40.4187 67.9901 40.5501 68.3942 40.661C68.796 40.777 69.2175 40.9021 69.656 41.0292C70.0969 41.1514 70.5433 41.3002 71.0082 41.4096C71.4707 41.5239 71.9431 41.6428 72.4178 41.7568C72.8902 41.8757 73.3626 41.9947 73.8295 42.087C74.2989 42.1865 74.7585 42.2814 75.2011 42.3744C75.6463 42.4745 76.0806 42.5336 76.4887 42.6105C76.9014 42.6774 77.2852 42.7549 77.6464 42.8038C78.3664 42.9064 78.9669 42.9952 79.3717 43.0405C79.7937 43.0878 80.035 43.1106 80.035 43.1106L80.0547 43.1198C80.5032 43.1615 80.8298 43.5665 80.778 44.0107C80.7311 44.4571 80.3261 44.7841 79.8822 44.7325C79.8773 44.7302 79.8651 44.7306 79.853 44.7309L79.8628 44.7355Z" fill="white"/>
<path d="M63.8828 24.8709C63.8828 24.8709 63.1294 24.6985 61.9475 24.5059C60.7754 24.3178 59.1971 24.1259 57.612 24.0509C56.8233 24.0182 56.0302 24.0075 55.2966 24.0365C54.9324 24.0583 54.5679 24.0679 54.2355 24.0986C53.9008 24.1342 53.5855 24.1668 53.2945 24.1988C53.0088 24.2453 52.7424 24.2888 52.5076 24.3291C52.2701 24.3621 52.0773 24.428 51.9127 24.4591C51.5816 24.5384 51.393 24.5823 51.393 24.5823L51.352 24.5931C51.0691 24.659 50.785 24.484 50.7193 24.2011C50.6563 23.9254 50.8169 23.6462 51.085 23.5734C51.085 23.5734 51.2854 23.5171 51.6401 23.4128C51.8165 23.3692 52.0285 23.2882 52.2778 23.2427C52.5244 23.19 52.8099 23.1314 53.117 23.0649C53.4271 23.0178 53.7565 22.9677 54.1125 22.9121C54.4663 22.8614 54.8377 22.837 55.2282 22.7975C56.0023 22.7333 56.8259 22.7043 57.6528 22.7068C59.3016 22.7096 60.9391 22.8391 62.1635 22.9796C63.383 23.1177 64.2113 23.271 64.2113 23.271L64.2162 23.2733C64.6584 23.3541 64.9538 23.7745 64.8705 24.222C64.7894 24.6645 64.3641 24.9579 63.9219 24.8771C63.9121 24.8725 63.895 24.8705 63.8828 24.8709Z" fill="white"/>
<path d="M88.7676 60.882C88.7676 60.882 88.749 60.8192 88.731 60.7807C88.7077 60.7278 88.6632 60.6049 88.5794 60.4636C88.5099 60.317 88.3936 60.1425 88.2667 59.939C88.1255 59.7408 87.9714 59.5186 87.7684 59.2855C87.5822 59.0423 87.3379 58.8078 87.1001 58.5465C86.8338 58.3078 86.5737 58.03 86.2588 57.7925C85.9579 57.5377 85.6401 57.2809 85.2936 57.0468C84.9613 56.7952 84.6003 56.5663 84.2394 56.3374C83.8831 56.0986 83.5034 55.8969 83.1381 55.69C82.7752 55.4782 82.4008 55.291 82.0339 55.1134C81.6646 54.9406 81.3266 54.7525 80.9754 54.6182C80.6361 54.4714 80.3115 54.3316 80.0115 54.2032C79.4115 53.9466 78.8965 53.7777 78.5427 53.6362C78.1866 53.4996 77.9804 53.4272 77.9804 53.4272L77.9558 53.4156C77.6686 53.3113 77.5193 52.9892 77.631 52.6992C77.7381 52.419 78.0479 52.2697 78.3276 52.3645C78.3276 52.3645 78.5409 52.4343 78.9089 52.5584C79.2795 52.6898 79.8136 52.8436 80.4447 53.0848C80.7592 53.2079 81.1005 53.3376 81.4567 53.4742C81.8223 53.6032 82.1869 53.7858 82.5755 53.9556C82.9641 54.1254 83.3603 54.3047 83.7524 54.5182C84.1492 54.7218 84.5555 54.9179 84.9459 55.1606C85.3384 55.3863 85.7335 55.6192 86.1049 55.877C86.4832 56.12 86.8402 56.3831 87.1826 56.6514C87.5344 56.9001 87.8364 57.2035 88.1444 57.4557C88.4314 57.7401 88.7128 57.9979 88.9388 58.2717C89.1837 58.5305 89.3827 58.7977 89.5614 59.0314C89.7282 59.2776 89.8797 59.4926 89.9868 59.6868C90.1012 59.8785 90.1709 60.0372 90.2351 60.1693C90.2845 60.2945 90.313 60.3619 90.313 60.3619C90.477 60.7809 90.2728 61.2559 89.8539 61.4202C89.435 61.5845 88.9604 61.3805 88.7964 60.9615C88.7912 60.947 88.786 60.9326 88.7781 60.9109L88.765 60.8747L88.7676 60.882Z" fill="white"/>
<path d="M80.9904 71.5293C80.9904 71.5293 80.9944 71.4952 80.9998 71.4196C80.9962 71.3759 80.9969 71.3102 80.9948 71.2251C81.0027 71.1568 80.9717 70.9921 80.9558 70.8466C80.9445 70.6912 80.9132 70.5144 80.8619 70.3162C80.8106 70.1181 80.7807 69.8999 80.7068 69.6732C80.6279 69.4441 80.5488 69.2029 80.467 68.9545C80.3924 68.7034 80.2814 68.4533 80.1629 68.1937C80.0492 67.9363 79.9379 67.6741 79.8217 67.4095C79.7176 67.1446 79.558 66.8958 79.4299 66.6437C79.2946 66.3943 79.1642 66.1471 79.0365 65.9072C78.9087 65.6672 78.7908 65.4319 78.6469 65.2265C78.5125 65.0135 78.3883 64.8173 78.2716 64.6306C77.8026 63.8887 77.4933 63.3957 77.4933 63.3957L77.4729 63.3621C77.2878 63.0653 77.375 62.6738 77.6717 62.4883C77.9613 62.3055 78.3428 62.3879 78.5322 62.6627C78.5322 62.6627 78.8757 63.1597 79.3887 63.9101C79.5175 64.0965 79.6565 64.2996 79.803 64.5123C79.9568 64.7224 80.0895 64.9646 80.2392 65.2088C80.3818 65.4556 80.5318 65.712 80.6819 65.9684C80.8274 66.2346 81.0014 66.4782 81.1255 66.7644C81.2592 67.0431 81.3928 67.3218 81.5238 67.5933C81.6597 67.8671 81.7881 68.1313 81.883 68.4159C81.9874 68.693 82.0866 68.9555 82.1831 69.2109C82.2747 69.4639 82.3302 69.7301 82.3969 69.9595C82.4636 70.1888 82.5156 70.4113 82.538 70.62C82.5653 70.8309 82.6055 70.9758 82.6105 71.1703C82.6175 71.3478 82.6189 71.4986 82.6162 71.5814C82.6132 71.652 82.6092 71.6862 82.6092 71.6862C82.5843 72.1369 82.1967 72.478 81.7462 72.4534C81.2957 72.4288 80.955 72.0412 80.9798 71.5904C80.9845 71.5806 80.9818 71.5734 80.9815 71.5612L80.9855 71.527L80.9904 71.5293Z" fill="white"/>
<path d="M18.8177 24.1446C18.8177 24.1446 18.8163 24.276 18.8101 24.5073C18.8039 24.7386 18.8028 25.0744 18.8131 25.4756C18.8265 26.2805 18.8833 27.352 19.0248 28.409C19.0895 28.9377 19.188 29.4582 19.2928 29.9396C19.3404 30.1841 19.4167 30.4059 19.4709 30.6234C19.5301 30.8433 19.6103 31.0309 19.6685 31.2143C19.7244 31.4026 19.8132 31.5462 19.8705 31.6931C19.9278 31.84 19.9963 31.9502 20.0497 32.0412C20.1591 32.2305 20.2201 32.3311 20.2201 32.3311L20.2532 32.3886C20.3829 32.6115 20.3077 32.9005 20.0849 33.0305C19.8716 33.1529 19.605 33.0942 19.4637 32.896C19.4637 32.896 19.3779 32.7718 19.2264 32.5568C19.1458 32.447 19.0573 32.3155 18.9754 32.1571C18.8935 31.9987 18.7794 31.8192 18.6989 31.6194C18.6184 31.4196 18.5083 31.206 18.4268 30.9697C18.3503 30.7357 18.2468 30.4952 18.1746 30.2392C18.0179 29.7275 17.8725 29.179 17.7609 28.6224C17.5282 27.5167 17.3779 26.4015 17.2955 25.5643C17.258 25.1443 17.2295 24.7947 17.2134 24.547C17.1996 24.2943 17.1935 24.1534 17.1935 24.1534C17.1698 23.7039 17.5125 23.3178 17.9617 23.2938C18.411 23.2697 18.7967 23.6123 18.8205 24.0618C18.8234 24.0812 18.8191 24.1032 18.822 24.1226L18.8151 24.1374L18.8177 24.1446Z" fill="white"/>
</g>
</svg>
