<svg width="110" height="110" viewBox="0 0 110 110" fill="none" xmlns="http://www.w3.org/2000/svg">
<g clip-path="url(#clip0_210_761)">
<path d="M58.237 50.1065C58.4473 50.2307 58.6877 50.2945 58.932 50.2908C59.1762 50.2871 59.4146 50.216 59.621 50.0854C59.797 49.974 59.9441 49.8225 60.0503 49.6433C60.0949 49.5681 64.5596 42.0651 67.1558 38.9879C67.6256 38.4294 67.5546 37.5949 66.9961 37.1251C66.8634 37.0129 66.7099 36.928 66.5444 36.8751C66.3788 36.8223 66.2045 36.8026 66.0313 36.8173C65.8582 36.8319 65.6896 36.8805 65.5353 36.9603C65.3809 37.0402 65.2439 37.1497 65.1319 37.2826C62.3978 40.5253 57.9638 47.9776 57.7757 48.2937C57.4025 48.9209 57.6092 49.7324 58.237 50.1065ZM51.1375 36.674C51.3135 36.5625 51.4606 36.411 51.5668 36.2319C51.6115 36.1567 56.0761 28.6536 58.6723 25.5765C59.1421 25.0179 59.0711 24.1834 58.5126 23.7137C58.3799 23.6015 58.2264 23.5165 58.0609 23.4637C57.8953 23.4108 57.721 23.3912 57.5478 23.4058C57.3747 23.4204 57.2061 23.469 57.0518 23.5489C56.8974 23.6287 56.7604 23.7382 56.6484 23.8711C53.9143 27.1138 49.4803 34.5661 49.2922 34.8822C48.9191 35.5094 49.1256 36.3208 49.7535 36.6951C49.9638 36.8192 50.2043 36.883 50.4485 36.8793C50.6927 36.8755 50.9311 36.8045 51.1375 36.674Z" fill="url(#paint0_linear_210_761)"/>
<path d="M76.5458 17.4718C76.399 17.5646 76.2719 17.6855 76.1718 17.8274C76.0717 17.9693 76.0005 18.1296 75.9624 18.299C75.9242 18.4685 75.9199 18.6437 75.9495 18.8149C75.9791 18.986 76.0422 19.1496 76.1351 19.2964L103.707 62.8841C104.876 64.7326 104.323 67.1885 102.475 68.3579L75.6515 85.325L74.0248 82.7533C75.2938 81.1526 78.698 77.1387 82.8824 74.4918C92.6181 68.3334 100.593 66.3077 100.673 66.2883C100.876 66.2372 101.064 66.139 101.221 66.0016C101.379 65.8643 101.502 65.6916 101.581 65.4977C101.659 65.3033 101.69 65.0932 101.671 64.8846C101.652 64.676 101.583 64.4749 101.471 64.2979L70.365 15.1223C70.2044 14.8677 69.9617 14.6757 69.6771 14.578C69.3924 14.4803 69.0829 14.4827 68.7998 14.585C68.7998 14.585 67.7999 14.9437 66.1283 15.616C65.4529 15.8868 65.123 16.6588 65.3944 17.3353C65.6672 18.0139 66.4367 18.3425 67.1143 18.0703C67.6427 17.8576 68.1728 17.6491 68.7044 17.4448L98.2965 64.2266C95.344 65.1647 88.9588 67.5185 81.4683 72.2566C76.5988 75.3369 72.827 79.9619 71.6901 81.4401C70.007 81.6911 65.0436 82.6462 60.2332 85.689C52.5349 90.5586 46.9966 95.8395 44.6798 98.208L15.0303 51.3355C16.9151 49.375 22.6 43.7714 30.5407 38.7484C34.6156 36.1708 38.9128 35.2286 40.6469 34.9345L68.4674 78.9157C68.5926 79.1134 68.768 79.2744 68.9758 79.3822C69.1835 79.49 69.4162 79.5407 69.6499 79.5292C69.8837 79.5177 70.1102 79.4443 70.3064 79.3167C70.5025 79.189 70.6613 79.0115 70.7665 78.8024C70.8355 78.6665 77.725 65.0477 85.4814 55.5549C85.6571 55.3399 85.7607 55.0751 85.7775 54.7979C85.7943 54.5207 85.7235 54.2453 85.575 54.0107L56.5894 8.1877C56.4751 8.00707 56.3187 7.85684 56.1336 7.74991C55.9485 7.64299 55.7402 7.58255 55.5266 7.57378C55.313 7.56453 55.1004 7.60725 54.9069 7.69828C54.7135 7.78931 54.545 7.92592 54.416 8.09639C47.5954 17.1067 42.1089 28.4609 42.0536 28.5742C41.7376 29.2325 42.014 30.0231 42.6724 30.3391C43.3296 30.6558 44.1203 30.3794 44.4373 29.7204C44.4867 29.6156 49.2604 19.7389 55.3878 11.2358L82.8336 54.6245C76.8815 62.1013 71.6542 71.4685 69.4746 75.5605L42.424 32.7965C42.2926 32.5889 42.106 32.4219 41.8851 32.3143C41.6642 32.2067 41.4177 32.1627 41.1732 32.1872C40.9209 32.2139 34.9128 32.8533 29.1268 36.5132C19.0279 42.9013 12.6459 49.9976 12.3788 50.2979C12.1875 50.5122 12.0713 50.783 12.0476 51.0693C12.024 51.3556 12.0943 51.6418 12.2479 51.8845L43.3544 101.06C43.464 101.233 43.612 101.378 43.7868 101.484C43.9616 101.59 44.1586 101.654 44.3623 101.672C44.6492 101.696 44.936 101.625 45.1791 101.471C45.2819 101.406 45.3756 101.327 45.4577 101.234C45.5215 101.164 51.877 94.1047 61.6472 87.9244C65.7333 85.3397 70.0293 84.4031 71.7541 84.1116L73.4162 86.7392L46.593 103.706C44.7444 104.876 42.2885 104.323 41.1192 102.474L13.5476 58.8866C13.1574 58.2697 12.3399 58.0858 11.7231 58.476C11.1062 58.8662 10.9222 59.6836 11.3124 60.3005L38.884 103.888C40.8331 106.969 44.9257 107.891 48.0071 105.942L103.889 70.5933C106.97 68.6442 107.891 64.5516 105.942 61.4702L78.3705 17.8825C78.2777 17.7357 78.1569 17.6086 78.0149 17.5085C77.873 17.4084 77.7127 17.3373 77.5432 17.2992C77.3738 17.261 77.1985 17.2566 77.0273 17.2863C76.8562 17.3159 76.6925 17.379 76.5458 17.4718Z" fill="url(#paint1_linear_210_761)"/>
<path d="M53.9952 43.4007C54.2055 43.525 54.446 43.5887 54.6902 43.585C54.9344 43.5813 55.1728 43.5102 55.3792 43.3796C55.5552 43.2682 55.7023 43.1167 55.8085 42.9375C55.8532 42.8623 60.3178 35.3593 62.914 32.2822C63.3839 31.7236 63.3128 30.8891 62.7543 30.4194C62.6217 30.3071 62.4682 30.2222 62.3026 30.1693C62.1371 30.1165 61.9627 30.0968 61.7896 30.1115C61.6164 30.1261 61.4479 30.1747 61.2935 30.2546C61.1392 30.3344 61.0021 30.4439 60.8901 30.5768C58.156 33.8195 53.722 41.2718 53.534 41.5879C53.1607 42.2151 53.3674 43.0266 53.9952 43.4007ZM62.4788 56.8123C62.6891 56.9365 62.9296 57.0003 63.1738 56.9966C63.418 56.9929 63.6564 56.9218 63.8628 56.7912C64.0388 56.6798 64.1859 56.5283 64.2921 56.3491C64.3367 56.2739 68.8014 48.7709 71.3976 45.6938C71.8674 45.1352 71.7964 44.3007 71.2379 43.8309C71.1052 43.7187 70.9517 43.6338 70.7862 43.5809C70.6206 43.5281 70.4463 43.5084 70.2731 43.5231C70.1 43.5377 69.9314 43.5863 69.7771 43.6662C69.6227 43.746 69.4857 43.8555 69.3737 43.9884C66.6396 47.2311 62.2056 54.6834 62.0175 54.9995C61.6443 55.6267 61.851 56.4382 62.4788 56.8123ZM40.1988 46.0313C32.273 48.7773 25.7356 55.8014 25.4618 56.0982C25.3414 56.2254 25.2474 56.3752 25.1853 56.5391C25.1233 56.7029 25.0944 56.8774 25.1004 57.0525C25.1063 57.2276 25.147 57.3997 25.22 57.559C25.293 57.7182 25.397 57.8613 25.5258 57.9801C25.6546 58.0988 25.8057 58.1908 25.9703 58.2507C26.1349 58.3105 26.3098 58.3371 26.4848 58.3288C26.6598 58.3205 26.8314 58.2776 26.9896 58.2024C27.1479 58.1273 27.2896 58.0215 27.4067 57.8911C27.4681 57.8225 33.7626 51.0602 41.0657 48.5296C41.752 48.2911 42.1213 47.5364 41.8817 46.846C41.6428 46.157 40.8891 45.7918 40.1988 46.0313ZM44.4406 52.7371C36.5156 55.4843 29.9774 62.5072 29.7036 62.804C29.5831 62.9312 29.4892 63.081 29.4271 63.2449C29.3651 63.4087 29.3362 63.5832 29.3421 63.7583C29.3481 63.9334 29.3888 64.1055 29.4618 64.2648C29.5348 64.424 29.6387 64.5671 29.7675 64.6859C29.8963 64.8046 30.0475 64.8966 30.2121 64.9564C30.3767 65.0163 30.5516 65.0429 30.7266 65.0346C30.9016 65.0263 31.0732 64.9834 31.2314 64.9082C31.3897 64.8331 31.5314 64.7273 31.6484 64.5969C31.7099 64.5283 38.0043 57.766 45.3075 55.2354C45.9938 54.9969 46.3631 54.2422 46.1235 53.5518C45.8846 52.8627 45.1309 52.4976 44.4406 52.7371ZM66.7206 63.5181C66.9309 63.6423 67.1713 63.7061 67.4155 63.7024C67.6597 63.6987 67.8982 63.6276 68.1046 63.497C68.2806 63.3856 68.4277 63.2341 68.5339 63.0549C68.5785 62.9797 73.0432 55.4767 75.6394 52.3995C76.1092 51.841 76.0381 51.0065 75.4797 50.5367C75.347 50.4245 75.1935 50.3396 75.028 50.2867C74.8624 50.2339 74.6881 50.2142 74.5149 50.2289C74.3418 50.2435 74.1732 50.2921 74.0189 50.3719C73.8645 50.4518 73.7275 50.5613 73.6155 50.6942C70.8814 53.9369 66.4474 61.3892 66.2593 61.7053C65.8861 62.3325 66.0928 63.144 66.7206 63.5181ZM48.6824 59.4429C40.7574 62.1901 34.2184 69.2118 33.9454 69.5098C33.7077 69.7677 33.5821 70.1094 33.5964 70.4599C33.6106 70.8104 33.7634 71.1408 34.0212 71.3786C34.2351 71.5759 34.5081 71.6972 34.7979 71.7238C35.0877 71.7504 35.3781 71.6808 35.6244 71.5257C35.7205 71.4649 35.8092 71.3901 35.8902 71.3027C35.9517 71.2341 42.2461 64.4718 49.5493 61.9412C50.2356 61.7027 50.6048 60.948 50.3653 60.2576C50.1263 59.5685 49.3727 59.2034 48.6824 59.4429ZM57.1659 72.8545C49.2402 75.6005 42.7028 82.6246 42.4289 82.9214C42.1913 83.1793 42.0657 83.521 42.0799 83.8715C42.0942 84.222 42.247 84.5524 42.5048 84.7902C42.7187 84.9875 42.9917 85.1088 43.2814 85.1354C43.5712 85.162 43.8617 85.0924 44.1079 84.9373C44.2041 84.8765 44.2928 84.8017 44.3738 84.7143C44.4353 84.6457 50.7297 77.8834 58.0329 75.3528C58.7184 75.1131 59.0884 74.3596 58.8489 73.6692C58.6099 72.9801 57.8563 72.615 57.1659 72.8545ZM52.9241 66.1487C44.9984 68.8947 38.4602 75.9176 38.1872 76.2156C37.9495 76.4735 37.8239 76.8152 37.8381 77.1657C37.8524 77.5162 38.0052 77.8466 38.263 78.0844C38.4769 78.2817 38.7499 78.403 39.0397 78.4296C39.3294 78.4562 39.6199 78.3866 39.8662 78.2315C39.9623 78.1707 40.051 78.0959 40.132 78.0085C40.1935 77.9399 46.4879 71.1776 53.7911 68.647C54.4774 68.4085 54.8466 67.6538 54.6071 66.9634C54.3681 66.2743 53.6145 65.9092 52.9241 66.1487Z" fill="url(#paint2_linear_210_761)"/>
</g>
<defs>
<linearGradient id="paint0_linear_210_761" x1="45.7759" y1="30.6757" x2="58.1418" y2="22.8977" gradientUnits="userSpaceOnUse">
<stop stop-color="white" stop-opacity="0.12"/>
<stop offset="0.9966" stop-color="white" stop-opacity="0.01"/>
</linearGradient>
<linearGradient id="paint1_linear_210_761" x1="0.000488281" y1="42.4176" x2="67.5153" y2="0.104438" gradientUnits="userSpaceOnUse">
<stop stop-color="white" stop-opacity="0.12"/>
<stop offset="0.9966" stop-color="white" stop-opacity="0.01"/>
</linearGradient>
<linearGradient id="paint2_linear_210_761" x1="23.1807" y1="54.3572" x2="62.6044" y2="29.7067" gradientUnits="userSpaceOnUse">
<stop stop-color="white" stop-opacity="0.12"/>
<stop offset="0.9966" stop-color="white" stop-opacity="0.01"/>
</linearGradient>
<clipPath id="clip0_210_761">
<rect width="79.3483" height="79.3483" fill="white" transform="translate(0 42.4182) rotate(-32.3156)"/>
</clipPath>
</defs>
</svg>
