<svg width="71" height="81" viewBox="0 0 71 81" fill="none" xmlns="http://www.w3.org/2000/svg">
<g opacity="0.1" clip-path="url(#clip0_210_794)">
<path d="M44.8475 25C44.8963 23.7516 44.5954 22.5072 43.9637 21.3994C42.3187 18.5145 38.7492 17.2605 35.6608 18.4826C35.0611 18.719 34.4984 19.04 33.9897 19.4359C31.4339 18.6995 27.4433 19.2257 24.4422 19.8268C23.1056 20.0945 21.7934 19.6174 20.9322 18.5505C20.0828 17.4982 19.8947 16.1359 20.4293 14.9064C20.4734 14.8052 20.4974 14.7641 20.4965 14.7645L20.4962 14.7648C20.5951 14.6269 20.6549 14.4648 20.6695 14.2957C20.684 14.1266 20.6526 13.9568 20.5786 13.804C20.5047 13.6512 20.3909 13.5213 20.2493 13.4277C20.1077 13.3342 19.9435 13.2806 19.7739 13.2726C17.4949 13.1646 15.1886 13.8036 13.2799 15.0725C11.3058 16.3845 9.84897 18.2639 9.06681 20.5077C7.87832 23.9186 8.50559 27.7151 10.6415 30.5635C10.2768 30.7132 9.92566 30.8941 9.59206 31.1041C6.84534 32.8301 5.73052 36.2712 6.94133 39.2861C7.41654 40.4696 8.2043 41.4788 9.21278 42.2165C6.92471 44.9383 6.5195 48.889 8.32885 52.0537C9.37195 53.8781 11.0562 55.2531 13.071 55.9253C13.3112 56.0052 13.5547 56.0747 13.8009 56.1335L25.1037 72.9924C25.2098 73.1507 25.3613 73.2731 25.5382 73.3436C25.7152 73.4141 25.9094 73.4294 26.0952 73.3874C32.0393 72.0454 37.8364 70.0096 43.3339 67.3536C48.8315 64.6975 54.0294 61.4214 58.7749 57.5987C58.9232 57.4792 59.0319 57.3176 59.0867 57.1352C59.1415 56.9527 59.1397 56.758 59.0818 56.5765L52.8991 37.2437C53.0061 37.0143 53.1031 36.7803 53.1897 36.5425C53.9153 34.5463 53.8849 32.3724 53.1039 30.4213C51.7489 27.0371 48.402 24.8992 44.8475 25ZM16.2257 56.3617C17.3583 56.3084 18.4689 56.0297 19.4925 55.542L28.8124 70.768C27.9815 70.9931 27.1469 71.2044 26.3089 71.4016L16.2257 56.3617ZM44.2037 42.1694C45.1806 42.2712 46.1678 42.2053 47.1225 41.9746L53.4444 59.2435C52.7105 59.7575 51.9679 60.2588 51.2168 60.7472L43.9549 42.7613C44.0415 42.5656 44.1244 42.3683 44.2037 42.1694ZM49.596 61.7732C48.8488 62.2341 48.094 62.6826 47.3319 63.1184L40.5595 47.8252C41.4074 46.9488 42.1594 45.9844 42.8029 44.9485L49.596 61.7732ZM45.6748 64.0371C44.9096 64.45 44.1381 64.8511 43.3596 65.2386L36.4581 50.9536C37.3887 50.442 38.2707 49.8464 39.0929 49.1742L45.6748 64.0371ZM41.6606 66.0596C40.8731 66.4283 40.0796 66.784 39.2804 67.1266L31.7274 52.7329C32.7651 52.5065 33.7798 52.1858 34.759 51.7746L41.6606 66.0596ZM29.759 53.0431L37.5306 67.8536C36.7156 68.1797 35.8951 68.4923 35.0697 68.7912L26.1112 53.0127C27.3226 53.1524 28.5455 53.1627 29.759 53.0431ZM23.6819 52.5562L33.2586 69.4235C32.4097 69.7081 31.556 69.9782 30.6979 70.2336L21.0969 54.5484C21.871 53.9439 22.5361 53.2116 23.0635 52.3831C23.2686 52.4445 23.4748 52.5022 23.6819 52.5562ZM57.086 56.5323C56.4111 57.0659 55.7274 57.5881 55.0351 58.0988L48.8982 41.3352C49.9164 40.8365 50.8249 40.1397 51.5706 39.2856L57.086 56.5323ZM51.3515 31.1227C51.9598 32.6425 51.9826 34.3384 51.4158 35.8979C50.849 37.4572 49.7425 38.7441 48.3 39.5213C46.8972 40.2774 45.3303 40.5118 43.7738 40.1966C43.5499 40.1513 43.3171 40.1888 43.1187 40.302C42.9204 40.4153 42.7698 40.5967 42.695 40.8125C41.3375 44.7319 38.5333 47.8839 34.7989 49.6881C31.0646 51.4923 26.8524 51.7302 22.9381 50.3578C22.8208 50.3166 22.6966 50.299 22.5725 50.306C22.4484 50.313 22.327 50.3445 22.2151 50.3986C22.035 50.4857 21.8816 50.6301 21.785 50.8201C21.0647 52.2352 19.9082 53.3165 18.443 53.9461C16.9376 54.5931 15.2418 54.6601 13.6678 54.135C12.0939 53.6098 10.7793 52.538 9.96695 51.1168C8.39285 48.3638 8.96249 44.8506 11.3189 42.7493C11.4844 42.6016 11.6101 42.4095 11.6489 42.191C11.6866 41.9859 11.6554 41.7741 11.5602 41.5886C11.465 41.4031 11.3112 41.2542 11.1226 41.1652C10.0146 40.6433 9.15166 39.726 8.69231 38.5825C7.83595 36.45 8.65434 33.9218 10.596 32.7016L10.6359 32.6768C11.3881 32.2136 12.2803 32.0359 13.1582 32.1352C14.2206 32.2553 16.0377 32.3597 18.3561 32.1019C20.7418 31.8366 24.0063 31.1343 27.6051 29.3956C29.1185 28.6644 30.6915 27.7495 32.2823 26.6074C32.7044 26.3044 32.8414 25.7159 32.5496 25.2858C32.4788 25.1812 32.3879 25.0919 32.282 25.0232C32.1761 24.9545 32.0575 24.9077 31.9332 24.8857C31.809 24.8636 31.6815 24.8667 31.5585 24.8948C31.4354 24.9229 31.3193 24.9754 31.2169 25.0492C26.1946 28.6658 21.3837 29.8556 18.2318 30.2169C15.4786 30.5325 13.4744 30.2897 12.7812 30.1795C10.5195 27.7755 9.75931 24.2557 10.849 21.1286C11.9921 17.8492 14.9747 15.548 18.3614 15.1949C18.0157 16.7805 18.4001 18.4181 19.4638 19.7357C20.7552 21.3353 22.8049 22.0792 24.8128 21.677C28.943 20.8497 32.2239 20.7375 33.8219 21.3685C34.1673 21.5049 34.5617 21.4449 34.834 21.1925C35.2773 20.7823 35.7931 20.4582 36.3551 20.237C38.5756 19.3585 41.0608 20.3081 42.3243 22.3338C44.3966 25.6556 40.6034 36.786 23.3268 40.6987C23.2036 40.7266 23.0873 40.7789 22.9847 40.8525C22.8822 40.9262 22.7954 41.0196 22.7297 41.1274C22.6639 41.2352 22.6204 41.3551 22.6018 41.48C22.5832 41.6049 22.5899 41.7322 22.6214 41.8545C22.7496 42.3538 23.2755 42.6457 23.7781 42.5314C27.1248 41.771 29.9308 40.7565 32.2793 39.6218C36.6515 37.5095 39.4353 34.9808 41.1531 32.9045C43.2908 30.3206 44.1778 28.01 44.5088 26.9089C47.4284 26.6516 50.243 28.353 51.3515 31.1227Z" fill="white"/>
</g>
<defs>
<clipPath id="clip0_210_794">
<rect width="60.2483" height="60.2483" fill="white" transform="translate(-10 26.2095) rotate(-25.7867)"/>
</clipPath>
</defs>
</svg>
