<svg width="86" height="86" viewBox="0 0 86 86" fill="none" xmlns="http://www.w3.org/2000/svg">
<g opacity="0.2" clip-path="url(#clip0_210_797)">
<path d="M62.0315 51.8494C63.2302 51.4972 64.3135 50.8149 65.1617 49.8626C67.3708 47.3829 67.42 43.5999 65.2762 41.063C64.8608 40.5702 64.377 40.1393 63.8395 39.7836C63.7216 37.1264 61.9494 33.5124 60.4219 30.8601C59.7416 29.6789 59.775 28.283 60.5113 27.1264C61.2375 25.9855 62.4685 25.3725 63.8043 25.4868C63.9143 25.4963 63.9609 25.5059 63.9602 25.5052L63.9599 25.505C64.1221 25.5547 64.2948 25.5597 64.4597 25.5195C64.6246 25.4793 64.7756 25.3953 64.8967 25.2765C65.0179 25.1577 65.1048 25.0083 65.1482 24.8443C65.1917 24.6802 65.19 24.5075 65.1435 24.3443C64.5185 22.15 63.1769 20.1682 61.3653 18.7643C59.4918 17.3121 57.2457 16.5313 54.8697 16.5061C51.2578 16.4683 47.8601 18.2744 45.8423 21.2077C45.584 20.9098 45.3005 20.6348 44.995 20.3857C42.4826 18.3334 38.8658 18.3751 36.3949 20.4848C35.425 21.3128 34.7199 22.3815 34.3427 23.5727C31.033 22.2729 27.1595 23.1497 24.7378 25.8745C23.3417 27.4453 22.5762 29.4802 22.582 31.6042C22.583 31.8573 22.5949 32.1103 22.6177 32.3624L10.2476 48.4546C10.1315 48.6056 10.0638 48.7882 10.0535 48.9785C10.0432 49.1687 10.0907 49.3576 10.1898 49.5203C13.3586 54.7252 17.138 59.5694 21.4097 63.9319C25.6814 68.2943 30.445 72.1748 35.5823 75.4521C35.7429 75.5546 35.9307 75.606 36.1211 75.5997C36.3115 75.5934 36.4956 75.5296 36.649 75.4167L52.9977 63.3874C53.2492 63.4157 53.5019 63.4329 53.755 63.4391C55.8783 63.4896 57.9288 62.7671 59.5287 61.4042C62.3035 59.04 63.2614 55.1859 62.0315 51.8494ZM23.1753 34.7332C23.5873 35.7896 24.2059 36.7531 24.9948 37.5675L13.5394 51.2594C13.0608 50.5438 12.5943 49.8203 12.1399 49.0891L23.1753 34.7332ZM45.5544 56.7188C45.7698 57.6771 46.1473 58.5916 46.6706 59.4227L32.3223 70.9253C31.6011 70.3939 30.889 69.85 30.1864 69.2941L44.9141 56.6719C45.1272 56.6915 45.3407 56.7071 45.5544 56.7188ZM28.6968 68.0855C28.0215 67.5245 27.3556 66.9523 26.6993 66.3691L39.0314 55.0701C40.1326 55.594 41.2866 55.9989 42.4737 56.2781L28.6968 68.0855ZM25.2998 65.0919C24.6643 64.4985 24.038 63.8953 23.4223 63.2812L34.7576 52.1816C35.5395 52.9003 36.3854 53.5461 37.2849 54.1108L25.2998 65.0919ZM22.102 61.933C21.5012 61.3044 20.9108 60.6659 20.3311 60.0178L31.5617 48.2662C32.1074 49.1773 32.7352 50.0366 33.4373 50.8334L22.102 61.933ZM30.6395 46.4997L19.0838 58.5916C18.5145 57.9233 17.9564 57.2455 17.4098 56.5586L29.5041 43.0329C29.7583 44.2256 30.1389 45.3878 30.6395 46.4997ZM29.1614 40.585L16.2326 55.044C15.6919 54.3304 15.1635 53.6075 14.6476 52.8757L26.4484 38.771C27.2684 39.3116 28.1746 39.7083 29.1281 39.9437C29.1354 40.1577 29.1465 40.3715 29.1614 40.585ZM36.0539 73.5112C35.3329 73.0419 34.6198 72.5606 33.9149 72.0675L47.8433 60.9016C48.6409 61.7073 49.5912 62.346 50.6386 62.7801L36.0539 73.5112ZM58.3047 59.9673C57.0585 61.0288 55.4586 61.5916 53.7998 61.5522C52.141 61.5126 50.5684 60.8747 49.3714 59.7558C48.2071 58.6676 47.4849 57.2574 47.2869 55.6817C47.2584 55.455 47.1486 55.2464 46.9779 55.0946C46.8073 54.9427 46.5873 54.8579 46.3589 54.8559C42.2112 54.8202 38.3291 53.1686 35.4274 50.2053C32.5259 47.2421 30.9561 43.326 31.0075 39.1784C31.0091 39.0542 30.9862 38.9308 30.9399 38.8155C30.8937 38.7001 30.8251 38.5951 30.738 38.5064C30.5981 38.3634 30.4122 38.2642 30.2014 38.2333C28.6304 38.0022 27.2365 37.2513 26.1722 36.0637C25.0787 34.8434 24.4739 33.2577 24.4693 31.5985C24.4647 29.9392 25.0609 28.3513 26.1485 27.1279C28.2552 24.7575 31.7664 24.1761 34.5099 25.7387C34.7026 25.8484 34.9249 25.9062 35.1443 25.8733C35.3507 25.8435 35.5415 25.7464 35.6869 25.597C35.8324 25.4475 35.9243 25.2542 35.9485 25.0471C36.0895 23.8305 36.6834 22.7199 37.6205 21.9197C39.3683 20.4275 42.0254 20.3962 43.8015 21.847L43.8377 21.8768C44.5168 22.4419 44.9698 23.2307 45.156 24.0944C45.3812 25.1395 45.8621 26.895 46.8464 29.0099C47.8592 31.1861 49.5666 34.0557 52.363 36.9115C53.5389 38.1124 54.908 39.3111 56.498 40.4542C56.9199 40.7576 57.5213 40.6996 57.8359 40.2858C57.9124 40.1854 57.9679 40.0706 57.9993 39.9484C58.0306 39.8261 58.0371 39.6988 58.0183 39.574C57.9996 39.4491 57.956 39.3294 57.8901 39.2217C57.8242 39.1141 57.7373 39.0207 57.6347 38.9472C52.6044 35.3418 49.9414 31.1622 48.5932 28.2905C47.4154 25.7819 47.0059 23.8051 46.889 23.113C48.4456 20.2023 51.5387 18.3585 54.85 18.3932C58.3227 18.4299 61.4554 20.5221 62.871 23.6191C61.2579 23.7975 59.8286 24.6845 58.9194 26.113C57.8156 27.8474 57.7647 30.0273 58.7868 31.8019C60.889 35.452 62.0424 38.5255 61.9544 40.2413C61.9353 40.6122 62.118 40.9668 62.4442 41.1444C62.9744 41.4336 63.4461 41.819 63.8351 42.2809C65.3764 44.105 65.2695 46.7633 63.753 48.6072C61.2663 51.6313 49.5073 51.5886 40.2855 36.4642C40.2198 36.3564 40.1331 36.2628 40.0306 36.1891C39.9281 36.1154 39.8118 36.0631 39.6886 36.0351C39.5655 36.0072 39.438 36.0042 39.3137 36.0265C39.1894 36.0487 39.0709 36.0957 38.9651 36.1645C38.5328 36.4454 38.424 37.0369 38.6927 37.4768C40.4814 40.4058 42.3384 42.7413 44.1632 44.6049C47.5605 48.0743 50.8453 49.9055 53.3613 50.8709C56.4923 52.0721 58.9651 52.1753 60.1143 52.1376C61.2899 54.8225 60.5758 58.0328 58.3047 59.9673Z" fill="white"/>
</g>
<defs>
<clipPath id="clip0_210_797">
<rect width="60.2483" height="60.2483" fill="white" transform="translate(43.6768 0.629395) rotate(45.6021)"/>
</clipPath>
</defs>
</svg>
