<svg width="55" height="55" viewBox="0 0 55 55" fill="none" xmlns="http://www.w3.org/2000/svg">
<g opacity="0.2" clip-path="url(#clip0_230_8397)">
<path d="M40.5692 18.4998C40.8237 17.5897 40.8201 16.6214 40.5492 15.6957C39.8438 13.285 37.4368 11.7375 34.9504 12.096C34.4678 12.165 33.9976 12.3027 33.554 12.5049C31.8023 11.5157 28.7738 11.2043 26.4604 11.1213C25.4301 11.0843 24.548 10.5036 24.1012 9.56777C23.6603 8.64474 23.7604 7.60943 24.369 6.79839C24.4192 6.73162 24.444 6.70559 24.4433 6.70574L24.443 6.70591C24.5399 6.62172 24.6123 6.51296 24.6526 6.39108C24.6929 6.26919 24.6995 6.13871 24.6719 6.01336C24.6442 5.88801 24.5832 5.77245 24.4954 5.67884C24.4076 5.58523 24.2961 5.51705 24.1728 5.48147C22.5148 5.0031 20.7059 5.06952 19.0794 5.66905C17.3971 6.28885 15.9962 7.41676 15.0279 8.93083C13.5563 11.2326 13.3533 14.1358 14.4263 16.6056C14.1317 16.6519 13.8417 16.7235 13.5594 16.8197C11.2362 17.6089 9.8136 19.9457 10.1767 22.3761C10.3192 23.33 10.7222 24.2106 11.3351 24.9299C9.1751 26.532 8.18535 29.3681 8.96271 32.0135C9.41087 33.5384 10.4094 34.845 11.7743 35.6923C11.937 35.7931 12.104 35.8869 12.2749 35.9733L17.6404 50.3568C17.6907 50.4918 17.7808 50.6084 17.8987 50.6912C18.0166 50.7741 18.1568 50.8193 18.3009 50.8209C22.9094 50.874 27.5313 50.3909 32.0415 49.3989C36.5516 48.4069 40.9497 46.9062 45.1106 44.9242C45.2407 44.8622 45.3489 44.7623 45.4212 44.6377C45.4934 44.513 45.5263 44.3694 45.5154 44.2257L44.3504 28.9182C44.4693 28.7682 44.5816 28.613 44.6869 28.4531C45.5702 27.1113 45.9285 25.5065 45.6954 23.9341C45.2907 21.2068 43.2023 19.0478 40.5692 18.4998ZM14.0192 36.5656C14.8619 36.7247 15.7278 36.714 16.5663 36.5343L20.7587 49.3692C20.1079 49.3894 19.4568 49.3988 18.8057 49.3972L14.0192 36.5656ZM37.09 31.0205C37.791 31.2664 38.5289 31.3907 39.2717 31.388L40.9005 45.2013C40.2705 45.451 39.6363 45.6899 38.9982 45.9177L36.8033 31.4124C36.9013 31.2836 36.9968 31.1529 37.09 31.0205ZM37.626 46.389C36.9955 46.5974 36.3616 46.7952 35.7246 46.9825L33.4184 34.5441C34.1958 34.0476 34.9179 33.4697 35.5728 32.8201L37.626 46.389ZM34.3445 47.3684C33.7091 47.5383 33.0712 47.6983 32.4306 47.8472L29.853 36.1281C30.6273 35.9145 31.3805 35.6307 32.1032 35.28L34.3445 47.3684ZM31.0367 48.1539C30.3927 48.2873 29.7466 48.4101 29.0985 48.5223L26.0607 36.6091C26.8638 36.6242 27.6666 36.5658 28.4591 36.4347L31.0367 48.1539ZM24.558 36.4928L27.6838 48.7509C27.027 48.8482 26.3686 48.9346 25.7089 49.01L21.8792 35.8319C22.7461 36.1468 23.6441 36.3684 24.558 36.4928ZM20.1717 35.0708L24.2656 49.1582C23.5912 49.2191 22.9157 49.2684 22.2396 49.3061L17.9208 36.0841C18.5962 35.7748 19.2138 35.3524 19.747 34.8351C19.8871 34.9162 20.0287 34.9948 20.1717 35.0708ZM44.0546 43.8439C43.4646 44.1183 42.8701 44.3829 42.2713 44.6375L40.6902 31.2284C41.5268 31.0397 42.3172 30.686 43.0154 30.1881L44.0546 43.8439ZM44.2831 24.1434C44.4647 25.3682 44.1846 26.62 43.4945 27.6683C42.8045 28.7164 41.7651 29.4696 40.5676 29.7891C39.403 30.0998 38.2091 29.998 37.119 29.4936C36.9621 29.421 36.7843 29.4079 36.6185 29.4565C36.4527 29.5051 36.3102 29.6122 36.2174 29.7579C34.5324 32.4042 31.9173 34.2326 28.8537 34.9064C25.7901 35.5803 22.6491 35.0179 20.0091 33.3229C19.9301 33.2721 19.8418 33.2374 19.7492 33.2208C19.6567 33.2043 19.5618 33.2062 19.4701 33.2264C19.3223 33.2589 19.1841 33.3384 19.0798 33.4612C18.302 34.3764 17.2618 34.9696 16.0735 35.1764C14.8525 35.3889 13.593 35.1413 12.5269 34.4795C11.4606 33.8175 10.681 32.7987 10.332 31.6108C9.65573 29.3096 10.6899 26.8243 12.7916 25.6906C12.9392 25.6109 13.0653 25.4915 13.1321 25.3376C13.1957 25.1933 13.2099 25.032 13.1723 24.8788C13.1347 24.7256 13.0476 24.5891 12.9244 24.4906C12.2005 23.9127 11.7261 23.0867 11.5883 22.1649C11.3315 20.4458 12.3762 18.7288 14.0185 18.1709L14.0522 18.1596C14.6868 17.9504 15.3744 17.9759 16.003 18.2026C16.7636 18.477 18.0824 18.8719 19.8335 19.088C21.6353 19.3104 24.1603 19.3651 27.1127 18.7158C28.3542 18.4427 29.6718 18.0448 31.0422 17.483C31.4059 17.3339 31.6097 16.9248 31.4703 16.5573C31.4365 16.468 31.3852 16.3863 31.3193 16.3172C31.2535 16.2481 31.1744 16.1929 31.0868 16.155C30.9992 16.117 30.9049 16.097 30.8095 16.0961C30.714 16.0952 30.6193 16.1135 30.5311 16.1499C26.2025 17.9319 22.4544 17.9652 20.072 17.6793C17.9908 17.4296 16.5587 16.9001 16.0679 16.6977C14.8246 14.5328 14.8813 11.8099 16.2305 9.69966C17.6457 7.48675 20.2431 6.31562 22.797 6.64863C22.265 7.75483 22.2612 9.02712 22.8132 10.1828C23.4834 11.5859 24.8614 12.492 26.4092 12.5475C29.5931 12.6618 32.0268 13.1536 33.0922 13.8976C33.3225 14.0584 33.6231 14.0833 33.8677 13.9453C34.2657 13.721 34.702 13.5729 35.1542 13.5085C36.9418 13.2508 38.6042 14.3846 39.1794 16.0963C40.1227 18.9032 35.3832 26.429 21.986 26.2837C21.8905 26.2827 21.7958 26.3008 21.7074 26.3371C21.6191 26.3733 21.5389 26.4269 21.4716 26.4947C21.4043 26.5625 21.3514 26.6431 21.3158 26.7317C21.2803 26.8203 21.2629 26.9152 21.2646 27.0107C21.2716 27.4005 21.6074 27.7074 21.9973 27.7113C24.5929 27.7376 26.8352 27.4823 28.7618 27.0585C32.3487 26.2696 34.8397 24.8963 36.4672 23.6692C38.4924 22.1422 39.5495 20.5973 39.9858 19.845C42.1792 20.1668 43.9523 21.9114 44.2831 24.1434Z" fill="white"/>
</g>
<defs>
<clipPath id="clip0_230_8397">
<rect width="45.5684" height="45.5684" fill="white" transform="translate(0 9.78857) rotate(-12.4046)"/>
</clipPath>
</defs>
</svg>
