<svg width="75" height="75" viewBox="0 0 75 75" fill="none" xmlns="http://www.w3.org/2000/svg">
<path d="M74.981 27.4126C74.9613 20.6629 72.4505 14.158 67.9303 9.14532C67.6208 8.76504 67.2921 8.40083 66.9454 8.05411C62.1675 3.27957 55.7922 0.441393 49.047 0.0860279C48.5335 0.0294586 48.0174 0.000659346 47.5008 -0.000244141C47.4708 -0.000244141 47.4471 0.014696 47.4183 0.0160143C40.6674 0.0360783 34.1613 2.54717 29.1474 7.06791C28.7679 7.37875 28.4037 7.70787 28.0562 8.05411C23.2832 12.8308 20.446 19.2043 20.0906 25.9476C20.0337 26.4622 20.0045 26.9796 20.0032 27.4974C20.0032 27.5274 20.0181 27.5523 20.0207 27.5823C20.0391 33.5422 21.9981 39.3338 25.6015 44.081L1.09597 68.5854C0.572262 69.1123 0.21624 69.7824 0.0727792 70.5112C-0.0706813 71.2401 0.00484179 71.9951 0.289828 72.6811C0.574815 73.3671 1.05651 73.9534 1.67419 74.366C2.29187 74.7787 3.01789 74.9992 3.76074 74.9999C4.25331 75.0006 4.74117 74.904 5.19633 74.7157C5.65149 74.5274 6.06497 74.2511 6.41305 73.9025L30.9197 49.3959C35.2694 52.6919 40.5053 54.612 45.9547 54.9092C46.468 54.9657 46.9842 54.9946 47.5008 54.9955C47.5308 54.9955 47.5546 54.9805 47.5833 54.9792C54.3343 54.9592 60.8403 52.4481 65.8542 47.9273C66.2341 47.6169 66.5983 47.2878 66.9454 46.9411C71.7184 42.1644 74.5556 35.7909 74.911 29.0477C74.968 28.533 74.9971 28.0156 74.9985 27.4978C74.9985 27.4677 74.9835 27.4426 74.981 27.4126ZM65.1781 9.82159C65.4668 10.1103 65.7193 10.4229 65.9917 10.7228C69.6348 15.1942 69.5352 21.6376 65.7558 25.9943C61.9762 30.351 55.6116 31.3593 50.6706 28.3838C53.0878 27.8415 55.3233 26.6824 57.1594 25.0194C58.9955 23.3564 60.3696 21.2463 61.1479 18.8945C61.9262 16.5427 62.0822 14.0294 61.6006 11.5994C61.1191 9.16937 60.0164 6.90552 58.3999 5.02829C60.9123 6.23438 63.2037 7.85479 65.1781 9.82159ZM47.5008 2.51087C47.9307 2.51087 48.3594 2.55086 48.7882 2.5721C54.5093 3.18816 58.9636 7.82093 59.3545 13.5619C59.7454 19.3029 55.9603 24.4966 50.3755 25.8827C51.7004 23.7907 52.4611 21.3914 52.5838 18.9181C52.7065 16.4449 52.1868 13.9821 51.0755 11.7693C49.9641 9.55644 48.2988 7.66898 46.2417 6.29055C44.1846 4.91213 41.8057 4.08968 39.3365 3.90324C41.9622 2.99073 44.7211 2.52022 47.5008 2.51087ZM29.8235 9.82159L29.8222 9.82657C34.0601 5.58503 40.7963 5.17125 45.5215 8.8622C50.2467 12.5531 51.4762 19.1891 48.387 24.3279C47.8446 21.9106 46.6853 19.675 45.0222 17.8389C43.359 16.0027 41.2487 14.6286 38.8967 13.8504C36.5447 13.0722 34.0313 12.9165 31.6012 13.3983C29.1711 13.8801 26.9072 14.9831 25.0301 16.5999C26.2371 14.088 27.8574 11.7967 29.8235 9.82159ZM23.9065 35.6607C22.8628 32.6255 22.4109 29.4183 22.5754 26.2128C23.193 20.4922 27.8265 16.0395 33.5674 15.6497C39.3082 15.2599 44.5008 19.0458 45.886 24.6305C43.7947 23.3051 41.396 22.5436 38.9232 22.4202C36.4504 22.2967 33.9878 22.8155 31.7749 23.926C29.5621 25.0365 27.6744 26.7009 26.2955 28.7573C24.9167 30.8136 24.0937 33.1919 23.9065 35.6607ZM4.64572 72.1351C4.52856 72.2525 4.38919 72.3454 4.23574 72.4085C4.08229 72.4715 3.91783 72.5034 3.75194 72.5022C3.58606 72.501 3.42206 72.4668 3.26952 72.4016C3.11698 72.3364 2.97894 72.2415 2.86345 72.1225C2.74704 72.0063 2.65469 71.8684 2.59168 71.7165C2.52866 71.5647 2.49623 71.4019 2.49623 71.2375C2.49623 71.0731 2.52866 70.9103 2.59168 70.7584C2.65469 70.6065 2.74704 70.4686 2.86345 70.3525L27.2114 46.0046C27.4788 46.3246 27.7564 46.6407 28.0564 46.9407C28.3563 47.2407 28.6813 47.5031 28.9938 47.7869L4.64572 72.1351ZM29.8235 45.1736L29.8222 45.1786C29.5335 44.8899 29.281 44.5775 29.0086 44.2774C25.3655 39.806 25.4651 33.3626 29.2445 29.0059C33.0241 24.6492 39.3887 23.6411 44.3297 26.6164C41.9124 27.1585 39.6767 28.3175 37.8405 29.9805C36.0043 31.6435 34.6302 33.7538 33.852 36.1057C33.0737 38.4577 32.918 40.9711 33.3998 43.4011C33.8817 45.8312 34.9848 48.0949 36.6017 49.9719C34.0888 48.7645 31.7974 47.1424 29.8235 45.1736ZM46.211 52.4218L46.2097 52.4281C40.4909 51.8077 36.0413 47.1742 35.6525 41.4349C35.2638 35.6959 39.0482 30.5046 44.631 29.1188C43.3063 31.2104 42.5454 33.6092 42.4225 36.082C42.2995 38.5547 42.8187 41.0172 43.9294 43.2298C45.04 45.4425 46.7045 47.33 48.7607 48.7089C50.817 50.0877 53.1952 50.9109 55.6638 51.0983C52.6265 52.1397 49.4176 52.589 46.211 52.4218ZM65.1781 45.1736L65.1768 45.1786C60.9387 49.4294 54.1938 49.846 49.4649 46.149C44.7359 42.452 43.5124 35.806 46.6147 30.6673C47.157 33.0847 48.3162 35.3203 49.9793 37.1565C51.6424 38.9927 53.7528 40.3669 56.1048 41.1451C58.4569 41.9233 60.9703 42.079 63.4005 41.5971C65.8306 41.1153 68.0944 40.0122 69.9715 38.3954C68.7645 40.9073 67.1442 43.1986 65.1781 45.1736ZM72.4263 28.7825V28.7875C71.8086 34.5081 67.1751 38.9609 61.4343 39.3507C55.6936 39.7404 50.5008 35.9547 49.1157 30.3699C51.2069 31.6952 53.6056 32.4567 56.0784 32.5801C58.5511 32.7036 61.0137 32.1848 63.2266 31.0743C65.4394 29.9638 67.3271 28.2994 68.7059 26.243C70.0848 24.1867 70.9078 21.8084 71.095 19.3396C72.1381 22.3733 72.59 25.5788 72.4263 28.7825Z" fill="url(#paint0_linear_216_968)"/>
<defs>
<linearGradient id="paint0_linear_216_968" x1="0.00195312" y1="-0.000244141" x2="84.7328" y2="61.6132" gradientUnits="userSpaceOnUse">
<stop stop-color="#FC466B" stop-opacity="0.2"/>
<stop offset="1" stop-color="#3F5EFB" stop-opacity="0.2"/>
</linearGradient>
</defs>
</svg>
