<svg width="77" height="77" viewBox="0 0 77 77" fill="none" xmlns="http://www.w3.org/2000/svg">
<path d="M68.6751 27.6619L67.6274 27.6582C68.5313 26.2478 69.6923 24.7432 71.2196 22.8553C71.3341 22.7141 71.4063 22.5433 71.4277 22.3628C71.4491 22.1822 71.4189 21.9993 71.3406 21.8352C71.2623 21.6711 71.1391 21.5326 70.9853 21.4357C70.8314 21.3388 70.6533 21.2874 70.4715 21.2876H15.3072C15.1331 21.2876 14.9622 21.3349 14.8129 21.4244C14.6635 21.5139 14.5412 21.6422 14.459 21.7958C14.3769 21.9493 14.3379 22.1222 14.3464 22.2962C14.3548 22.4701 14.4102 22.6385 14.5068 22.7834L15.2801 23.9398C17.4659 27.2016 18.8085 29.2186 19.7871 32.1433C19.5683 33.0016 18.8303 34.4945 16.3294 35.0958C13.2117 35.847 11.3509 37.7826 11.3509 40.274C11.3509 41.1442 11.5633 41.979 11.959 42.7185C9.09966 43.273 6.93435 45.7958 6.93435 48.8146C6.93435 50.4814 7.64942 52.0188 8.78893 53.1474H7.43362L6.95108 53.1437H6.89826C5.09632 53.1437 3.40227 53.8414 2.12177 55.1118C0.82868 56.3953 0.117188 58.1046 0.117188 59.9264C0.117188 62.9025 2.24377 65.4321 5.00252 65.9387L6.9586 76.2173C7.00055 76.4374 7.11795 76.636 7.29057 76.7789C7.46319 76.9217 7.68023 76.9999 7.90431 77H33.8363C34.0606 77 34.278 76.9217 34.4507 76.7785C34.6234 76.6353 34.7406 76.4362 34.7822 76.2158L35.5612 72.0825H53.9874C54.875 72.0825 55.7047 71.6874 56.2644 70.9986C56.8232 70.3099 57.0398 69.417 56.8649 68.588L55.8245 62.3171C60.253 59.223 62.8744 54.774 63.4926 49.258C64.8797 45.6968 67.0202 45.1071 69.4985 44.4287C70.6967 44.0997 71.9369 43.7604 73.1022 43.0606C75.6502 41.5325 77.1869 38.7189 77.1114 35.7178C76.9976 31.2938 73.2139 27.6803 68.6751 27.6619ZM13.2917 53.0997C10.8894 53.0997 8.85886 51.1372 8.85886 48.8146C8.85886 46.453 10.7813 44.5306 13.1434 44.5306C13.3506 44.5306 13.5767 44.5505 13.8308 44.5917C14.0428 44.6265 14.2603 44.5892 14.4485 44.4858C14.6367 44.3823 14.7848 44.2187 14.869 44.0212C14.9535 43.8241 14.9698 43.6045 14.9154 43.3972C14.861 43.1899 14.739 43.0066 14.5687 42.8764C13.7463 42.25 13.2758 41.3006 13.2758 40.274C13.2758 38.1315 15.4713 37.2833 16.7804 36.9683C20.2271 36.1385 21.3095 33.9409 21.6501 32.6072C23.0953 32.9694 24.1688 34.2785 24.1688 35.8338C24.1688 36.3245 24.0602 36.8038 23.8449 37.2591C23.7687 37.4194 23.7384 37.5978 23.7574 37.7744C23.7765 37.9509 23.8441 38.1187 23.9528 38.2591C24.0609 38.4002 24.2062 38.5084 24.3724 38.5714C24.5385 38.6345 24.719 38.6499 24.8935 38.6161C27.1302 38.1952 28.982 39.8923 28.982 41.9989C28.982 42.833 28.6758 43.6407 28.1199 44.2715C27.8614 44.5637 27.8409 44.9808 28.0128 45.3317C28.1861 45.6821 28.587 45.8855 28.9761 45.8633C29.0254 45.8596 29.0731 45.856 29.1229 45.856C31.1202 45.856 32.7453 47.4801 32.7453 49.4776C32.7453 51.475 31.1202 53.0999 29.1229 53.0999C29.0385 53.0999 28.963 53.1269 28.8852 53.1474H13.5297C13.4519 53.1269 13.3763 53.0997 13.2917 53.0997ZM2.04188 59.9264C2.04188 58.6215 2.55224 57.3968 3.47802 56.4782C4.39441 55.5684 5.60818 55.0684 6.89845 55.0684H6.93586L7.42197 55.0729H34.6081C37.3608 55.0729 39.6085 57.2771 39.6769 60.0139C39.6716 60.0567 39.6689 60.0998 39.6688 60.143C39.6688 62.332 37.883 64.1125 35.6875 64.1125C33.4919 64.1125 31.7061 62.332 31.7061 60.143C31.7061 59.8877 31.6047 59.6428 31.4242 59.4623C31.2437 59.2818 30.9988 59.1804 30.7435 59.1804C30.4882 59.1804 30.2433 59.2818 30.0628 59.4623C29.8823 59.6428 29.7809 59.8877 29.7809 60.143C29.7809 62.332 27.9951 64.1125 25.7995 64.1125C23.604 64.1125 21.8182 62.332 21.8182 60.143C21.8182 59.8877 21.7168 59.6428 21.5362 59.4623C21.3557 59.2818 21.1108 59.1804 20.8555 59.1804C20.6002 59.1804 20.3554 59.2818 20.1749 59.4623C19.9943 59.6428 19.8929 59.8877 19.8929 60.143C19.8929 62.332 18.1071 64.1125 15.9116 64.1125C13.7162 64.1125 11.9304 62.332 11.9304 60.143C11.9304 59.8878 11.829 59.643 11.6486 59.4626C11.4681 59.2821 11.2234 59.1807 10.9681 59.1807C10.7129 59.1807 10.4682 59.2821 10.2877 59.4626C10.1073 59.643 10.0059 59.8878 10.0059 60.143C10.0059 61.2239 9.57787 62.2342 8.80096 62.9884C8.02105 63.7446 6.98943 64.1582 5.89973 64.1104C3.77258 64.0465 2.04188 62.1696 2.04188 59.9264ZM33.0389 75.0755H8.7004L6.96537 65.9579C8.15545 65.7684 9.25681 65.228 10.1411 64.3695C10.4536 64.0674 10.7318 63.7318 10.9708 63.3687C12.0266 64.974 13.8468 66.0372 15.9118 66.0372C17.978 66.0372 19.8004 64.9732 20.8555 63.3651C21.9116 64.9732 23.734 66.0372 25.7997 66.0372C27.8654 66.0372 29.6876 64.9732 30.7435 63.3651C31.1955 64.0524 31.7859 64.6378 32.477 65.0838C33.1681 65.5299 33.9447 65.8268 34.7572 65.9556L33.0389 75.0755ZM54.9735 68.9435C55.0045 69.0902 55.0023 69.242 54.967 69.3877C54.9316 69.5335 54.8641 69.6694 54.7694 69.7856C54.6751 69.9021 54.5559 69.9959 54.4206 70.0604C54.2853 70.1248 54.1372 70.1581 53.9874 70.1578H35.924L36.7183 65.9415C37.0041 65.8917 37.2823 65.8205 37.5526 65.7302C39.2931 66.1498 41.0769 66.3632 42.8672 66.3661H42.9122C46.2965 66.3601 49.6822 65.5898 52.7067 64.1375C53.165 63.9165 53.6159 63.6804 54.0586 63.4298L54.9735 68.9435ZM51.874 62.4025C49.1 63.7345 45.9941 64.4394 42.8894 64.4415C41.9011 64.4409 40.9149 64.3616 39.9389 64.2219C40.9273 63.1961 41.5522 61.8196 41.5918 60.2966C41.5999 60.2458 41.6037 60.1951 41.6037 60.1424C41.6037 56.2851 38.4652 53.1474 34.6081 53.1474H33.271C34.1382 52.1686 34.6705 50.8851 34.6705 49.4776C34.6705 46.8863 32.8832 44.7039 30.4777 44.0982C30.7608 43.4345 30.9069 42.7205 30.9072 41.9989C30.9072 39.2035 28.7603 36.9008 26.0302 36.651C26.0721 36.3822 26.0941 36.1092 26.0941 35.8338C26.0941 33.0882 23.9743 30.8318 21.2853 30.6064C20.2933 28.0116 18.9679 25.987 17.1094 23.2121H68.4733C62.9868 30.2239 62.812 32.5927 61.7508 47.0434L61.6606 48.2719C61.1826 54.7614 57.89 59.5151 51.874 62.4025ZM72.1116 41.4107C71.1732 41.9732 70.1122 42.264 68.9894 42.5724C67.2668 43.0444 65.3953 43.5649 63.8208 45.1511C64.4457 36.7399 64.8246 33.0362 66.5333 29.5798L68.6688 29.5866C72.1764 29.6005 75.1002 32.3732 75.1869 35.7663C75.2449 38.0747 74.0663 40.2374 72.1116 41.4107ZM56.4493 13.1114H49.6536C47.2561 13.1114 45.3051 15.0675 45.3051 17.4724V17.8945C45.3051 18.1497 45.4065 18.3944 45.587 18.5749C45.7674 18.7553 46.0122 18.8567 46.2674 18.8567C46.5226 18.8567 46.7673 18.7553 46.9478 18.5749C47.1282 18.3944 47.2296 18.1497 47.2296 17.8945V17.4724C47.2296 16.1295 48.3173 15.0363 49.6536 15.0363H56.4493C58.3988 15.0363 59.985 13.4464 59.985 11.4925C59.985 9.53776 58.3988 7.94804 56.4493 7.94804H40.4692C39.5433 7.94804 38.7906 7.19105 38.7906 6.26076C38.7906 5.33102 39.5433 4.5746 40.4692 4.5746H49.0222C51.0091 4.5746 52.6259 2.95424 52.6259 0.962817C52.626 0.836369 52.6012 0.711132 52.5529 0.594275C52.5046 0.477418 52.4337 0.371236 52.3443 0.281805C52.2549 0.192375 52.1488 0.121452 52.0319 0.0730962C51.9151 0.0247405 51.7899 -9.86581e-05 51.6634 2.94488e-07C51.537 -7.38179e-05 51.4118 0.0247734 51.2949 0.0731215C51.1781 0.12147 51.0719 0.19237 50.9825 0.281771C50.8931 0.371172 50.8222 0.477319 50.7738 0.594145C50.7254 0.710972 50.7006 0.836185 50.7006 0.962629C50.7006 1.89311 49.948 2.64935 49.022 2.64935H40.469C38.4821 2.64935 36.8661 4.26971 36.8661 6.26038C36.8661 8.25181 38.4821 9.87254 40.4692 9.87254H56.4493C57.3371 9.87254 58.0603 10.5994 58.0603 11.4923C58.0603 12.3852 57.3371 13.1114 56.4493 13.1114ZM39.795 18.8571C39.9214 18.8572 40.0466 18.8323 40.1634 18.784C40.2802 18.7356 40.3864 18.6648 40.4758 18.5754C40.5652 18.486 40.6361 18.3799 40.6845 18.2631C40.7329 18.1463 40.7578 18.0211 40.7578 17.8946V17.4723C40.7578 15.0675 38.8066 13.1114 36.4093 13.1114H29.6136C28.7258 13.1114 28.0026 12.3852 28.0026 11.4923C28.0026 10.5994 28.7258 9.87254 29.6136 9.87254C29.74 9.87264 29.8652 9.8478 29.9821 9.79945C30.0989 9.75109 30.2051 9.68017 30.2945 9.59074C30.3839 9.50131 30.4547 9.39512 30.5031 9.27827C30.5514 9.16141 30.5762 9.03617 30.576 8.90972C30.5761 8.78335 30.5512 8.6582 30.5028 8.54144C30.4545 8.42468 30.3836 8.3186 30.2942 8.22927C30.2048 8.13993 30.0987 8.06909 29.9819 8.0208C29.8651 7.97251 29.7399 7.94772 29.6136 7.94785C27.6646 7.94785 26.0779 9.53757 26.0779 11.4923C26.0779 13.4462 27.6646 15.0359 29.6136 15.0359H36.4093C37.7458 15.0359 38.8331 16.1293 38.8331 17.4723V17.8945C38.833 18.0208 38.8578 18.146 38.9062 18.2628C38.9545 18.3796 39.0253 18.4857 39.1147 18.5751C39.204 18.6645 39.3101 18.7354 39.4268 18.7838C39.5436 18.8322 39.6688 18.8571 39.7951 18.8571H39.795Z" fill="white"/>
<path d="M26.8288 68.8604C26.7024 68.8602 26.5772 68.885 26.4603 68.9334C26.3435 68.9817 26.2373 69.0526 26.1479 69.142C26.0585 69.2314 25.9876 69.3376 25.9392 69.4545C25.8909 69.5713 25.8661 69.6965 25.8662 69.823V71.2894C25.8662 71.4158 25.891 71.5409 25.9394 71.6577C25.9878 71.7745 26.0587 71.8806 26.1481 71.9699C26.2375 72.0593 26.3437 72.1301 26.4605 72.1784C26.5773 72.2266 26.7025 72.2514 26.8288 72.2513C26.9552 72.2513 27.0803 72.2265 27.197 72.1781C27.3137 72.1298 27.4198 72.059 27.5091 71.9696C27.5984 71.8803 27.6693 71.7743 27.7176 71.6575C27.7659 71.5408 27.7908 71.4157 27.7907 71.2894V69.8232C27.7909 69.6968 27.7661 69.5716 27.7179 69.4547C27.6696 69.3379 27.5988 69.2317 27.5094 69.1423C27.4201 69.0529 27.314 68.9819 27.1972 68.9336C27.0804 68.8852 26.9553 68.8603 26.8288 68.8604ZM20.8606 68.8604C20.7341 68.8602 20.6089 68.885 20.4921 68.9334C20.3752 68.9817 20.269 69.0526 20.1796 69.142C20.0902 69.2314 20.0193 69.3376 19.971 69.4545C19.9226 69.5713 19.8978 69.6965 19.898 69.823V71.2894C19.8979 71.4158 19.9228 71.5409 19.9711 71.6577C20.0195 71.7745 20.0904 71.8806 20.1798 71.9699C20.2692 72.0593 20.3754 72.1301 20.4922 72.1784C20.609 72.2266 20.7342 72.2514 20.8606 72.2513C20.9869 72.2513 21.112 72.2265 21.2287 72.1781C21.3455 72.1298 21.4515 72.059 21.5408 71.9696C21.6302 71.8803 21.701 71.7743 21.7493 71.6575C21.7977 71.5408 21.8225 71.4157 21.8225 71.2894V69.8232C21.8226 69.6968 21.7979 69.5716 21.7496 69.4547C21.7013 69.3379 21.6305 69.2317 21.5412 69.1423C21.4518 69.0529 21.3457 68.9819 21.229 68.9336C21.1122 68.8852 20.987 68.8603 20.8606 68.8604ZM14.8923 68.8604C14.7659 68.8602 14.6406 68.885 14.5238 68.9334C14.4069 68.9817 14.3008 69.0526 14.2114 69.142C14.1219 69.2314 14.051 69.3376 14.0027 69.4545C13.9544 69.5713 13.9296 69.6965 13.9297 69.823V71.2894C13.9296 71.4158 13.9545 71.5409 14.0029 71.6577C14.0512 71.7745 14.1222 71.8806 14.2116 71.9699C14.301 72.0593 14.4071 72.1301 14.5239 72.1784C14.6407 72.2266 14.7659 72.2514 14.8923 72.2513C15.0186 72.2513 15.1437 72.2265 15.2605 72.1781C15.3772 72.1298 15.4832 72.059 15.5726 71.9696C15.6619 71.8803 15.7328 71.7743 15.7811 71.6575C15.8294 71.5408 15.8542 71.4157 15.8542 71.2894V69.8232C15.8544 69.6968 15.8296 69.5716 15.7813 69.4547C15.7331 69.3379 15.6623 69.2317 15.5729 69.1423C15.4836 69.0529 15.3775 68.9819 15.2607 68.9336C15.1439 68.8852 15.0187 68.8603 14.8923 68.8604Z" fill="white"/>
</svg>
