<svg width="94" height="92" viewBox="0 0 94 92" fill="none" xmlns="http://www.w3.org/2000/svg">
<path d="M69.0523 59.9383C69.1606 59.9383 69.2704 59.9289 69.3807 59.9097C70.7792 59.6658 72.1526 59.5349 73.463 59.5199C74.5122 59.5079 75.3532 58.6478 75.3411 57.5986C75.3294 56.5565 74.481 55.72 73.4417 55.72L73.4198 55.7202C71.9057 55.7373 70.3272 55.8875 68.7283 56.1662C67.6944 56.3463 67.0025 57.3305 67.1828 58.3642C67.344 59.2876 68.1461 59.9383 69.0523 59.9383ZM82.5171 61.3072C82.89 61.3072 83.2548 61.1975 83.5659 60.9918C83.877 60.786 84.1206 60.4932 84.2665 60.15C84.677 59.1845 84.2271 58.0688 83.2612 57.6581C82.7166 57.4262 82.1639 57.2138 81.6042 57.0212C80.6119 56.681 79.5311 57.2088 79.1902 58.2011C78.8494 59.1936 79.3778 60.2745 80.3701 60.6152C80.8446 60.7785 81.3131 60.9586 81.7748 61.1551C82.0094 61.2554 82.2619 61.3071 82.5171 61.3072ZM43.6191 32.3162C43.4029 32.1095 43.2767 31.826 43.2676 31.5271C43.2585 31.2281 43.3673 30.9375 43.5704 30.718C43.7736 30.4985 44.0549 30.3676 44.3537 30.3536C44.6525 30.3395 44.9448 30.4435 45.1677 30.643C47.1852 32.5103 49.7906 34.2453 52.7022 35.6604C56.196 37.3585 59.808 38.429 62.8727 38.6745C63.0219 38.6864 63.1673 38.7277 63.3006 38.7958C63.4339 38.864 63.5524 38.9577 63.6495 39.0717C63.7466 39.1856 63.8202 39.3176 63.8663 39.46C63.9123 39.6025 63.9299 39.7526 63.9179 39.9018C63.906 40.051 63.8647 40.1964 63.7966 40.3297C63.7284 40.463 63.6347 40.5815 63.5207 40.6786C63.4068 40.7756 63.2748 40.8493 63.1324 40.8953C62.9899 40.9414 62.8398 40.9589 62.6906 40.947C59.3499 40.6795 55.4486 39.5302 51.7054 37.7111C48.595 36.1994 45.7989 34.3338 43.6191 32.3162ZM9.69221 51.9499C12.4349 51.7557 15.4828 51.0421 18.506 49.8863C22.1351 48.4989 25.3867 46.5967 27.6616 44.5293C27.7719 44.4256 27.9017 44.3449 28.0435 44.2919C28.1852 44.2389 28.3361 44.2147 28.4874 44.2206C28.6386 44.2266 28.7871 44.2626 28.9243 44.3265C29.0615 44.3905 29.1846 44.4811 29.2864 44.5931C29.3882 44.7051 29.4666 44.8362 29.5172 44.9789C29.5678 45.1215 29.5895 45.2728 29.581 45.4239C29.5724 45.575 29.5339 45.7229 29.4677 45.859C29.4014 45.9951 29.3087 46.1166 29.195 46.2165C26.715 48.4701 23.208 50.5297 19.3202 52.0159C16.0903 53.2505 12.8168 54.0143 9.85341 54.2243C9.55396 54.2419 9.25964 54.1407 9.03427 53.9427C8.80891 53.7448 8.67063 53.466 8.64943 53.1667C8.62822 52.8675 8.72578 52.572 8.92098 52.3442C9.11618 52.1165 9.39327 51.9748 9.69221 51.9499Z" fill="url(#paint0_linear_216_940)"/>
<path d="M13.9807 35.6022C21.0997 32.881 27.4546 32.5811 31.2438 34.5614L39.8863 22.4539C39.8918 22.4459 39.8977 22.438 39.9035 22.4301C42.9789 18.2601 51.2535 18.3251 60.0256 22.5883C69.045 26.9718 74.1084 33.2592 72.6249 38.2334L72.6229 38.2402L68.9255 50.4711C70.1174 50.3584 71.314 50.3025 72.5113 50.3035C82.5392 50.3035 89.8416 53.7451 90.6819 58.8674L90.683 58.8745L93.9761 79.4378C93.9921 79.5369 94 79.6375 94 79.7381C94 82.3982 92.7365 86.1246 86.7167 88.7689C82.9131 90.4396 77.8388 91.3596 72.4279 91.3596C67.0169 91.3596 61.9425 90.4394 58.139 88.7689C52.1191 86.1244 50.8557 82.3982 50.8557 79.7381C50.8557 79.632 50.8645 79.5259 50.8823 79.4212L53.6298 63.1789C50.8456 62.7994 47.8062 61.9505 44.7368 60.6952C44.222 62.4304 43.0962 64.3748 40.9842 66.4601C38.028 69.3787 33.6162 72.0501 28.562 73.9821C23.9538 75.7435 19.3346 76.6905 15.4103 76.6905C15.0303 76.6905 14.6565 76.6817 14.2902 76.6637C7.72324 76.3431 5.21241 73.3136 4.26268 70.8287C4.22485 70.7295 4.1953 70.6275 4.17437 70.5234L0.106483 50.2008L0.100975 50.1716C-0.837189 45.0758 4.87056 39.0848 13.9807 35.6022ZM72.4279 87.5598C80.9656 87.5598 90.0347 84.8679 90.198 79.8754L86.9315 59.4796C86.4936 56.8364 80.9819 54.1037 72.5113 54.1037C64.2446 54.1037 58.5916 56.973 58.0828 59.6364L54.6581 79.8832C54.8299 84.8708 63.8943 87.5598 72.4279 87.5598ZM54.3388 58.9856C54.3404 58.9759 54.3421 58.9662 54.3439 58.9566C55.0155 55.3297 58.9966 52.4829 64.7526 51.1428L68.9844 37.1442C69.7462 34.5755 65.9834 29.7086 58.3648 26.0059C50.9295 22.3924 44.5909 22.5026 42.9692 24.6754L34.0465 37.1752L44.433 55.1514C44.4835 55.2386 44.5266 55.3295 44.5626 55.4237C44.7143 55.8204 44.8348 56.2283 44.9232 56.6437C48.1431 58.0796 51.4101 59.0508 54.2637 59.4281L54.3388 58.9856ZM3.83546 49.4716L7.86571 69.6063C9.80702 74.2037 19.2338 73.4794 27.2049 70.4325C35.18 67.3839 42.6905 61.6314 41.0602 56.9095L30.7272 39.0258C29.3759 36.7122 23.2509 36.1269 15.3372 39.1518C7.61565 42.1034 3.35976 46.8021 3.83546 49.4716Z" fill="url(#paint1_linear_216_940)"/>
<path d="M62.6683 64.0424C65.2999 64.8403 68.4016 65.2618 71.6382 65.2618C75.523 65.2618 79.2397 64.6457 82.1032 63.5269C82.3843 63.4193 82.6966 63.4272 82.9719 63.5489C83.2472 63.6707 83.4631 63.8964 83.5727 64.1767C83.6822 64.4571 83.6765 64.7694 83.5566 65.0455C83.4368 65.3217 83.2126 65.5392 82.933 65.6507C79.8114 66.8703 75.8002 67.5419 71.6382 67.5419C68.1805 67.5419 64.8501 67.0864 62.007 66.2244C61.8619 66.1826 61.7265 66.1124 61.6088 66.0178C61.491 65.9232 61.3932 65.8061 61.3211 65.6735C61.249 65.5408 61.2039 65.3951 61.1886 65.2448C61.1732 65.0946 61.1878 64.9428 61.2317 64.7982C61.2755 64.6537 61.3475 64.5193 61.4437 64.4028C61.5399 64.2864 61.6583 64.1902 61.7919 64.1199C61.9256 64.0496 62.0719 64.0065 62.2224 63.9932C62.3728 63.9799 62.5244 63.9966 62.6683 64.0424ZM13.5678 60.9571C13.8532 60.8574 14.1665 60.8752 14.4389 61.0064C14.7112 61.1377 14.9203 61.3718 15.0201 61.6572L15.97 64.3749C16.0194 64.5162 16.0405 64.6659 16.032 64.8154C16.0236 64.9648 15.9858 65.1112 15.9208 65.246C15.8558 65.3809 15.7648 65.5016 15.6532 65.6013C15.5415 65.701 15.4113 65.7778 15.2699 65.8271C15.1454 65.8706 15.0188 65.8914 14.8939 65.8914C14.6574 65.8913 14.4268 65.8176 14.234 65.6807C14.0412 65.5438 13.8957 65.3503 13.8177 65.1271L12.8678 62.4093C12.8184 62.268 12.7973 62.1184 12.8058 61.9689C12.8142 61.8194 12.852 61.6731 12.917 61.5382C12.982 61.4034 13.073 61.2827 13.1846 61.183C13.2963 61.0832 13.4265 61.0065 13.5678 60.9571ZM21.7183 60.8846C22.0037 60.7849 22.317 60.8027 22.5894 60.9339C22.8617 61.0651 23.0708 61.2991 23.1707 61.5845L24.1208 64.3022C24.2161 64.5865 24.1955 64.8968 24.0636 65.1661C23.9318 65.4353 23.6991 65.6418 23.4161 65.7408C23.1331 65.8397 22.8225 65.8232 22.5515 65.6948C22.2806 65.5664 22.0711 65.3365 21.9685 65.0547L21.0184 62.337C20.9187 62.0516 20.9363 61.7382 21.0676 61.4659C21.1988 61.1935 21.4329 60.9844 21.7183 60.8846ZM64.1607 72.2109C64.4631 72.2109 64.753 72.331 64.9667 72.5448C65.1805 72.7586 65.3006 73.0485 65.3007 73.3508V76.2299C65.2953 76.5287 65.1729 76.8134 64.9597 77.0228C64.7465 77.2322 64.4596 77.3496 64.1607 77.3496C63.8619 77.3496 63.575 77.2322 63.3618 77.0228C63.1486 76.8134 63.0262 76.5287 63.0208 76.2299V73.3508C63.0209 73.0485 63.141 72.7586 63.3547 72.5448C63.5685 72.331 63.8584 72.2109 64.1607 72.2109ZM72.8532 76.7427C73.1555 76.7427 73.4454 76.8629 73.6592 77.0766C73.8729 77.2904 73.9931 77.5803 73.9931 77.8826V80.7617C73.9878 81.0605 73.8653 81.3453 73.6521 81.5547C73.4389 81.7641 73.152 81.8814 72.8532 81.8814C72.5543 81.8814 72.2675 81.7641 72.0543 81.5547C71.8411 81.3453 71.7186 81.0605 71.7132 80.7617V77.8826C71.7133 77.5803 71.8334 77.2904 72.0472 77.0766C72.2609 76.8629 72.5509 76.7427 72.8532 76.7427ZM76.6033 1.10538L78.164 5.49382C78.2308 5.68164 78.363 5.83053 78.5301 5.9058L82.4291 7.66243C82.9798 7.91065 82.9798 8.78823 82.4291 9.03644L78.5301 10.7931C78.3632 10.8683 78.2308 11.0172 78.164 11.2051L76.6033 15.5935C76.3828 16.2135 75.603 16.2135 75.3826 15.5935L73.8218 11.2051C73.755 11.0172 73.6228 10.8683 73.4557 10.7931L69.5568 9.03644C69.006 8.78823 69.006 7.91065 69.5568 7.66243L73.4557 5.9058C73.6226 5.83053 73.755 5.68164 73.8218 5.49382L75.3826 1.10538C75.603 0.485382 76.3828 0.485382 76.6033 1.10538ZM15.8257 11.6292L16.9834 14.8845C17.033 15.0238 17.1312 15.1343 17.2549 15.1901L20.1471 16.4931C20.5558 16.6772 20.5558 17.3283 20.1471 17.5122L17.2549 18.8152C17.1312 18.871 17.033 18.9815 16.9834 19.1209L15.8257 22.3762C15.6621 22.8361 15.0838 22.8361 14.9202 22.3762L13.7624 19.1209C13.7129 18.9815 13.6148 18.871 13.4909 18.8152L10.5987 17.5122C10.1902 17.3281 10.1902 16.6771 10.5987 16.4931L13.4909 15.1901C13.6146 15.1343 13.7129 15.024 13.7624 14.8845L14.9202 11.6292C15.0838 11.1693 15.6623 11.1693 15.8257 11.6292Z" fill="url(#paint2_linear_216_940)"/>
<path d="M38.2196 7.93634C36.3375 7.93634 34.8117 6.41059 34.8117 4.52847C34.8117 2.64636 36.3375 1.12061 38.2196 1.12061C40.1017 1.12061 41.6274 2.64636 41.6274 4.52847C41.6274 6.41059 40.1017 7.93634 38.2196 7.93634Z" fill="url(#paint3_linear_216_940)"/>
<path d="M85.5075 35.8787C84.7175 35.6914 84.229 34.8992 84.4163 34.1092C84.6036 33.3192 85.3959 32.8307 86.1858 33.018C86.9758 33.2053 87.4644 33.9976 87.277 34.7875C87.0897 35.5775 86.2975 36.0661 85.5075 35.8787Z" fill="url(#paint4_linear_216_940)"/>
<defs>
<linearGradient id="paint0_linear_216_940" x1="84.4185" y1="30.3523" x2="8.33814" y2="31.1299" gradientUnits="userSpaceOnUse">
<stop stop-color="white" stop-opacity="0.05"/>
<stop offset="0.9966" stop-color="white" stop-opacity="0"/>
</linearGradient>
<linearGradient id="paint1_linear_216_940" x1="94" y1="19.3462" x2="-0.389213" y2="19.8606" gradientUnits="userSpaceOnUse">
<stop stop-color="white" stop-opacity="0.05"/>
<stop offset="0.9966" stop-color="white" stop-opacity="0"/>
</linearGradient>
<linearGradient id="paint2_linear_216_940" x1="83.6509" y1="0.640381" x2="9.98711" y2="0.918116" gradientUnits="userSpaceOnUse">
<stop stop-color="white" stop-opacity="0.05"/>
<stop offset="0.9966" stop-color="white" stop-opacity="0"/>
</linearGradient>
<linearGradient id="paint3_linear_216_940" x1="41.6274" y1="1.12061" x2="34.7834" y2="1.14918" gradientUnits="userSpaceOnUse">
<stop stop-color="white" stop-opacity="0.05"/>
<stop offset="0.9966" stop-color="white" stop-opacity="0"/>
</linearGradient>
<linearGradient id="paint4_linear_216_940" x1="87.6162" y1="33.3572" x2="84.7407" y2="32.688" gradientUnits="userSpaceOnUse">
<stop stop-color="white" stop-opacity="0.05"/>
<stop offset="0.9966" stop-color="white" stop-opacity="0"/>
</linearGradient>
</defs>
</svg>
