<svg width="107" height="85" viewBox="0 0 107 85" fill="none" xmlns="http://www.w3.org/2000/svg">
<path d="M99.3667 25.9703C98.934 22.7176 98.873 17.1153 101.894 15.2342C101.948 15.1997 101.988 15.1499 102.036 15.1071C104.506 14.3171 106.215 13.2084 104.873 11.7165L68.4373 0.738037L9.43948 8.94058C9.43948 8.94058 2.68349 9.90623 3.28701 20.4025C3.61464 26.1152 5.40639 28.9209 6.97332 30.3016L2.13201 31.7606C0.788282 33.2525 2.49732 34.3615 4.96763 35.1503C5.01457 35.1943 5.05417 35.2438 5.10909 35.2783C8.12833 37.1611 8.07021 42.7627 7.63592 46.016C-3.21065 49.0959 0.682904 50.0996 0.682904 50.0996L3.06221 50.6753C1.38862 52.1876 -0.273479 55.0555 0.0378644 60.4946C0.641711 70.989 6.19097 71.7132 6.19097 71.7132L44.7989 84.2621L103.073 70.1472C103.073 70.1472 106.968 69.142 96.1182 66.0617C95.682 62.8136 95.6213 57.2126 98.6476 55.325C98.7031 55.2915 98.7437 55.2407 98.7887 55.1986C101.259 54.4086 102.967 53.3008 101.625 51.8089L99.0917 51.0441C100.781 50.0255 103.318 47.3633 103.716 40.4479C103.99 35.6912 102.749 32.9054 101.313 31.2654L106.319 30.0538C106.32 30.0557 110.215 29.0505 99.3667 25.9703ZM50.624 25.8358L60.4235 23.8218L93.5402 17.0164L98.4742 16.0015C96.8976 18.887 96.9638 22.8358 97.2246 25.3738C97.2818 25.9479 97.3476 26.4723 97.4114 26.8708L92.011 28.2136L50.2121 38.6118L50.624 25.8358ZM8.5294 36.0489L13.4627 37.0637L45.2667 43.6016L48.0451 44.1706L56.3773 45.8832L56.7883 58.6594L13.828 47.9713L9.59276 46.9188C9.65503 46.5196 9.72081 45.9959 9.78052 45.4202C10.0398 42.8841 10.1072 38.9343 8.5294 36.0489ZM6.6128 19.8973C6.55309 17.1054 7.0506 15.0863 8.05616 14.06C8.69609 13.4048 9.4513 13.2684 9.96924 13.2684C10.2429 13.2684 10.4399 13.3064 10.4533 13.3064L35.874 21.5939L48.5567 25.7289L48.1406 38.5942L12.5606 28.6191L10.6829 28.0932C10.6062 28.073 10.5275 28.0609 10.4482 28.0571C10.3017 28.0465 6.78396 27.7227 6.6128 19.8973ZM44.8908 78.6882L7.43411 68.1869C7.35763 68.1662 7.27916 68.1538 7.20004 68.1498C7.05092 68.1399 3.53162 67.8165 3.36142 59.9929C3.30075 57.1976 3.80081 55.1804 4.80445 54.1531C5.44598 53.4978 6.20151 53.3615 6.7185 53.3615C6.9928 53.3615 7.18919 53.3982 7.20356 53.3982L45.3043 65.8226L44.8908 78.6882ZM93.9729 65.4659C94.032 66.042 94.0978 66.5653 94.1617 66.9645L46.9613 78.7065L47.3739 65.9302L57.4649 63.8555L58.9552 64.216L64.5409 62.4007L90.2885 57.1097L95.2244 56.0943C93.6463 58.9794 93.7117 62.9298 93.9729 65.4659ZM96.5729 48.1025C96.4873 48.1035 96.4022 48.1166 96.3203 48.1414L92.7604 49.1381L58.8646 58.6425L58.4501 45.7772L69.5709 42.1499L96.4988 33.3681C96.5023 33.3665 97.9153 33.0526 98.9525 34.1074C99.9565 35.1337 100.455 37.1528 100.396 39.9447C100.22 47.7675 96.7009 48.0926 96.5729 48.1025Z" fill="white"/>
</svg>
