<svg width="147" height="121" viewBox="0 0 147 121" fill="none" xmlns="http://www.w3.org/2000/svg">
<path d="M75.8708 99.5644V28.767C75.8708 27.4572 74.8096 26.396 73.4999 26.396C72.1902 26.396 71.1289 27.4572 71.1289 28.767V99.5644C71.1289 100.874 72.1902 101.935 73.4999 101.935C74.8096 101.935 75.8708 100.874 75.8708 99.5644Z" fill="white"/>
<path d="M144.629 10.9568C139.616 10.9568 133.37 8.79382 126.757 6.5041C118.382 3.60393 108.889 0.317139 99.0445 0.317139C87.6528 0.317139 80.703 5.30913 76.8791 9.49689C75.6072 10.8923 74.4755 12.4093 73.5003 14.0261C72.5252 12.4093 71.3935 10.8923 70.1215 9.49689C66.2973 5.30913 59.3479 0.317139 47.9561 0.317139C38.1109 0.317139 28.6182 3.60393 20.2433 6.5041C13.6296 8.79382 7.38351 10.9568 2.37097 10.9568C2.0596 10.9567 1.75127 11.018 1.46359 11.1372C1.17591 11.2563 0.914521 11.431 0.694348 11.6511C0.474175 11.8713 0.299532 12.1327 0.180395 12.4204C0.061257 12.708 -4.15034e-05 13.0164 2.10828e-08 13.3277V108.828C2.10828e-08 110.138 1.06125 111.199 2.37097 111.199C8.18142 111.199 14.7939 108.909 21.7943 106.485C29.816 103.707 38.9082 100.559 47.9555 100.559C55.7133 100.559 61.9926 103.128 66.6191 108.194C67.0459 108.648 67.634 108.915 68.2564 108.939C68.8789 108.963 69.4856 108.74 69.9455 108.32C70.4054 107.9 70.6815 107.316 70.7143 106.694C70.7471 106.072 70.5338 105.462 70.1206 104.996C66.2964 100.809 59.3469 95.8169 47.9555 95.8169C38.1103 95.8169 28.6176 99.1037 20.2427 102.004C14.6361 103.946 9.29293 105.795 4.74194 106.314V15.5811C9.95522 15.0845 15.729 13.085 21.7943 10.9849C29.816 8.2074 38.9082 5.05907 47.9555 5.05907C66.2534 5.05907 71.0408 19.589 71.2334 20.1998C71.3826 20.6844 71.6832 21.1085 72.0911 21.4098C72.4991 21.7111 72.9929 21.8736 73.5 21.8736C74.0071 21.8736 74.5009 21.7111 74.9089 21.4098C75.3168 21.1085 75.6174 20.6844 75.7666 20.1998C75.8128 20.0483 80.6297 5.05907 99.0445 5.05907C108.092 5.05907 117.184 8.2074 125.206 10.9849C131.271 13.0853 137.045 15.0845 142.258 15.5811V106.314C137.707 105.795 132.364 103.946 126.757 102.004C118.382 99.104 108.889 95.8172 99.0445 95.8172C87.6525 95.8172 80.7027 100.809 76.8791 104.997C76.4659 105.463 76.2526 106.073 76.2854 106.695C76.3181 107.317 76.5943 107.901 77.0542 108.321C77.5141 108.741 78.1208 108.963 78.7432 108.94C79.3656 108.916 79.9538 108.649 80.3805 108.195C85.0071 103.128 91.2864 100.559 99.0445 100.559C108.092 100.559 117.184 103.708 125.206 106.485C132.206 108.909 138.819 111.199 144.629 111.199C145.939 111.199 147 110.138 147 108.828V13.3277C147 12.6989 146.75 12.0959 146.306 11.6512C145.861 11.2066 145.258 10.9568 144.629 10.9568Z" fill="white"/>
<path d="M144.629 115.941C139.616 115.941 133.37 113.778 126.757 111.488C118.382 108.588 108.889 105.301 99.0445 105.301C88.3457 105.301 81.5654 109.704 77.6122 113.709L69.3875 113.708C65.4343 109.704 58.6536 105.301 47.9555 105.301C38.1103 105.301 28.6176 108.588 20.2427 111.488C13.6296 113.778 7.38351 115.941 2.37097 115.941C1.06125 115.941 0 117.002 0 118.312C0 119.621 1.06125 120.683 2.37097 120.683C8.18142 120.683 14.7939 118.393 21.7943 115.969C29.816 113.191 38.9082 110.043 47.9555 110.043C55.7133 110.043 61.9926 112.612 66.6191 117.678C66.8413 117.921 67.1117 118.116 67.4132 118.249C67.7146 118.381 68.0404 118.45 68.3699 118.45L78.6295 118.45C78.9589 118.45 79.2847 118.382 79.5862 118.249C79.8876 118.116 80.158 117.922 80.3802 117.678C85.0068 112.612 91.2861 110.043 99.0442 110.043C108.091 110.043 117.184 113.191 125.205 115.969C132.206 118.393 138.819 120.683 144.629 120.683C145.938 120.683 147 119.621 147 118.312C147 117.002 145.939 115.941 144.629 115.941Z" fill="white"/>
</svg>
