<svg width="62" height="62" viewBox="0 0 62 62" fill="none" xmlns="http://www.w3.org/2000/svg">
<path d="M50.6513 8.91318C50.6453 8.88505 50.6377 8.85727 50.6287 8.82996C50.6115 8.80312 50.5927 8.77736 50.5724 8.75282C50.4898 8.62721 50.3776 8.52388 50.2456 8.45197C50.1975 8.42982 50.1474 8.41237 50.096 8.39986C50.0492 8.38454 50.001 8.37358 49.9522 8.36713C49.8926 8.36427 49.8329 8.36782 49.7741 8.37769C49.7374 8.37731 49.7007 8.37947 49.6643 8.38416C49.6557 8.38643 49.6498 8.39293 49.6414 8.39536C49.6324 8.39794 49.6233 8.3961 49.6143 8.39899L21.916 17.5936C21.1595 15.1585 18.9999 13.4268 16.4586 13.2175C16.4253 12.6483 16.5214 12.079 16.7397 11.5523C17.0434 10.9833 17.474 10.4918 17.9981 10.116C18.5223 9.74012 19.1259 9.48992 19.7622 9.38476C20.2072 9.26726 20.4727 8.81134 20.3552 8.36634C20.2377 7.92134 19.7818 7.65587 19.3368 7.77337C17.2683 8.31957 15.8811 9.36509 15.2139 10.8804C14.8898 11.6461 14.7452 12.476 14.7913 13.3062C14.6467 13.3337 14.5021 13.3594 14.3576 13.3975C11.3764 14.1903 9.41841 17.0384 9.74618 20.1059C8.76107 19.6061 7.62676 19.4853 6.55848 19.7664C4.57806 20.2952 3.19078 22.0761 3.16251 24.1256C3.08514 24.2932 3.06683 24.482 3.11054 24.6613L10.2395 51.6599C11.6319 56.9324 17.4632 59.9815 23.239 58.4564C23.2857 58.4387 23.3307 58.4166 23.3732 58.3903C23.5231 58.395 23.6706 58.3526 23.7951 58.2691L57.453 36.8928C57.4642 36.8857 57.4698 36.8739 57.4806 36.8663C57.5274 36.8304 57.5701 36.7894 57.6079 36.7441C57.684 36.6742 57.7431 36.5878 57.7807 36.4914C57.8182 36.3951 57.8332 36.2915 57.8245 36.1885C57.8274 36.1303 57.8239 36.0722 57.8142 36.0148C57.8115 36.0019 57.8154 35.9894 57.812 35.9764L50.6828 8.97727C50.6764 8.95322 50.6595 8.93605 50.6513 8.91318ZM11.4441 18.6006C11.6022 17.7467 12.0001 16.9553 12.5915 16.3193C13.1828 15.6832 13.9431 15.2287 14.7833 15.0089C14.8694 14.9862 14.9558 14.972 15.0419 14.9545C15.1931 15.5533 15.4069 16.1346 15.6797 16.6888C15.7843 16.881 15.9604 17.0243 16.1699 17.0878C16.3793 17.1513 16.6054 17.1298 16.7991 17.0281C16.9929 16.9263 17.1389 16.7523 17.2055 16.5438C17.2721 16.3354 17.254 16.109 17.1551 15.9138C17.0041 15.5977 16.8763 15.271 16.7727 14.9364C19.256 15.396 20.8965 17.7817 20.4369 20.265C19.9774 22.7483 17.5916 24.3888 15.1083 23.9292C12.6251 23.4697 10.9845 21.084 11.4441 18.6006ZM21.9992 57.0255C17.3915 57.85 12.9444 55.3746 11.8512 51.2343L6.10382 29.4682C7.35895 30.5722 8.84758 31.3779 10.4582 31.825C12.0689 32.2721 13.7598 32.349 15.4044 32.0499L21.9992 57.0255ZM15.6812 30.2801C11.0422 31.4442 6.19652 28.8764 4.84008 24.5989C4.83136 24.5249 4.82211 24.4501 4.81818 24.3679C4.7373 22.9829 5.64302 21.7326 6.98427 21.3777C7.57604 21.2229 8.20149 21.2574 8.77261 21.4765C9.34373 21.6956 9.83178 22.0883 10.1681 22.5992C10.2381 22.7042 10.3314 22.7916 10.4407 22.8546C10.5501 22.9176 10.6725 22.9544 10.7985 22.9622C12.7392 25.8111 16.622 26.5473 19.4708 24.6066C20.338 24.0158 21.0423 23.2159 21.5185 22.2809C21.9947 21.3459 22.2276 20.3059 22.1955 19.257L43.9157 12.0469L27.3343 22.7522C27.3238 22.759 27.3187 22.7702 27.3085 22.7774C27.2626 22.8134 27.2206 22.8544 27.1835 22.8995C27.1072 22.969 27.0481 23.0553 27.0108 23.1516C26.9734 23.2478 26.9589 23.3514 26.9683 23.4543C26.9653 23.5132 26.9688 23.5722 26.9788 23.6304C26.9814 23.6422 26.9777 23.6537 26.9809 23.6655L28.0914 27.8711C28.2089 28.3161 27.9434 28.772 27.4984 28.8895C27.0534 29.007 26.5975 28.7416 26.48 28.2966L25.6481 25.1459C25.5916 24.9322 25.4526 24.7497 25.2617 24.6385C25.0707 24.5273 24.8433 24.4965 24.6296 24.553C24.416 24.6094 24.2334 24.7484 24.1222 24.9394C24.011 25.1304 23.9803 25.3577 24.0367 25.5714L29.3363 45.6419C29.4538 46.0869 29.1884 46.5428 28.7434 46.6603C28.2984 46.7778 27.8425 46.5123 27.7249 46.0673L22.7019 27.0442C22.6601 26.9673 22.6247 26.8871 22.5961 26.8045C22.5894 26.7942 22.5785 26.7891 22.5714 26.7791C22.5359 26.7338 22.4957 26.6925 22.4514 26.6558C22.3871 26.5781 22.3 26.5226 22.2024 26.4973C22.1127 26.4468 22.0093 26.426 21.907 26.438C21.8433 26.4342 21.7792 26.438 21.7164 26.4493C21.7053 26.4517 21.6946 26.4483 21.6835 26.4512C21.6428 26.4672 21.6037 26.4864 21.5662 26.509C21.5243 26.5216 21.4834 26.5379 21.4442 26.5573L15.6812 30.2801ZM20.3476 44.2422L19.5184 41.1022L23.9362 38.2483L24.7653 41.3883L20.3476 44.2422ZM25.2127 43.0826L26.0423 46.2243L21.624 49.0762L20.7949 45.9365L25.2127 43.0826ZM19.0711 39.4079L16.9655 31.4336L21.3832 28.5797L23.4888 36.554L19.0711 39.4079ZM56.0449 35.8126L23.5681 56.4388L22.0717 50.7717L26.8432 47.6918C27.8562 48.6264 29.4351 48.563 30.3697 47.55C30.6547 47.2412 30.8571 46.8653 30.9581 46.4573C31.0591 46.0494 31.0554 45.6225 30.9475 45.2163L30.9083 45.0681L54.4706 29.8506L56.0449 35.8126ZM54.0228 28.1547L30.4606 43.3724L29.6319 40.2339L53.1942 25.0164L54.0228 28.1547ZM52.7463 23.3204L29.1841 38.5381L28.3554 35.3996L51.9177 20.1821L52.7463 23.3204ZM51.4699 18.4861L27.9076 33.7039L27.0788 30.5651C27.362 30.5925 27.6479 30.5707 27.9237 30.5008C29.2577 30.1471 30.0535 28.7802 29.7026 27.4455L28.7466 23.825L49.3645 10.5132L51.4698 18.4861L51.4699 18.4861Z" fill="white"/>
</svg>
