<svg width="122" height="122" viewBox="0 0 122 122" fill="none" xmlns="http://www.w3.org/2000/svg">
<g clip-path="url(#clip0_230_8666)">
<path d="M76.4552 81.7025C76.5564 81.7411 76.6623 81.7715 76.7723 81.7928C78.1658 82.0635 79.4957 82.4308 80.7253 82.8838C81.7099 83.2466 82.8023 82.7428 83.1649 81.7581C83.5254 80.7803 83.0309 79.6964 82.0598 79.3259L82.0394 79.3183C80.6186 78.7946 79.0902 78.3722 77.497 78.0627C76.4669 77.8625 75.4696 78.5354 75.2696 79.5654C75.091 80.4857 75.6085 81.3795 76.4552 81.7025ZM88.5476 87.781C88.8961 87.914 89.276 87.9415 89.64 87.8601C90.004 87.7788 90.336 87.5921 90.5946 87.3234C91.3224 86.5676 91.2996 85.3648 90.5436 84.6368C90.1174 84.226 89.6767 83.8306 89.2225 83.4511C88.4166 82.7796 87.2186 82.8875 86.5464 83.6931C85.8742 84.4989 85.9827 85.6971 86.7883 86.3692C87.1734 86.6909 87.547 87.0262 87.9083 87.3744C88.0918 87.5516 88.3093 87.6899 88.5476 87.781ZM62.5384 46.8292C62.4101 46.559 62.3932 46.2492 62.4913 45.9666C62.5894 45.684 62.7946 45.4513 63.0626 45.3186C63.3307 45.1859 63.6402 45.1639 63.9244 45.2573C64.2085 45.3507 64.4446 45.552 64.5817 45.8178C65.8011 48.2817 67.6169 50.8313 69.8328 53.1914C72.4919 56.0232 75.485 58.311 78.261 59.6327C78.3961 59.6971 78.5173 59.7874 78.6175 59.8986C78.7177 60.0098 78.7951 60.1396 78.8452 60.2807C78.8952 60.4218 78.917 60.5713 78.9093 60.7208C78.9015 60.8703 78.8644 61.0168 78.8 61.152C78.7357 61.2871 78.6453 61.4083 78.5342 61.5085C78.423 61.6087 78.2931 61.6861 78.1521 61.7362C78.011 61.7862 77.8614 61.808 77.7119 61.8003C77.5624 61.7925 77.4159 61.7554 77.2808 61.691C74.2549 60.2503 71.0194 57.7859 68.1706 54.7521C65.8033 52.231 63.8559 49.4912 62.5384 46.8292ZM23.8416 53.0801C26.4734 53.8763 29.5754 54.2959 32.812 54.2937C36.6973 54.291 40.4134 53.6728 43.2758 52.552C43.4158 52.4945 43.5658 52.4654 43.7172 52.4664C43.8685 52.4674 44.0181 52.4985 44.1573 52.558C44.2965 52.6175 44.4224 52.704 44.5278 52.8127C44.6332 52.9213 44.7159 53.0498 44.7711 53.1908C44.8263 53.3317 44.8528 53.4822 44.8492 53.6335C44.8456 53.7848 44.8119 53.9339 44.7501 54.0721C44.6883 54.2102 44.5996 54.3347 44.4892 54.4382C44.3788 54.5417 44.2489 54.6222 44.107 54.675C40.9867 55.8966 36.9759 56.5708 32.8137 56.5736C29.3558 56.5758 26.0251 56.1226 23.1815 55.2626C22.8955 55.1722 22.6566 54.9728 22.5166 54.7075C22.3766 54.4422 22.3467 54.1324 22.4336 53.8453C22.5204 53.5582 22.7169 53.3168 22.9805 53.1736C23.2441 53.0304 23.5534 52.9968 23.8416 53.0801Z" fill="url(#paint0_linear_230_8666)"/>
<path d="M33.6757 39.3349C41.2971 39.33 47.3415 41.3151 50.1759 44.5159L62.5664 36.2843C62.5744 36.2788 62.5827 36.2735 62.591 36.2682C66.9508 33.4683 74.6587 36.4785 81.335 43.5885C88.1994 50.899 90.6891 58.5782 87.53 62.697L87.5257 62.7026L79.7115 72.8121C80.8653 73.1318 82.0032 73.506 83.1215 73.9337C92.4907 77.5081 98.0867 83.3266 97.046 88.4119L97.0445 88.419L92.7916 108.805C92.7712 108.904 92.7427 109.001 92.7068 109.095C91.7587 111.58 89.2499 114.611 82.6829 114.936C78.5337 115.141 73.4647 114.192 68.4093 112.263C63.3536 110.335 58.9406 107.666 55.9823 104.75C51.3005 100.133 51.4482 96.2012 52.3964 93.7158C52.4342 93.6167 52.4803 93.5207 52.5342 93.4292L60.8908 79.2331C58.4247 77.8861 55.8876 76.0096 53.4673 73.7427C52.3678 75.1804 50.6229 76.5958 47.9063 77.7913C44.1039 79.4644 39.0297 80.3879 33.6189 80.3914C28.6855 80.3945 24.0322 79.6328 20.3656 78.2339C20.0105 78.0985 19.6644 77.957 19.3286 77.8096C13.3073 75.1694 12.0412 71.4439 12.0396 68.7836C12.0396 68.6775 12.0484 68.5716 12.066 68.4669L15.5092 48.0293L15.5144 48C16.4543 42.9045 23.9226 39.3415 33.6757 39.3349ZM69.7637 108.713C77.7406 111.756 87.1735 112.474 89.1056 107.868L93.3237 87.6472C93.8567 85.0215 89.6812 80.5036 81.7669 77.4843C74.0432 74.5376 67.7387 75.2035 66.3141 77.5106L55.8974 95.2067C54.2801 99.928 61.7906 105.671 69.7637 108.713ZM63.048 75.568C63.0529 75.5595 63.058 75.5511 63.0631 75.5427C64.9834 72.3934 69.7177 71.1527 75.5733 71.9524L84.5169 60.3816C86.1442 58.2532 84.3634 52.3648 78.5651 46.1896C72.9061 40.1632 66.9446 38.0067 64.655 39.4588L51.8629 47.9571L55.1595 68.4548C55.1756 68.5542 55.1835 68.6545 55.1835 68.7554C55.1838 69.18 55.1511 69.6041 55.0856 70.0237C57.5821 72.513 60.2884 74.585 62.8201 75.9546L63.048 75.568ZM19.2532 48.6771L15.8417 68.9259C16.0168 73.9132 25.0826 76.5967 33.6161 76.5912C42.1541 76.5856 51.2217 73.888 51.3816 68.8952L48.1019 48.503C47.6641 45.8596 42.15 43.1295 33.6779 43.1349C25.4114 43.1404 19.7602 46.0134 19.2532 48.6771Z" fill="url(#paint1_linear_230_8666)"/>
<path d="M69.0276 83.2617C71.202 84.9452 73.9496 86.4447 76.9736 87.5983C80.6033 88.9831 84.2954 89.7322 87.3697 89.7076C87.6707 89.7072 87.9596 89.8259 88.1734 90.0378C88.3872 90.2497 88.5086 90.5375 88.511 90.8385C88.5134 91.1395 88.3967 91.4293 88.1863 91.6445C87.9759 91.8598 87.689 91.9832 87.388 91.9877C84.0366 92.0145 80.0496 91.2122 76.1609 89.7286C72.9304 88.4962 69.9811 86.8835 67.632 85.0647C67.5113 84.9739 67.4098 84.86 67.3335 84.7296C67.2572 84.5993 67.2076 84.4551 67.1875 84.3054C67.1674 84.1557 67.1772 84.0035 67.2165 83.8577C67.2557 83.7118 67.3235 83.5752 67.4159 83.4558C67.5084 83.3364 67.6236 83.2365 67.755 83.162C67.8864 83.0874 68.0312 83.0398 68.1812 83.0217C68.3311 83.0037 68.4832 83.0156 68.6285 83.0568C68.7738 83.098 68.9094 83.1676 69.0276 83.2617ZM24.252 62.8773C24.5542 62.8859 24.8406 63.0142 25.0483 63.2339C25.2559 63.4536 25.3678 63.7468 25.3593 64.049L25.2781 66.9268C25.2739 67.0765 25.2403 67.2238 25.1791 67.3605C25.1179 67.4971 25.0305 67.6204 24.9216 67.7232C24.8128 67.8261 24.6848 67.9064 24.545 67.9598C24.4051 68.0131 24.2561 68.0384 24.1064 68.0341C23.9746 68.0304 23.8488 68.0047 23.7322 67.9602C23.5113 67.8758 23.3221 67.7248 23.1907 67.5281C23.0594 67.3315 22.9924 67.0988 22.9991 66.8624L23.0803 63.9846C23.0845 63.835 23.1182 63.6876 23.1794 63.551C23.2405 63.4144 23.328 63.2911 23.4368 63.1883C23.5456 63.0855 23.6736 63.0051 23.8135 62.9517C23.9534 62.8984 24.1024 62.8731 24.252 62.8773ZM31.893 65.7148C32.1952 65.7234 32.4816 65.8516 32.6892 66.0713C32.8969 66.291 33.0089 66.5842 33.0005 66.8864L32.9195 69.7643C32.9072 70.0638 32.7774 70.3465 32.5581 70.551C32.3389 70.7556 32.048 70.8656 31.7483 70.8571C31.4486 70.8487 31.1643 70.7226 30.9569 70.506C30.7495 70.2895 30.6358 70 30.6403 69.7002L30.7214 66.8223C30.7299 66.5201 30.8581 66.2336 31.0778 66.0259C31.2975 65.8182 31.5907 65.7063 31.893 65.7148ZM67.5104 91.4256C67.7928 91.5334 68.0209 91.749 68.1444 92.0249C68.2679 92.3008 68.2768 92.6145 68.1691 92.897L67.1429 95.587C67.0313 95.8642 66.8154 96.0866 66.5416 96.2063C66.2678 96.3259 65.9579 96.3333 65.6787 96.2268C65.3995 96.1202 65.1733 95.9084 65.0487 95.6367C64.9242 95.3651 64.9113 95.0554 65.0127 94.7743L66.039 92.0843C66.1468 91.8019 66.3624 91.5738 66.6383 91.4503C66.9142 91.3268 67.2279 91.3179 67.5104 91.4256ZM74.0165 98.7582C74.2989 98.866 74.527 99.0815 74.6505 99.3574C74.7741 99.6334 74.7829 99.9471 74.6752 100.23L73.649 102.92C73.5375 103.197 73.3216 103.419 73.0477 103.539C72.7739 103.658 72.464 103.666 72.1848 103.559C71.9056 103.453 71.6794 103.241 71.5548 102.969C71.4303 102.698 71.4174 102.388 71.5189 102.107L72.5451 99.4169C72.6529 99.1344 72.8685 98.9064 73.1444 98.7829C73.4203 98.6593 73.734 98.6504 74.0165 98.7582ZM104.481 29.4258L104.375 34.0823C104.37 34.2816 104.441 34.4678 104.57 34.5977L107.587 37.6287C108.013 38.0569 107.7 38.8769 107.097 38.9125L102.828 39.1639C102.645 39.1748 102.469 39.2667 102.339 39.4184L99.3167 42.9622C98.8897 43.4629 98.1612 43.185 98.1762 42.5271L98.2823 37.8706C98.2868 37.6713 98.2163 37.4851 98.0871 37.3552L95.0703 34.3242C94.6442 33.8959 94.957 33.076 95.5601 33.0404L99.8291 32.7889C100.012 32.7781 100.189 32.6862 100.318 32.5345L103.34 28.9906C103.767 28.49 104.496 28.7679 104.481 29.4258ZM43.9444 17.5943L43.8657 21.0484C43.8624 21.1963 43.9148 21.3345 44.0105 21.4308L46.2482 23.6791C46.5644 23.9968 46.3324 24.6051 45.8849 24.6313L42.7183 24.8177C42.5828 24.8258 42.4517 24.894 42.3557 25.0066L40.1136 27.6354C39.7969 28.0067 39.2565 27.8006 39.2676 27.3126L39.3463 23.8585C39.3496 23.7106 39.2974 23.5724 39.2015 23.4761L36.9638 21.2278C36.6478 20.9101 36.8798 20.3019 37.3271 20.2756L40.4937 20.0891C40.6292 20.0811 40.7603 20.013 40.8563 19.9003L43.0984 17.2715C43.4151 16.9001 43.9556 17.1063 43.9444 17.5943Z" fill="url(#paint2_linear_230_8666)"/>
<path d="M66.1839 22.1265C64.4254 21.4556 63.5437 19.4862 64.2146 17.7277C64.8855 15.9692 66.8549 15.0875 68.6133 15.7584C70.3718 16.4293 71.2535 18.3987 70.5826 20.1572C69.9118 21.9157 67.9424 22.7973 66.1839 22.1265Z" fill="url(#paint3_linear_230_8666)"/>
<path d="M100.405 65.0891C99.7341 64.6325 99.56 63.7182 100.017 63.0469C100.473 62.3756 101.388 62.2015 102.059 62.6581C102.73 63.1147 102.904 64.0291 102.448 64.7004C101.991 65.3717 101.077 65.5457 100.405 65.0891Z" fill="url(#paint4_linear_230_8666)"/>
</g>
<defs>
<linearGradient id="paint0_linear_230_8666" x1="101.358" y1="59.5371" x2="29.9977" y2="33.145" gradientUnits="userSpaceOnUse">
<stop stop-color="white" stop-opacity="0.05"/>
<stop offset="0.9966" stop-color="white" stop-opacity="0"/>
</linearGradient>
<linearGradient id="paint1_linear_230_8666" x1="114.233" y1="52.6694" x2="25.8607" y2="19.5053" gradientUnits="userSpaceOnUse">
<stop stop-color="white" stop-opacity="0.05"/>
<stop offset="0.9966" stop-color="white" stop-opacity="0"/>
</linearGradient>
<linearGradient id="paint2_linear_230_8666" x1="111.231" y1="31.5034" x2="42.3073" y2="5.50563" gradientUnits="userSpaceOnUse">
<stop stop-color="white" stop-opacity="0.05"/>
<stop offset="0.9966" stop-color="white" stop-opacity="0"/>
</linearGradient>
<linearGradient id="paint3_linear_230_8666" x1="71.7974" y1="16.9731" x2="65.3927" y2="14.5603" gradientUnits="userSpaceOnUse">
<stop stop-color="white" stop-opacity="0.05"/>
<stop offset="0.9966" stop-color="white" stop-opacity="0"/>
</linearGradient>
<linearGradient id="paint4_linear_230_8666" x1="103.274" y1="63.4849" x2="100.826" y2="61.8347" gradientUnits="userSpaceOnUse">
<stop stop-color="white" stop-opacity="0.05"/>
<stop offset="0.9966" stop-color="white" stop-opacity="0"/>
</linearGradient>
<clipPath id="clip0_230_8666">
<rect width="94" height="94" fill="white" transform="matrix(-0.934315 -0.356448 -0.356448 0.934315 121.485 33.6597)"/>
</clipPath>
</defs>
</svg>
