<svg width="118" height="99" viewBox="0 0 118 99" fill="none" xmlns="http://www.w3.org/2000/svg">
<g opacity="0.1" clip-path="url(#clip0_211_804)">
<path d="M98.8479 55.164C88.1121 53.3792 78.3163 34.1819 65.4547 27.6649C54.7192 22.2215 47.6388 8.04124 34.5045 5.00957C20.0639 1.68111 20.5615 30.6067 23.5383 37.4366C23.5383 37.4366 14.3267 51.3035 16.8918 65.4068C16.8918 65.4068 51.494 88.7423 79.3351 87.9562C83.2175 87.8492 87.1795 70.1976 87.1795 70.1976C110.128 74.6819 109.584 56.9488 98.8479 55.164Z" fill="url(#paint0_linear_211_804)"/>
<path d="M96.2058 54.2346C85.47 52.4498 75.6742 33.2524 62.8126 26.7355C52.0771 21.2921 44.9967 7.11179 31.8624 4.08013C17.4218 0.751664 17.9194 29.6772 20.8962 36.5071C20.8962 36.5071 11.6846 50.3741 14.2497 64.4774C14.2497 64.4774 48.8519 87.8129 76.693 87.0267C80.5754 86.9198 84.5374 69.2681 84.5374 69.2681C107.486 73.7525 106.942 56.0194 96.2058 54.2346Z" stroke="white" stroke-width="3" stroke-miterlimit="10" stroke-linecap="round"/>
<path d="M33.7597 47.5131C33.7597 47.5131 33.6874 47.4102 33.5517 47.2229C33.4209 47.0219 33.2187 46.8034 32.9752 46.2837C32.8565 46.0482 32.7131 45.7729 32.5952 45.4911C32.5048 45.219 32.3987 44.9259 32.2929 44.6096C32.1709 44.2954 32.1117 43.9568 32.025 43.6084C31.9476 43.2556 31.845 42.8862 31.7959 42.4969C31.74 42.1051 31.6795 41.704 31.6239 41.2892C31.5915 40.8747 31.5639 40.4464 31.5273 39.9994C31.4815 39.5569 31.5005 39.1063 31.485 38.6435C31.4833 38.1856 31.4658 37.7066 31.5014 37.2308C31.5232 36.7501 31.5451 36.2694 31.5693 35.7819C31.6167 35.2947 31.6665 34.8006 31.7094 34.3041C31.7952 33.3111 31.9759 32.3127 32.1197 31.309C32.3211 30.3179 32.4718 29.3167 32.7166 28.3564C32.9407 27.3888 33.1576 26.4419 33.4292 25.5375C33.6802 24.6259 33.9328 23.7535 34.2123 22.9372C34.4779 22.1159 34.7197 21.3406 34.9973 20.6398C35.261 19.9342 35.496 19.2882 35.7136 18.7137C35.9427 18.1508 36.1474 17.657 36.3206 17.2529C36.6532 16.4397 36.8458 15.9803 36.8458 15.9803C36.9712 15.6679 37.3321 15.5235 37.6445 15.649C37.9501 15.7719 38.0993 16.119 37.9832 16.427L37.9759 16.4477C37.9759 16.4477 37.7995 16.905 37.4994 17.7141C37.3493 18.1186 37.1632 18.6035 36.948 19.1712C36.7559 19.7392 36.544 20.3856 36.3058 21.0847C36.0607 21.7813 35.8445 22.5502 35.6068 23.358C35.3622 24.1634 35.1351 25.0292 34.9215 25.923C34.6847 26.8164 34.4982 27.743 34.3114 28.6927C34.097 29.6327 33.986 30.6091 33.8174 31.573C33.7089 32.5425 33.5634 33.5068 33.5129 34.4657C33.4842 34.944 33.4485 35.4198 33.4178 35.8818C33.4077 36.3511 33.4025 36.8066 33.3973 37.2621C33.3783 37.7128 33.4079 38.1573 33.4262 38.59C33.4514 39.0252 33.449 39.4507 33.5001 39.8563C33.5419 40.2663 33.5816 40.6601 33.6238 41.047C33.6939 41.4205 33.7527 41.7823 33.8163 42.1302C33.8637 42.4802 33.9695 42.7965 34.0477 43.103C34.1352 43.4051 34.1927 43.7044 34.2996 43.9513C34.3948 44.2096 34.4834 44.4423 34.5676 44.6657C34.6615 44.8615 34.7493 45.0087 34.8253 45.1672C34.927 45.451 35.1881 45.7444 35.3168 45.9293C35.4525 46.1165 35.5341 46.215 35.5341 46.215L35.541 46.2174C35.9029 46.7091 35.8014 47.3942 35.3167 47.7586C34.8319 48.1229 34.1467 48.0214 33.7824 47.5366C33.7755 47.5342 33.7666 47.5155 33.7621 47.5062L33.7597 47.5131Z" fill="white"/>
<path d="M41.8011 50.3032C41.8011 50.3032 41.8441 50.2253 41.9368 50.0718C42.0202 49.9229 42.1441 49.7029 42.3036 49.4257C42.6206 48.8551 43.0644 48.0345 43.5598 47.0229C44.0622 46.0136 44.6069 44.8177 45.1556 43.5225C45.423 42.8724 45.6909 42.1992 45.9567 41.5098C46.2018 40.8131 46.4793 40.1124 46.6992 39.3991C46.9261 38.6882 47.1691 37.9753 47.3497 37.2637C47.5534 36.5525 47.7454 35.8526 47.8931 35.1682C48.0547 34.4886 48.2021 33.8273 48.3028 33.1884C48.4081 32.5588 48.5405 31.962 48.589 31.4055C48.6538 30.8469 48.7153 30.3414 48.7737 29.8891C48.7996 29.4409 48.8223 29.0458 48.8439 28.7201C48.8777 28.0731 48.9 27.7011 48.9 27.7011L48.9057 27.6411C48.9316 27.1929 49.3166 26.8477 49.7648 26.8736C50.2061 26.8971 50.5468 27.2728 50.5395 27.712C50.5395 27.712 50.5261 28.1026 50.5033 28.7845C50.4907 29.1289 50.4769 29.5426 50.4575 30.0164C50.415 30.4898 50.3599 31.0208 50.3017 31.6049C50.2597 32.187 50.1407 32.8118 50.0464 33.4762C49.9591 34.1432 49.8182 34.83 49.6677 35.5444C49.5309 36.2637 49.3523 36.9916 49.1596 37.7377C48.9831 38.4817 48.7535 39.2226 48.5376 39.9683C48.3287 40.7165 48.0577 41.4428 47.8236 42.1744C47.5712 42.8917 47.3074 43.5974 47.0465 44.273C46.5084 45.6262 45.9836 46.8756 45.4829 47.9242C44.996 48.9777 44.5584 49.8469 44.2362 50.4545C44.0738 50.7617 43.9427 51.0023 43.8544 51.1651C43.7661 51.3278 43.7139 51.4102 43.7139 51.4102C43.4183 51.9418 42.7493 52.125 42.2176 51.8295C41.686 51.5339 41.5028 50.8648 41.7983 50.3332C41.7983 50.3332 41.8032 50.3194 41.8056 50.3125L41.8129 50.2918L41.8011 50.3032Z" fill="white"/>
<path d="M49.6216 53.721C49.6216 53.721 49.6869 53.6897 49.8012 53.6292C49.9038 53.58 50.0789 53.4788 50.3007 53.3553C50.7421 53.092 51.3663 52.6837 52.0833 52.1221C52.4326 51.8341 52.8262 51.5307 53.2067 51.1763C53.5941 50.8242 53.9981 50.447 54.3911 50.0349C54.8024 49.637 55.18 49.1807 55.5876 48.7272C55.9814 48.2689 56.3435 47.7684 56.7283 47.2914C57.0766 46.7861 57.4388 46.2856 57.7664 45.773C58.0826 45.2486 58.394 44.738 58.6912 44.2457C58.9588 43.7275 59.226 43.2324 59.4697 42.76C59.7134 42.2876 59.9016 41.819 60.0983 41.3921C60.2881 40.9627 60.4702 40.5772 60.5964 40.2185C60.7226 39.8599 60.8456 39.5543 60.9447 39.2946C61.1336 38.7797 61.2424 38.4924 61.2424 38.4924L61.2545 38.4579C61.354 38.1751 61.6731 38.0393 61.9466 38.1433C62.2156 38.2379 62.3587 38.5363 62.2709 38.8078C62.2709 38.8078 62.178 39.1161 62.0049 39.6521C61.9172 39.9236 61.8193 40.2457 61.7021 40.623C61.5917 41.0028 61.4254 41.4094 61.2584 41.8622C61.0775 42.3102 60.9097 42.8093 60.6839 43.3189C60.4512 43.8262 60.2087 44.361 59.9546 44.9072C59.6728 45.4437 59.3769 45.9985 59.0761 46.5671C58.757 47.1214 58.401 47.6706 58.0658 48.227C57.6846 48.7596 57.3286 49.3087 56.941 49.8157C56.5395 50.3179 56.1657 50.8297 55.7419 51.2852C55.3432 51.7574 54.9291 52.1853 54.5316 52.5881C54.1341 52.9908 53.7305 53.3449 53.3642 53.6811C52.6157 54.3325 51.9368 54.8301 51.4455 55.1688C51.193 55.3358 51.0012 55.4621 50.8379 55.5519C50.6932 55.6328 50.6161 55.6755 50.6161 55.6755C50.0908 55.979 49.4185 55.7967 49.115 55.2714C48.8114 54.746 48.9937 54.0737 49.526 53.7726C49.5446 53.7637 49.5564 53.7523 49.575 53.7434L49.6216 53.721Z" fill="white"/>
<path d="M66.5645 61.6584C66.5645 61.6584 66.7924 61.5835 67.0815 61.4449C67.2376 61.3758 67.4168 61.3071 67.641 61.1767C67.8672 61.0625 68.1169 60.9255 68.3921 60.7821C68.6609 60.6131 68.9483 60.4351 69.2568 60.2413C69.4063 60.1467 69.5652 60.0475 69.7266 59.9415C69.8765 59.8237 70.0334 59.7084 70.1927 59.5861C70.5088 59.3485 70.8367 59.0996 71.1739 58.8461C71.4928 58.5785 71.8008 58.276 72.1177 57.9922C72.4301 57.699 72.7584 57.4269 73.0526 57.1196C73.3329 56.8074 73.6133 56.4952 73.8819 56.1943C74.1505 55.8935 74.4143 55.6065 74.6594 55.3284C74.8976 55.0479 75.0875 54.7504 75.286 54.4946C76.0504 53.4458 76.566 52.7512 76.566 52.7512L76.611 52.6896C76.8666 52.3376 77.3581 52.2625 77.7031 52.5157C78.0412 52.7664 78.1236 53.2372 77.8936 53.5826C77.8936 53.5826 77.3861 54.342 76.6296 55.4789C76.4376 55.7602 76.2473 56.0808 76.0063 56.3914C75.7608 56.6926 75.4918 57.0165 75.2204 57.3474C74.9489 57.6782 74.6658 58.0204 74.3802 58.3695C74.0832 58.7069 73.7404 59.0204 73.4227 59.3505C73.0937 59.6688 72.7805 60.0082 72.4401 60.3148C72.0883 60.6096 71.7414 60.8906 71.4107 61.1696C71.2465 61.3057 71.08 61.4486 70.9183 61.5777C70.7452 61.6951 70.579 61.815 70.4153 61.9279C70.0878 62.1537 69.772 62.3682 69.4842 62.5693C69.1806 62.7493 68.8981 62.9134 68.6459 63.0573C68.4076 63.206 68.1582 63.3198 67.9531 63.4182C67.5404 63.6218 67.3519 63.695 67.3519 63.695L67.289 63.7194C66.7189 63.9297 66.0924 63.6395 65.8821 63.0694C65.6718 62.4993 65.962 61.8728 66.5321 61.6625C66.5321 61.6625 66.5507 61.6535 66.5601 61.6491L66.5645 61.6584Z" fill="white"/>
<path d="M77.9372 66.326C77.9372 66.326 77.9928 66.3223 78.1039 66.3149C78.1988 66.3095 78.3424 66.298 78.5395 66.2666C78.9357 66.2199 79.5039 66.1253 80.1819 65.9607C80.8575 65.8031 81.6453 65.5686 82.453 65.2559C82.858 65.0961 83.2659 64.9063 83.6806 64.7189C84.0775 64.4942 84.506 64.3116 84.8874 64.0427C85.2778 63.7925 85.6681 63.5422 86.0175 63.2543C86.1979 63.1162 86.3713 62.9757 86.5448 62.8352C86.7069 62.6829 86.8621 62.5282 87.0148 62.3804C87.17 62.2257 87.3341 62.0897 87.4662 61.9346C87.6007 61.7726 87.7259 61.6151 87.8555 61.4669C87.9783 61.3163 88.1079 61.1682 88.2283 61.0244C88.3372 60.869 88.4299 60.7156 88.5271 60.5715C88.7077 60.2785 88.8993 60.0203 89.0354 59.7658C89.1576 59.5065 89.2653 59.2886 89.3539 59.1028C89.5312 58.731 89.634 58.5269 89.634 58.5269L89.6607 58.451C89.8255 58.1369 90.2046 58.0067 90.5211 58.1646C90.8263 58.3107 90.9544 58.6736 90.8314 58.9792C90.8314 58.9792 90.7327 59.2157 90.5615 59.6361C90.4725 59.8451 90.3665 60.1024 90.2484 60.3941C90.1095 60.6786 89.9241 60.9854 89.7358 61.3223C89.6382 61.4895 89.5427 61.6729 89.4333 61.8515C89.3102 62.0252 89.1802 62.1965 89.0477 62.3747C88.9153 62.5529 88.778 62.7449 88.6362 62.9276C88.492 63.1171 88.3181 63.2808 88.1532 63.4631C87.9883 63.6453 87.8165 63.8252 87.6423 64.0119C87.4567 64.187 87.2667 64.3526 87.0742 64.5252C86.7006 64.8821 86.2746 65.1896 85.851 65.4902C85.4409 65.8187 84.9722 66.0492 84.5397 66.3311C84.0893 66.5757 83.6414 66.8135 83.1986 67.0143C82.3132 67.4159 81.4593 67.7279 80.7063 67.9513C79.9602 68.1772 79.3219 68.317 78.8649 68.4042C78.6398 68.4491 78.4521 68.476 78.3129 68.4969C78.1901 68.5156 78.1252 68.5238 78.1252 68.5238C77.5225 68.6064 76.9721 68.1879 76.8896 67.5853C76.807 66.9826 77.2255 66.4322 77.8281 66.3496C77.8443 66.3476 77.8674 66.348 77.8861 66.339L77.9185 66.335L77.9372 66.326Z" fill="white"/>
<path d="M25.2881 41.5173C25.2881 41.5173 25.2552 41.4127 25.1893 41.2035C25.1144 40.9756 25.0427 40.6946 24.9426 40.3183C24.8493 39.9444 24.7389 39.487 24.6435 38.9651C24.5318 38.4452 24.4444 37.8563 24.3464 37.2095C24.2715 36.563 24.1674 35.8675 24.1172 35.1289C24.0438 34.39 24.0082 33.61 23.9729 32.807C23.9307 32.0015 23.9582 31.174 23.9468 30.3251C23.9862 29.4862 23.9958 28.6214 24.0607 27.7761C24.1349 26.9263 24.179 26.0736 24.2877 25.2359C24.4008 24.4076 24.4815 23.5833 24.6126 22.7922C24.7505 22.0036 24.8787 21.2425 24.9993 20.5253C25.1498 19.8108 25.2952 19.1333 25.4304 18.5065C25.6778 17.2525 25.9952 16.2402 26.1713 15.5193C26.3612 14.8032 26.4675 14.391 26.4675 14.391C26.5535 14.0802 26.8665 13.8957 27.1797 13.9749C27.4836 14.0586 27.6636 14.3622 27.603 14.6664L27.5933 14.694C27.5933 14.694 27.5033 15.1042 27.3458 15.8162C27.1952 16.5306 26.9265 17.5368 26.7303 18.7778C26.623 19.3912 26.5032 20.0622 26.3806 20.7632C26.2856 21.4739 26.1853 22.2215 26.0847 22.9923C25.991 23.7655 25.9407 24.5695 25.8624 25.3868C25.7866 26.1973 25.7797 27.0321 25.7359 27.8616C25.7084 28.6891 25.7271 29.5173 25.7206 30.3289C25.7603 31.1413 25.7725 31.944 25.8361 32.7106C25.8974 33.484 25.9545 34.225 26.0562 34.9274C26.1348 35.6294 26.2535 36.2836 26.3498 36.8911C26.4717 37.4921 26.5712 38.0464 26.6905 38.5225C26.8005 39.003 26.9186 39.4166 27.0171 39.7536C27.118 40.0837 27.2014 40.3533 27.2568 40.5045C27.321 40.6744 27.3519 40.7628 27.3519 40.7628L27.3674 40.807C27.5777 41.3771 27.285 42.0106 26.7174 42.2139C26.1473 42.4242 25.5139 42.1316 25.3105 41.5639C25.306 41.5546 25.304 41.5384 25.2995 41.5291L25.2881 41.5173Z" fill="white"/>
<path d="M20.894 36.5142C20.894 36.5142 31.0089 47.1808 57.6243 58.8465" stroke="white" stroke-width="3" stroke-miterlimit="10" stroke-linecap="round"/>
<path d="M84.5373 69.2681C84.5373 69.2681 74.7354 66.9437 65.2993 62.5" stroke="white" stroke-width="3" stroke-miterlimit="10" stroke-linecap="round"/>
<path d="M18.2539 42.4765C18.2539 42.4765 18.3266 42.5563 18.4512 42.7087C18.5763 42.8379 18.7606 43.0191 18.988 43.2541C19.1992 43.4912 19.5645 43.7747 19.9197 44.109C20.102 44.2739 20.3026 44.453 20.51 44.6345C20.7361 44.807 20.9667 44.9889 21.2086 45.1825C21.7043 45.5585 22.2129 45.9855 22.7934 46.4067C23.3787 46.8142 24.0029 47.2431 24.6455 47.6862C24.9702 47.9089 25.2949 48.1317 25.6241 48.3638C25.9674 48.5776 26.3108 48.7914 26.6704 49.0032C27.3709 49.4356 28.0852 49.873 28.7995 50.3103C29.4997 50.7659 30.2496 51.146 30.9761 51.5489C31.6956 51.9493 32.4107 52.3404 33.1006 52.7149C33.7905 53.0894 34.4525 53.4773 35.1042 53.7841C35.751 54.1047 36.3658 54.4062 36.9348 54.6839C39.2012 55.7991 40.7084 56.5386 40.7084 56.5386L40.736 56.5483C41.0526 56.7062 41.1872 57.0946 41.0269 57.4181C40.8715 57.7277 40.4992 57.8603 40.1848 57.7186C40.1848 57.7186 38.6399 57.0201 36.3192 55.9711C35.736 55.7117 35.1095 55.4215 34.446 55.1261C33.7708 54.842 33.0971 54.4655 32.3837 54.1138C31.6727 53.7551 30.9365 53.3798 30.1935 53.0022C29.446 52.6151 28.6818 52.2533 27.9444 51.8156C27.2021 51.3917 26.4598 50.9677 25.7289 50.5556C25.36 50.3483 25.0004 50.1365 24.6453 49.934C24.2975 49.7109 23.9565 49.4902 23.6132 49.2764C22.9382 48.8374 22.286 48.4219 21.6682 48.0185C21.0529 47.6082 20.5004 47.1736 19.9748 46.7949C19.7166 46.6033 19.4629 46.421 19.223 46.2436C18.9949 46.0548 18.7736 45.8685 18.5682 45.7032C18.1578 45.3495 17.799 45.0915 17.5034 44.7859C17.2074 44.5035 16.9776 44.2754 16.8205 44.1271C16.6865 43.9792 16.6114 43.9063 16.6114 43.9063C16.2025 43.4601 16.2302 42.7645 16.6763 42.3556C17.1225 41.9467 17.8181 41.9743 18.227 42.4205C18.2339 42.4229 18.2453 42.4347 18.2498 42.444L18.2725 42.4675L18.2539 42.4765Z" fill="white"/>
</g>
<defs>
<linearGradient id="paint0_linear_211_804" x1="27.3027" y1="2.32788" x2="116.833" y2="34.4133" gradientUnits="userSpaceOnUse">
<stop stop-color="white" stop-opacity="0.05"/>
<stop offset="0.9966" stop-color="white" stop-opacity="0"/>
</linearGradient>
<clipPath id="clip0_211_804">
<rect width="98.6128" height="70" fill="white" transform="translate(23.9883) rotate(19.3822)"/>
</clipPath>
</defs>
</svg>
