<svg width="110" height="110" fill="none" xmlns="http://www.w3.org/2000/svg"><g clip-path="url(#clip0_210_761)"><path d="M58.237 50.106a1.327 1.327 0 001.813-.463c.045-.075 4.51-7.578 7.106-10.655a1.322 1.322 0 00-2.024-1.705c-2.734 3.242-7.168 10.695-7.356 11.01a1.323 1.323 0 00.461 1.813zm-7.1-13.432a1.32 1.32 0 00.43-.442c.044-.075 4.51-7.578 7.105-10.655a1.322 1.322 0 00-2.024-1.706c-2.734 3.243-7.168 10.695-7.356 11.011a1.323 1.323 0 001.846 1.792z" fill="url(#paint0_linear_210_761)"/><path d="M76.546 17.472a1.323 1.323 0 00-.41 1.824l27.571 43.588a3.973 3.973 0 01-1.232 5.474L75.652 85.325l-1.627-2.572c1.269-1.6 4.673-5.614 8.857-8.261 9.736-6.159 17.711-8.184 17.791-8.204a1.322 1.322 0 00.908-.79 1.324 1.324 0 00-.11-1.2L70.365 15.122a1.32 1.32 0 00-1.565-.537s-1 .359-2.672 1.031a1.322 1.322 0 00.986 2.454c.529-.212 1.059-.42 1.59-.625l29.593 46.782c-2.953.938-9.338 3.291-16.829 8.03-4.87 3.08-8.641 7.705-9.778 9.183-1.683.251-6.646 1.206-11.457 4.249-7.698 4.87-13.236 10.15-15.553 12.519L15.03 51.336c1.885-1.961 7.57-7.565 15.51-12.588 4.076-2.577 8.373-3.52 10.107-3.813l27.82 43.98a1.323 1.323 0 002.3-.113c.069-.136 6.958-13.754 14.714-23.247a1.323 1.323 0 00.094-1.544L56.589 8.188a1.322 1.322 0 00-2.173-.092c-6.82 9.01-12.307 20.365-12.362 20.478a1.323 1.323 0 002.383 1.146c.05-.104 4.823-9.981 10.95-18.484l27.447 43.389C76.88 62.1 71.654 71.469 69.474 75.56l-27.05-42.765a1.324 1.324 0 00-1.25-.609c-.253.027-6.261.666-12.047 4.326-10.1 6.388-16.481 13.485-16.748 13.785a1.322 1.322 0 00-.131 1.587l31.106 49.175a1.325 1.325 0 001.825.411 1.29 1.29 0 00.279-.237c.064-.07 6.419-7.13 16.19-13.31 4.085-2.584 8.381-3.52 10.106-3.812l1.662 2.627-26.823 16.967a3.971 3.971 0 01-5.474-1.232L13.548 58.887a1.323 1.323 0 00-2.236 1.413l27.572 43.588a6.62 6.62 0 009.123 2.054l55.882-35.349a6.62 6.62 0 002.053-9.123L78.371 17.883a1.321 1.321 0 00-1.825-.411z" fill="url(#paint1_linear_210_761)"/><path d="M53.995 43.4a1.326 1.326 0 001.814-.462c.044-.076 4.509-7.579 7.105-10.656a1.322 1.322 0 00-2.024-1.705c-2.734 3.242-7.168 10.695-7.356 11.01a1.323 1.323 0 00.461 1.814zm8.484 13.412a1.327 1.327 0 001.813-.463c.045-.075 4.51-7.578 7.106-10.655a1.323 1.323 0 00-2.024-1.706C66.64 47.231 62.206 54.683 62.018 55a1.323 1.323 0 00.46 1.813zm-22.28-10.78c-7.926 2.745-14.463 9.77-14.737 10.066a1.323 1.323 0 101.945 1.793c.061-.069 6.356-6.83 13.659-9.361a1.322 1.322 0 10-.867-2.498zm4.242 6.705c-7.925 2.747-14.464 9.77-14.737 10.067a1.322 1.322 0 101.944 1.793c.062-.069 6.356-6.831 13.66-9.362a1.322 1.322 0 10-.867-2.498zm22.28 10.781a1.327 1.327 0 001.813-.463c.044-.075 4.51-7.578 7.105-10.655a1.323 1.323 0 00-2.023-1.706c-2.735 3.243-7.169 10.695-7.357 11.011a1.323 1.323 0 00.462 1.813zm-18.039-4.075c-7.925 2.747-14.464 9.769-14.737 10.067a1.322 1.322 0 001.945 1.793c.062-.069 6.356-6.831 13.66-9.362a1.322 1.322 0 10-.867-2.498zm8.484 13.412C49.24 75.6 42.703 82.624 42.429 82.92a1.323 1.323 0 001.945 1.793c.061-.068 6.356-6.83 13.659-9.361a1.322 1.322 0 10-.867-2.498zm-4.242-6.706c-7.926 2.746-14.464 9.769-14.737 10.067a1.323 1.323 0 001.945 1.793c.062-.07 6.356-6.831 13.66-9.362a1.322 1.322 0 10-.867-2.498z" fill="url(#paint2_linear_210_761)"/></g><defs><linearGradient id="paint0_linear_210_761" x1="45.776" y1="30.676" x2="58.142" y2="22.898" gradientUnits="userSpaceOnUse"><stop stop-color="#fff" stop-opacity=".12"/><stop offset=".997" stop-color="#fff" stop-opacity=".01"/></linearGradient><linearGradient id="paint1_linear_210_761" x1="0" y1="42.418" x2="67.515" y2=".104" gradientUnits="userSpaceOnUse"><stop stop-color="#fff" stop-opacity=".12"/><stop offset=".997" stop-color="#fff" stop-opacity=".01"/></linearGradient><linearGradient id="paint2_linear_210_761" x1="23.181" y1="54.357" x2="62.604" y2="29.707" gradientUnits="userSpaceOnUse"><stop stop-color="#fff" stop-opacity=".12"/><stop offset=".997" stop-color="#fff" stop-opacity=".01"/></linearGradient><clipPath id="clip0_210_761"><path fill="#fff" transform="rotate(-32.316 73.203 21.21)" d="M0 0h79.348v79.348H0z"/></clipPath></defs></svg>