<svg width="104" height="89" fill="none" xmlns="http://www.w3.org/2000/svg"><g opacity=".2"><path d="M13.032 57.853c8.393-1.268 32.688 7.084 48.082 22.495 0 0 6.966-3.347 10.648-8.23 0 0 6.033 7.627 10.037-.51 0 0 9.915 1.035 7.74-10.99 0 0 5.555-11.014-9.59-16.695 0 0 22.037-7.55-15.912-19.857 0 0 4.91-4.506-7.518-8.723-12.43-4.212-16.956 2.474-16.956 2.474s-6.195-10.705-14.636 1.361c0 0-5.622-4.233-6.927 4.969 0 0-10.865 3.126-5.11 9.421 0 0 4.161 4.15 2.825 5.723-1.335 1.573-2.159 3.026-.15 6.734-2.963 4.102-2.533 11.828-2.533 11.828z" stroke="#fff" stroke-width="3" stroke-miterlimit="10" stroke-linecap="round"/><path d="M15.02 45.422s.066-.066.26-.21a9.27 9.27 0 01.771-.533c.168-.102.35-.209.556-.329.206-.107.427-.22.67-.34.235-.131.497-.23.774-.347.274-.112.56-.249.874-.342l.962-.325c.34-.087.688-.176 1.048-.266.36-.102.733-.167 1.115-.229.383-.06.773-.137 1.17-.191.4-.035.808-.073 1.215-.11.207-.018.413-.035.622-.058l.627-.007c.418-.008.838-.01 1.266-.014.426-.01.845.041 1.274.062.426.025.845.053 1.269.083.417.045.834.114 1.247.17.412.054.822.114 1.227.171.406.058.795.162 1.181.234.77.175 1.53.296 2.22.499a453 453 0 001.96.556c.61.16 1.153.36 1.636.531.484.173.901.32 1.25.447.69.244 1.084.387 1.084.387a.546.546 0 01.332.702.547.547 0 01-.692.337l-.029-.014-1.077-.354c-.343-.112-.758-.252-1.23-.407-.477-.163-1.01-.346-1.609-.488-.592-.158-1.239-.328-1.917-.507-.68-.186-1.415-.284-2.168-.444-.377-.068-.758-.163-1.146-.206-.393-.045-.785-.091-1.183-.139-.4-.043-.8-.098-1.203-.136-.406-.016-.81-.037-1.217-.053-.404-.009-.813-.056-1.214-.034-.403.016-.804.026-1.2.04l-.593.022-.582.064c-.386.042-.766.086-1.145.125-.37.061-.73.139-1.091.204a9.254 9.254 0 00-1.033.232l-.963.264c-.304.11-.593.215-.872.312-.283.09-.54.216-.787.323-.245.113-.486.205-.692.324-.209.113-.408.218-.585.315-.17.107-.33.206-.474.295-.27.18-.505.346-.614.44-.114.09-.2.17-.2.17a.82.82 0 01-1.154-.035.82.82 0 01.036-1.154l.031-.028-.007-.01zM70.95 72.16s-.001-.074-.014-.212a9.962 9.962 0 00-.067-.602c-.043-.266-.088-.594-.178-.966-.07-.375-.195-.788-.317-1.247-.155-.45-.289-.946-.497-1.451-.103-.253-.195-.518-.307-.78-.118-.26-.244-.53-.363-.801-.24-.551-.56-1.085-.845-1.644-.332-.534-.65-1.098-1.01-1.626-.375-.518-.718-1.069-1.12-1.557-.401-.488-.77-.996-1.177-1.445-.408-.45-.799-.884-1.176-1.295l-1.12-1.095a14.428 14.428 0 00-.977-.901c-.298-.26-.562-.48-.78-.666l-.677-.58-.02-.022a.489.489 0 01-.052-.697.493.493 0 01.689-.062s.256.21.71.573c.226.184.502.403.82.66.322.247.666.551 1.027.895.369.34.767.707 1.193 1.092.4.415.82.852 1.257 1.303.435.455.837.968 1.27 1.465.434.497.808 1.056 1.218 1.59.394.545.747 1.124 1.113 1.674.322.583.674 1.138.947 1.71.14.288.282.564.41.84.13.277.238.557.357.828.243.534.402 1.065.585 1.547.146.495.294.936.387 1.352.105.404.173.772.232 1.07.05.305.084.537.104.727l.023.257a.815.815 0 11-1.623.147s0-.012-.002-.02l-.004-.043-.015-.019zM13.454 50.256l.195-.083a21.461 21.461 0 012.563-.86 22.11 22.11 0 011.356-.334c.478-.112.997-.194 1.529-.293.533-.063 1.085-.165 1.65-.206a22.274 22.274 0 011.717-.104c.29-.003.574-.02.866-.016.29.01.572.022.854.034.567.007 1.123.075 1.66.134.538.041 1.051.15 1.538.239.242.047.481.087.71.134.226.058.444.117.652.173.42.118.805.203 1.137.315.329.118.62.225.856.311.477.175.744.27.744.27a.642.642 0 01-.424 1.213l-.049-.023s-.262-.08-.706-.234a52.626 52.626 0 01-.807-.276c-.314-.099-.68-.174-1.072-.273-.199-.051-.404-.1-.614-.15-.218-.035-.44-.073-.67-.108-.459-.071-.94-.17-1.45-.198-.506-.045-1.026-.102-1.563-.095l-.803-.016c-.27 0-.539.024-.814.034-.54.012-1.082.07-1.613.128-.532.045-1.05.152-1.551.223-.498.103-.982.19-1.432.303-.454.112-.882.218-1.268.338a21.172 21.172 0 00-2.342.838c-.113.049-.175.08-.175.08l-.022.008a.817.817 0 11-.67-1.491s.009-.008.014-.005l.004-.01zm26.884-32.185s-.014.03-.027.084c-.018.039-.038.12-.067.232a9.833 9.833 0 00-.302 2.249c.007.243-.006.502.025.756.011.258.04.517.088.774.028.26.096.513.15.767.049.257.145.488.214.725.062.239.174.447.255.66.081.211.18.396.273.571.094.17.164.341.258.475.086.137.164.251.227.347.127.191.2.304.2.304l.03.05a.592.592 0 01-.974.673l-.242-.33c-.076-.107-.172-.236-.277-.381-.111-.148-.206-.33-.32-.522-.115-.192-.244-.403-.348-.643-.105-.236-.245-.475-.33-.743-.092-.265-.218-.535-.286-.825a8.088 8.088 0 01-.22-.877 7.474 7.474 0 01-.142-.89c-.046-.297-.049-.587-.071-.873a11.29 11.29 0 01.223-2.646c.031-.13.053-.24.08-.323.02-.069.034-.11.034-.11a.814.814 0 011.004-.57c.436.12.688.569.568 1.005l-.016.034-.012.025.005.002zm-14.691 1.492s-.023.05-.077.139c-.041.088-.11.212-.199.387-.173.345-.398.852-.647 1.474-.112.315-.251.652-.363 1.02-.127.36-.239.753-.345 1.16-.121.4-.19.83-.289 1.258-.076.432-.138.872-.19 1.316-.02.44-.09.888-.065 1.32.011.438-.005.869.057 1.276.047.412.082.813.181 1.178.092.367.138.73.267 1.031.11.316.213.598.297.854l.313.627.274.542.028.056a.441.441 0 01-.777.417s-.117-.211-.328-.58c-.105-.188-.23-.408-.373-.667-.111-.274-.238-.58-.374-.92-.156-.331-.232-.72-.352-1.12-.13-.402-.191-.834-.264-1.282-.091-.445-.099-.917-.135-1.39-.047-.478.002-.954.002-1.44.031-.478.077-.961.135-1.432.08-.467.135-.928.238-1.367.085-.44.194-.864.307-1.26.104-.402.234-.768.337-1.117.235-.682.449-1.242.624-1.63.083-.189.159-.351.21-.46l.073-.157a.814.814 0 111.468.71l-.016.035-.01.02-.007.002zm54.216 25.173s-.247-.038-.681-.097a52.483 52.483 0 01-1.79-.303c-.367-.063-.763-.153-1.179-.239-.418-.094-.862-.17-1.313-.284-.453-.11-.92-.226-1.395-.34-.477-.11-.952-.248-1.43-.381-.477-.134-.955-.267-1.425-.403-.473-.131-.925-.294-1.369-.436-.441-.146-.868-.286-1.275-.416-.41-.126-.783-.277-1.129-.409-1.39-.53-2.316-.885-2.316-.885a.554.554 0 01-.318-.719.555.555 0 01.7-.327l.03.014 2.3.788c.347.12.717.251 1.121.362.402.116.823.241 1.262.368.44.122.887.271 1.352.38.463.115.935.234 1.41.348.472.119.945.238 1.411.33.47.1.93.194 1.372.287.445.1.88.16 1.288.236.412.067.796.145 1.157.194.72.102 1.32.191 1.726.236.422.048.663.07.663.07l.02.01a.812.812 0 11-.172 1.613c-.006-.003-.018-.002-.03-.002l.01.005zM63.883 24.87s-.754-.172-1.936-.364a40.55 40.55 0 00-4.335-.455 29.129 29.129 0 00-2.315-.014c-.365.021-.73.03-1.061.062-.335.035-.65.068-.941.1-.286.046-.553.09-.787.13-.238.033-.43.099-.595.13-.331.08-.52.123-.52.123l-.041.011a.526.526 0 01-.633-.392.526.526 0 01.366-.628s.2-.056.555-.16c.176-.044.389-.125.638-.17l.839-.178c.31-.047.64-.097.995-.153.354-.05.726-.075 1.116-.114a28.6 28.6 0 012.425-.091c1.649.003 3.286.132 4.51.273 1.22.138 2.048.291 2.048.291l.005.002a.816.816 0 11-.333 1.598zm24.885 36.012s-.019-.063-.037-.101c-.023-.053-.068-.176-.152-.317-.07-.147-.185-.322-.312-.525-.141-.198-.296-.42-.499-.654-.186-.243-.43-.477-.668-.738-.266-.24-.526-.517-.841-.755a11.21 11.21 0 00-.965-.745c-.333-.252-.694-.48-1.055-.71-.356-.238-.736-.44-1.1-.647a16.085 16.085 0 00-1.105-.577c-.37-.172-.707-.36-1.059-.495l-.963-.415c-.6-.256-1.115-.425-1.47-.567a24.86 24.86 0 00-.562-.209l-.024-.011a.551.551 0 01-.325-.717.56.56 0 01.697-.334l.58.193c.371.132.906.286 1.537.527.314.123.656.253 1.012.39.365.128.73.31 1.119.48.388.17.784.35 1.176.563.397.204.803.4 1.194.643.392.225.788.458 1.159.716.378.243.735.506 1.078.774.351.25.653.552.961.805.287.284.569.542.795.816.245.259.444.526.622.76.167.246.319.46.426.655.114.192.184.35.248.482l.078.193a.817.817 0 01-1.517.6l-.018-.051-.013-.036.003.007zM80.99 71.53l.01-.11c-.004-.044-.003-.11-.005-.195.008-.068-.023-.233-.04-.378a3.021 3.021 0 00-.093-.53c-.051-.199-.081-.417-.155-.644-.08-.229-.158-.47-.24-.719a5.954 5.954 0 00-.304-.76c-.114-.258-.225-.52-.341-.785-.104-.264-.264-.513-.392-.765-.135-.25-.266-.497-.394-.737-.127-.24-.245-.475-.39-.68-.133-.214-.258-.41-.374-.596-.47-.742-.779-1.235-.779-1.235l-.02-.034a.634.634 0 011.06-.7s.343.498.856 1.248l.414.602c.154.21.287.453.436.697l.443.76c.145.266.32.51.444.795.133.28.267.558.398.83.136.273.264.537.359.822l.3.795c.092.253.147.52.214.749a3.9 3.9 0 01.141.66c.027.21.068.356.073.55.007.178.008.329.005.411a1.588 1.588 0 01-.007.105.816.816 0 11-1.63-.096c.005-.01.003-.017.002-.029l.005-.034.004.002zM18.818 24.145l-.008.362c-.006.232-.007.567.003.969.014.805.07 1.876.212 2.933.065.529.163 1.05.268 1.53.047.245.124.467.178.684.06.22.14.408.198.591.055.189.144.332.201.48.058.146.126.256.18.347.11.19.17.29.17.29l.033.058a.471.471 0 01-.168.642.471.471 0 01-.621-.135l-.238-.34a2.867 2.867 0 01-.25-.399c-.082-.158-.197-.338-.277-.538-.08-.2-.19-.413-.272-.65-.077-.233-.18-.474-.252-.73a16.941 16.941 0 01-.414-1.617 29.357 29.357 0 01-.548-4.075 38.89 38.89 0 01-.02-.394.816.816 0 011.627-.091c.003.02 0 .041.002.06l-.007.015.003.008z" fill="#fff"/></g></svg>