<svg width="71" height="81" fill="none" xmlns="http://www.w3.org/2000/svg"><g opacity=".1" clip-path="url(#clip0_210_794)"><path d="M44.847 25a6.728 6.728 0 00-.883-3.6c-1.645-2.885-5.215-4.14-8.303-2.917-.6.236-1.163.557-1.671.953-2.556-.736-6.547-.21-9.548.39a3.548 3.548 0 01-3.51-1.276c-.85-1.052-1.037-2.414-.503-3.644.044-.1.068-.142.068-.142a.944.944 0 00-.723-1.491 10.884 10.884 0 00-6.494 1.8 10.703 10.703 0 00-4.213 5.435c-1.189 3.41-.561 7.207 1.575 10.056a6.86 6.86 0 00-1.05.54 6.705 6.705 0 00-2.65 8.182 6.727 6.727 0 002.27 2.93 8.664 8.664 0 00-.883 9.838 8.572 8.572 0 005.472 4.08l11.303 16.858a.944.944 0 00.991.395 80.384 80.384 0 0017.239-6.033 80.373 80.373 0 0015.44-9.755.944.944 0 00.308-1.022l-6.183-19.333c.107-.23.204-.464.29-.702a8.571 8.571 0 00-.085-6.12A8.665 8.665 0 0044.847 25zM16.226 56.362a8.527 8.527 0 003.267-.82l9.32 15.226a79.74 79.74 0 01-2.504.634l-10.083-15.04zm27.978-14.193a8.622 8.622 0 002.919-.194l6.321 17.268a78.075 78.075 0 01-2.227 1.504l-7.262-17.986c.087-.195.17-.393.249-.592zm5.392 19.604c-.747.461-1.502.91-2.264 1.345l-6.773-15.293c.848-.876 1.6-1.84 2.244-2.877l6.793 16.825zm-3.921 2.264c-.765.413-1.537.814-2.315 1.202l-6.902-14.285a17.426 17.426 0 002.635-1.78l6.582 14.863zM41.66 66.06a83.03 83.03 0 01-2.38 1.067l-7.554-14.394a17.42 17.42 0 003.032-.958L41.66 66.06zM29.759 53.043l7.772 14.81a79.39 79.39 0 01-2.461.938l-8.96-15.778c1.212.14 2.434.15 3.648.03zm-6.077-.487l9.577 16.868c-.85.284-1.703.554-2.561.81l-9.601-15.686a8.621 8.621 0 001.966-2.165c.206.061.412.12.619.173zm33.404 3.976a77.196 77.196 0 01-2.05 1.567l-6.138-16.764a8.526 8.526 0 002.673-2.05l5.515 17.247zm-5.734-25.41a6.687 6.687 0 01.064 4.776A6.705 6.705 0 0148.3 39.52a6.653 6.653 0 01-4.526.676.944.944 0 00-1.079.615 15.381 15.381 0 01-7.896 8.876 15.382 15.382 0 01-11.86.67.943.943 0 00-1.154.462 6.651 6.651 0 01-3.342 3.126 6.705 6.705 0 01-4.775.189 6.686 6.686 0 01-3.701-3.018c-1.574-2.753-1.005-6.266 1.352-8.368a.993.993 0 00.33-.558.945.945 0 00-.526-1.026 4.835 4.835 0 01-2.43-2.582c-.857-2.133-.039-4.661 1.903-5.881l.04-.025a3.957 3.957 0 012.522-.542c1.063.12 2.88.225 5.198-.033 2.386-.265 5.65-.968 9.25-2.706a31.558 31.558 0 004.676-2.789c.422-.303.56-.891.268-1.321a.943.943 0 00-1.333-.237c-5.022 3.617-9.833 4.807-12.985 5.168-2.753.316-4.758.073-5.45-.037a8.97 8.97 0 01-1.933-9.051c1.143-3.28 4.126-5.581 7.512-5.934-.345 1.585.04 3.223 1.103 4.54a5.475 5.475 0 005.349 1.942c4.13-.827 7.41-.94 9.009-.308a.963.963 0 001.012-.177c.443-.41.96-.734 1.521-.955 2.22-.878 4.706.071 5.97 2.097 2.072 3.322-1.722 14.452-18.998 18.365a.945.945 0 00-.706 1.156c.129.499.655.79 1.157.676 3.347-.76 6.153-1.774 8.501-2.91 4.372-2.111 7.156-4.64 8.874-6.717 2.138-2.583 3.025-4.894 3.356-5.995a6.764 6.764 0 016.843 4.214z" fill="#fff"/></g><defs><clipPath id="clip0_210_794"><path fill="#fff" transform="rotate(-25.787 52.249 34.948)" d="M0 0h60.248v60.248H0z"/></clipPath></defs></svg>