<svg width="55" height="55" fill="none" xmlns="http://www.w3.org/2000/svg"><g opacity=".2" clip-path="url(#clip0_230_8397)"><path d="M40.57 18.5c.254-.91.25-1.879-.02-2.804a5.103 5.103 0 00-5.6-3.6 5.11 5.11 0 00-1.396.409c-1.752-.99-4.78-1.3-7.094-1.384a2.683 2.683 0 01-2.359-1.553 2.643 2.643 0 01.268-2.77c.05-.066.075-.092.074-.092a.714.714 0 00-.27-1.225 8.232 8.232 0 00-5.094.188 8.095 8.095 0 00-4.051 3.262 8.225 8.225 0 00-.602 7.675 5.071 5.071 0 00-4.25 5.77 5.088 5.088 0 001.16 2.554 6.553 6.553 0 00-2.373 7.084 6.483 6.483 0 003.312 3.96l5.365 14.383a.713.713 0 00.66.464c4.61.053 9.231-.43 13.741-1.422a60.791 60.791 0 0013.07-4.475.715.715 0 00.404-.698L44.35 28.918a6.483 6.483 0 001.345-4.984A6.554 6.554 0 0040.57 18.5zM14.02 36.566a6.438 6.438 0 002.546-.032L20.76 49.37c-.651.02-1.302.03-1.953.028L14.02 36.567zm23.07-5.546a6.52 6.52 0 002.182.368L40.9 45.201c-.63.25-1.265.489-1.903.717l-2.195-14.506a12.3 12.3 0 00.287-.392zm.536 15.369c-.63.208-1.264.406-1.901.593l-2.307-12.438a12.98 12.98 0 002.155-1.724l2.053 13.569zm-3.282.98c-.635.17-1.273.33-1.913.478l-2.578-11.719a13.186 13.186 0 002.25-.848l2.241 12.088zm-3.307.785a60.68 60.68 0 01-1.938.368L26.06 36.61c.803.015 1.606-.043 2.398-.174l2.578 11.719zm-6.479-11.661l3.126 12.258a59.57 59.57 0 01-1.975.259l-3.83-13.178a12.97 12.97 0 002.679.66zm-4.386-1.422l4.094 14.087c-.675.061-1.35.11-2.026.148l-4.32-13.222a6.523 6.523 0 001.827-1.249c.14.081.282.16.425.236zm23.883 8.773c-.59.274-1.185.539-1.784.794l-1.58-13.41a6.448 6.448 0 002.324-1.04l1.04 13.656zm.228-19.7a5.057 5.057 0 01-.788 3.524 5.072 5.072 0 01-2.927 2.121 5.032 5.032 0 01-3.449-.295.714.714 0 00-.902.264 11.634 11.634 0 01-7.363 5.148 11.634 11.634 0 01-8.845-1.583.713.713 0 00-.93.138 5.03 5.03 0 01-3.006 1.715 5.072 5.072 0 01-3.546-.697 5.057 5.057 0 01-2.195-2.868c-.676-2.301.358-4.787 2.46-5.92a.76.76 0 00.34-.353.715.715 0 00-.208-.847 3.656 3.656 0 01-1.336-2.326c-.256-1.72.788-3.436 2.43-3.994l.034-.011a2.993 2.993 0 011.951.043c.76.274 2.08.669 3.83.885 1.802.222 4.327.277 7.28-.372a23.877 23.877 0 003.93-1.233c.363-.15.567-.558.427-.926a.714.714 0 00-.939-.407c-4.328 1.782-8.077 1.815-10.459 1.53-2.081-.25-3.513-.78-4.004-.982A6.785 6.785 0 0116.23 9.7c1.416-2.213 4.013-3.384 6.567-3.051-.532 1.106-.536 2.378.016 3.534a4.14 4.14 0 003.596 2.364c3.184.115 5.618.607 6.683 1.35a.73.73 0 00.776.048 3.676 3.676 0 011.286-.437c1.788-.257 3.45.877 4.025 2.588.944 2.807-3.796 10.333-17.193 10.188a.714.714 0 00-.721.727c.007.39.342.696.732.7 2.596.027 4.838-.229 6.765-.652 3.587-.79 6.078-2.163 7.705-3.39 2.025-1.527 3.083-3.072 3.519-3.824a5.116 5.116 0 014.297 4.298z" fill="#fff"/></g><defs><clipPath id="clip0_230_8397"><path fill="#fff" transform="rotate(-12.405 45.036 4.894)" d="M0 0h45.568v45.568H0z"/></clipPath></defs></svg>