<svg width="86" height="86" fill="none" xmlns="http://www.w3.org/2000/svg"><g opacity=".2" clip-path="url(#clip0_210_797)"><path d="M62.032 51.85a6.727 6.727 0 003.13-1.987c2.209-2.48 2.258-6.263.114-8.8a6.754 6.754 0 00-1.436-1.28c-.118-2.657-1.89-6.27-3.418-8.923a3.547 3.547 0 01.09-3.734c.725-1.14 1.956-1.754 3.292-1.64.11.01.157.02.156.02v-.001a.943.943 0 001.184-1.16 10.885 10.885 0 00-3.779-5.58 10.704 10.704 0 00-6.495-2.259c-3.612-.038-7.01 1.768-9.028 4.702a6.855 6.855 0 00-.847-.822 6.704 6.704 0 00-8.6.099 6.726 6.726 0 00-2.052 3.088 8.664 8.664 0 00-9.605 2.302 8.573 8.573 0 00-2.12 6.487l-12.37 16.093a.943.943 0 00-.058 1.065 80.385 80.385 0 0011.22 14.412 80.37 80.37 0 0014.172 11.52.943.943 0 001.067-.035l16.349-12.03a8.572 8.572 0 006.531-1.983 8.665 8.665 0 002.502-9.555zM23.175 34.732a8.526 8.526 0 001.82 2.835L13.539 51.259a77.211 77.211 0 01-1.4-2.17l11.036-14.356zm22.38 21.986a8.624 8.624 0 001.116 2.704L32.322 70.925a78.276 78.276 0 01-2.136-1.63l14.728-12.623c.213.02.427.035.64.047zM28.696 68.085a79.128 79.128 0 01-1.998-1.716L39.031 55.07c1.102.524 2.256.929 3.443 1.208L28.697 68.085zM25.3 65.093a79.178 79.178 0 01-1.878-1.81l11.336-11.1a17.427 17.427 0 002.527 1.929L25.3 65.09zm-3.198-3.159a78.946 78.946 0 01-1.77-1.915l11.23-11.752a17.43 17.43 0 001.875 2.567l-11.335 11.1zM30.64 46.5L19.084 58.592a78.78 78.78 0 01-1.674-2.033l12.094-13.526A17.155 17.155 0 0030.64 46.5zm-1.479-5.915L16.233 55.044a78.174 78.174 0 01-1.585-2.168l11.8-14.105a8.66 8.66 0 002.68 1.173c.007.214.018.427.033.641zm6.893 32.926a77.26 77.26 0 01-2.14-1.444l13.93-11.165a8.528 8.528 0 002.795 1.878L36.054 73.511zm22.25-13.544a6.688 6.688 0 01-4.504 1.585 6.706 6.706 0 01-4.429-1.796 6.653 6.653 0 01-2.084-4.074.943.943 0 00-.928-.826 15.382 15.382 0 01-10.932-4.65 15.383 15.383 0 01-4.42-11.028.941.941 0 00-.806-.945 6.652 6.652 0 01-4.029-2.17 6.705 6.705 0 01-1.703-4.465 6.686 6.686 0 011.68-4.47c2.106-2.37 5.617-2.952 8.36-1.39.194.11.416.168.635.135a.946.946 0 00.805-.826 4.835 4.835 0 011.672-3.127c1.747-1.493 4.404-1.524 6.18-.073l.037.03a3.958 3.958 0 011.318 2.217c.225 1.046.706 2.801 1.69 4.916 1.013 2.176 2.72 5.046 5.517 7.901a31.549 31.549 0 004.135 3.543c.422.304 1.023.246 1.338-.168a.945.945 0 00-.201-1.339c-5.03-3.605-7.694-7.785-9.042-10.657-1.178-2.508-1.587-4.485-1.704-5.177a8.97 8.97 0 017.961-4.72c3.473.037 6.605 2.13 8.021 5.226-1.613.178-3.042 1.066-3.952 2.494a5.475 5.475 0 00-.132 5.689c2.102 3.65 3.255 6.724 3.167 8.44a.963.963 0 00.49.902 4.88 4.88 0 011.391 1.137c1.541 1.824 1.434 4.482-.082 6.326-2.487 3.024-14.246 2.982-23.468-12.143a.944.944 0 00-1.32-.3c-.432.281-.541.873-.272 1.313 1.788 2.929 3.645 5.264 5.47 7.128 3.398 3.47 6.682 5.3 9.198 6.266 3.131 1.201 5.604 1.304 6.753 1.267a6.764 6.764 0 01-1.81 7.83z" fill="#fff"/></g><defs><clipPath id="clip0_210_797"><path fill="#fff" transform="rotate(45.602 21.09 52.264)" d="M0 0h60.248v60.248H0z"/></clipPath></defs></svg>