<svg width="107" height="85" fill="none" xmlns="http://www.w3.org/2000/svg"><path d="M99.367 25.97c-.433-3.252-.494-8.855 2.527-10.736.054-.034.094-.084.142-.127 2.47-.79 4.179-1.899 2.837-3.39L68.437.738 9.44 8.941s-6.756.965-6.152 11.461c.328 5.713 2.12 8.519 3.686 9.9L2.132 31.76c-1.344 1.491.365 2.6 2.836 3.39.047.043.086.093.141.127 3.02 1.883 2.961 7.485 2.527 10.738C-3.211 49.096.683 50.1.683 50.1l2.38.575c-1.674 1.513-3.336 4.38-3.025 9.82C.642 70.989 6.19 71.713 6.19 71.713l38.608 12.55 58.274-14.116s3.895-1.005-6.955-4.085c-.436-3.248-.497-8.85 2.53-10.737.055-.034.096-.084.14-.126 2.471-.79 4.179-1.898 2.837-3.39l-2.533-.765c1.689-1.018 4.226-3.68 4.624-10.596.274-4.757-.967-7.543-2.403-9.183l5.006-1.211c.001.002 3.896-1.003-6.952-4.084zm-48.743-.134l9.8-2.014 33.116-6.806 4.934-1.014c-1.576 2.885-1.51 6.834-1.25 9.372.058.574.124 1.098.187 1.497l-5.4 1.343-41.799 10.398.412-12.776zM8.529 36.049l4.934 1.015 31.804 6.538 2.778.569 8.332 1.712.411 12.776-42.96-10.688-4.235-1.052c.062-.4.128-.923.188-1.499.259-2.536.326-6.486-1.252-9.371zM6.613 19.897c-.06-2.792.438-4.81 1.443-5.837a2.621 2.621 0 011.913-.792c.274 0 .47.038.484.038l25.421 8.288 12.683 4.135-.416 12.865-35.58-9.975-1.878-.526a1.135 1.135 0 00-.235-.036c-.146-.01-3.664-.334-3.835-8.16zM44.89 78.688L7.434 68.187a1.11 1.11 0 00-.234-.037c-.15-.01-3.668-.334-3.839-8.157-.06-2.795.44-4.813 1.443-5.84a2.626 2.626 0 011.914-.791c.275 0 .471.036.486.036l38.1 12.425-.413 12.865zm49.082-13.222c.059.576.125 1.1.189 1.499l-47.2 11.742.412-12.777 10.09-2.075 1.491.361 5.586-1.815 25.748-5.291 4.935-1.016c-1.578 2.885-1.512 6.836-1.251 9.372zm2.6-17.363a.909.909 0 00-.253.038l-3.56.997-33.895 9.505-.415-12.866 11.12-3.627L96.5 33.368c.003-.002 1.416-.315 2.454.74 1.004 1.026 1.502 3.045 1.443 5.837-.176 7.822-3.695 8.148-3.823 8.157z" fill="#fff"/></svg>