<svg width="118" height="129" viewBox="0 0 118 129" fill="none" xmlns="http://www.w3.org/2000/svg">
<path d="M95.4385 68.8515L97.7223 66.6272C101.855 62.5997 104.536 57.3156 105.346 51.6018C106.156 45.8881 105.048 40.0671 102.197 35.0499L98.8244 29.121C98.6644 28.8401 98.4269 28.6112 98.1403 28.4616C97.8537 28.3121 97.5301 28.2483 97.2081 28.2778C96.8862 28.3073 96.5796 28.4288 96.3249 28.628C96.0702 28.8271 95.8783 29.0953 95.772 29.4007C94.8093 32.1605 93.1532 34.6264 90.9626 36.5616C91.6748 31.4662 90.8522 26.2741 88.5999 21.6484L87.8143 20.024C87.6685 19.7259 87.4379 19.4775 87.1514 19.3101C86.8649 19.1427 86.5353 19.0637 86.204 19.0831C85.8727 19.1024 85.5546 19.2192 85.2895 19.4189C85.0244 19.6185 84.8243 19.892 84.7142 20.2051C83.9222 22.4588 82.3434 24.351 80.268 25.534C78.1926 26.7169 75.76 27.1112 73.4172 26.6443L72.7976 26.5195C73.6807 25.503 74.3634 24.3286 74.8097 23.0582C75.3062 21.6322 75.3687 20.0911 74.9892 18.6296C74.6097 17.1682 73.8054 15.8521 72.6779 14.8478C71.5504 13.8436 70.1504 13.1962 68.655 12.9877C67.1595 12.7791 65.6358 13.0188 64.2766 13.6763L63.7237 13.9437L63.4563 13.3908C62.799 12.0314 61.7534 10.8975 60.4517 10.1325C59.1499 9.36746 57.6505 9.00566 56.1431 9.09285C54.6358 9.18003 53.1881 9.7123 51.9832 10.6223C50.7784 11.5323 49.8704 12.7792 49.3743 14.2053C48.8659 15.6632 48.6795 17.214 48.828 18.7508C48.9765 20.2876 49.4562 21.7741 50.2342 23.1077L51.028 24.473C48.7948 25.236 46.7428 26.4513 45.0002 28.0429C43.2577 29.6345 41.8619 31.5683 40.9002 33.7234C37.6812 34.1584 34.6325 35.43 32.0583 37.4112C29.4842 39.3925 27.4746 42.0141 26.2302 45.0146C24.1347 45.0134 22.0908 45.664 20.3816 46.8762C18.6724 48.0885 17.3826 49.8024 16.6909 51.7804C16.6477 51.9059 16.6192 52.0359 16.6059 52.1679L12.7279 91.5917C12.3861 94.9765 13.1972 98.3776 15.0297 101.244C16.8622 104.11 19.6089 106.274 22.8246 107.384L60.0239 120.331C63.234 121.457 66.7301 121.466 69.9459 120.357C73.1618 119.248 75.9089 117.086 77.7425 114.22L99.1804 80.9083C99.2525 80.7968 99.3114 80.6774 99.356 80.5523C100.088 78.4433 100.101 76.1511 99.3919 74.0341C98.6831 71.9171 97.2929 70.0946 95.4385 68.8515ZM95.3735 64.2145L92.1001 67.4026C90.6543 67.0666 89.1522 67.0533 87.7007 67.3639C86.2492 67.6744 84.884 68.301 83.7023 69.1992C83.2887 67.5847 82.4821 66.0977 81.3542 64.8706C80.2264 63.6436 78.8124 62.7147 77.2384 62.1669C75.6644 61.6191 73.9793 61.4693 72.3333 61.7309C70.6874 61.9925 69.1317 62.6573 67.8051 63.6662C67.4762 62.4012 66.9063 61.2116 66.1266 60.1625L71.7045 60.4357C82.7005 60.9552 93.5064 57.4326 102.084 50.5325C101.498 55.7335 99.1259 60.5702 95.3724 64.2177L95.3735 64.2145ZM60.1767 116.82L50.5351 113.464L67.5429 69.5403L67.5334 69.5369C67.54 69.5179 67.5567 69.5058 67.5633 69.4868C68.1444 67.7982 69.3724 66.4097 70.9773 65.6266C72.5822 64.8435 74.4324 64.73 76.1209 65.3111C77.8094 65.8922 79.1979 67.1202 79.981 68.7251C80.7641 70.33 80.8776 72.1802 80.2965 73.8687L60.1767 116.82ZM35.7829 58.3756C36.3758 56.6911 37.6136 55.3112 39.2239 54.5394C40.8342 53.7676 42.6851 53.6671 44.3695 54.2599C46.0539 54.8528 47.4339 56.0906 48.2057 57.7009C48.9775 59.3112 49.078 61.1621 48.4852 62.8465C48.4785 62.8656 48.4825 62.8848 48.4775 62.9045L48.4663 62.9006L34.5267 107.892L24.885 104.537L35.7829 58.3756ZM51.6646 63.9531C52.2516 62.2667 53.4845 60.8824 55.092 60.105C56.6996 59.3275 58.5502 59.2205 60.2367 59.8075C61.9231 60.3945 63.3074 61.6274 64.0848 63.235C64.8623 64.8425 64.9693 66.6931 64.3823 68.3796L47.3541 112.357L37.7077 109L51.6646 63.9531ZM52.5537 15.3119C52.8315 14.5151 53.3393 13.8186 54.0128 13.3102C54.6863 12.8019 55.4954 12.5045 56.3378 12.4558C57.1802 12.407 58.0181 12.609 58.7458 13.0363C59.4735 13.4635 60.0582 14.0968 60.4261 14.8562L61.4262 16.9243C61.6206 17.326 61.9666 17.6342 62.3881 17.7809C62.8097 17.9276 63.2722 17.9009 63.6741 17.7066L65.7421 16.7065C66.502 16.3396 67.3536 16.2062 68.1892 16.3231C69.0249 16.44 69.8072 16.8019 70.4373 17.3632C71.0674 17.9244 71.517 18.6599 71.7293 19.4765C71.9417 20.2932 71.9072 21.1545 71.6303 21.9516C71.2829 22.9514 70.7232 23.8641 69.9897 24.6272C69.2562 25.3902 68.3662 25.9854 67.3809 26.3719L58.137 29.995L53.1408 21.4138C52.6081 20.4995 52.2798 19.4806 52.1785 18.4272C52.0771 17.3739 52.2051 16.311 52.5537 15.3119ZM52.7755 27.4766L55.9534 32.935C56.1556 33.2816 56.475 33.5444 56.8539 33.6763C57.2328 33.8082 57.6464 33.8004 58.02 33.6543L68.6082 29.4975C68.8142 29.4177 69.0099 29.3165 69.2096 29.2238L72.7498 29.9391C75.2741 30.4433 77.8904 30.2047 80.2818 29.2523C82.6732 28.2999 84.7372 26.6746 86.2238 24.5731C88.0991 29.2412 88.3545 34.4033 86.9492 39.2337C83.478 40.8904 79.5487 41.3254 75.7991 40.468L47.5383 34.0181C46.6195 33.8144 45.6867 33.6804 44.7477 33.6172C46.5484 30.6266 49.4178 28.4317 52.7755 27.4766ZM46.7822 37.3017L75.043 43.7516C79.3787 44.744 83.9197 44.2975 87.979 42.4796C92.0384 40.6617 95.3953 37.5713 97.5421 33.6758L99.2715 36.7159C100.893 39.5724 101.876 42.7469 102.152 46.0203C98.091 49.7831 93.3213 52.6993 88.1212 54.5986C82.9211 56.4978 77.3948 57.342 71.8648 57.082L61.0445 56.5544C59.5063 56.0679 57.8739 55.9574 56.2842 56.2321C54.6944 56.5068 53.1937 57.1587 51.908 58.1331C51.4944 56.5186 50.6878 55.0315 49.5599 53.8045C48.4321 52.5775 47.0181 51.6486 45.4441 51.1008C43.8701 50.5529 42.185 50.4031 40.539 50.6647C38.8931 50.9263 37.3374 51.5912 36.0108 52.6001C35.6027 51.0012 34.8089 49.5267 33.6991 48.3056C32.5892 47.0844 31.1971 46.1538 29.6444 45.5952C31.1323 42.4701 33.6409 39.9456 36.7564 38.4379C39.8719 36.9302 43.4083 36.5294 46.7822 37.3017ZM16.0757 91.9228L19.9323 52.709C20.5429 51.0307 21.7951 49.6638 23.4136 48.9088C25.0321 48.1539 26.8841 48.0728 28.5624 48.6833C30.2406 49.2939 31.6076 50.5462 32.3626 52.1647C33.1175 53.7831 33.1986 55.6352 32.588 57.3135C32.5681 57.3707 32.5785 57.4278 32.5645 57.4835L32.5406 57.4752L21.755 103.155C19.8384 102.016 18.2862 100.355 17.2803 98.3656C16.2744 96.3762 15.8565 94.1412 16.0757 91.9228ZM74.9142 112.402C73.7097 114.28 71.9945 115.775 69.9699 116.712C67.9453 117.649 65.6954 117.989 63.4843 117.691L83.4035 75.1782L83.3797 75.1699C83.3991 75.1143 83.4474 75.0777 83.4668 75.022C84.0302 73.3273 85.2437 71.9259 86.8404 71.1259C88.4371 70.3259 90.2862 70.193 91.9809 70.7564C93.6755 71.3198 95.077 72.5333 95.877 74.13C96.677 75.7267 96.8099 77.5757 96.2465 79.2704L74.9142 112.402Z" fill="url(#paint0_linear_216_3571)"/>
<path d="M32.4883 22.9428L35.5362 26.0711C35.7185 26.2582 35.9418 26.4003 36.1885 26.4861C36.4351 26.572 36.6984 26.5993 36.9574 26.5658L41.2917 26.0033C42.5439 25.8459 43.727 25.3408 44.7067 24.5452C45.6865 23.7496 46.4236 22.6954 46.8347 21.5021C47.0642 20.8507 47.1621 20.1602 47.1228 19.4707C47.0835 18.7811 46.9076 18.1063 46.6055 17.4852C46.0331 16.3627 45.0854 15.4764 43.9271 14.9805C42.7688 14.4845 41.4734 14.4103 40.266 14.7708C39.7231 13.9585 38.9644 13.3137 38.0752 12.909C37.1859 12.5042 36.2014 12.3556 35.2322 12.4798C34.2631 12.6039 33.3479 12.996 32.5894 13.6118C31.8309 14.2277 31.2592 15.0429 30.9386 15.9658C30.519 17.1574 30.4418 18.4427 30.7157 19.6759C30.9896 20.9092 31.6037 22.041 32.4883 22.9428ZM36.5215 15.9074C36.9943 16.0739 37.3823 16.4203 37.6011 16.8714L37.9945 17.682C38.1891 18.0828 38.5346 18.39 38.9554 18.5365C39.3761 18.6829 39.8378 18.6566 40.2392 18.4633L41.0551 18.07C41.5076 17.8668 42.0208 17.8444 42.4893 18.0075C42.9578 18.1705 43.3462 18.5067 43.5748 18.947C43.6834 19.1699 43.7466 19.4122 43.7608 19.6597C43.775 19.9073 43.7399 20.1552 43.6574 20.3891C43.45 20.9913 43.0779 21.5234 42.5834 21.925C42.089 22.3265 41.4919 22.5815 40.8599 22.6609L37.3606 23.1184L34.901 20.5941C34.4544 20.1389 34.1444 19.5676 34.006 18.9452C33.8676 18.3227 33.9064 17.674 34.1181 17.0724C34.2827 16.5995 34.6282 16.2112 35.0788 15.9928C35.5294 15.7744 36.0483 15.7437 36.5215 15.9074Z" fill="url(#paint1_linear_216_3571)"/>
<defs>
<linearGradient id="paint0_linear_216_3571" x1="34.397" y1="0.908691" x2="116.373" y2="100.601" gradientUnits="userSpaceOnUse">
<stop stop-color="#FC466B" stop-opacity="0.2"/>
<stop offset="1" stop-color="#3F5EFB" stop-opacity="0.2"/>
</linearGradient>
<linearGradient id="paint1_linear_216_3571" x1="32.666" y1="11.0027" x2="42.9431" y2="29.9019" gradientUnits="userSpaceOnUse">
<stop stop-color="#FC466B" stop-opacity="0.2"/>
<stop offset="1" stop-color="#3F5EFB" stop-opacity="0.2"/>
</linearGradient>
</defs>
</svg>
