<svg width="75" height="75" fill="none" xmlns="http://www.w3.org/2000/svg"><path d="M74.981 27.413a27.397 27.397 0 00-7.05-18.268 14.34 14.34 0 00-.986-1.09A27.357 27.357 0 0049.047.085 14.349 14.349 0 0047.501 0c-.03 0-.054.015-.083.016a27.406 27.406 0 00-18.27 7.052c-.38.31-.744.64-1.092.986a27.352 27.352 0 00-7.965 17.894 14.432 14.432 0 00-.088 1.55c0 .03.015.054.018.084a27.428 27.428 0 005.58 16.499L1.097 68.585a3.763 3.763 0 004.1 6.13 3.74 3.74 0 001.217-.813L30.92 49.397a27.362 27.362 0 0015.035 5.513c.513.057 1.03.086 1.546.087.03 0 .054-.016.082-.017a27.406 27.406 0 0018.271-7.052c.38-.31.744-.64 1.091-.986a27.352 27.352 0 007.966-17.893c.057-.515.086-1.032.088-1.55 0-.03-.015-.055-.018-.085zM65.178 9.822c.289.288.541.6.814.9A11.867 11.867 0 0150.67 28.385 14.343 14.343 0 0058.4 5.028a24.831 24.831 0 016.778 4.794zM47.501 2.51c.43 0 .858.04 1.287.061a11.864 11.864 0 011.588 23.31 14.345 14.345 0 00-11.04-21.979 25.128 25.128 0 018.165-1.392zM29.824 9.82l-.002.006a11.867 11.867 0 0118.565 14.5A14.344 14.344 0 0025.03 16.6a24.885 24.885 0 014.793-6.778zm-5.918 25.84a25.099 25.099 0 01-1.33-9.448 11.864 11.864 0 0123.31-1.582 14.342 14.342 0 00-21.98 11.03zM4.646 72.135a1.252 1.252 0 01-1.783-.013 1.25 1.25 0 010-1.77l24.348-24.347c.268.32.545.636.845.936.3.3.625.562.938.846L4.646 72.135zm25.177-26.961v.005c-.29-.29-.542-.602-.814-.902a11.867 11.867 0 0115.32-17.66 14.342 14.342 0 00-7.727 23.355 24.818 24.818 0 01-6.778-4.798zm16.388 7.248l-.001.006a11.864 11.864 0 01-1.579-23.31 14.345 14.345 0 0011.033 21.98 25.113 25.113 0 01-9.453 1.324zm18.967-7.248l-.001.005a11.866 11.866 0 01-18.562-14.512 14.343 14.343 0 0023.357 7.728 24.883 24.883 0 01-4.794 6.779zm7.248-16.392v.006a11.864 11.864 0 01-23.31 1.582 14.342 14.342 0 0021.979-11.03 25.102 25.102 0 011.331 9.442z" fill="url(#paint0_linear_216_968)"/><defs><linearGradient id="paint0_linear_216_968" x1=".002" y1="0" x2="84.733" y2="61.613" gradientUnits="userSpaceOnUse"><stop stop-color="#FC466B" stop-opacity=".2"/><stop offset="1" stop-color="#3F5EFB" stop-opacity=".2"/></linearGradient></defs></svg>