<svg width="120" height="112" viewBox="0 0 120 112" fill="none" xmlns="http://www.w3.org/2000/svg">
<path d="M20 46.9302H46C46.5304 46.9302 47.0391 46.7195 47.4142 46.3444C47.7893 45.9693 48 45.4606 48 44.9302C48 44.3997 47.7893 43.891 47.4142 43.516C47.0391 43.1409 46.5304 42.9302 46 42.9302H20C19.4696 42.9302 18.9609 43.1409 18.5858 43.516C18.2107 43.891 18 44.3997 18 44.9302C18 45.4606 18.2107 45.9693 18.5858 46.3444C18.9609 46.7195 19.4696 46.9302 20 46.9302ZM72 54.9302H20C19.4696 54.9302 18.9609 55.1409 18.5858 55.516C18.2107 55.891 18 56.3997 18 56.9302C18 57.4606 18.2107 57.9693 18.5858 58.3444C18.9609 58.7195 19.4696 58.9302 20 58.9302H72C72.5304 58.9302 73.0392 58.7195 73.4142 58.3444C73.7893 57.9693 74 57.4606 74 56.9302C74 56.3997 73.7893 55.891 73.4142 55.516C73.0392 55.1409 72.5304 54.9302 72 54.9302ZM72 66.9302H20C19.4696 66.9302 18.9609 67.1409 18.5858 67.516C18.2107 67.891 18 68.3997 18 68.9302C18 69.4606 18.2107 69.9693 18.5858 70.3444C18.9609 70.7195 19.4696 70.9302 20 70.9302H72C72.5304 70.9302 73.0392 70.7195 73.4142 70.3444C73.7893 69.9693 74 69.4606 74 68.9302C74 68.3997 73.7893 67.891 73.4142 67.516C73.0392 67.1409 72.5304 66.9302 72 66.9302Z" fill="url(#paint0_linear_230_8375)"/>
<path d="M108.144 1.07018L39.86 0.930176C33.32 0.930176 28 6.25018 28 12.7902V23.0382L11.86 23.0722C5.32 23.0722 0 28.3922 0 34.9322V77.2142C0 83.7542 5.32 89.0722 11.86 89.0722H24V109.072C23.9998 109.476 24.1219 109.87 24.3501 110.203C24.5783 110.536 24.902 110.793 25.2785 110.938C25.6551 111.084 26.0669 111.112 26.4599 111.019C26.8528 110.927 27.2084 110.717 27.48 110.418L46.888 89.0682L80.14 88.9322C86.68 88.9322 92 83.6122 92 77.0742V76.8482L102.52 88.4202C102.792 88.7169 103.148 88.9246 103.54 89.0162C103.933 89.1078 104.343 89.0791 104.719 88.9338C105.095 88.7885 105.418 88.5333 105.646 88.2016C105.875 87.8699 105.998 87.477 106 87.0742V67.0742H108.14C114.68 67.0742 120 61.7542 120 55.2162V12.9302C119.996 9.78654 118.746 6.77266 116.524 4.54939C114.301 2.32613 111.288 1.07494 108.144 1.07018ZM88 77.0722C87.9974 79.1572 87.1672 81.1559 85.692 82.6292C84.2167 84.1026 82.217 84.9302 80.132 84.9302L45.992 85.0702C45.7147 85.0712 45.4407 85.1299 45.1873 85.2424C44.9338 85.355 44.7066 85.5191 44.52 85.7242L28 103.898V87.0702C28 86.5397 27.7893 86.031 27.4142 85.656C27.0391 85.2809 26.5304 85.0702 26 85.0702H11.86C9.77639 85.0681 7.77871 84.2396 6.30519 82.7664C4.83167 81.2933 4.00265 79.2958 4 77.2122V34.9302C4.00265 32.8457 4.83215 30.8474 6.30648 29.3738C7.78081 27.9003 9.77952 27.0718 11.864 27.0702L30 27.0322H30.004L80.14 26.9282C82.224 26.9303 84.2219 27.7591 85.6955 29.2327C87.1691 30.7062 87.9979 32.7042 88 34.7882V77.0722ZM116 55.2122C115.997 57.2958 115.168 59.2933 113.695 60.7664C112.221 62.2396 110.224 63.0681 108.14 63.0702H104C103.47 63.0702 102.961 63.2809 102.586 63.656C102.211 64.031 102 64.5397 102 65.0702V81.8982L92 70.8982V34.7902C92 28.2502 86.68 22.9302 80.136 22.9302L32 23.0282V12.7882C32.0021 10.7049 32.8303 8.70753 34.3031 7.23407C35.7758 5.7606 37.7727 4.93135 39.856 4.92818L108.138 5.06818H108.142C110.226 5.07029 112.224 5.89908 113.698 7.37266C115.171 8.84623 116 10.8442 116.002 12.9282L116 55.2122Z" fill="url(#paint1_linear_230_8375)"/>
<defs>
<linearGradient id="paint0_linear_230_8375" x1="18" y1="42.9302" x2="49.048" y2="88.0864" gradientUnits="userSpaceOnUse">
<stop stop-color="#FC466B" stop-opacity="0.2"/>
<stop offset="1" stop-color="#3F5EFB" stop-opacity="0.2"/>
</linearGradient>
<linearGradient id="paint1_linear_230_8375" x1="0" y1="0.930176" x2="127.335" y2="101.815" gradientUnits="userSpaceOnUse">
<stop stop-color="#FC466B" stop-opacity="0.2"/>
<stop offset="1" stop-color="#3F5EFB" stop-opacity="0.2"/>
</linearGradient>
</defs>
</svg>
