<svg width="94" height="92" fill="none" xmlns="http://www.w3.org/2000/svg"><path d="M69.052 59.938c.109 0 .218-.01.329-.028a25.57 25.57 0 014.082-.39 1.9 1.9 0 00-.021-3.8h-.022a29.369 29.369 0 00-4.692.446 1.9 1.9 0 00.324 3.772zm13.465 1.37a1.902 1.902 0 001.75-1.158 1.9 1.9 0 00-1.006-2.492 24.958 24.958 0 00-1.657-.637 1.9 1.9 0 00-1.234 3.594 21.3 21.3 0 011.405.54c.234.1.487.152.742.152zM43.62 32.315a1.14 1.14 0 011.549-1.673c2.017 1.867 4.623 3.602 7.534 5.017 3.494 1.699 7.106 2.769 10.17 3.015a1.14 1.14 0 11-.181 2.272c-3.341-.268-7.242-1.417-10.986-3.236-3.11-1.512-5.906-3.377-8.086-5.395zM9.692 51.95c2.743-.194 5.79-.908 8.814-2.064 3.63-1.387 6.88-3.29 9.156-5.357a1.14 1.14 0 111.533 1.688c-2.48 2.253-5.987 4.313-9.875 5.799-3.23 1.235-6.503 1.998-9.467 2.208a1.14 1.14 0 01-.16-2.274z" fill="url(#paint0_linear_216_940)"/><path d="M13.98 35.602c7.12-2.721 13.475-3.02 17.264-1.04l8.642-12.108.017-.024c3.076-4.17 11.35-4.105 20.123.158 9.019 4.384 14.082 10.671 12.599 15.645l-.002.007-3.698 12.231a37.757 37.757 0 013.586-.167c10.028 0 17.33 3.441 18.17 8.563l.002.008 3.293 20.563c.016.099.024.2.024.3 0 2.66-1.263 6.387-7.283 9.03-3.804 1.672-8.878 2.592-14.29 2.592-5.41 0-10.485-.92-14.288-2.591-6.02-2.645-7.283-6.37-7.283-9.03 0-.107.008-.213.026-.318L53.63 63.18c-2.784-.38-5.824-1.229-8.893-2.484-.515 1.735-1.64 3.68-3.753 5.765-2.956 2.919-7.368 5.59-12.422 7.522-4.608 1.761-9.227 2.709-13.152 2.709-.38 0-.754-.01-1.12-.027-6.567-.32-9.078-3.35-10.027-5.835a1.917 1.917 0 01-.089-.306L.106 50.201l-.005-.03c-.938-5.095 4.77-11.086 13.88-14.569zM72.429 87.56c8.538 0 17.607-2.692 17.77-7.685L86.932 59.48c-.438-2.644-5.95-5.376-14.42-5.376-8.267 0-13.92 2.869-14.43 5.532l-3.424 20.247c.172 4.988 9.236 7.677 17.77 7.677zm-18.09-28.574l.006-.03c.672-3.626 4.653-6.473 10.409-7.813l4.231-13.999c.762-2.569-3-7.435-10.62-11.138-7.434-3.614-13.773-3.503-15.395-1.33l-8.922 12.5L44.433 55.15c.05.088.094.178.13.273.151.396.272.804.36 1.22 3.22 1.436 6.487 2.407 9.34 2.784l.076-.442zM3.836 49.472l4.03 20.134c1.942 4.598 11.369 3.873 19.34.827 7.975-3.05 15.486-8.802 13.855-13.524L30.727 39.026c-1.351-2.314-7.476-2.9-15.39.126-7.721 2.951-11.977 7.65-11.502 10.32z" fill="url(#paint1_linear_216_940)"/><path d="M62.668 64.042c2.632.798 5.734 1.22 8.97 1.22 3.885 0 7.602-.616 10.465-1.735a1.14 1.14 0 01.83 2.124c-3.122 1.22-7.133 1.89-11.295 1.89-3.458 0-6.788-.455-9.631-1.317a1.139 1.139 0 01.215-2.23c.15-.014.302.003.446.048zm-49.1-3.085a1.14 1.14 0 011.452.7l.95 2.718a1.139 1.139 0 11-2.152.752l-.95-2.718a1.138 1.138 0 01.7-1.452zm8.15-.072a1.14 1.14 0 011.453.7l.95 2.717a1.14 1.14 0 01-2.152.753l-.95-2.718a1.14 1.14 0 01.7-1.452zM64.161 72.21a1.14 1.14 0 011.14 1.14v2.879a1.14 1.14 0 01-2.28 0v-2.88a1.14 1.14 0 011.14-1.14zm8.692 4.532a1.14 1.14 0 011.14 1.14v2.879a1.14 1.14 0 01-2.28 0v-2.88a1.14 1.14 0 011.14-1.14zm3.75-75.638l1.561 4.389a.704.704 0 00.366.412l3.9 1.756c.55.249.55 1.126 0 1.374l-3.9 1.757a.704.704 0 00-.366.412l-1.56 4.389c-.221.62-1.001.62-1.221 0l-1.561-4.389a.704.704 0 00-.366-.412l-3.9-1.757c-.55-.248-.55-1.125 0-1.374l3.9-1.756a.705.705 0 00.366-.412l1.56-4.389c.221-.62 1-.62 1.221 0zM15.826 11.63l1.157 3.255c.05.14.148.25.272.306l2.892 1.303c.409.184.409.835 0 1.02l-2.892 1.302a.523.523 0 00-.272.306l-1.157 3.255c-.164.46-.742.46-.906 0l-1.158-3.255a.522.522 0 00-.271-.306l-2.892-1.303c-.409-.184-.409-.835 0-1.019l2.892-1.303a.522.522 0 00.271-.306l1.158-3.255c.164-.46.742-.46.906 0z" fill="url(#paint2_linear_216_940)"/><path d="M38.22 7.936a3.408 3.408 0 110-6.815 3.408 3.408 0 010 6.815z" fill="url(#paint3_linear_216_940)"/><path d="M85.507 35.879a1.47 1.47 0 11.679-2.86 1.47 1.47 0 01-.679 2.86z" fill="url(#paint4_linear_216_940)"/><defs><linearGradient id="paint0_linear_216_940" x1="84.418" y1="30.352" x2="8.338" y2="31.13" gradientUnits="userSpaceOnUse"><stop stop-color="#fff" stop-opacity=".05"/><stop offset=".997" stop-color="#fff" stop-opacity="0"/></linearGradient><linearGradient id="paint1_linear_216_940" x1="94" y1="19.346" x2="-.389" y2="19.861" gradientUnits="userSpaceOnUse"><stop stop-color="#fff" stop-opacity=".05"/><stop offset=".997" stop-color="#fff" stop-opacity="0"/></linearGradient><linearGradient id="paint2_linear_216_940" x1="83.651" y1=".64" x2="9.987" y2=".918" gradientUnits="userSpaceOnUse"><stop stop-color="#fff" stop-opacity=".05"/><stop offset=".997" stop-color="#fff" stop-opacity="0"/></linearGradient><linearGradient id="paint3_linear_216_940" x1="41.627" y1="1.121" x2="34.783" y2="1.149" gradientUnits="userSpaceOnUse"><stop stop-color="#fff" stop-opacity=".05"/><stop offset=".997" stop-color="#fff" stop-opacity="0"/></linearGradient><linearGradient id="paint4_linear_216_940" x1="87.616" y1="33.357" x2="84.741" y2="32.688" gradientUnits="userSpaceOnUse"><stop stop-color="#fff" stop-opacity=".05"/><stop offset=".997" stop-color="#fff" stop-opacity="0"/></linearGradient></defs></svg>