<svg width="147" height="121" fill="none" xmlns="http://www.w3.org/2000/svg"><path d="M75.87 99.564V28.767a2.37 2.37 0 10-4.741 0v70.797a2.37 2.37 0 104.742 0z" fill="#fff"/><path d="M144.629 10.957c-5.013 0-11.259-2.163-17.872-4.453-8.375-2.9-17.868-6.187-27.713-6.187-11.391 0-18.341 4.992-22.165 9.18a28.82 28.82 0 00-3.379 4.53 28.808 28.808 0 00-3.379-4.53C66.297 5.309 59.349.317 47.956.317c-9.845 0-19.338 3.287-27.713 6.187-6.613 2.29-12.86 4.453-17.872 4.453A2.368 2.368 0 000 13.327v95.501a2.37 2.37 0 002.371 2.371c5.81 0 12.423-2.29 19.423-4.714 8.022-2.778 17.114-5.926 26.162-5.926 7.757 0 14.037 2.569 18.663 7.635a2.372 2.372 0 003.502-3.198c-3.825-4.187-10.774-9.18-22.165-9.18-9.846 0-19.338 3.288-27.713 6.188-5.607 1.942-10.95 3.791-15.501 4.31V15.581c5.213-.496 10.987-2.496 17.052-4.596 8.022-2.778 17.114-5.926 26.162-5.926 18.297 0 23.085 14.53 23.277 15.14a2.372 2.372 0 004.534 0c.046-.15 4.863-15.14 23.278-15.14 9.047 0 18.139 3.148 26.161 5.926 6.065 2.1 11.839 4.1 17.052 4.596v90.733c-4.551-.519-9.894-2.368-15.501-4.31-8.375-2.9-17.868-6.187-27.713-6.187-11.391 0-18.341 4.992-22.165 9.18a2.371 2.371 0 003.501 3.198c4.627-5.067 10.906-7.636 18.665-7.636 9.047 0 18.139 3.149 26.161 5.926 7 2.424 13.613 4.714 19.423 4.714a2.37 2.37 0 002.371-2.371v-95.5a2.373 2.373 0 00-2.371-2.371z" fill="#fff"/><path d="M144.629 115.941c-5.013 0-11.259-2.163-17.872-4.453-8.375-2.9-17.868-6.187-27.713-6.187-10.698 0-17.479 4.403-21.432 8.408l-8.224-.001c-3.954-4.004-10.734-8.407-21.433-8.407-9.845 0-19.337 3.287-27.712 6.187-6.613 2.29-12.86 4.453-17.872 4.453a2.37 2.37 0 100 4.742c5.81 0 12.423-2.29 19.423-4.714 8.022-2.778 17.114-5.926 26.162-5.926 7.757 0 14.037 2.569 18.663 7.635a2.377 2.377 0 001.75.772h10.26a2.37 2.37 0 001.751-.772c4.627-5.066 10.906-7.635 18.664-7.635 9.047 0 18.14 3.148 26.161 5.926 7.001 2.424 13.614 4.714 19.424 4.714a2.372 2.372 0 000-4.742z" fill="#fff"/></svg>