<svg width="103" height="99" viewBox="0 0 103 99" fill="none" xmlns="http://www.w3.org/2000/svg">
<path d="M27.9882 95.4955C28.015 95.5416 28.0424 95.5839 28.0753 95.6248C28.124 95.6851 28.1783 95.7359 28.2381 95.7833C28.2767 95.8138 28.3121 95.8443 28.3544 95.8693C28.4258 95.9112 28.502 95.938 28.5813 95.9618C28.6227 95.9742 28.66 95.9926 28.7029 96C28.8282 96.0211 28.9572 96.0247 29.0868 95.9976L99.5107 81.3186C101.369 80.9313 102.566 79.104 102.179 77.2458L89.1747 14.8589C88.7874 13.0006 86.9601 11.8037 85.1019 12.191L82.5163 12.73L80.1411 4.84578C79.5015 2.72208 77.0523 1.74969 75.1264 2.85637L44.0584 20.7461L17.032 26.3794C15.1737 26.7667 13.9768 28.594 14.3642 30.4522L15.7394 37.0499L7.38832 41.8585C6.64813 42.2823 6.09209 42.9663 5.82842 43.7774C5.56476 44.5885 5.61234 45.4688 5.96191 46.2467L27.9267 95.4043C27.9423 95.4389 27.9695 95.4635 27.9882 95.4955ZM76.1632 4.65659C76.9271 4.21598 77.8987 4.60492 78.1519 5.44535L80.4747 13.1553L50.5829 19.3859L76.1632 4.65659ZM17.4559 28.413L85.5256 14.2247C86.2624 14.0711 86.9873 14.5458 87.1409 15.2828L100.145 77.6697C100.298 78.4065 99.8236 79.1314 99.0867 79.285L29.6802 93.752C15.3501 25.0021 15.5442 28.8115 17.4559 28.413ZM8.42406 43.6597L8.42474 43.6595L16.1853 39.1903L25.8917 85.7573L7.85897 45.3995C7.72025 45.0911 7.70127 44.7421 7.80573 44.4205C7.91019 44.0989 8.1306 43.8277 8.42406 43.6597ZM41.9499 42.0081L39.743 31.4203C39.6869 31.1506 39.7401 30.8697 39.891 30.6393C40.042 30.4088 40.2782 30.2478 40.5479 30.1915L45.8421 29.088C46.1096 29.0374 46.3863 29.0937 46.6126 29.2449C46.839 29.3962 46.9969 29.6302 47.0525 29.8967C47.108 30.1632 47.0567 30.4409 46.9096 30.67C46.7626 30.8991 46.5314 31.0612 46.266 31.1217L41.9886 32.0132L42.668 35.273L46.9455 34.3814C47.2129 34.3307 47.4896 34.3871 47.716 34.5383C47.9423 34.6896 48.1003 34.9236 48.1558 35.1901C48.2114 35.4566 48.1601 35.7343 48.013 35.9633C47.8659 36.1924 47.6348 36.3546 47.3693 36.415L43.0919 37.3066L43.7715 40.567L48.0489 39.6754C48.3164 39.6248 48.5931 39.6811 48.8194 39.8324C49.0458 39.9836 49.2037 40.2176 49.2593 40.4842C49.3148 40.7507 49.2636 41.0283 49.1165 41.2574C48.9694 41.4865 48.7383 41.6487 48.4728 41.7091L43.1788 42.8126C43.0453 42.8404 42.9076 42.8417 42.7735 42.8164C42.6395 42.791 42.5118 42.7396 42.3977 42.6648C42.2836 42.5901 42.1853 42.4937 42.1085 42.381C42.0317 42.2683 41.9778 42.1416 41.9499 42.0081ZM48.7707 29.9136C48.6974 29.7985 48.6475 29.6702 48.6239 29.5358C48.6002 29.4015 48.6033 29.2638 48.6329 29.1306C48.6625 28.9974 48.718 28.8714 48.7963 28.7597C48.8746 28.648 48.9741 28.5528 49.0892 28.4795C49.572 28.1745 50.2138 28.3134 50.5233 28.7981L55.257 36.2335L56.6259 27.5261C56.9006 26.7705 57.7654 26.3242 58.5286 27.1295L63.2631 34.5654L64.6318 25.8573C64.7222 25.29 65.2545 24.9076 65.8192 24.9923C65.954 25.0135 66.0833 25.061 66.1997 25.1321C66.3161 25.2032 66.4174 25.2966 66.4977 25.4069C66.578 25.5171 66.6358 25.6421 66.6678 25.7748C66.6998 25.9074 66.7054 26.045 66.6842 26.1797L64.8885 37.6018C64.8214 38.0289 64.4972 38.3693 64.0742 38.4575C63.6512 38.5457 63.2179 38.3631 62.9858 37.9984L58.2516 30.5631L56.8827 39.2705C56.8156 39.6976 56.4914 40.0381 56.0684 40.1262C55.6454 40.2144 55.2121 40.0318 54.98 39.6671L48.7707 29.9136ZM29.7874 44.5375L27.5816 33.955C27.3799 32.9876 28.5234 32.311 29.2723 32.9526L37.3656 39.8557L35.7795 32.2463C35.7289 31.9788 35.7852 31.7021 35.9364 31.4758C36.0877 31.2494 36.3217 31.0915 36.5882 31.0359C36.8547 30.9804 37.1324 31.0317 37.3615 31.1787C37.5906 31.3258 37.7528 31.5569 37.8132 31.8224L40.019 42.4049C40.2214 43.3761 39.0751 44.0458 38.3282 43.4073L30.2349 36.5043L31.821 44.1136C31.8717 44.3811 31.8153 44.6578 31.6641 44.8842C31.5129 45.1105 31.2788 45.2685 31.0123 45.324C30.7458 45.3796 30.4681 45.3283 30.2391 45.1812C30.01 45.0341 29.8478 44.803 29.7874 44.5375ZM77.3736 31.8626C77.1862 30.9635 76.3029 30.3843 75.4037 30.5718L72.9358 31.0862C70.9159 31.5072 68.9295 30.2059 68.5085 28.1862C68.0875 26.1663 69.3888 24.18 71.4085 23.759L76.5233 22.6929C76.7907 22.6422 77.0674 22.6986 77.2938 22.8498C77.5201 23.0011 77.6781 23.2351 77.7336 23.5016C77.7892 23.7681 77.7379 24.0458 77.5908 24.2748C77.4437 24.5039 77.2126 24.6661 76.9471 24.7265L71.8324 25.7926C70.9333 25.98 70.3548 26.8632 70.5422 27.7623C70.7296 28.6614 71.6128 29.24 72.5119 29.0526L74.9799 28.5381C76.9998 28.1171 78.9861 29.4184 79.4072 31.4388C79.8282 33.4586 78.527 35.445 76.5073 35.866L71.3925 36.9321C71.125 36.9828 70.8484 36.9264 70.622 36.7752C70.3956 36.6239 70.2377 36.3899 70.1822 36.1234C70.1266 35.8569 70.1779 35.5792 70.325 35.3501C70.4721 35.1211 70.7032 34.9589 70.9686 34.8985L76.0834 33.8323C76.9825 33.6448 77.561 32.7616 77.3736 31.8626ZM36.5989 72.1262L54.9484 68.3015C55.218 68.2453 55.4543 68.0842 55.6052 67.8538C55.7562 67.6234 55.8094 67.3424 55.7533 67.0728L51.9285 48.7233C51.8723 48.4536 51.7112 48.2174 51.4808 48.0664C51.2504 47.9155 50.9694 47.8623 50.6998 47.9184L32.3503 51.7432C32.0807 51.7994 31.8444 51.9605 31.6934 52.1909C31.5425 52.4213 31.4893 52.7022 31.5454 52.9719L35.3702 71.3214C35.4265 71.591 35.5875 71.8273 35.8179 71.9782C36.0483 72.1291 36.3293 72.1824 36.5989 72.1262ZM33.7912 53.5648L50.1068 50.164L53.5077 66.4797L37.192 69.8805L33.7912 53.5648ZM81.4021 41.5187C81.6696 41.468 81.9462 41.5244 82.1726 41.6756C82.3989 41.8269 82.5569 42.0609 82.6124 42.3274C82.668 42.5939 82.6167 42.8716 82.4696 43.1007C82.3225 43.3297 82.0914 43.4919 81.826 43.5523L58.6808 48.3767C58.4133 48.4274 58.1366 48.371 57.9103 48.2198C57.6839 48.0685 57.526 47.8345 57.4704 47.568C57.4149 47.3015 57.4662 47.0238 57.6132 46.7947C57.7603 46.5657 57.9914 46.4035 58.2569 46.3431L81.4021 41.5187ZM83.9389 48.599C83.995 48.8687 83.9418 49.1496 83.7909 49.38C83.6399 49.6105 83.4037 49.7715 83.134 49.8277L59.9888 54.6521C59.7213 54.7028 59.4447 54.6464 59.2183 54.4952C58.992 54.3439 58.834 54.1099 58.7785 53.8434C58.7229 53.5769 58.7742 53.2992 58.9213 53.0701C59.0684 52.8411 59.2995 52.6789 59.5649 52.6185L82.7101 47.7941C82.9798 47.738 83.2607 47.7913 83.4911 47.9422C83.7215 48.0931 83.8826 48.3294 83.9389 48.599ZM85.2469 54.8744C85.3031 55.1441 85.2498 55.425 85.0989 55.6554C84.948 55.8859 84.7117 56.0469 84.442 56.1032L61.2969 60.9275C61.0294 60.9782 60.7527 60.9218 60.5263 60.7706C60.3 60.6194 60.1421 60.3853 60.0865 60.1188C60.031 59.8523 60.0822 59.5746 60.2293 59.3456C60.3764 59.1165 60.6075 58.9543 60.873 58.8939L84.0182 54.0695C84.2878 54.0134 84.5687 54.0667 84.7992 54.2176C85.0296 54.3685 85.1906 54.6048 85.2469 54.8744ZM86.5548 61.1491C86.611 61.4188 86.5577 61.6997 86.4068 61.9302C86.2559 62.1606 86.0196 62.3216 85.7499 62.3779L62.6047 67.2022C62.3373 67.2529 62.0606 67.1966 61.8342 67.0453C61.6079 66.8941 61.4499 66.66 61.3944 66.3935C61.3388 66.127 61.3901 65.8494 61.5372 65.6203C61.6843 65.3912 61.9154 65.229 62.1809 65.1686L85.3261 60.3443C85.5957 60.2881 85.8766 60.3414 86.107 60.4923C86.3375 60.6433 86.4985 60.8795 86.5548 61.1491ZM87.8628 67.4245C87.919 67.6942 87.8658 67.9752 87.7148 68.2056C87.5639 68.436 87.3276 68.597 87.058 68.6533L39.8944 78.484C39.627 78.5347 39.3503 78.4783 39.1239 78.3271C38.8976 78.1758 38.7396 77.9418 38.6841 77.6753C38.6285 77.4088 38.6798 77.1311 38.8269 76.9021C38.974 76.673 39.2051 76.5108 39.4706 76.4504L86.6341 66.6197C86.9038 66.5635 87.1847 66.6168 87.4151 66.7677C87.6456 66.9186 87.8066 67.1549 87.8628 67.4245ZM89.1707 73.6991C89.2269 73.9688 89.1736 74.2497 89.0227 74.4801C88.8718 74.7106 88.6355 74.8716 88.3658 74.9279L41.2023 84.7586C40.9348 84.8092 40.6581 84.7529 40.4318 84.6017C40.2054 84.4504 40.0475 84.2164 39.9919 83.9499C39.9364 83.6834 39.9877 83.4057 40.1348 83.1766C40.2818 82.9475 40.513 82.7853 40.7784 82.7249L87.942 72.8942C88.2116 72.8381 88.4925 72.8914 88.7229 73.0423C88.9534 73.1932 89.1144 73.4295 89.1707 73.6991Z" fill="url(#paint0_linear_230_8651)"/>
<defs>
<linearGradient id="paint0_linear_230_8651" x1="0.0600586" y1="18.3262" x2="107.521" y2="71.1837" gradientUnits="userSpaceOnUse">
<stop stop-color="#FC466B" stop-opacity="0.2"/>
<stop offset="1" stop-color="#3F5EFB" stop-opacity="0.2"/>
</linearGradient>
</defs>
</svg>
