<svg width="122" height="122" fill="none" xmlns="http://www.w3.org/2000/svg"><g clip-path="url(#clip0_230_8666)"><path d="M76.455 81.703c.101.038.207.069.317.09 1.394.27 2.724.638 3.953 1.09a1.9 1.9 0 001.335-3.557l-.02-.008a29.371 29.371 0 00-4.543-1.255 1.9 1.9 0 00-1.042 3.64zm12.093 6.078a1.9 1.9 0 001.996-3.144 25.02 25.02 0 00-1.322-1.186 1.9 1.9 0 00-2.434 2.918c.385.322.759.657 1.12 1.005.184.178.401.316.64.407zm-26.01-40.952a1.14 1.14 0 012.044-1.011c1.22 2.464 3.035 5.013 5.25 7.373 2.66 2.832 5.653 5.12 8.429 6.442a1.14 1.14 0 01-.98 2.058c-3.026-1.44-6.262-3.905-9.11-6.939-2.368-2.521-4.315-5.26-5.633-7.923zM23.842 53.08c2.631.796 5.733 1.216 8.97 1.214 3.885-.003 7.601-.621 10.464-1.742a1.142 1.142 0 011.573 1.081 1.14 1.14 0 01-.742 1.042c-3.12 1.222-7.131 1.896-11.293 1.899-3.458.002-6.789-.451-9.633-1.311a1.14 1.14 0 01.66-2.183z" fill="url(#paint0_linear_230_8666)"/><path d="M33.676 39.335c7.621-.005 13.666 1.98 16.5 5.18l12.39-8.23.025-.017c4.36-2.8 12.068.21 18.744 7.32 6.864 7.311 9.354 14.99 6.195 19.109l-.004.006-7.814 10.11a37.95 37.95 0 013.41 1.12c9.369 3.575 14.965 9.394 13.924 14.479l-.002.007-4.252 20.386a1.93 1.93 0 01-.085.29c-.948 2.485-3.457 5.516-10.024 5.841-4.15.205-9.218-.744-14.274-2.673-5.055-1.928-9.468-4.597-12.427-7.513-4.681-4.617-4.534-8.549-3.586-11.034.038-.1.084-.195.138-.287l8.357-14.196c-2.466-1.347-5.003-3.223-7.424-5.49-1.1 1.437-2.844 2.853-5.56 4.048-3.803 1.673-8.877 2.597-14.288 2.6-4.933.003-9.587-.758-13.253-2.157a22.726 22.726 0 01-1.037-.424c-6.022-2.64-7.288-6.366-7.29-9.026 0-.107.01-.212.027-.317l3.443-20.438.005-.029c.94-5.096 8.409-8.658 18.162-8.665zm36.088 69.378c7.977 3.043 17.41 3.761 19.342-.845l4.218-20.22c.533-2.626-3.643-7.144-11.557-10.164-7.724-2.946-14.028-2.28-15.453.027L55.897 95.207c-1.617 4.721 5.894 10.464 13.867 13.506zm-6.716-33.145l.015-.025c1.92-3.15 6.655-4.39 12.51-3.59l8.944-11.571c1.627-2.129-.154-8.017-5.952-14.192-5.659-6.027-11.62-8.183-13.91-6.731l-12.792 8.498 3.297 20.498c.016.1.024.2.024.3 0 .425-.033.85-.098 1.269 2.496 2.489 5.202 4.561 7.734 5.93l.228-.386zm-43.795-26.89l-3.411 20.248c.175 4.987 9.24 7.67 17.774 7.665 8.538-.005 17.606-2.703 17.766-7.696l-3.28-20.392c-.438-2.643-5.952-5.373-14.424-5.368-8.267.005-13.918 2.878-14.425 5.542z" fill="url(#paint1_linear_230_8666)"/><path d="M69.028 83.262c2.174 1.683 4.922 3.183 7.946 4.336 3.63 1.385 7.321 2.134 10.396 2.11a1.14 1.14 0 01.018 2.28c-3.351.026-7.338-.776-11.227-2.26-3.23-1.232-6.18-2.844-8.529-4.663a1.14 1.14 0 111.396-1.803zM24.252 62.877a1.14 1.14 0 011.107 1.172l-.08 2.878a1.14 1.14 0 11-2.28-.065l.081-2.877a1.139 1.139 0 011.172-1.108zm7.641 2.838a1.14 1.14 0 011.108 1.171l-.081 2.878a1.14 1.14 0 01-2.28-.064l.081-2.878a1.14 1.14 0 011.172-1.107zm35.617 25.71a1.14 1.14 0 01.66 1.472l-1.027 2.69a1.14 1.14 0 01-2.13-.813l1.026-2.69a1.14 1.14 0 011.471-.658zm6.506 7.333a1.14 1.14 0 01.66 1.472l-1.027 2.69a1.141 1.141 0 01-2.13-.813l1.026-2.69a1.14 1.14 0 011.471-.659zm30.465-69.332l-.106 4.656c-.005.2.066.386.195.516l3.017 3.03c.426.429.113 1.249-.49 1.285l-4.269.25a.706.706 0 00-.489.255l-3.022 3.544c-.427.5-1.156.223-1.14-.435l.105-4.656a.704.704 0 00-.195-.516l-3.017-3.03c-.426-.43-.113-1.249.49-1.285l4.27-.251a.703.703 0 00.488-.255l3.022-3.543c.427-.501 1.156-.223 1.141.435zM43.944 17.594l-.078 3.454a.523.523 0 00.145.383l2.237 2.248c.316.318.084.926-.363.952l-3.167.187a.523.523 0 00-.362.189l-2.242 2.628c-.317.372-.857.166-.846-.322l.078-3.454a.522.522 0 00-.144-.383l-2.238-2.248c-.316-.318-.084-.926.363-.952l3.167-.187a.522.522 0 00.362-.189l2.242-2.628c.317-.372.858-.166.846.322z" fill="url(#paint2_linear_230_8666)"/><path d="M66.184 22.127a3.408 3.408 0 112.43-6.369 3.408 3.408 0 01-2.43 6.369z" fill="url(#paint3_linear_230_8666)"/><path d="M100.405 65.09a1.47 1.47 0 111.654-2.431 1.47 1.47 0 01-1.654 2.43z" fill="url(#paint4_linear_230_8666)"/></g><defs><linearGradient id="paint0_linear_230_8666" x1="101.358" y1="59.537" x2="29.998" y2="33.145" gradientUnits="userSpaceOnUse"><stop stop-color="#fff" stop-opacity=".05"/><stop offset=".997" stop-color="#fff" stop-opacity="0"/></linearGradient><linearGradient id="paint1_linear_230_8666" x1="114.233" y1="52.669" x2="25.861" y2="19.505" gradientUnits="userSpaceOnUse"><stop stop-color="#fff" stop-opacity=".05"/><stop offset=".997" stop-color="#fff" stop-opacity="0"/></linearGradient><linearGradient id="paint2_linear_230_8666" x1="111.231" y1="31.503" x2="42.307" y2="5.506" gradientUnits="userSpaceOnUse"><stop stop-color="#fff" stop-opacity=".05"/><stop offset=".997" stop-color="#fff" stop-opacity="0"/></linearGradient><linearGradient id="paint3_linear_230_8666" x1="71.797" y1="16.973" x2="65.393" y2="14.56" gradientUnits="userSpaceOnUse"><stop stop-color="#fff" stop-opacity=".05"/><stop offset=".997" stop-color="#fff" stop-opacity="0"/></linearGradient><linearGradient id="paint4_linear_230_8666" x1="103.274" y1="63.485" x2="100.826" y2="61.835" gradientUnits="userSpaceOnUse"><stop stop-color="#fff" stop-opacity=".05"/><stop offset=".997" stop-color="#fff" stop-opacity="0"/></linearGradient><clipPath id="clip0_230_8666"><path fill="#fff" transform="scale(-1 1) rotate(-20.882 30.587 346.458)" d="M0 0h94v94H0z"/></clipPath></defs></svg>