<svg width="118" height="99" fill="none" xmlns="http://www.w3.org/2000/svg"><g opacity=".1" clip-path="url(#clip0_211_804)"><path d="M98.848 55.164c-10.736-1.785-20.532-20.982-33.393-27.5C54.719 22.222 47.639 8.042 34.505 5.01 20.063 1.68 20.56 30.607 23.538 37.437c0 0-9.211 13.867-6.646 27.97 0 0 34.602 23.335 62.443 22.55 3.883-.108 7.845-17.76 7.845-17.76 22.948 4.485 22.404-13.248 11.668-15.033z" fill="url(#paint0_linear_211_804)"/><path d="M96.206 54.235c-10.736-1.785-20.532-20.983-33.393-27.5C52.077 21.292 44.997 7.112 31.863 4.08 17.421.752 17.918 29.677 20.895 36.507c0 0-9.211 13.867-6.646 27.97 0 0 34.602 23.336 62.443 22.55 3.882-.107 7.844-17.759 7.844-17.759 22.949 4.484 22.405-13.249 11.669-15.033z" stroke="#fff" stroke-width="3" stroke-miterlimit="10" stroke-linecap="round"/><path d="M33.76 47.513l-.208-.29c-.131-.201-.333-.42-.577-.94-.119-.235-.262-.51-.38-.792-.09-.272-.196-.565-.302-.881-.122-.315-.181-.653-.268-1.002-.077-.352-.18-.722-.23-1.111-.055-.392-.116-.793-.171-1.208-.032-.414-.06-.843-.097-1.29-.046-.442-.027-.893-.042-1.355-.002-.458-.02-.937.016-1.413.022-.48.044-.962.068-1.45.048-.486.098-.98.14-1.477.086-.993.267-1.991.41-2.995.202-.991.353-1.992.598-2.953.224-.967.44-1.914.712-2.819a44.87 44.87 0 01.783-2.6c.266-.821.508-1.596.785-2.297.264-.706.499-1.352.717-1.926.229-.563.433-1.057.607-1.461.332-.813.525-1.273.525-1.273a.613.613 0 01.799-.331c.305.123.454.47.338.778l-.007.02s-.176.458-.477 1.267c-.15.405-.336.89-.551 1.457-.192.568-.404 1.215-.642 1.914-.245.696-.462 1.465-.7 2.273a44.517 44.517 0 00-.684 2.565c-.237.893-.424 1.82-.61 2.77-.215.94-.326 1.916-.495 2.88-.108.97-.254 1.934-.304 2.893-.029.478-.064.954-.095 1.416-.01.47-.015.925-.02 1.38-.02.45.01.895.028 1.328.025.435.023.86.074 1.266.042.41.082.804.124 1.191.07.373.129.735.192 1.083.048.35.153.666.232.973.087.302.145.601.252.848.095.259.183.491.268.715.093.196.181.343.257.501.102.284.363.577.492.762.136.188.217.286.217.286l.007.002c.362.492.26 1.177-.224 1.542a1.095 1.095 0 01-1.535-.222c-.006-.003-.015-.021-.02-.03l-.002.006zm8.041 2.79s.043-.078.136-.231c.083-.15.207-.37.367-.646.317-.57.76-1.392 1.256-2.403a64.336 64.336 0 001.596-3.5c.267-.65.535-1.324.8-2.013.246-.697.523-1.398.743-2.11.227-.712.47-1.425.65-2.136.204-.712.396-1.411.544-2.096.162-.68.31-1.34.41-1.98.105-.63.238-1.226.286-1.783.065-.558.126-1.064.185-1.516.026-.448.048-.843.07-1.169.034-.647.056-1.019.056-1.019l.006-.06a.816.816 0 01.859-.767.823.823 0 01.774.838l-.036 1.073c-.012.344-.026.758-.045 1.231-.043.474-.098 1.005-.156 1.589-.042.582-.161 1.207-.256 1.871a27.476 27.476 0 01-.378 2.068c-.137.72-.316 1.448-.508 2.194-.177.744-.406 1.485-.622 2.23-.21.748-.48 1.475-.714 2.206a74.346 74.346 0 01-.777 2.099c-.539 1.353-1.063 2.603-1.564 3.651a52.92 52.92 0 01-1.247 2.53 49.12 49.12 0 01-.382.711c-.088.163-.14.245-.14.245a1.097 1.097 0 01-1.496.42 1.097 1.097 0 01-.42-1.497l.008-.02.007-.021-.012.011zm7.821 3.418s.065-.031.18-.092c.102-.049.277-.15.499-.274a17.377 17.377 0 001.782-1.233c.35-.288.743-.591 1.124-.946.387-.352.791-.729 1.184-1.141.411-.398.789-.854 1.197-1.308.393-.458.755-.959 1.14-1.436.349-.505.71-1.005 1.038-1.518l.925-1.527c.268-.519.535-1.014.779-1.486.243-.472.432-.941.628-1.368.19-.43.372-.815.498-1.174.127-.358.25-.664.349-.923.189-.515.297-.803.297-.803l.013-.034a.534.534 0 01.692-.315.532.532 0 01.324.665s-.093.308-.266.844c-.088.272-.186.594-.303.971-.11.38-.277.786-.444 1.24-.18.447-.348.946-.574 1.456-.233.507-.475 1.042-.73 1.588-.281.537-.577 1.092-.878 1.66-.319.554-.675 1.104-1.01 1.66-.381.533-.737 1.082-1.125 1.589-.402.502-.775 1.014-1.2 1.47-.398.471-.812.9-1.21 1.302-.397.403-.8.757-1.167 1.093a21.64 21.64 0 01-1.918 1.488 9.56 9.56 0 01-.608.383l-.222.123a1.1 1.1 0 01-1.501-.404 1.093 1.093 0 01.411-1.498c.019-.01.03-.02.049-.03l.047-.022zm16.942 7.937s.228-.075.518-.213c.156-.07.335-.138.559-.268.226-.114.476-.252.751-.395l.865-.54c.15-.095.308-.194.47-.3.15-.118.306-.234.466-.356.316-.237.644-.486.98-.74.32-.267.628-.57.945-.854.312-.293.64-.565.935-.872l.829-.926c.268-.3.532-.588.777-.866.239-.28.428-.578.627-.833.764-1.05 1.28-1.744 1.28-1.744l.045-.061a.781.781 0 011.283.893s-.508.759-1.264 1.896c-.192.281-.383.602-.624.912-.245.302-.514.626-.786.956-.271.331-.554.673-.84 1.023-.297.337-.64.65-.957.98-.33.319-.642.658-.983.965-.352.295-.699.576-1.03.855-.163.136-.33.279-.492.408-.173.117-.339.237-.503.35-.327.226-.643.44-.93.641a58.6 58.6 0 01-.84.488c-.237.149-.487.263-.692.361-.413.204-.601.277-.601.277l-.063.024c-.57.21-1.197-.08-1.407-.65-.21-.57.08-1.196.65-1.407l.028-.013.004.01zm11.373 4.668l.167-.011c.095-.005.238-.017.436-.048a14.22 14.22 0 001.642-.306 17.266 17.266 0 002.271-.705c.405-.16.813-.35 1.228-.537.397-.225.825-.407 1.206-.676.39-.25.781-.5 1.13-.789.18-.138.354-.278.528-.419.162-.152.317-.307.47-.455.155-.154.32-.29.451-.445.135-.162.26-.32.39-.468.122-.15.252-.299.372-.443.11-.155.202-.308.3-.453.18-.292.371-.55.507-.805.123-.26.23-.477.319-.663.177-.372.28-.576.28-.576l.027-.076a.646.646 0 01.86-.286.64.64 0 01.31.814l-.27.657c-.089.21-.195.466-.313.758-.139.285-.324.591-.512.928-.098.167-.193.35-.303.53-.123.173-.253.345-.385.523-.133.178-.27.37-.412.553-.144.19-.318.353-.483.535-.165.182-.337.362-.51.549-.186.175-.376.34-.569.513-.373.357-.8.665-1.223.965-.41.329-.879.56-1.311.841-.45.245-.899.483-1.341.683-.886.402-1.74.714-2.493.937-.746.226-1.384.366-1.841.453-.225.045-.413.072-.552.093a8.342 8.342 0 01-.188.027 1.094 1.094 0 01-1.235-.939 1.094 1.094 0 01.938-1.235c.016-.002.04-.002.058-.011l.032-.004.02-.009zM25.288 41.517l-.099-.314c-.075-.227-.146-.508-.246-.885a21.292 21.292 0 01-.3-1.353c-.111-.52-.199-1.109-.297-1.756-.075-.646-.179-1.342-.229-2.08a42.941 42.941 0 01-.144-2.322c-.042-.806-.015-1.633-.026-2.482.04-.839.049-1.704.114-2.549.074-.85.118-1.702.227-2.54.113-.828.194-1.653.325-2.444.137-.788.266-1.55.386-2.267.15-.714.296-1.392.431-2.018.248-1.255.565-2.267.741-2.988.19-.716.297-1.128.297-1.128a.587.587 0 01.712-.416.594.594 0 01.423.691l-.01.028-.247 1.122c-.15.715-.42 1.72-.616 2.962-.107.613-.227 1.284-.35 1.985-.094.71-.195 1.458-.295 2.23-.094.773-.144 1.577-.223 2.394-.075.81-.082 1.645-.126 2.475-.028.827-.009 1.655-.015 2.467.04.812.052 1.615.115 2.382.061.773.119 1.514.22 2.216.079.702.197 1.357.294 1.964.122.601.221 1.155.34 1.632a20.915 20.915 0 00.567 1.981c.064.17.095.259.095.259l.015.044c.21.57-.082 1.204-.65 1.407a1.092 1.092 0 01-1.406-.65c-.005-.01-.007-.026-.012-.035l-.01-.012z" fill="#fff"/><path d="M20.894 36.514s10.115 10.667 36.73 22.332m26.913 10.422S74.735 66.944 65.3 62.5" stroke="#fff" stroke-width="3" stroke-miterlimit="10" stroke-linecap="round"/><path d="M18.254 42.477s.073.08.197.232c.125.129.31.31.537.545.211.237.576.52.932.855.182.165.383.344.59.526.226.172.457.354.699.547.495.377 1.004.803 1.584 1.225.586.407 1.21.836 1.852 1.28.325.222.65.445.98.677.342.214.686.427 1.045.64.7.432 1.415.869 2.13 1.306.7.456 1.45.836 2.176 1.239.72.4 1.435.791 2.125 1.166.69.374 1.352.762 2.003 1.07.647.32 1.262.621 1.83.899l3.774 1.855.028.01a.647.647 0 01-.551 1.17l-3.866-1.748c-.583-.26-1.21-.55-1.873-.845-.675-.284-1.349-.66-2.062-1.012-.711-.359-1.448-.734-2.19-1.112-.748-.387-1.512-.749-2.25-1.186-.742-.424-1.484-.848-2.215-1.26-.369-.208-.729-.42-1.084-.622-.348-.223-.689-.444-1.032-.658-.675-.439-1.327-.854-1.945-1.258-.615-.41-1.168-.844-1.693-1.223-.258-.192-.512-.374-.752-.551-.228-.19-.45-.376-.655-.54-.41-.355-.769-.612-1.065-.918-.296-.282-.525-.51-.683-.659a4.855 4.855 0 00-.209-.22 1.099 1.099 0 111.639-1.463l.023.023-.02.01z" fill="#fff"/></g><defs><linearGradient id="paint0_linear_211_804" x1="27.303" y1="2.328" x2="116.833" y2="34.413" gradientUnits="userSpaceOnUse"><stop stop-color="#fff" stop-opacity=".05"/><stop offset=".997" stop-color="#fff" stop-opacity="0"/></linearGradient><clipPath id="clip0_211_804"><path fill="#fff" transform="rotate(19.382 11.994 70.234)" d="M0 0h98.613v70H0z"/></clipPath></defs></svg>