<svg width="62" height="62" fill="none" xmlns="http://www.w3.org/2000/svg"><path d="M50.651 8.913a.798.798 0 00-.022-.083.788.788 0 00-.057-.077.915.915 0 00-.326-.301.823.823 0 00-.15-.052.799.799 0 00-.144-.033.834.834 0 00-.178.01.795.795 0 00-.11.007c-.008.002-.014.009-.023.011-.009.003-.018.001-.027.004l-27.698 9.195a6.252 6.252 0 00-5.457-4.377 3.773 3.773 0 01.28-1.665 4.202 4.202 0 013.023-2.167.833.833 0 10-.425-1.612c-2.069.547-3.456 1.592-4.123 3.107a5.449 5.449 0 00-.423 2.426c-.144.028-.289.053-.433.092a6.254 6.254 0 00-4.612 6.708 4.51 4.51 0 00-3.188-.34 4.577 4.577 0 00-3.395 4.36.817.817 0 00-.052.535l7.128 26.999c1.393 5.272 7.224 8.322 13 6.796a.781.781 0 00.134-.066.717.717 0 00.422-.12l33.658-21.377c.011-.007.017-.02.028-.027a.8.8 0 00.127-.122.677.677 0 00.217-.556.802.802 0 00-.01-.173c-.003-.013 0-.026-.003-.039l-7.13-26.999c-.006-.024-.023-.041-.03-.064zm-39.207 9.688a4.573 4.573 0 013.34-3.592c.085-.023.172-.037.258-.055.151.6.365 1.18.638 1.735a.833.833 0 001.475-.775 7.226 7.226 0 01-.382-.978 4.573 4.573 0 11-5.329 3.665zM22 57.026c-4.607.824-9.055-1.651-10.148-5.792L6.104 29.468a11.08 11.08 0 009.3 2.582L22 57.026zM15.681 30.28c-4.639 1.164-9.484-1.404-10.84-5.681a2.917 2.917 0 012.144-3.221 2.926 2.926 0 013.183 1.221.82.82 0 00.63.363 6.242 6.242 0 0011.397-3.705l21.72-7.21-16.58 10.705c-.011.007-.016.018-.027.025a.806.806 0 00-.125.122.667.667 0 00-.215.555.8.8 0 00.01.176c.003.012 0 .024.003.036l1.11 4.205a.833.833 0 01-1.611.426l-.832-3.151a.834.834 0 00-1.611.425l5.3 20.07a.833.833 0 11-1.612.426l-5.023-19.023a1.594 1.594 0 01-.106-.24c-.007-.01-.018-.015-.025-.025a.804.804 0 00-.12-.123.48.48 0 00-.249-.159.487.487 0 00-.295-.059.806.806 0 00-.19.011c-.012.003-.022 0-.034.002a.779.779 0 00-.117.058.786.786 0 00-.122.048l-5.763 3.723zm4.667 13.962l-.83-3.14 4.418-2.854.83 3.14-4.418 2.854zm4.865-1.16l.83 3.142-4.419 2.852-.83-3.14 4.419-2.853zm-6.142-3.674l-2.106-7.974 4.418-2.854 2.106 7.974-4.418 2.854zm36.974-3.595L23.568 56.439l-1.496-5.667 4.771-3.08a2.496 2.496 0 004.105-2.476l-.04-.148 23.563-15.217 1.574 5.962zm-2.022-7.658L30.46 43.372l-.83-3.138 23.563-15.218.829 3.139zm-1.277-4.835L29.184 38.538l-.829-3.138 23.563-15.218.828 3.138zm-1.276-4.834L27.908 33.704l-.83-3.139c.284.027.57.006.846-.064a2.503 2.503 0 001.779-3.056l-.956-3.62 20.617-13.312 2.106 7.973z" fill="#fff"/></svg>