<svg width="77" height="77" fill="none" xmlns="http://www.w3.org/2000/svg"><path d="M68.675 27.662l-1.048-.004c.904-1.41 2.065-2.915 3.593-4.803a.962.962 0 00-.748-1.567H15.307a.962.962 0 00-.8 1.495l.773 1.157c2.186 3.262 3.528 5.279 4.507 8.203-.219.859-.957 2.352-3.458 2.953-3.117.751-4.978 2.687-4.978 5.178 0 .87.212 1.705.608 2.444a6.22 6.22 0 00-5.025 6.097c0 1.666.715 3.204 1.855 4.332H7.434l-.483-.003h-.053a6.736 6.736 0 00-4.776 1.968 6.735 6.735 0 00-2.005 4.814c0 2.977 2.127 5.506 4.886 6.013l1.956 10.278a.963.963 0 00.945.783h25.932a.963.963 0 00.946-.784l.78-4.133h18.425c.888 0 1.718-.396 2.277-1.084a2.898 2.898 0 00.6-2.411l-1.04-6.27c4.429-3.095 7.05-7.544 7.669-13.06 1.387-3.561 3.527-4.15 6.006-4.83 1.198-.328 2.438-.668 3.603-1.367 2.548-1.529 4.085-4.342 4.01-7.343-.114-4.424-3.898-8.038-8.437-8.056zM13.292 53.1c-2.403 0-4.433-1.963-4.433-4.285a4.29 4.29 0 014.284-4.284c.208 0 .434.02.688.06a.96.96 0 001.084-1.194.963.963 0 00-.346-.52 3.25 3.25 0 01-1.293-2.603c0-2.142 2.195-2.99 3.504-3.306 3.447-.83 4.53-3.027 4.87-4.36a3.332 3.332 0 012.519 3.226c0 .49-.109.97-.324 1.425a.96.96 0 001.049 1.357c2.236-.42 4.088 1.276 4.088 3.383a3.44 3.44 0 01-.862 2.273c-.259.292-.28.709-.107 1.06.173.35.574.553.963.531.05-.003.097-.007.147-.007a3.626 3.626 0 013.622 3.622 3.626 3.626 0 01-3.622 3.622c-.085 0-.16.027-.238.047H13.53c-.078-.02-.154-.047-.238-.047zm-11.25 6.826c0-1.305.51-2.53 1.436-3.448a4.823 4.823 0 013.42-1.41h.038l.486.005h27.186c2.753 0 5 2.204 5.069 4.94a1.07 1.07 0 00-.008.13 3.98 3.98 0 01-3.981 3.97 3.98 3.98 0 01-3.982-3.97.963.963 0 10-1.925 0 3.98 3.98 0 01-3.982 3.97 3.98 3.98 0 01-3.98-3.97.962.962 0 10-1.926 0 3.98 3.98 0 01-3.981 3.97 3.98 3.98 0 01-3.982-3.97.962.962 0 00-1.924 0c0 1.08-.428 2.091-1.205 2.845A3.905 3.905 0 015.9 64.11c-2.127-.064-3.858-1.94-3.858-4.184zm30.997 15.15H8.7l-1.735-9.118a5.855 5.855 0 003.176-1.588c.313-.303.59-.638.83-1.001a5.909 5.909 0 009.884-.004 5.91 5.91 0 009.889 0 5.911 5.911 0 004.013 2.59l-1.718 9.12zm21.934-6.132a1.005 1.005 0 01-.986 1.214H35.924l.794-4.216c.286-.05.564-.121.835-.212 1.74.42 3.524.633 5.314.636h.045a22.85 22.85 0 009.795-2.228c.458-.222.909-.458 1.352-.708l.915 5.514zm-3.099-6.541a20.907 20.907 0 01-8.985 2.039 20.935 20.935 0 01-2.95-.22 5.864 5.864 0 001.653-3.925.971.971 0 00.012-.155c0-3.857-3.139-6.995-6.996-6.995h-1.337a5.518 5.518 0 001.4-3.67 5.557 5.557 0 00-4.193-5.379 5.367 5.367 0 00.43-2.1 5.378 5.378 0 00-4.878-5.347 5.254 5.254 0 00-4.745-6.045c-.992-2.594-2.317-4.619-4.176-7.394h51.364c-5.486 7.012-5.661 9.38-6.722 23.831l-.09 1.229c-.478 6.49-3.771 11.243-9.787 14.13zM72.112 41.41c-.939.562-2 .853-3.123 1.161-1.722.472-3.594.993-5.168 2.58.625-8.412 1.004-12.116 2.712-15.572l2.136.007c3.507.014 6.431 2.786 6.518 6.18.058 2.308-1.12 4.47-3.075 5.644zm-15.663-28.3h-6.795c-2.398 0-4.349 1.957-4.349 4.361v.422a.962.962 0 001.925 0v-.422a2.433 2.433 0 012.424-2.436h6.795a3.544 3.544 0 000-7.088H40.47a1.685 1.685 0 01-1.678-1.687c0-.93.752-1.686 1.678-1.686h8.553A3.612 3.612 0 0052.626.963a.963.963 0 10-1.925 0c0 .93-.753 1.686-1.679 1.686h-8.553a3.612 3.612 0 000 7.223h15.98c.888 0 1.611.727 1.611 1.62 0 .893-.723 1.62-1.61 1.62zm-16.654 5.746a.962.962 0 00.963-.962v-.423a4.359 4.359 0 00-4.349-4.36h-6.795a1.617 1.617 0 01-1.611-1.62c0-.893.723-1.62 1.61-1.62a.962.962 0 100-1.924 3.544 3.544 0 000 7.088h6.796a2.433 2.433 0 012.424 2.436v.422a.96.96 0 00.962.963z" fill="#fff"/><path d="M26.829 68.86a.96.96 0 00-.963.963v1.466a.962.962 0 101.925 0v-1.466a.963.963 0 00-.962-.963zm-5.968 0a.958.958 0 00-.89.594.958.958 0 00-.073.369v1.466a.962.962 0 101.925 0v-1.466a.963.963 0 00-.962-.963zm-5.969 0a.959.959 0 00-.962.963v1.466a.96.96 0 001.33.89.961.961 0 00.594-.89v-1.466a.961.961 0 00-.962-.963z" fill="#fff"/></svg>