<svg width="50" height="50" fill="none" xmlns="http://www.w3.org/2000/svg"><path d="M9.548 36.085C7.402 33.806 6.25 31.25 6.25 27.106c0-7.292 5.119-13.827 12.563-17.058l1.86 2.87c-6.948 3.759-8.306 8.636-8.848 11.711 1.119-.58 2.583-.781 4.019-.648 3.758.348 6.72 3.433 6.72 7.269a7.291 7.291 0 01-7.291 7.292 8.063 8.063 0 01-5.725-2.457zm20.833 0c-2.146-2.279-3.298-4.835-3.298-8.979 0-7.292 5.12-13.827 12.563-17.058l1.86 2.87c-6.948 3.759-8.306 8.636-8.848 11.711 1.12-.58 2.584-.781 4.02-.648 3.757.348 6.72 3.433 6.72 7.269a7.291 7.291 0 01-7.292 7.292 8.064 8.064 0 01-5.725-2.457z" fill="url(#paint0_linear_370_12936)"/><defs><linearGradient id="paint0_linear_370_12936" x1="6.25" y1="10.048" x2="40.04" y2="42.083" gradientUnits="userSpaceOnUse"><stop stop-color="#FC466B" stop-opacity=".2"/><stop offset="1" stop-color="#3F5EFB" stop-opacity=".2"/></linearGradient></defs></svg>