<svg width="24" height="24" fill="none" xmlns="http://www.w3.org/2000/svg"><g clip-path="url(#clip0_281_936)" fill="#fff"><path d="M20.465 10.975V4.922a2.633 2.633 0 00-2.617-2.627h-.325v-.41a1.859 1.859 0 00-3.718 0v.41H6.991v-.41a1.884 1.884 0 00-3.769 0v.41H2.94C1.502 2.295.331 3.483.331 4.922V18.82c0 1.44 1.17 2.628 2.61 2.628h8.187A7.12 7.12 0 0016.578 24c3.908 0 7.091-3.184 7.091-7.092 0-2.477-1.294-4.666-3.204-5.934zm-5.627-9.09a.814.814 0 01.8-.83h.021a.822.822 0 01.831.814v2.026h-1.652v-2.01zm-10.583 0a.838.838 0 01.849-.83c.464 0 .854.365.854.83v2.01H4.255v-2.01zM1.364 4.921c0-.87.707-1.595 1.576-1.595h.282v1.106c0 .285.238.495.523.495h2.717c.285 0 .529-.21.529-.495V3.327h6.814v1.106a.482.482 0 00.496.495h2.717a.489.489 0 00.505-.495V3.327h.325a1.6 1.6 0 011.585 1.595V6.58H1.363V4.92zM2.94 20.415c-.869 0-1.576-.725-1.576-1.595V7.612h18.069v2.801a7.086 7.086 0 00-2.851-.598c-3.908 0-7.09 3.19-7.09 7.097a7.08 7.08 0 00.921 3.503H2.94zm13.638 2.543a6.055 6.055 0 116.055-6.055 6.062 6.062 0 01-6.055 6.055z"/><path d="M19.01 16.905h-2.262v-3.107a.516.516 0 10-1.033 0v3.623a.525.525 0 00.526.516h2.769a.516.516 0 100-1.032z"/></g><defs><clipPath id="clip0_281_936"><path fill="#fff" d="M0 0h24v24H0z"/></clipPath></defs></svg>