<svg width="746" height="1334" fill="none" xmlns="http://www.w3.org/2000/svg"><path d="M729.347 1189.08c-12.965 71.5-38.672 97.38-48.27 106.96-19.645 19.75-35.418 15.15-48.664 12.08-32.891-7.86-66.007-.77-98.899-9.78-36.147-9.96-72.181-10.54-144.25-11.5-98.731-1.34-197.517-22.62-296.192-9.77-14.818 1.91-50.811 4.93-69.277-60.06-14.482-50.8-10.64-253.288-10.64-253.288V499.355c0-225.148-5.735-333.825 16.885-402.452 22.233-36.137 63.032-36.137 63.032-36.137 121.126-10.16 238.042.384 299.728 0 236.245-1.341 274.244-7.476 274.244-7.476 11.226-1.725 43.949-7.476 59.216 60.192 8.925 39.681 7.858 87.221 7.016 148.755-1.571 120.576.898 241.343.337 361.919-.954 198.403-1.459 297.509-.337 346.199 2.582 109.455 6.511 161.595-3.817 218.535l-.112.19z" fill="url(#paint0_linear_554_6013)"/><path d="M166.04 17.828s0 .767-.057 1.15c-1.515.192-3.423.575-5.725.767-6.455 1.15-15.94 2.108-28.064 3.45-12.068 1.342-26.773 2.876-43.556 4.6-8.42.576-17.344 1.151-26.773 1.726-2.358 0-4.771.383-7.185.575H51.2l-3.704 1.15c-4.49 1.726-8.925 5.751-13.247 12.46-8.587 13.419-15.996 38.34-20.15 69.585-2.077 15.528-3.424 32.588-3.76 50.224-.169 8.435-.113 18.595-.113 28.563s0 20.128.056 30.096c.169 81.086.337 166.582.505 254.953.337 88.371-.112 179.809-.224 272.589-.225 92.78-.449 187.094-.674 281.404l-.392 70.74c0 23.19-.674 48.31.505 67.86 2.357 42.36 10.552 81.28 21.946 101.21 5.613 10.16 11.9 16.49 18.298 17.64 6.623.57 13.415.38 20.038.57 13.302.2 26.493.58 39.402.77 51.751.96 100.078 1.92 141.501 2.88 82.846 2.1 138.02 3.45 138.02 3.45s-55.23 1.34-138.02 3.45c-41.423.76-89.75 1.72-141.501 2.87-12.965.19-26.1.58-39.402.77-6.68 0-13.415.19-20.15.38-7.072.19-14.257-4.79-20.768-15.52-13.134-20.52-23.181-63.65-26.493-113.1-1.74-26.65-1.122-49.08-1.459-72.85l-.393-70.73C.797 937.193.572 842.88.348 750.1.235 657.32-.214 565.881.123 477.51c.168-88.371.337-173.866.505-254.953 0-10.16 0-20.128.056-30.096 0-9.968 0-19.744.225-30.863.505-21.661 2.189-42.556 4.94-61.342 5.5-37.572 14.817-66.134 25.201-80.703 5.164-7.284 10.664-11.502 16.053-12.844l3.704-.383h3.817c2.414.383 4.827.575 7.184.767 9.43.575 18.41 1.15 26.774 1.725 16.839 1.725 31.488 3.45 43.556 4.6 12.067 1.343 21.553 2.301 28.064 3.451 2.301.384 4.21.575 5.781.767l.057.192z" fill="url(#paint1_linear_554_6013)"/><path d="M736.868 321.471c-.617 97.956-1.627 179.618-2.076 236.742-.674 57.125-1.067 89.713-1.067 89.713s-.393-32.588-1.066-89.713c-.449-57.124-1.46-138.786-2.077-236.742-.393-48.69-.561-102.748-1.123-157.381-1.066-50.607-11.562-101.023-26.773-119.809-3.704-4.984-7.746-7.476-11.787-8.434l-3.087-.384h-3.424l-6.904.384c-9.205.191-18.578.383-27.952.767-18.803.191-37.943.383-57.083.575-19.14-.192-38.223-.384-57.083-.575-18.803-.575-37.325-1.15-55.286-1.534-35.867-1.342-69.319-3.259-98.001-5.75-28.682-2.11-52.593-5.56-69.319-7.093-4.154-.576-135.439-3.068-138.638-3.451 0-1.342.225-.959.168-2.3 3.2-.384 134.373-.959 138.47-1.534 16.726-1.534 40.637-4.984 69.319-7.093 28.682-2.492 62.134-4.409 98.001-5.75 17.905-.575 36.427-.959 55.286-1.534C554.17.383 573.309.192 592.449 0c19.14.192 38.224.383 57.083.575 9.43.192 18.747.383 27.952.767h6.904c2.245.191 4.603.383 7.185 1.15 4.995 1.534 9.99 4.984 14.537 11.502 9.205 12.46 17.119 33.93 22.507 60.575 5.445 26.645 8.532 57.317 8.925 88.371.112 57.508-.505 109.649-.786 158.914l.112-.383z" fill="url(#paint2_linear_554_6013)"/><path d="M725.979 1256.75c-5.051 18.98-11.338 34.31-18.41 43.51-6.96 9.59-15.042 12.65-21.946 11.89-54.613-2.3-109.17-4.99-150.144-9.01-20.487-1.92-37.551-3.45-49.45-4.6-11.955-1.54-18.747-2.3-18.747-2.3s6.848-.77 18.747-2.3c11.956-1.15 29.019-2.69 49.45-4.6 40.917-4.22 95.531-6.71 150.144-9.01 6.735 0 12.404-3.45 18.073-11.89 5.501-8.43 10.44-20.89 14.369-36.04 3.929-15.14 6.904-32.97 8.532-52.14 1.684-19.36 1.852-37.57 1.796-60.57.056-87.42.674-168.886 1.403-238.855.674-69.968 1.74-128.243 2.582-168.882.337-20.32.674-36.422 1.01-47.349.281-10.926.449-16.677.449-16.677s.169 5.751.45 16.677c.336 10.927.617 27.029 1.01 47.349.842 40.83 1.908 99.105 2.582 168.882a26353.19 26353.19 0 011.403 238.855c.112 20.51.168 47.54-2.133 71.31-2.133 24.15-6.006 46.58-11.057 65.56l-.113.19z" fill="url(#paint3_linear_554_6013)"/><path d="M394.708 1333.81c-25.314-.39-50.628-.77-74.371-1.15-23.742-.39-45.913-2.11-64.885-2.88-18.971-.76-34.799-2.68-45.913-3.45-11.057-1.15-17.4-1.72-17.4-1.72s6.343-.58 17.4-1.73c11.057-.77 26.886-2.49 45.913-3.45 18.972-.77 41.143-2.49 64.885-2.87 23.743-.39 49.057-.77 74.371-1.15 25.314.38 50.628.76 74.37 1.15 23.743.38 45.913 2.1 64.885 2.87 18.971.77 34.8 2.68 45.913 3.45 11.058 1.15 17.4 1.73 17.4 1.73s-6.342.57-17.4 1.91c-11.057.77-26.885 2.69-45.913 3.45-18.972.77-41.142 2.5-64.885 2.88-23.742.38-49.056.77-74.37 1.15v-.19z" fill="url(#paint4_linear_554_6013)"/><path d="M743.323 950.42s.169-9.968.505-27.604c.225-17.636.73-42.556 1.011-72.652.224-30.096.673-65.176.842-102.748.224-37.573.28-77.828.336-117.892 0-40.065-.112-80.32-.336-117.892-.169-37.572-.618-72.652-.842-102.748-.225-30.096-.786-55.208-1.011-72.653-.336-17.635-.505-27.603-.505-27.603s-.168 9.968-.505 27.603c-.225 17.636-.786 42.557-1.01 72.653-.225 30.096-.73 65.176-.842 102.748-.225 37.572-.281 77.827-.337 117.892.056 40.064.112 80.319.337 117.892.168 37.572.617 72.652.842 102.748.224 30.096.785 55.208 1.01 72.652.337 17.636.505 27.604.505 27.604z" fill="url(#paint5_linear_554_6013)"/><defs><linearGradient id="paint0_linear_554_6013" x1="12.505" y1="1310.88" x2="739.227" y2="1309.14" gradientUnits="userSpaceOnUse"><stop stop-color="#fff" stop-opacity=".05"/><stop offset=".997" stop-color="#fff" stop-opacity="0"/></linearGradient><linearGradient id="paint1_linear_554_6013" x1="0" y1="1303.72" x2="641.7" y2="1163.73" gradientUnits="userSpaceOnUse"><stop stop-color="#FC466B" stop-opacity=".2"/><stop offset="1" stop-color="#3F5EFB" stop-opacity=".2"/></linearGradient><linearGradient id="paint2_linear_554_6013" x1="174.122" y1="647.926" x2="869.292" y2="208.321" gradientUnits="userSpaceOnUse"><stop stop-color="#FC466B" stop-opacity=".2"/><stop offset="1" stop-color="#3F5EFB" stop-opacity=".2"/></linearGradient><linearGradient id="paint3_linear_554_6013" x1="467.282" y1="1312.26" x2="898.881" y2="1183.74" gradientUnits="userSpaceOnUse"><stop stop-color="#FC466B" stop-opacity=".2"/><stop offset="1" stop-color="#3F5EFB" stop-opacity=".2"/></linearGradient><linearGradient id="paint4_linear_554_6013" x1="192.139" y1="1334" x2="194.915" y2="1290.01" gradientUnits="userSpaceOnUse"><stop stop-color="#FC466B" stop-opacity=".2"/><stop offset="1" stop-color="#3F5EFB" stop-opacity=".2"/></linearGradient><linearGradient id="paint5_linear_554_6013" x1="740.629" y1="950.42" x2="749.935" y2="950.363" gradientUnits="userSpaceOnUse"><stop stop-color="#FC466B" stop-opacity=".2"/><stop offset="1" stop-color="#3F5EFB" stop-opacity=".2"/></linearGradient></defs></svg>