<svg width="1192" height="474" viewBox="0 0 1192 474" fill="none" xmlns="http://www.w3.org/2000/svg">
<path d="M1165.28 51.4256C1144.56 26.0194 1103.49 16.8241 1088.15 13.4184C1056.77 6.40276 1031.57 8.03748 1010.4 9.12729C957.851 11.9199 904.941 9.39974 852.39 12.6011C794.637 16.143 737.064 16.3473 621.917 16.6879C464.174 17.1646 306.34 24.7252 148.686 20.1616C125.011 19.4805 67.5041 18.4096 38 41.5C14.8631 59.55 21.0001 131.5 21.0001 131.5C21.0001 255 21 296.5 21 296.5C21.0001 376.5 11.8377 415.115 47.978 439.5C83.5 452.34 148.686 452.34 148.686 452.34C342.211 455.95 529.011 452.204 627.567 452.34C1005.02 452.817 1065.73 454.997 1065.73 454.997C1083.67 455.61 1135.95 457.653 1160.34 433.609C1174.6 419.51 1172.9 402.617 1171.55 380.753C1169.04 337.91 1172.99 294.999 1172.09 252.155C1170.57 181.658 1169.76 146.444 1171.55 129.143C1175.68 90.2502 1181.96 71.7234 1165.46 51.4937L1165.28 51.4256Z" fill="url(#paint0_linear_525_1413)"/>
<path d="M265.268 467.597C265.268 467.597 265.268 467.325 265.178 467.189C262.757 467.121 259.708 466.984 256.031 466.916C245.718 466.508 230.562 466.167 211.192 465.69C191.911 465.213 168.415 464.669 141.602 464.056C128.15 463.851 113.891 463.647 98.8254 463.443C95.0589 463.443 91.2027 463.306 87.3466 463.238H81.7865L75.8678 462.829C68.6935 462.216 61.609 460.786 54.7038 458.402C40.983 453.634 29.1455 444.779 22.5094 433.677C19.1913 428.16 17.039 422.098 16.5009 415.831C16.2319 412.834 16.3216 409.224 16.3216 405.683C16.3216 402.141 16.3216 398.531 16.4113 394.989C16.6803 366.177 16.9493 335.798 17.2184 304.398C17.7564 272.998 17.039 240.508 16.8597 207.541C16.5009 174.574 16.1422 141.063 15.7835 107.551L15.1558 82.417C15.1558 74.1753 14.0796 65.2525 15.9629 58.3049C19.7294 43.2519 32.8223 29.4249 51.027 22.3412C59.9948 18.7311 70.0387 16.4834 80.262 16.0747C90.844 15.8704 101.695 15.9385 112.277 15.8704C133.531 15.8023 154.605 15.6661 175.231 15.5979C257.914 15.2574 335.127 14.9168 401.309 14.5762C533.674 13.827 621.827 13.3502 621.827 13.3502C621.827 13.3502 533.584 12.8734 401.309 12.1242C335.127 11.8517 257.914 11.5111 175.231 11.1025C154.515 11.0344 133.531 10.8981 112.277 10.83C101.605 10.83 90.844 10.7619 80.0826 10.6938C68.7832 10.6257 57.3044 12.3966 46.9018 16.211C25.9171 23.4991 9.86478 38.8246 4.57377 56.3978C1.79376 65.8655 2.78022 73.8348 2.24215 82.2808L1.6144 107.415C1.25569 140.926 0.896977 174.438 0.538265 207.405C0.358909 240.372 -0.358515 272.862 0.179553 304.262C0.448587 335.662 0.717621 366.041 0.986655 394.853C0.986655 398.463 0.986655 402.004 1.07633 405.546C1.07633 409.088 1.07633 412.562 1.43504 416.513C2.24215 424.209 4.93249 431.634 9.32671 438.309C18.1152 451.659 33.0017 461.808 49.5921 466.984C57.8425 469.573 66.631 471.071 75.24 471.548L81.1588 471.684H87.2569C91.113 471.548 94.9692 471.48 98.7357 471.412C113.802 471.207 128.15 471.003 141.512 470.799C168.415 470.186 191.821 469.573 211.102 469.164C230.383 468.687 245.539 468.347 255.941 467.938C259.618 467.802 262.667 467.734 265.178 467.666L265.268 467.597Z" fill="url(#paint1_linear_525_1413)"/>
<path d="M1177.29 359.706C1176.31 324.9 1174.69 295.884 1173.97 275.586C1172.9 255.288 1172.27 243.709 1172.27 243.709C1172.27 243.709 1171.64 255.288 1170.57 275.586C1169.85 295.884 1168.24 324.9 1167.25 359.706C1166.62 377.007 1166.35 396.215 1165.46 415.627C1163.75 433.609 1146.98 451.523 1122.68 458.198C1116.76 459.969 1110.3 460.854 1103.85 461.195L1098.91 461.331H1093.44L1082.41 461.195C1067.71 461.127 1052.73 461.059 1037.75 460.922C1007.71 460.854 977.131 460.786 946.551 460.718C915.971 460.786 885.481 460.854 855.349 460.922C825.307 461.127 795.713 461.331 767.016 461.467C709.712 461.944 656.264 462.625 610.438 463.511C564.613 464.26 526.41 465.486 499.686 466.031C493.05 466.235 283.293 467.121 278.181 467.257C278.181 467.734 278.54 467.597 278.45 468.074C283.562 468.21 493.139 468.415 499.686 468.619C526.41 469.164 564.613 470.39 610.438 471.139C656.264 472.025 709.712 472.706 767.016 473.183C795.623 473.387 825.217 473.523 855.349 473.728C885.391 473.796 915.971 473.864 946.551 473.932C977.131 473.864 1007.62 473.796 1037.75 473.728C1052.82 473.66 1067.71 473.591 1082.41 473.455H1093.44C1097.03 473.387 1100.8 473.319 1104.92 473.046C1112.9 472.502 1120.89 471.276 1128.15 468.96C1142.86 464.532 1155.5 456.904 1164.11 447.436C1172.81 437.968 1177.74 427.07 1178.37 416.036C1178.55 395.602 1177.56 377.075 1177.11 359.57L1177.29 359.706Z" fill="url(#paint2_linear_525_1413)"/>
<path d="M1159.9 27.3814C1151.82 20.6382 1141.78 15.1892 1130.48 11.9197C1119.36 8.51406 1106.45 7.42425 1095.42 7.6967C1008.16 8.51406 920.993 9.46764 855.528 10.898C822.796 11.5792 795.533 12.1241 776.522 12.5327C757.42 13.0776 746.569 13.3501 746.569 13.3501C746.569 13.3501 757.51 13.6226 776.522 14.1675C795.623 14.5761 822.885 15.121 855.528 15.8022C920.903 17.3007 1008.16 18.1861 1095.42 19.0035C1106.18 19.0035 1115.24 20.2295 1124.29 23.2265C1133.08 26.2235 1140.97 30.6509 1147.25 36.0318C1153.53 41.4128 1158.28 47.7473 1160.88 54.5586C1163.57 61.438 1163.84 67.9088 1163.75 76.0824C1163.84 107.142 1164.83 136.09 1165.99 160.951C1167.07 185.813 1168.77 206.519 1170.12 220.959C1170.66 228.179 1171.19 233.901 1171.73 237.783C1172.18 241.666 1172.45 243.709 1172.45 243.709C1172.45 243.709 1172.72 241.666 1173.17 237.783C1173.71 233.901 1174.15 228.179 1174.78 220.959C1176.13 206.451 1177.83 185.745 1178.91 160.951C1180.07 136.09 1180.97 107.142 1181.15 76.0824C1181.33 68.7943 1181.42 59.1903 1177.74 50.7443C1174.33 42.162 1168.15 34.1928 1160.07 27.4495L1159.9 27.3814Z" fill="url(#paint3_linear_525_1413)"/>
<path d="M630.616 -1.99676e-06C590.171 0.136224 549.726 0.272451 511.792 0.408677C473.859 0.544904 438.436 1.15792 408.125 1.43038C377.813 1.70283 352.524 2.38396 334.768 2.65641C317.101 3.06509 306.968 3.26943 306.968 3.26943C306.968 3.26943 317.101 3.47377 334.768 3.88245C352.435 4.15491 377.724 4.76792 408.125 5.10849C438.436 5.38094 473.859 5.99396 511.792 6.13019C549.726 6.26642 590.171 6.40264 630.616 6.53887C671.06 6.40264 711.505 6.26642 749.439 6.13019C787.373 5.99396 822.796 5.38094 853.107 5.10849C883.418 4.83604 908.707 4.15491 926.463 3.88245C944.13 3.47377 954.264 3.26943 954.264 3.26943C954.264 3.26943 944.13 3.06509 926.463 2.5883C908.797 2.31585 883.508 1.63472 853.107 1.36226C822.796 1.08981 787.373 0.476791 749.439 0.340564C711.505 0.204338 671.06 0.0681112 630.616 -0.0681152V-1.99676e-06Z" fill="url(#paint4_linear_525_1413)"/>
<path d="M1187.61 136.227C1187.61 136.227 1187.87 139.768 1188.41 146.035C1188.77 152.301 1189.58 161.156 1190.03 171.85C1190.39 182.544 1191.1 195.008 1191.37 208.358C1191.73 221.709 1191.82 236.012 1191.91 250.248C1191.91 264.484 1191.73 278.788 1191.37 292.138C1191.1 305.488 1190.39 317.953 1190.03 328.646C1189.67 339.34 1188.77 348.263 1188.41 354.461C1187.87 360.728 1187.61 364.27 1187.61 364.27C1187.61 364.27 1187.34 360.728 1186.8 354.461C1186.44 348.195 1185.54 339.34 1185.18 328.646C1184.83 317.953 1184.02 305.488 1183.84 292.138C1183.48 278.788 1183.39 264.484 1183.3 250.248C1183.39 236.012 1183.48 221.709 1183.84 208.358C1184.11 195.008 1184.83 182.544 1185.18 171.85C1185.54 161.156 1186.44 152.233 1186.8 146.035C1187.34 139.768 1187.61 136.227 1187.61 136.227Z" fill="url(#paint5_linear_525_1413)"/>
<defs>
<linearGradient id="paint0_linear_525_1413" x1="19.9629" y1="8.14575" x2="1180.93" y2="20.6803" gradientUnits="userSpaceOnUse">
<stop stop-color="white" stop-opacity="0.05"/>
<stop offset="0.9966" stop-color="white" stop-opacity="0"/>
</linearGradient>
<linearGradient id="paint1_linear_525_1413" x1="-0.0170898" y1="10.6919" x2="547.341" y2="547.618" gradientUnits="userSpaceOnUse">
<stop stop-color="#FC466B" stop-opacity="0.2"/>
<stop offset="1" stop-color="#3F5EFB" stop-opacity="0.2"/>
</linearGradient>
<linearGradient id="paint2_linear_525_1413" x1="278.181" y1="243.709" x2="449.318" y2="730.334" gradientUnits="userSpaceOnUse">
<stop stop-color="#FC466B" stop-opacity="0.2"/>
<stop offset="1" stop-color="#3F5EFB" stop-opacity="0.2"/>
</linearGradient>
<linearGradient id="paint3_linear_525_1413" x1="746.569" y1="7.65674" x2="1015.36" y2="367.573" gradientUnits="userSpaceOnUse">
<stop stop-color="#FC466B" stop-opacity="0.2"/>
<stop offset="1" stop-color="#3F5EFB" stop-opacity="0.2"/>
</linearGradient>
<linearGradient id="paint4_linear_525_1413" x1="306.968" y1="-0.0681152" x2="307.188" y2="15.6213" gradientUnits="userSpaceOnUse">
<stop stop-color="#FC466B" stop-opacity="0.2"/>
<stop offset="1" stop-color="#3F5EFB" stop-opacity="0.2"/>
</linearGradient>
<linearGradient id="paint5_linear_525_1413" x1="1183.3" y1="136.227" x2="1198.16" y2="136.634" gradientUnits="userSpaceOnUse">
<stop stop-color="#FC466B" stop-opacity="0.2"/>
<stop offset="1" stop-color="#3F5EFB" stop-opacity="0.2"/>
</linearGradient>
</defs>
</svg>
