<svg width="477" height="1193" fill="none" xmlns="http://www.w3.org/2000/svg"><g clip-path="url(#clip0_451_1343)"><g opacity=".1" clip-path="url(#clip1_451_1343)"><path d="M266.094 45.283a6.725 6.725 0 003.598-.89c2.882-1.652 4.128-5.224 2.9-8.31a6.764 6.764 0 00-.957-1.669c.731-2.557.196-6.547-.411-9.547-.271-1.336.204-2.649 1.269-3.512 1.051-.852 2.412-1.043 3.643-.51.101.043.142.067.142.066a.941.941 0 001.49-.726 10.877 10.877 0 00-1.813-6.49 10.704 10.704 0 00-5.444-4.202c-3.414-1.18-7.209-.546-10.053 1.596a6.705 6.705 0 00-8.73-3.682 6.733 6.733 0 00-2.926 2.278 8.664 8.664 0 00-9.839-.863 8.572 8.572 0 00-4.068 5.48L218.06 25.64a.942.942 0 00-.393.993 80.338 80.338 0 006.07 17.226 80.37 80.37 0 009.787 15.42.947.947 0 001.023.305l19.32-6.223a8.573 8.573 0 006.823.19 8.666 8.666 0 005.404-8.268zm-31.422-28.556a8.53 8.53 0 00.827 3.265l-15.207 9.352c-.227-.83-.44-1.664-.639-2.502l15.019-10.114zm14.251 27.949c-.1.977-.032 1.964.201 2.918l-17.256 6.358a79.197 79.197 0 01-1.508-2.224l17.97-7.3c.196.086.394.169.593.248zm-19.593 5.433c-.462-.746-.912-1.5-1.35-2.261l15.279-6.805a17.208 17.208 0 002.882 2.238l-16.811 6.828zm-2.272-3.916a79.957 79.957 0 01-1.206-2.313l14.27-6.932a17.5 17.5 0 001.785 2.632l-14.849 6.613zm-2.031-4.01c-.37-.787-.727-1.58-1.072-2.378l14.378-7.583a17.48 17.48 0 00.965 3.03l-14.271 6.93zm12.992-11.93l-14.794 7.803a79.813 79.813 0 01-.943-2.459l15.76-8.991a17.11 17.11 0 00-.023 3.648zm.474-6.077l-16.847 9.612a78.968 78.968 0 01-.816-2.56l15.665-9.633a8.636 8.636 0 002.17 1.962 18.23 18.23 0 00-.172.619zm-3.906 33.412a76.829 76.829 0 01-1.571-2.048l16.751-6.172a8.523 8.523 0 002.055 2.668l-17.235 5.552zm25.398-5.788a6.687 6.687 0 01-4.775.075 6.702 6.702 0 01-3.63-3.109 6.653 6.653 0 01-.685-4.524.941.941 0 00-.618-1.078 15.38 15.38 0 01-8.893-7.877 15.383 15.383 0 01-.694-11.86.946.946 0 00-.465-1.152 6.656 6.656 0 01-3.133-3.335 6.71 6.71 0 01-.199-4.775 6.686 6.686 0 013.011-3.707c2.749-1.58 6.264-1.018 8.37 1.334.148.165.34.29.559.329a.945.945 0 001.025-.529 4.834 4.834 0 012.577-2.435c2.131-.861 4.661-.048 5.885 1.891l.025.04c.465.751.644 1.643.547 2.521-.118 1.063-.219 2.88.044 5.198.27 2.385.98 5.648 2.726 9.243a31.47 31.47 0 002.798 4.672c.304.421.893.557 1.322.264a.943.943 0 00.234-1.333c-3.627-5.015-4.827-9.823-5.195-12.974-.321-2.753-.083-4.757.026-5.45a8.97 8.97 0 019.047-1.952c3.282 1.136 5.589 4.114 5.949 7.5-1.586-.343-3.223.045-4.538 1.112a5.474 5.474 0 00-1.93 5.353c.836 4.128.955 7.409.327 9.008a.963.963 0 00.178 1.012c.411.442.736.958.959 1.52.883 2.218-.061 4.705-2.084 5.973-3.318 2.079-14.456-1.69-18.405-18.96a.94.94 0 00-.43-.596.943.943 0 00-.727-.106c-.499.129-.79.655-.675 1.158.768 3.345 1.788 6.149 2.927 8.495 2.122 4.368 4.656 7.146 6.736 8.86 2.589 2.132 4.901 3.014 6.003 3.343a6.765 6.765 0 01-4.199 6.851z" fill="#fff"/></g><path d="M425.016 1165.38c25.362-20.77 34.471-61.86 37.845-77.2 6.95-31.4 5.262-56.6 4.128-77.76-2.903-52.546-.493-105.461-3.805-158.006-3.663-57.745-3.988-115.318-4.57-230.463-.807-157.743-8.698-315.56-4.465-473.223.631-23.676 1.582-81.186-21.57-110.641-18.099-23.1-90.036-16.812-90.036-16.812-123.5.26-164.999.346-164.999.346-80 .168-118.635-8.913-142.944 27.278-12.765 35.549-12.629 100.735-12.629 100.735-3.204 193.532.934 380.323 1.004 478.879.314 377.457-1.738 438.167-1.738 438.167-.576 17.94-2.51 70.23 21.586 94.57 14.129 14.23 31.017 12.49 52.879 11.1 42.838-2.6 85.757 1.25 128.599.27 70.493-1.68 105.706-2.56 123.011-.8 38.901 4.05 57.441 10.28 77.636-6.26l.068-.18z" fill="url(#paint0_linear_451_1343)"/><path d="M6.959 266.247s.272-.001.408-.091c.063-2.421.193-5.47.253-9.147.387-10.314.696-25.47 1.132-44.842.437-19.282.932-42.778 1.49-69.593.175-13.452.35-27.711.523-42.778-.008-3.766.12-7.623.18-11.479l-.012-5.56.397-5.92c.598-7.175 2.013-14.263 4.383-21.173 4.739-13.73 13.569-25.587 24.657-32.246 5.51-3.33 11.568-5.495 17.833-6.046 2.997-.275 6.607-.193 10.149-.2 3.541-.008 7.151-.015 10.694.067 28.812.209 59.191.414 90.592.617 31.401.472 63.889-.313 96.856-.562 32.966-.427 66.477-.856 99.988-1.285l25.132-.68c8.242-.018 17.162-1.113 24.114.756 15.061 3.735 28.915 16.799 36.037 34.989 3.629 8.96 5.897 18.999 6.328 29.221.226 10.582.181 21.433.271 32.015.113 21.253.293 42.327.404 62.953.514 82.682 1.017 159.894 1.496 226.076 1.027 132.363 1.688 220.515 1.688 220.515s.292-88.244.764-220.52c.134-66.183.312-143.396.548-226.08.025-20.716.117-41.701.14-62.955-.022-10.671.024-21.433.069-32.194.045-11.3-1.75-22.775-5.587-33.17-7.332-20.969-22.691-36.99-40.275-42.243-9.474-2.76-17.441-1.757-25.888-2.278l-25.135-.575c-33.512-.288-67.025-.577-99.992-.866-32.967-.11-65.459-.76-96.858-.156-31.399.335-61.777.668-90.588.997-3.61.008-7.152.015-10.694.112-3.542.007-7.016.015-10.966.382-7.695.823-15.113 3.529-21.78 7.937C22.38 19.061 12.262 33.97 7.12 50.571c-2.571 8.255-4.051 17.047-4.51 25.657l-.124 5.919.013 6.098c.144 3.856.22 7.712.296 11.478.236 15.066.47 29.414.703 42.775.67 26.902 1.331 50.307 1.78 69.587.518 19.28.89 34.434 1.32 44.836.144 3.677.219 6.726.292 9.236l.069.09z" fill="url(#paint1_linear_451_1343)"/><path d="M116.761 1178.04c34.804-1.06 63.817-2.73 84.113-3.49 20.295-1.12 31.873-1.77 31.873-1.77s-11.58-.6-31.88-1.64c-20.3-.67-49.319-2.23-84.127-3.14-17.302-.59-36.51-.82-55.925-1.68-17.985-1.66-35.934-18.39-42.66-42.68-1.783-5.92-2.682-12.37-3.036-18.83l-.147-4.93-.011-5.47.113-11.03c.037-14.71.074-29.69.178-44.66.006-30.04.01-60.625.014-91.205-.133-30.58-.264-61.07-.396-91.202-.267-30.042-.533-59.635-.73-88.332-.597-57.303-1.39-110.749-2.371-156.573-.846-45.823-2.152-84.024-2.753-110.746-.218-6.636-1.543-216.391-1.69-221.502-.477.001-.34.359-.817.271-.125 5.112.11 214.689-.08 221.236-.49 26.725-1.636 64.93-2.289 110.757-.79 45.828-1.359 99.277-1.715 156.582-.145 28.608-.219 58.202-.36 88.334-.005 30.042-.01 60.622-.013 91.203l.395 91.197c.1 15.07.2 29.96.366 44.66l.023 11.03c.076 3.59.152 7.36.433 11.48.562 7.98 1.805 15.96 4.136 23.22 4.458 14.7 12.113 27.33 21.599 35.92 9.486 8.67 20.394 13.58 31.43 14.19 20.434.13 38.959-.89 56.463-1.38l-.136.18z" fill="url(#paint2_linear_451_1343)"/><path d="M449.048 1159.95c6.727-8.09 12.155-18.14 15.4-29.45 3.383-11.12 4.445-24.04 4.15-35.07-1-87.25-2.137-174.419-3.704-239.881-.75-32.731-1.352-59.992-1.8-79.003-.585-19.1-.881-29.95-.881-29.95s-.249 10.941-.754 29.954c-.369 19.102-.857 46.365-1.469 79.009-1.362 65.379-2.064 152.641-2.699 239.891.023 10.77-1.184 19.83-4.162 28.89-2.979 8.79-7.39 16.69-12.758 22.98-5.367 6.29-11.692 11.06-18.498 13.67-6.874 2.71-13.344 2.99-21.517 2.92-31.06.15-60.006 1.2-84.865 2.42a1203.187 1203.187 0 00-59.999 4.25c-7.218.55-12.939 1.1-16.82 1.65-3.882.46-5.925.73-5.925.73s2.044.26 5.928.7c3.883.53 9.606.97 16.827 1.58 14.511 1.32 35.221 2.98 60.016 4 24.864 1.12 53.814 1.95 84.874 2.07 7.288.16 16.893.23 25.331-3.47 8.575-3.42 16.531-9.63 23.258-17.71l.067-.18z" fill="url(#paint3_linear_451_1343)"/><path d="M475.321 630.614c-.221-40.444-.442-80.888-.658-118.822-.216-37.933-.903-73.355-1.239-103.665-.336-30.311-1.07-55.598-1.38-73.354-.446-17.666-.671-27.799-.671-27.799s-.183 10.134-.555 27.801c-.235 17.668-.795 42.958-1.072 73.359-.209 30.312-.748 65.736-.805 103.67-.056 37.934-.108 78.379-.159 118.824.221 40.444.442 80.889.657 118.822.216 37.934.903 73.355 1.239 103.666.336 30.31 1.071 55.598 1.38 73.354.446 17.665.671 27.798.671 27.798s.184-10.134.623-27.801c.236-17.667.864-42.958 1.073-73.359.209-30.312.747-65.736.804-103.67.057-37.934.108-78.379.16-118.824h-.068z" fill="url(#paint4_linear_451_1343)"/><path d="M340.261 1187.89s-3.541.28-9.806.83c-6.266.37-15.119 1.19-25.812 1.66-10.693.39-23.156 1.13-36.505 1.43-13.35.38-27.653.5-41.889.62-14.235.03-28.54-.12-41.89-.45-13.351-.24-25.817-.93-36.512-1.27-10.694-.33-19.619-1.21-25.818-1.56-6.268-.52-9.81-.78-9.81-.78s3.541-.28 9.806-.83c6.266-.37 15.119-1.29 25.812-1.67 10.693-.38 23.156-1.21 36.506-1.42 13.349-.39 27.653-.51 41.888-.63 14.236.06 28.54.12 41.891.45 13.351.24 25.817.94 36.511 1.27 10.695.34 19.619 1.22 25.818 1.56 6.268.53 9.81.79 9.81.79z" fill="url(#paint5_linear_451_1343)"/><g opacity=".1" clip-path="url(#clip2_451_1343)"><path d="M205.26 1157.41c1.762-10.74 20.939-20.57 27.429-33.45 5.421-10.74 19.586-17.85 22.59-31 3.299-14.44-25.626-13.88-32.449-10.89 0 0-13.887-9.19-27.985-6.59 0 0-23.263 34.65-22.418 62.49.115 3.88 17.775 7.81 17.775 7.81-4.436 22.95 13.296 22.37 15.058 11.63z" fill="url(#paint6_linear_451_1343)"/><path d="M206.184 1154.77c1.762-10.74 20.939-20.58 27.429-33.45 5.421-10.75 19.586-17.86 22.591-31 3.298-14.45-25.627-13.89-32.45-10.9 0 0-13.887-9.18-27.985-6.58 0 0-23.262 34.65-22.418 62.49.115 3.88 17.775 7.8 17.775 7.8-4.436 22.96 13.296 22.38 15.058 11.64z" stroke="#fff" stroke-width="3" stroke-miterlimit="10" stroke-linecap="round"/><path d="M212.775 1092.31s.102-.07.289-.21c.201-.13.419-.33.938-.58.236-.12.511-.26.792-.38.272-.09.565-.2.881-.3.314-.13.653-.19 1.001-.27.352-.08.722-.18 1.111-.23.391-.06.792-.12 1.207-.18.415-.03.843-.06 1.29-.1.442-.05.893-.03 1.356-.04.457-.01.936-.02 1.412.01l1.449.06c.488.05.982.1 1.478.14.994.09 1.992.26 2.996.41.992.2 1.993.34 2.954.59.968.22 1.916.43 2.821.7.912.25 1.785.5 2.602.78.821.26 1.597.5 2.299.78.706.26 1.352.5 1.927.71.563.23 1.058.43 1.462.61.814.33 1.274.52 1.274.52.313.12.458.49.333.8a.617.617 0 01-.777.34l-.021-.01-1.267-.47c-.405-.15-.891-.34-1.459-.55-.568-.19-1.215-.4-1.915-.64-.697-.24-1.466-.46-2.274-.69-.806-.25-1.673-.47-2.567-.68-.894-.24-1.821-.42-2.771-.61-.94-.21-1.917-.32-2.881-.49-.97-.1-1.934-.25-2.893-.29-.479-.03-.955-.07-1.417-.1-.469-.01-.925-.01-1.38-.01-.451-.02-.895.01-1.328.03-.435.02-.861.02-1.266.07-.41.05-.804.09-1.191.13-.373.07-.734.13-1.082.2-.35.04-.666.15-.973.23-.302.09-.601.14-.847.25-.258.1-.491.19-.714.27-.196.1-.343.18-.501.26-.284.1-.577.36-.761.49-.187.14-.285.22-.285.22l-.003.01a1.11 1.11 0 01-1.541-.22 1.1 1.1 0 01.218-1.54c.003 0 .021-.01.031-.02h-.007zm-2.774 8.05s.078.04.232.13c.149.08.369.21.647.37.571.31 1.393.76 2.405 1.25 1.011.5 2.208 1.04 3.504 1.59.651.26 1.324.53 2.014.79.698.25 1.399.52 2.113.74.711.23 1.424.47 2.136.65.712.2 1.412.39 2.097.54.68.16 1.342.3 1.981.4.63.11 1.227.24 1.783.28.559.07 1.065.13 1.517.19.448.02.843.04 1.169.06.647.04 1.019.06 1.019.06h.06a.82.82 0 01.77.86.834.834 0 01-.837.78s-.391-.01-1.073-.04c-.344-.01-.758-.02-1.232-.04-.473-.04-1.004-.1-1.589-.15-.582-.04-1.207-.16-1.871-.25a29.09 29.09 0 01-2.069-.38 32.18 32.18 0 01-2.195-.5c-.744-.18-1.485-.4-2.232-.62-.748-.21-1.475-.48-2.207-.71-.718-.25-1.424-.51-2.1-.77-1.355-.54-2.605-1.06-3.655-1.56a49.82 49.82 0 01-3.244-1.62c-.163-.09-.246-.14-.246-.14a1.09 1.09 0 01-.422-1.49 1.096 1.096 0 011.516-.42l.021.01-.012-.01zm-3.401 7.82s.031.07.092.18c.05.11.151.28.275.5.264.44.674 1.07 1.237 1.78.289.35.593.74.948 1.12a25 25 0 001.144 1.19c.399.41.856.78 1.31 1.19.459.39.961.75 1.438 1.14.506.34 1.008.71 1.521 1.03.525.32 1.036.63 1.529.92.519.27 1.015.54 1.488.78.472.24.941.43 1.369.62.429.19.815.38 1.174.5.359.13.665.25.925.35.515.18.803.29.803.29l.034.02c.283.09.42.41.316.69a.526.526 0 01-.663.32s-.309-.09-.845-.26c-.272-.09-.594-.19-.972-.3-.38-.11-.787-.28-1.24-.44-.448-.18-.948-.35-1.458-.58-.508-.23-1.043-.47-1.59-.72-.537-.28-1.092-.58-1.661-.88-.555-.31-1.105-.67-1.662-1-.534-.38-1.084-.74-1.591-1.12-.503-.41-1.016-.78-1.473-1.2-.472-.4-.901-.81-1.305-1.21-.403-.39-.758-.8-1.095-1.16a22.173 22.173 0 01-1.492-1.92 7.313 7.313 0 01-.384-.61 6.063 6.063 0 01-.124-.22 1.1 1.1 0 01.4-1.5c.525-.3 1.198-.12 1.5.41.009.02.02.03.029.05l.023.04zm-7.902 16.96s.075.23.215.52c.069.16.138.34.269.56.115.23.252.47.396.75l.543.86c.095.15.194.31.301.47.118.15.233.31.356.47.238.31.488.64.742.98.268.32.571.62.856.94.294.31.567.64.875.93l.927.83.867.78c.281.23.579.42.835.62 1.051.76 1.746 1.28 1.746 1.28l.062.04a.78.78 0 01.176 1.09c-.25.34-.72.43-1.066.2 0 0-.761-.51-1.899-1.26-.282-.2-.603-.39-.914-.63-.302-.24-.626-.51-.958-.78-.331-.27-.674-.55-1.024-.84-.338-.29-.652-.64-.983-.95-.319-.33-.659-.64-.966-.98-.295-.35-.577-.7-.857-1.03-.136-.17-.28-.33-.409-.49-.118-.18-.238-.34-.351-.51-.227-.32-.442-.64-.644-.92-.18-.31-.345-.59-.489-.84-.15-.24-.264-.49-.363-.69-.204-.42-.278-.6-.278-.6l-.024-.07a1.095 1.095 0 112.068-.73h-.009zm-4.644 11.39l.012.16c.005.1.017.24.049.44.047.39.143.96.309 1.64.159.68.395 1.46.71 2.27.161.4.351.81.54 1.23.225.39.408.82.678 1.2.251.39.502.78.791 1.13.138.18.279.35.42.53.153.16.308.31.456.47.155.15.291.31.447.45.162.13.32.26.468.38.151.13.299.26.443.38.156.1.31.2.454.29.293.18.552.38.807.51.259.12.477.23.663.32.373.17.577.28.577.28l.076.02a.65.65 0 01.288.86.642.642 0 01-.814.32s-.237-.1-.657-.27c-.21-.09-.467-.2-.759-.31-.285-.14-.592-.33-.929-.52a10.31 10.31 0 01-.53-.3c-.174-.12-.346-.25-.524-.38a27.98 27.98 0 01-.554-.41c-.19-.15-.354-.32-.536-.48-.183-.17-.363-.34-.55-.51-.176-.19-.342-.38-.515-.57-.357-.37-.666-.8-.967-1.22-.33-.41-.561-.88-.844-1.31-.246-.45-.484-.9-.686-1.34-.403-.89-.717-1.74-.942-2.49-.228-.75-.369-1.38-.457-1.84-.045-.23-.073-.41-.094-.55l-.027-.19a1.1 1.1 0 01.936-1.24c.602-.08 1.154.33 1.237.94.003.01.002.04.011.06l.004.03.009.02zm24.699-52.7s.104-.04.313-.1c.228-.08.509-.15.885-.25.374-.1.831-.21 1.352-.3.52-.12 1.109-.21 1.755-.31.647-.07 1.342-.18 2.08-.23.739-.07 1.519-.11 2.322-.15.806-.04 1.633-.02 2.482-.03.839.04 1.704.05 2.549.11.85.07 1.703.11 2.541.22.828.11 1.653.19 2.444.32.789.14 1.55.26 2.268.38.715.15 1.393.3 2.02.43 1.254.24 2.267.56 2.988.73l1.129.3c.311.08.496.4.418.71a.595.595 0 01-.691.42l-.027-.01s-.411-.08-1.123-.24c-.715-.15-1.722-.42-2.963-.61-.614-.11-1.285-.22-1.986-.35-.711-.09-1.459-.19-2.23-.29-.773-.09-1.577-.14-2.395-.21-.81-.08-1.645-.08-2.475-.13-.827-.02-1.656 0-2.467-.01-.813.05-1.615.06-2.382.13-.773.06-1.514.12-2.216.22-.702.08-1.356.2-1.963.3-.601.12-1.155.22-1.631.34-.48.11-.893.23-1.23.33-.33.1-.599.19-.751.24-.169.07-.258.1-.258.1l-.044.01a1.096 1.096 0 01-1.408-.64c-.212-.57.08-1.21.647-1.41.009-.01.026-.01.035-.01l.012-.01z" fill="#fff"/><path d="M223.747 1079.42s-10.646 10.14-22.256 36.78m-10.365 26.93s2.304-9.8 6.728-19.25" stroke="#fff" stroke-width="3" stroke-miterlimit="10" stroke-linecap="round"/><path d="M217.779 1076.79s-.08.08-.232.2c-.129.13-.31.31-.544.54-.237.21-.52.58-.853.93-.165.19-.344.39-.525.59-.172.23-.353.46-.546.7-.375.5-.801 1.01-1.221 1.59-.406.59-.834 1.21-1.276 1.86-.222.32-.444.65-.675.98-.213.34-.426.68-.637 1.04-.431.7-.867 1.42-1.303 2.14-.454.7-.833 1.45-1.234 2.17-.399.72-.789 1.44-1.162 2.13-.373.69-.759 1.35-1.065 2.01-.319.64-.619 1.26-.896 1.83-1.11 2.27-1.846 3.78-1.846 3.78l-.01.02a.65.65 0 01-.869.3.648.648 0 01-.303-.84l1.74-3.87c.258-.59.547-1.21.841-1.88.283-.67.658-1.35 1.008-2.06.357-.71.731-1.45 1.107-2.2.385-.74.746-1.51 1.182-2.25.422-.74.845-1.48 1.255-2.21.207-.37.418-.73.619-1.09.223-.35.443-.69.656-1.03.438-.68.852-1.33 1.254-1.95.409-.62.842-1.17 1.22-1.7l.55-.75c.188-.23.374-.45.539-.66.352-.41.61-.77.915-1.06.281-.3.509-.53.657-.69.148-.13.22-.21.22-.21a1.095 1.095 0 011.551.07 1.098 1.098 0 01-.085 1.57l-.023.02-.009-.02z" fill="#fff"/></g></g><defs><linearGradient id="paint0_linear_451_1343" x1="465.895" y1="19.98" x2="455.794" y2="1180.97" gradientUnits="userSpaceOnUse"><stop stop-color="#fff" stop-opacity=".05"/><stop offset=".997" stop-color="#fff" stop-opacity="0"/></linearGradient><linearGradient id="paint1_linear_451_1343" x1="463.307" y1=".005" x2="-72.471" y2="548.487" gradientUnits="userSpaceOnUse"><stop stop-color="#FC466B" stop-opacity=".2"/><stop offset="1" stop-color="#3F5EFB" stop-opacity=".2"/></linearGradient><linearGradient id="paint2_linear_451_1343" x1="230.873" y1="278.691" x2="-255.391" y2="450.848" gradientUnits="userSpaceOnUse"><stop stop-color="#FC466B" stop-opacity=".2"/><stop offset="1" stop-color="#3F5EFB" stop-opacity=".2"/></linearGradient><linearGradient id="paint3_linear_451_1343" x1="467.907" y1="746.584" x2="108.555" y2="1016.13" gradientUnits="userSpaceOnUse"><stop stop-color="#FC466B" stop-opacity=".2"/><stop offset="1" stop-color="#3F5EFB" stop-opacity=".2"/></linearGradient><linearGradient id="paint4_linear_451_1343" x1="474.71" y1="306.967" x2="459.022" y2="307.22" gradientUnits="userSpaceOnUse"><stop stop-color="#FC466B" stop-opacity=".2"/><stop offset="1" stop-color="#3F5EFB" stop-opacity=".2"/></linearGradient><linearGradient id="paint5_linear_451_1343" x1="340.252" y1="1183.58" x2="339.876" y2="1198.44" gradientUnits="userSpaceOnUse"><stop stop-color="#FC466B" stop-opacity=".2"/><stop offset="1" stop-color="#3F5EFB" stop-opacity=".2"/></linearGradient><linearGradient id="paint6_linear_451_1343" x1="257.946" y1="1085.76" x2="226.048" y2="1175.36" gradientUnits="userSpaceOnUse"><stop stop-color="#fff" stop-opacity=".05"/><stop offset=".997" stop-color="#fff" stop-opacity="0"/></linearGradient><clipPath id="clip0_451_1343"><path fill="#fff" transform="rotate(89.88 237 237.497)" d="M0 0h1192v474H0z"/></clipPath><clipPath id="clip1_451_1343"><path fill="#fff" transform="rotate(64.093 140.021 206.696)" d="M0 0h60.248v60.248H0z"/></clipPath><clipPath id="clip2_451_1343"><path fill="#fff" transform="rotate(109.262 -254.051 633.595)" d="M0 0h98.613v70H0z"/></clipPath></defs></svg>