<svg width="596" height="1056" fill="none" xmlns="http://www.w3.org/2000/svg"><g clip-path="url(#clip0_623_1359)"><mask id="a" style="mask-type:luminance" maskUnits="userSpaceOnUse" x="0" y="0" width="596" height="1056"><path d="M596 1056V0H0v1056h596z" fill="#fff"/></mask><g mask="url(#a)"><path d="M531.338 1032.33c31.946-18.36 43.508-54.741 47.79-68.331 8.821-27.8 6.766-50.125 5.396-68.879-3.512-46.554-.343-93.427-4.368-139.983-4.454-51.163-4.71-102.168-5.139-204.177-.6-139.746-10.106-279.572-4.368-419.238.856-20.974 2.203-71.92-26.83-98.058-22.696-20.497-113.165-15.06-113.165-15.06H223.186c-100.591 0-149.146-8.117-179.806 23.9-16.145 31.469-16.145 89.218-16.145 89.218-4.54 171.445.17 336.932 0 424.243-.6 334.388-3.34 388.172-3.34 388.172-.771 15.893-3.34 62.203 26.892 83.813 17.728 12.64 38.968 11.13 66.46 9.93 53.87-2.22 107.826 1.28 161.697.48 88.642-1.34 132.92-2.06 154.674-.48 48.903 3.66 72.199 9.23 97.634-5.39l.086-.16z" fill="url(#paint0_linear_623_1359)"/><path d="M8.05 235.001s.343 0 .514-.078c.086-2.146.257-4.847.343-8.104.514-9.136.942-22.563 1.541-39.723.6-17.081 1.285-37.896 2.056-61.65.257-11.917.514-24.55.77-37.897 0-3.336.172-6.752.258-10.169v-4.925l.514-5.244a58.298 58.298 0 015.566-18.75c5.996-12.154 17.13-22.641 31.09-28.52C57.639 17 65.26 15.095 73.14 14.618c3.769-.239 8.308-.159 12.761-.159 4.454 0 8.993 0 13.447.08 36.227.238 74.425.476 113.907.714 39.482.477 80.334-.159 121.786-.317 41.452-.318 83.589-.636 125.726-.954l31.603-.556c10.364 0 21.583-.953 30.318.715 18.928 3.337 36.313 14.936 45.221 31.064 4.539 7.944 7.366 16.842 7.879 25.9.257 9.374.171 18.987.257 28.362.086 18.828.257 37.498.342 55.771.429 73.249.857 141.653 1.285 200.284.942 117.263 1.542 195.358 1.542 195.358s.6-78.175 1.541-195.358c.343-58.631.771-127.035 1.286-200.284.085-18.352.256-36.943.342-55.771 0-9.455.085-18.988.171-28.522.085-10.01-2.142-20.18-6.937-29.395-9.164-18.59-28.435-32.811-50.531-37.499-11.905-2.462-21.925-1.588-32.545-2.065l-31.603-.556c-42.136-.318-84.274-.636-125.726-.954C293.76.317 252.908-.318 213.426.16c-39.482.238-77.68.476-113.907.715-4.54 0-8.993 0-13.446.079-4.454 0-8.822 0-13.79.318-9.677.715-19.012 3.098-27.405 6.991C28.09 16.048 15.33 29.236 8.82 43.934c-3.254 7.309-5.138 15.094-5.738 22.721l-.171 5.243v5.403c.171 3.416.257 6.832.342 10.169.257 13.347.514 26.059.771 37.896.771 23.834 1.542 44.569 2.056 61.65.6 17.081 1.027 30.507 1.541 39.723.172 3.258.257 5.959.343 8.184l.085.078z" fill="url(#paint1_linear_623_1359)"/><path d="M143.711 1042.97c43.765-.87 80.249-2.31 105.771-2.94 25.523-.95 40.082-1.51 40.082-1.51s-14.559-.56-40.082-1.51c-25.522-.63-62.006-2.06-105.771-2.94-21.753-.55-45.905-.79-70.314-1.58-22.61-1.52-45.135-16.37-53.528-37.901-2.226-5.245-3.34-10.968-3.768-16.682l-.171-4.376v-4.846l.171-9.772c.086-13.022.171-26.293.343-39.564l.257-80.794-.257-80.796c-.257-26.615-.514-52.832-.685-78.255-.6-50.766-1.457-98.116-2.57-138.713-.942-40.597-2.484-74.441-3.169-98.116-.257-5.879-1.37-191.704-1.541-196.233-.6 0-.429.318-1.028.238-.171 4.529-.428 190.195-.685 195.995-.685 23.675-2.227 57.519-3.17 98.116-1.112 40.597-1.969 87.947-2.568 138.713-.257 25.343-.429 51.561-.686 78.255l-.257 80.796.257 80.794c.086 13.35.172 26.542.343 39.564v9.772c.086 3.18.171 6.52.514 10.17.685 7.07 2.227 14.148 5.139 20.58 5.566 13.035 15.159 24.225 27.063 31.855 11.905 7.71 25.608 12.08 39.482 12.63 25.694.16 48.989-.71 70.999-1.11l-.171.16z" fill="url(#paint2_linear_623_1359)"/><path d="M561.572 1027.55c8.478-7.15 15.33-16.04 19.44-26.05 4.283-9.852 5.653-21.289 5.31-31.061-1.027-77.304-2.227-154.526-4.025-212.522-.856-28.998-1.542-53.15-2.056-69.992-.685-16.922-1.027-26.535-1.027-26.535s-.343 9.693-1.027 26.535c-.515 16.922-1.2 41.074-2.056 69.992-1.885 57.916-2.998 135.218-4.025 212.522 0 9.532-1.543 17.559-5.311 25.576-3.769 7.785-9.335 14.775-16.101 20.345-6.766 5.56-14.73 9.77-23.296 12.07-8.649 2.38-16.786 2.62-27.062 2.54-39.055.08-75.453.96-106.713 1.99-31.261.95-57.297 2.46-75.453 3.66-9.079.47-16.273.94-21.155 1.42-4.882.4-7.451.64-7.451.64s2.569.24 7.451.64c4.882.48 12.076.87 21.155 1.42a2135.08 2135.08 0 0075.453 3.66c31.26 1.03 67.658 1.83 106.713 1.99 9.164.16 21.239.24 31.859-3.02 10.791-3.02 20.811-8.5 29.29-15.66l.087-.16z" fill="url(#paint3_linear_623_1359)"/><path d="M596 558.667c-.171-35.831-.342-71.661-.514-105.267-.171-33.605-.942-64.987-1.284-91.84-.343-26.853-1.2-49.257-1.542-64.987-.514-15.651-.771-24.628-.771-24.628s-.257 8.977-.77 24.628c-.344 15.651-1.114 38.055-1.542 64.987-.343 26.853-1.114 58.235-1.285 91.84-.171 33.606-.343 69.436-.514 105.267.171 35.829.343 71.66.514 105.266.171 33.606.942 64.987 1.285 91.84.342 26.852 1.198 49.256 1.542 64.986.513 15.652.77 24.629.77 24.629s.257-8.977.857-24.629c.342-15.65 1.198-38.054 1.541-64.986.342-26.853 1.113-58.234 1.284-91.84.172-33.606.343-69.437.514-105.266H596z" fill="url(#paint4_linear_623_1359)"/><path d="M424.71 1052.11s-4.452.23-12.332.71c-7.879.32-19.013 1.04-32.46 1.43-13.446.32-29.118.95-45.904 1.19-16.787.32-34.772.4-52.672.48-17.9 0-35.886-.16-52.672-.48-16.786-.24-32.459-.87-45.904-1.19-13.447-.31-24.666-1.11-32.46-1.43a1489.2 1489.2 0 00-12.333-.71s4.453-.24 12.333-.72c7.879-.32 19.013-1.11 32.46-1.43 13.445-.31 29.118-1.03 45.904-1.19 16.786-.32 34.772-.4 52.672-.48 17.9.08 35.885.16 52.672.48 16.786.24 32.458.88 45.904 1.19 13.447.32 24.667 1.11 32.46 1.43 7.88.48 12.332.72 12.332.72z" fill="url(#paint5_linear_623_1359)"/></g></g><defs><linearGradient id="paint0_linear_623_1359" x1="585.757" y1="17.685" x2="577.933" y2="1046.25" gradientUnits="userSpaceOnUse"><stop stop-color="#fff" stop-opacity=".05"/><stop offset=".997" stop-color="#fff" stop-opacity="0"/></linearGradient><linearGradient id="paint1_linear_623_1359" x1="582.556" y1="-.016" x2="137.517" y2="643.91" gradientUnits="userSpaceOnUse"><stop stop-color="#FC466B" stop-opacity=".2"/><stop offset="1" stop-color="#3F5EFB" stop-opacity=".2"/></linearGradient><linearGradient id="paint2_linear_623_1359" x1="289.564" y1="246.442" x2="-260.851" y2="521.181" gradientUnits="userSpaceOnUse"><stop stop-color="#FC466B" stop-opacity=".2"/><stop offset="1" stop-color="#3F5EFB" stop-opacity=".2"/></linearGradient><linearGradient id="paint3_linear_623_1359" x1="586.372" y1="661.39" x2="254.399" y2="1013.27" gradientUnits="userSpaceOnUse"><stop stop-color="#FC466B" stop-opacity=".2"/><stop offset="1" stop-color="#3F5EFB" stop-opacity=".2"/></linearGradient><linearGradient id="paint4_linear_623_1359" x1="596.085" y1="271.945" x2="576.362" y2="272.337" gradientUnits="userSpaceOnUse"><stop stop-color="#FC466B" stop-opacity=".2"/><stop offset="1" stop-color="#3F5EFB" stop-opacity=".2"/></linearGradient><linearGradient id="paint5_linear_623_1359" x1="424.71" y1="1048.29" x2="424.456" y2="1061.46" gradientUnits="userSpaceOnUse"><stop stop-color="#FC466B" stop-opacity=".2"/><stop offset="1" stop-color="#3F5EFB" stop-opacity=".2"/></linearGradient><clipPath id="clip0_623_1359"><path fill="#fff" d="M0 0h596v1056H0z"/></clipPath></defs></svg>