<svg width="112" height="112" fill="none" xmlns="http://www.w3.org/2000/svg"><g opacity=".2" clip-path="url(#clip0_248_676)" fill="#fff"><path d="M19.282 98.448a41.56 41.56 0 0014.296 2.471 47.65 47.65 0 0015.624-2.69c10.093-3.51 18.474-10.044 23.598-18.395 5.194-8.465 6.434-17.78 3.495-26.233a4.71 4.71 0 00-.197-.472 6.103 6.103 0 005.148.902l27.777-13.478a5.254 5.254 0 002.694-3.033 5.25 5.25 0 00-.272-4.047l-.41-.82a5.242 5.242 0 00-6.854-2.438L78.023 42.16a6.174 6.174 0 00-4.173 8.004l-.515.344c-6.866-3.435-23.52-.666-39.08 4.746-.915.318-1.826.646-2.735.983-1.72-6.37 2.73-11.007 2.973-11.253l-2.48-2.47a16.91 16.91 0 00-3.714 6.403 14.575 14.575 0 00-.07 8.588c-2.8 1.118-5.49 2.3-8.037 3.529-1.412-5.242-1.537-10.65-1.345-14.559a5.928 5.928 0 00-10.054-4.53A5.927 5.927 0 007 46.178v12.377a.947.947 0 01-.946.945 4.446 4.446 0 00-4.446 4.471 28.21 28.21 0 001.5 8.34C.431 75.176-.527 77.775.262 80.045c2.94 8.452 9.695 14.987 19.02 18.402zm28.77-3.526c-9.332 3.246-19.122 3.331-27.567.24-6.24-2.286-11.178-6.105-14.35-11.012a26.98 26.98 0 005.556.5c1.072 0 2.217-.041 3.435-.125 6.034-.414 13.295-1.853 20.916-4.116.153.025 4.326-1.342 6.262-2.016a135.3 135.3 0 0012.984-5.26l.089-.042c4.578-2.154 8.675-4.446 12.044-6.755 3.014-2.067 5.284-4.023 6.81-5.867 1.318 13.975-9.358 28.602-26.179 34.453zm18.22-35.219c-.37 3.137-.984 3.783-1.01 3.81l.034.033a69.141 69.141 0 01-4.747 2.942 22.624 22.624 0 002.232-7.207 1.77 1.77 0 011.752-1.531 1.75 1.75 0 011.739 1.954zm39.352-26.3a1.745 1.745 0 012.281.814l.409.82c.105.208.166.435.181.668a1.736 1.736 0 01-.442 1.282 1.75 1.75 0 01-.554.414L85.747 47.997a6.11 6.11 0 00-2.155-4.534l22.032-10.06zM79.625 45.5a2.622 2.622 0 011.604 4.699l-.963.469a2.487 2.487 0 01-.955.061l.41-.273a1.751 1.751 0 00-.621-3.183 1.75 1.75 0 00-1.32.271l-.776.518a2.627 2.627 0 012.621-2.562zm-47.72 18.62l2.69-2.24a17.642 17.642 0 01-1.707-2.419c.836-.308 1.675-.61 2.516-.902 9.57-3.329 18.9-5.44 26.268-5.946 3.428-.235 6.318-.098 8.356.397 1.658.402 2.71 1.02 2.96 1.74s-.19 1.858-1.24 3.202a18.207 18.207 0 01-1.998 2.12 5.258 5.258 0 00-10.438-1.26c-.89 6.542-4.757 10.355-5.836 11.305a132.397 132.397 0 01-12.323 4.97c-1.786.622-3.559 1.2-5.32 1.734-6.914-1.335-11.802-5.513-14.54-12.436 2.61-1.273 5.39-2.497 8.287-3.653a20.996 20.996 0 002.326 3.388zm-26.524-.84a.94.94 0 01.673-.28 4.451 4.451 0 004.446-4.446V46.178a2.43 2.43 0 013.385-2.23 2.428 2.428 0 011.467 2.354c-.25 5.084.01 12.564 2.67 19.324 1.533 3.894 3.7 7.099 6.442 9.523a21.015 21.015 0 005.214 3.375 89.823 89.823 0 01-12.178 2.27l-1.462-.27c-3.909-.652-6.877-3.121-8.823-7.34a24.387 24.387 0 01-2.107-9.235.935.935 0 01.273-.67zM3.568 78.896c-.242-.695.16-1.757 1.092-3.002a16.788 16.788 0 004.154 5.114 16.982 16.982 0 01-2.285-.371c-1.658-.403-2.709-1.02-2.96-1.74zM15.75 22.75a5.25 5.25 0 100 10.5 5.25 5.25 0 000-10.5zm0 7a1.75 1.75 0 110-3.5 1.75 1.75 0 010 3.5zm17.5-14a5.25 5.25 0 10-10.499 0 5.25 5.25 0 0010.499 0zm-7 0a1.75 1.75 0 113.5 0 1.75 1.75 0 01-3.5 0z"/><path d="M22.75 35h3.5v3.5h-3.5V35zM21 50.75h3.5v3.5H21v-3.5zM31.5 66.5H35V70h-3.5v-3.5zm-28-33.25H7v3.5H3.5v-3.5zm14.78 46.956l1.94-2.912c-4.276-2.851-4.465-5.478-4.47-5.589.002.03 0 .045 0 .045h-3.5c0 .454.17 4.55 6.03 8.456zm17.264-53.149a22.281 22.281 0 012.445-3.07l-2.476-2.474c-.236.235-5.763 5.83-5.763 11.737h3.5c0-1.784.793-3.926 2.294-6.193z"/></g><defs><clipPath id="clip0_248_676"><path fill="#fff" d="M0 0h112v112H0z"/></clipPath></defs></svg>