<svg width="15" height="15" fill="none" xmlns="http://www.w3.org/2000/svg"><g clip-path="url(#clip0_504_413)"><path d="M7.58.657a3.53 3.53 0 01-.218.93c-.15.092-.305.177-.463.253-.553.27-1.11.43-2.22.626a6.028 6.028 0 00-.737.176 3.484 3.484 0 01-.784-.785c-.253-.347-.416-.762-.339-1.187.004-.008.004-.017.004-.025.146-.78.9-1.192 1.565-.935.313.125.527.275.664.386.064-.167.167-.403.377-.669.442-.557 1.299-.587 1.822.013.005.007.01.014.012.022.283.325.356.767.318 1.195zm3.545 1.5C10.786 1.45 10.203.653 9.543.653c-.882 0-.745.737-2.455 1.573-.609.296-1.222.463-2.336.66-.377.069-1.174.232-1.693.686-.643.561-.853 1.328-.784 2.044.303-.16.626-.278.96-.351a23.946 23.946 0 011.598-.262c.493-.068.999-.141 1.522-.24.926-.176 1.491-.321 1.907-.424.639-.159.99-.249 1.748-.249h.155c.591.009 1.054.112 1.423.275a5.214 5.214 0 00-.463-2.208zm-7.106 7.68c-.351.232-.788.51-1.453.515-.021 0-.043 0-.064-.005l.66 2.47c.137.518.737.92 1.5 1.023L4.02 9.838zm1.886.168c-.09-.048-.172-.099-.253-.146-.313-.184-.583-.343-.904-.343a.733.733 0 00-.33.077l.69 4.303c.334.039.673.064 1.011.077l-.214-3.968zm1.2.347h-.013c-.283 0-.527-.06-.75-.146l.202 3.784c.334.013.664.013.998 0l.202-3.737a2.04 2.04 0 01-.639.099zm2.211-.87h-.004c-.291 0-.467.12-.759.325-.11.078-.235.168-.372.245l-.206 3.921c.335-.013.67-.038 1.003-.077l.694-4.311a.802.802 0 00-.356-.103zm2.216.801a1.774 1.774 0 01-.159.009c-.63 0-1.01-.232-1.31-.446l-.644 3.994c.763-.102 1.363-.505 1.504-1.024l.678-2.537c-.022 0-.048.004-.069.004zm1.142-4.177c-.299-.603-.74-1.56-2.517-1.585-1.324-.019-1.308.2-3.721.663-1.12.215-2.157.296-3.113.5-.76.163-1.69.686-1.989 1.513-.56 1.552.153 2.731 1.231 2.727 1.04-.004 1.382-.838 2.181-.838.892 0 1.377.83 2.347.838 1.063.007 1.35-.915 2.247-.87.861.045 1.007.872 2.167.803 2.117-.127 1.63-2.816 1.167-3.75z" fill="#50C6FF"/></g><defs><clipPath id="clip0_504_413"><path fill="#fff" d="M0 0h15v15H0z"/></clipPath></defs></svg>