<svg width="24" height="24" fill="none" xmlns="http://www.w3.org/2000/svg"><g clip-path="url(#clip0_231_10487)"><path d="M4.89 15.954c2.368 2.83 5.217 5.057 8.47 6.634 1.238.586 2.894 1.283 4.739 1.402.114.005.224.01.338.01 1.238 0 2.233-.428 3.044-1.308a.11.11 0 00.02-.025c.288-.348.616-.661.96-.994.233-.224.472-.458.7-.697 1.06-1.104 1.06-2.506-.01-3.575l-2.988-2.99c-.507-.526-1.114-.805-1.75-.805-.637 0-1.249.279-1.771.801l-1.78 1.78a9.82 9.82 0 00-.493-.258 6.118 6.118 0 01-.547-.299c-1.621-1.03-3.093-2.372-4.5-4.098-.712-.9-1.189-1.655-1.522-2.426a30.91 30.91 0 001.328-1.298c.149-.154.303-.309.457-.463.537-.537.826-1.159.826-1.79 0-.632-.284-1.253-.826-1.79L8.103 2.283c-.174-.174-.338-.344-.507-.518a27.27 27.27 0 00-1.01-1C6.074.265 5.472 0 4.836 0c-.632 0-1.238.264-1.77.77l-1.86 1.86a3.821 3.821 0 00-1.14 2.447c-.094 1.19.125 2.452.692 3.979.87 2.362 2.183 4.555 4.133 6.898zM1.28 5.182a2.63 2.63 0 01.79-1.69l1.85-1.85c.29-.28.607-.424.916-.424.303 0 .612.145.895.433.333.308.646.632.985.975.169.174.343.348.517.527l1.482 1.482c.308.308.467.622.467.93 0 .308-.159.621-.467.93l-.463.467c-.462.468-.895.91-1.372 1.333l-.025.025c-.413.413-.348.806-.249 1.104l.015.04c.383.92.915 1.795 1.746 2.84 1.492 1.84 3.063 3.267 4.794 4.366.214.139.442.248.656.358.2.1.383.194.547.298l.055.03c.164.084.323.124.482.124.398 0 .657-.253.741-.338l1.86-1.86c.289-.288.602-.442.91-.442.378 0 .687.233.88.442l3 2.994c.596.597.591 1.243-.016 1.875-.209.224-.427.438-.661.661-.348.338-.711.687-1.04 1.08-.571.616-1.253.905-2.133.905-.084 0-.174-.006-.259-.01-1.63-.105-3.147-.741-4.286-1.284-3.094-1.496-5.809-3.62-8.062-6.315-1.855-2.233-3.103-4.312-3.928-6.54-.513-1.367-.706-2.466-.627-3.466z" fill="#fff"/></g><defs><clipPath id="clip0_231_10487"><path fill="#fff" d="M0 0h24v24H0z"/></clipPath></defs></svg>