<svg width="15" height="16" fill="none" xmlns="http://www.w3.org/2000/svg"><path fill-rule="evenodd" clip-rule="evenodd" d="M2.778 3a.28.28 0 00-.278.278A9.721 9.721 0 0012.222 13a.28.28 0 00.278-.278v-2.06a.28.28 0 00-.278-.277 7.047 7.047 0 01-2.205-.352l-.003-.002a.275.275 0 00-.28.067l-1.46 1.46-.202-.104a9.253 9.253 0 01-4.026-4.026l-.103-.202 1.46-1.46a.28.28 0 00.07-.285 7.018 7.018 0 01-.351-2.203A.28.28 0 004.844 3H2.778zm-.903.278a.904.904 0 01.903-.903h2.066a.904.904 0 01.903.903c0 .704.112 1.38.32 2.01v.001l.001.002a.905.905 0 01-.224.917L4.708 7.344a8.633 8.633 0 003.448 3.448l1.136-1.136a.9.9 0 01.923-.217 6.42 6.42 0 002.007.32.904.904 0 01.903.903v2.06a.904.904 0 01-.903.903c-5.715 0-10.347-4.632-10.347-10.347z" fill="#fff"/></svg>