<svg width="36" height="36" viewBox="0 0 36 36" fill="none" xmlns="http://www.w3.org/2000/svg">
<g clip-path="url(#clip0_504_961)">
<path d="M35.9387 21.9518L35.9441 21.95L30.0336 9.05368L31.467 8.34028L30.9306 7.26629L29.5332 7.96229L29.3442 7.55009C29.2963 7.44568 29.2195 7.3572 29.1228 7.29517C29.0261 7.23314 28.9137 7.20017 28.7988 7.20017C28.6839 7.20017 28.5715 7.23314 28.4748 7.29517C28.3781 7.3572 28.3013 7.44568 28.2534 7.55009L28.0848 7.91849C27.0678 7.44614 25.9601 7.20105 24.8388 7.20029H19.7989V6.0003H20.9989V4.80031H19.9675L20.3989 3.07413C20.7301 1.74866 19.9241 0.40565 18.5987 0.0743775C17.2732 -0.25682 15.9302 0.549123 15.5989 1.87459C15.5005 2.26835 15.5005 2.68029 15.5989 3.07405L16.0303 4.80024H14.9989V6.00023H16.1989V7.20022H11.1619C10.0395 7.20111 8.93072 7.44682 7.91297 7.92021L7.74437 7.55182C7.69649 7.4474 7.61965 7.35893 7.52297 7.2969C7.42629 7.23487 7.31384 7.2019 7.19897 7.2019C7.08411 7.2019 6.97165 7.23487 6.87497 7.2969C6.77829 7.35893 6.70145 7.4474 6.65358 7.55182L6.46458 7.96401L5.06719 7.26502L4.53079 8.34021L5.96418 9.0566L0.0536316 21.95C0.0172075 22.0283 -0.00143753 22.1138 -0.000967907 22.2002C0.00165707 24.5186 1.88054 26.3975 4.199 26.4001H10.1989C12.5174 26.3975 14.3963 24.5186 14.3989 22.2002C14.3974 22.114 14.3769 22.0292 14.3389 21.9518L8.41216 9.00688C9.27369 8.60699 10.2121 8.39997 11.1619 8.40028H16.1989V30.3517L14.1505 32.4001H11.9989C10.3429 32.402 9.00091 33.7441 8.99896 35.4001C8.99896 35.5592 9.06217 35.7118 9.17469 35.8243C9.28721 35.9368 9.43982 36.0001 9.59895 36.0001H26.3988C26.5579 36.0001 26.7106 35.9368 26.8231 35.8243C26.9356 35.7118 26.9988 35.5592 26.9988 35.4001C26.9969 33.7441 25.6548 32.402 23.9988 32.4001H21.8472L19.7989 30.3517V8.40028H24.8388C25.7886 8.39997 26.7271 8.60699 27.5886 9.00688L21.6535 21.95C21.617 22.0283 21.5984 22.1138 21.5989 22.2002C21.6015 24.5186 23.4804 26.3975 25.7988 26.4001H31.7988C34.1172 26.3975 35.9961 24.5186 35.9987 22.2002C35.9973 22.114 35.9768 22.0291 35.9387 21.9518ZM10.1989 25.2001H4.199C2.77386 25.1986 1.54589 24.1961 1.25902 22.8002H13.1389C12.8521 24.1961 11.6241 25.1986 10.1989 25.2001ZM12.8641 21.6002H1.53382L7.04537 9.57567C7.14602 9.60267 7.25192 9.60267 7.35257 9.57567L12.8641 21.6002ZM16.9951 1.68994C17.4623 1.13554 18.2906 1.06497 18.8449 1.53222C18.9019 1.58021 18.9547 1.63301 19.0027 1.68994C19.1224 1.84226 19.2056 2.02002 19.2459 2.20954C19.2861 2.39906 19.2824 2.59529 19.2349 2.78313L18.7303 4.80031H17.2675L16.7629 2.78313C16.7154 2.59529 16.7117 2.39906 16.7519 2.20954C16.7922 2.02002 16.8754 1.84226 16.9951 1.68994ZM17.3989 7.20029V6.0003H18.5989V7.20029H17.3989ZM18.5989 8.40028V30.0001H17.3989V8.40028H18.5989ZM23.9988 33.6001C24.371 33.6005 24.7339 33.7161 25.0378 33.9309C25.3417 34.1458 25.5717 34.4494 25.6962 34.8001H10.3015C10.4261 34.4494 10.6561 34.1458 10.96 33.9309C11.2639 33.7161 11.6268 33.6005 11.9989 33.6001H23.9988ZM20.1505 32.4001H15.8473L17.0473 31.2001H18.9505L20.1505 32.4001ZM28.644 9.57747C28.7431 9.61236 28.8518 9.60785 28.9476 9.56487L34.4639 21.6002H23.1336L28.644 9.57747ZM31.7988 25.2001H25.7988C24.3737 25.1986 23.1457 24.1961 22.8588 22.8002H34.7387C34.4519 24.1961 33.2239 25.1986 31.7988 25.2001Z" fill="white"/>
</g>
<defs>
<clipPath id="clip0_504_961">
<rect width="36" height="36" fill="white" transform="translate(-0.000976562)"/>
</clipPath>
</defs>
</svg>
