<svg width="36" height="37" viewBox="0 0 36 37" fill="none" xmlns="http://www.w3.org/2000/svg">
<g clip-path="url(#clip0_504_625)">
<path d="M30.3153 13.1028C30.3153 6.30157 24.8018 0.788086 18.0006 0.788086C11.1994 0.788086 5.68589 6.30157 5.68589 13.1028C3.92762 13.3217 2.26514 14.4711 2.26514 17.1393V23.5703C2.26514 26.5806 4.37232 27.6752 6.37004 27.6752H8.35408C8.53552 27.6752 8.70954 27.6031 8.83784 27.4748C8.96615 27.3465 9.03823 27.1725 9.03823 26.9911V13.7459C9.03823 13.5644 8.96615 13.3904 8.83784 13.2621C8.70954 13.1338 8.53552 13.0617 8.35408 13.0617H7.05419C7.05419 7.01625 11.9551 2.11534 18.0006 2.11534C24.0461 2.11534 28.947 7.01625 28.947 13.0617H27.6471C27.4657 13.0617 27.2917 13.1338 27.1634 13.2621C27.035 13.3904 26.963 13.5644 26.963 13.7459V26.9705C26.963 27.152 27.035 27.326 27.1634 27.4543C27.2917 27.5826 27.4657 27.6547 27.6471 27.6547H28.947C28.7554 32.3548 26.4977 33.4563 21.9892 33.6547V33.1963C21.9892 32.4406 21.3766 31.828 20.6209 31.828H16.3176C15.5619 31.828 14.9493 32.4406 14.9493 33.1963V35.4198C14.9493 36.1755 15.5619 36.7881 16.3176 36.7881H20.6346C21.3903 36.7881 22.0029 36.1755 22.0029 35.4198V35.023C26.3404 34.8246 30.0895 33.9283 30.3153 27.6136C32.0736 27.3947 33.7361 26.2453 33.7361 23.5771V17.1461C33.7361 14.4643 32.0804 13.3217 30.3153 13.1028ZM7.66993 14.3822V26.2864H6.33583C5.32329 26.2864 3.59923 25.9306 3.59923 23.5498V17.1188C3.59923 14.7584 5.30277 14.3822 6.33583 14.3822H7.66993ZM20.6346 34.3867V35.4266H16.3176V33.2031H20.6346V34.3867ZM32.3678 23.5703C32.3678 25.9306 30.6642 26.3069 29.6312 26.3069H28.3313V14.43H29.6654C30.6779 14.43 32.402 14.7858 32.402 17.1666L32.3678 23.5703Z" fill="white"/>
</g>
<defs>
<clipPath id="clip0_504_625">
<rect width="36" height="36" fill="white" transform="translate(0.000488281 0.788086)"/>
</clipPath>
</defs>
</svg>
