<svg width="36" height="36" viewBox="0 0 36 36" fill="none" xmlns="http://www.w3.org/2000/svg">
<path d="M21.375 34.875C21.2553 34.875 21.1387 34.8368 21.0422 34.766C20.9457 34.6952 20.8743 34.5954 20.8384 34.4813C20.8057 34.4081 20.61 34.2428 20.475 34.1629C18.7987 33.1808 16.9043 28.8383 16.6939 28.3466L14.9153 21.4819C14.8846 21.3637 14.8933 21.2387 14.94 21.1258C14.9867 21.013 15.0688 20.9184 15.174 20.8564C16.2709 20.2118 17.1157 20.2691 17.6355 20.4311C18.3634 20.6595 18.9619 21.2378 19.3624 22.104L20.25 23.958V13.5C20.25 12.2591 21.2591 11.25 22.5 11.25C23.7409 11.25 24.75 12.2591 24.75 13.5V19.4276C25.2607 19.1327 25.8669 19.0501 26.4379 19.1976C27.0089 19.3451 27.4992 19.7109 27.8033 20.2162C28.1947 19.8866 28.6999 19.6875 29.25 19.6875C30.2299 19.6875 31.0658 20.3175 31.374 21.1927C31.7129 20.967 32.1066 20.8373 32.5134 20.8175C32.9201 20.7977 33.3246 20.8886 33.6838 21.0804C34.043 21.2723 34.3434 21.5579 34.5532 21.9069C34.763 22.2559 34.8742 22.6553 34.875 23.0625V32.0625C34.875 33.6128 33.6139 34.875 32.0625 34.875H26.4375C26.2883 34.875 26.1452 34.8157 26.0398 34.7102C25.9343 34.6048 25.875 34.4617 25.875 34.3125C25.875 34.1633 25.9343 34.0202 26.0398 33.9148C26.1452 33.8093 26.2883 33.75 26.4375 33.75H32.0625C32.9929 33.75 33.75 32.9929 33.75 32.0625V23.0625C33.737 22.7728 33.6129 22.4993 33.4033 22.2989C33.1937 22.0985 32.915 21.9867 32.625 21.9867C32.335 21.9867 32.0563 22.0985 31.8467 22.2989C31.6371 22.4993 31.513 22.7728 31.5 23.0625C31.5 23.2117 31.4407 23.3548 31.3352 23.4602C31.2298 23.5657 31.0867 23.625 30.9375 23.625C30.7883 23.625 30.6452 23.5657 30.5398 23.4602C30.4343 23.3548 30.375 23.2117 30.375 23.0625V21.9375C30.362 21.6478 30.2379 21.3743 30.0283 21.1739C29.8187 20.9735 29.54 20.8617 29.25 20.8617C28.96 20.8617 28.6813 20.9735 28.4717 21.1739C28.2621 21.3743 28.138 21.6478 28.125 21.9375C28.125 22.0867 28.0657 22.2298 27.9602 22.3352C27.8548 22.4407 27.7117 22.5 27.5625 22.5C27.4133 22.5 27.2702 22.4407 27.1648 22.3352C27.0593 22.2298 27 22.0867 27 21.9375V21.375C26.987 21.0853 26.8629 20.8118 26.6533 20.6114C26.4437 20.411 26.165 20.2992 25.875 20.2992C25.585 20.2992 25.3063 20.411 25.0967 20.6114C24.8871 20.8118 24.763 21.0853 24.75 21.375C24.75 21.5242 24.6907 21.6673 24.5852 21.7727C24.4798 21.8782 24.3367 21.9375 24.1875 21.9375C24.0383 21.9375 23.8952 21.8782 23.7898 21.7727C23.6843 21.6673 23.625 21.5242 23.625 21.375V13.5C23.612 13.2103 23.4879 12.9368 23.2783 12.7364C23.0687 12.536 22.79 12.4242 22.5 12.4242C22.21 12.4242 21.9313 12.536 21.7217 12.7364C21.5121 12.9368 21.388 13.2103 21.375 13.5V26.4375C21.3744 26.5649 21.3308 26.6883 21.2511 26.7877C21.1713 26.8871 21.0603 26.9565 20.9361 26.9847C20.8119 27.0129 20.6817 26.9982 20.5669 26.9429C20.4522 26.8877 20.3595 26.7952 20.304 26.6805L18.3442 22.5821C18.1575 22.1782 17.8267 21.6686 17.2991 21.5044C16.9549 21.3975 16.5589 21.4403 16.1156 21.6349L17.7547 27.9855C18.2587 29.1476 19.8911 32.5193 21.0442 33.1943C21.2085 33.291 21.7519 33.6431 21.9105 34.1449C21.9368 34.229 21.9429 34.3181 21.9284 34.405C21.9139 34.4919 21.8792 34.5741 21.8271 34.6452C21.775 34.7162 21.707 34.774 21.6284 34.8139C21.5499 34.8539 21.4631 34.8748 21.375 34.875ZM21.9375 9.5625C21.7883 9.56252 21.6451 9.50347 21.5392 9.39825L18.7267 6.58575C18.6243 6.47966 18.5676 6.33757 18.5689 6.19009C18.5702 6.0426 18.6293 5.90152 18.7336 5.79723C18.8379 5.69293 18.979 5.63378 19.1265 5.6325C19.2739 5.63121 19.416 5.68791 19.5221 5.79037L21.9375 8.20463L28.2892 1.85287C28.3953 1.75041 28.5374 1.69371 28.6849 1.695C28.8324 1.69628 28.9735 1.75543 29.0778 1.85973C29.1821 1.96402 29.2412 2.1051 29.2425 2.25259C29.2438 2.40007 29.1871 2.54216 29.0846 2.64825L22.3346 9.39825C22.2825 9.45042 22.2206 9.49178 22.1524 9.51997C22.0843 9.54815 22.0112 9.56261 21.9375 9.5625ZM11.8125 13.5H2.8125C1.88212 13.5 1.125 12.7429 1.125 11.8125V2.8125C1.125 1.88212 1.88212 1.125 2.8125 1.125H11.8125C12.7429 1.125 13.5 1.88212 13.5 2.8125V11.8125C13.5 12.7429 12.7429 13.5 11.8125 13.5ZM2.8125 2.25C2.66332 2.25 2.52024 2.30926 2.41475 2.41475C2.30926 2.52024 2.25 2.66332 2.25 2.8125V11.8125C2.25 11.9617 2.30926 12.1048 2.41475 12.2102C2.52024 12.3157 2.66332 12.375 2.8125 12.375H11.8125C11.9617 12.375 12.1048 12.3157 12.2102 12.2102C12.3157 12.1048 12.375 11.9617 12.375 11.8125V2.8125C12.375 2.66332 12.3157 2.52024 12.2102 2.41475C12.1048 2.30926 11.9617 2.25 11.8125 2.25H2.8125ZM11.8125 28.125H2.8125C1.88212 28.125 1.125 27.3679 1.125 26.4375V17.4375C1.125 16.5071 1.88212 15.75 2.8125 15.75H11.8125C12.7429 15.75 13.5 16.5071 13.5 17.4375V26.4375C13.5 27.3679 12.7429 28.125 11.8125 28.125ZM2.8125 16.875C2.66332 16.875 2.52024 16.9343 2.41475 17.0398C2.30926 17.1452 2.25 17.2883 2.25 17.4375V26.4375C2.25 26.5867 2.30926 26.7298 2.41475 26.8352C2.52024 26.9407 2.66332 27 2.8125 27H11.8125C11.9617 27 12.1048 26.9407 12.2102 26.8352C12.3157 26.7298 12.375 26.5867 12.375 26.4375V17.4375C12.375 17.2883 12.3157 17.1452 12.2102 17.0398C12.1048 16.9343 11.9617 16.875 11.8125 16.875H2.8125Z" fill="white"/>
<path d="M18.5625 13.5H17.4375C16.5071 13.5 15.75 12.7429 15.75 11.8125V2.8125C15.75 1.88212 16.5071 1.125 17.4375 1.125H26.4375C26.5867 1.125 26.7298 1.18426 26.8352 1.28975C26.9407 1.39524 27 1.53832 27 1.6875C27 1.83668 26.9407 1.97976 26.8352 2.08525C26.7298 2.19074 26.5867 2.25 26.4375 2.25H17.4375C17.2883 2.25 17.1452 2.30926 17.0398 2.41475C16.9343 2.52024 16.875 2.66332 16.875 2.8125V11.8125C16.875 11.9617 16.9343 12.1048 17.0398 12.2102C17.1452 12.3157 17.2883 12.375 17.4375 12.375H18.5625C18.7117 12.375 18.8548 12.4343 18.9602 12.5398C19.0657 12.6452 19.125 12.7883 19.125 12.9375C19.125 13.0867 19.0657 13.2298 18.9602 13.3352C18.8548 13.4407 18.7117 13.5 18.5625 13.5ZM26.4375 13.5H24.1875C24.0383 13.5 23.8952 13.4407 23.7898 13.3352C23.6843 13.2298 23.625 13.0867 23.625 12.9375C23.625 12.7883 23.6843 12.6452 23.7898 12.5398C23.8952 12.4343 24.0383 12.375 24.1875 12.375H26.4375C26.5867 12.375 26.7298 12.3157 26.8352 12.2102C26.9407 12.1048 27 11.9617 27 11.8125V6.1875C27 6.03832 27.0593 5.89524 27.1648 5.78975C27.2702 5.68426 27.4133 5.625 27.5625 5.625C27.7117 5.625 27.8548 5.68426 27.9602 5.78975C28.0657 5.89524 28.125 6.03832 28.125 6.1875V11.8125C28.125 12.7429 27.3679 13.5 26.4375 13.5Z" fill="white"/>
</svg>
