<svg width="37" height="37" viewBox="0 0 37 37" fill="none" xmlns="http://www.w3.org/2000/svg">
<g clip-path="url(#clip0_504_719)">
<path d="M32.5757 33.3635L28.51 22.6726C28.9117 22.4324 29.2608 22.1137 29.5365 21.7355C29.8328 21.3284 30.0356 20.8609 30.1305 20.3664C30.2254 19.8719 30.2101 19.3625 30.0855 18.8746C29.9803 18.4481 29.9979 18.0005 30.1365 17.5836C30.2751 17.1666 30.5289 16.7975 30.8685 16.5189C31.2619 16.1966 31.5787 15.7908 31.796 15.3311C32.0134 14.8713 32.1258 14.369 32.1252 13.8604C32.1246 13.3519 32.011 12.8498 31.7926 12.3906C31.5742 11.9313 31.2565 11.5263 30.8624 11.2049C30.5239 10.9253 30.2715 10.5556 30.1343 10.1385C29.9971 9.72141 29.9808 9.27402 30.0872 8.84806C30.2109 8.36091 30.2256 7.8525 30.1305 7.359C30.0353 6.86549 29.8325 6.39903 29.5365 5.99281C29.2333 5.57563 28.8417 5.23044 28.3898 4.98183C27.9379 4.73323 27.4368 4.58732 26.922 4.5545C26.4792 4.52472 26.0533 4.37231 25.6921 4.11432C25.3309 3.85634 25.0486 3.50295 24.8768 3.09369C24.6845 2.62523 24.3923 2.20436 24.0206 1.86045C23.6489 1.51653 23.2066 1.25785 22.7247 1.10244C22.2357 0.94256 21.7178 0.891239 21.207 0.952055C20.6962 1.01287 20.2048 1.18436 19.767 1.45456C19.3854 1.68778 18.9467 1.81118 18.4995 1.81118C18.0522 1.81118 17.6135 1.68778 17.2319 1.45456C16.7941 1.18436 16.3027 1.01287 15.7919 0.952055C15.2811 0.891239 14.7632 0.94256 14.2742 1.10244C13.7924 1.25795 13.3503 1.51668 12.9787 1.86059C12.6071 2.2045 12.315 2.62531 12.1227 3.09369C11.9504 3.50367 11.6673 3.85757 11.3051 4.11569C10.943 4.37381 10.5161 4.52595 10.0724 4.55506C9.55834 4.58826 9.05797 4.73436 8.60685 4.98296C8.15573 5.23156 7.76496 5.57655 7.46236 5.99338C7.16618 6.40056 6.96347 6.86807 6.86867 7.36257C6.77387 7.85707 6.78932 8.3664 6.91392 8.85425C7.01926 9.28087 7.00162 9.72859 6.86305 10.1456C6.72448 10.5626 6.47064 10.9318 6.13092 11.2106C5.7377 11.5329 5.42104 11.9387 5.20381 12.3984C4.98659 12.8581 4.87424 13.3604 4.87489 13.8689C4.87553 14.3773 4.98916 14.8793 5.20755 15.3385C5.42594 15.7977 5.74364 16.2026 6.13767 16.5239C6.47604 16.8037 6.72835 17.1734 6.86542 17.5905C7.00248 18.0076 7.01871 18.4549 6.91223 18.8808C6.78858 19.368 6.77382 19.8764 6.869 20.3699C6.96418 20.8634 7.16697 21.3298 7.46292 21.7361C7.73869 22.1141 8.08783 22.4326 8.48948 22.6726L4.42373 33.3635C4.38564 33.464 4.37713 33.5733 4.3992 33.6784C4.42127 33.7836 4.47299 33.8802 4.54826 33.9569C4.62353 34.0336 4.71918 34.0871 4.82391 34.1111C4.92864 34.1352 5.03806 34.1287 5.13923 34.0925L9.56779 32.5006L11.8184 36.6333C11.8667 36.7221 11.9381 36.7963 12.025 36.8479C12.1119 36.8996 12.2111 36.9269 12.3122 36.9269L12.3499 36.9258C12.4573 36.9186 12.5604 36.8808 12.647 36.8168C12.7335 36.7528 12.7999 36.6653 12.8382 36.5647L16.6446 26.5606C16.849 26.4833 17.0458 26.3873 17.2324 26.2738C17.6141 26.0407 18.0526 25.9174 18.4997 25.9174C18.9469 25.9174 19.3854 26.0407 19.767 26.2738C19.9533 26.3859 20.1495 26.4812 20.3532 26.5573L24.1613 36.5641C24.1996 36.6647 24.266 36.7522 24.3525 36.8162C24.439 36.8803 24.5421 36.9181 24.6495 36.9253L24.6872 36.9264C24.7883 36.9263 24.8876 36.8991 24.9745 36.8474C25.0614 36.7957 25.1328 36.7216 25.1811 36.6328L27.4311 32.5001L31.8602 34.0919C31.9614 34.1281 32.0708 34.1346 32.1756 34.1106C32.2803 34.0866 32.3759 34.033 32.4512 33.9563C32.5265 33.8797 32.5782 33.783 32.6003 33.6779C32.6223 33.5727 32.6138 33.464 32.5757 33.3635ZM12.2222 35.0212L10.326 31.5393C10.2619 31.4214 10.1576 31.3304 10.0322 31.2826C9.90676 31.2349 9.76838 31.2335 9.64205 31.2789L5.90986 32.6204L9.53461 23.0906C9.71332 23.1324 9.89498 23.1604 10.078 23.1744C10.5209 23.2042 10.9467 23.3566 11.3079 23.6146C11.6691 23.8725 11.9514 24.2259 12.1232 24.6352C12.3155 25.1036 12.6077 25.5245 12.9794 25.8684C13.3511 26.2123 13.7934 26.471 14.2754 26.6264C14.6231 26.7388 14.986 26.7968 15.3514 26.7986L12.2222 35.0212ZM16.6412 25.3169C16.3426 25.5013 16.0074 25.6183 15.6589 25.6597C15.3104 25.7011 14.957 25.6659 14.6235 25.5566C14.2971 25.4515 13.9975 25.2766 13.7456 25.0439C13.4937 24.8113 13.2956 24.5265 13.165 24.2094C12.9123 23.6051 12.4962 23.0831 11.9635 22.702C11.4307 22.3209 10.8024 22.0957 10.1489 22.0516C9.79948 22.0292 9.45934 21.9301 9.15261 21.7613C8.84588 21.5925 8.5801 21.3582 8.37417 21.0751C8.17498 20.8013 8.03868 20.487 7.97499 20.1544C7.91131 19.8219 7.9218 19.4794 8.00573 19.1514C8.16255 18.5182 8.13702 17.8535 7.93207 17.2342C7.72713 16.6149 7.35114 16.0662 6.84754 15.6515C6.5821 15.4346 6.36831 15.1614 6.22171 14.8515C6.07511 14.5417 5.99938 14.2031 6.00002 13.8603C6.00067 13.5175 6.07767 13.1792 6.22544 12.8699C6.37321 12.5607 6.58804 12.2882 6.85429 12.0723C7.35659 11.6566 7.73107 11.1073 7.93451 10.4878C8.13795 9.86829 8.16206 9.20391 8.00404 8.57131C7.92098 8.24404 7.91109 7.90248 7.97506 7.57095C8.03904 7.23942 8.1753 6.92606 8.37417 6.65319C8.58095 6.36949 8.84776 6.13489 9.15558 5.9661C9.4634 5.79732 9.80466 5.6985 10.155 5.67669C10.8074 5.63173 11.4344 5.40614 11.9659 5.02517C12.4973 4.6442 12.9123 4.12287 13.1644 3.5195C13.295 3.20222 13.4932 2.91727 13.7454 2.68458C13.9975 2.45189 14.2974 2.27706 14.6241 2.17231C14.9577 2.0631 15.3111 2.02796 15.6597 2.06934C16.0083 2.11073 16.3436 2.22764 16.6424 2.41194C17.202 2.75368 17.8451 2.93449 18.5009 2.93449C19.1566 2.93449 19.7997 2.75368 20.3594 2.41194C20.658 2.22769 20.9933 2.1108 21.3418 2.06941C21.6902 2.02803 22.0435 2.06314 22.377 2.17231C22.7036 2.27733 23.0034 2.45232 23.2554 2.68509C23.5074 2.91787 23.7056 3.20282 23.8362 3.52006C24.0888 4.1242 24.5047 4.64605 25.0372 5.02716C25.5697 5.40826 26.1978 5.63356 26.8512 5.67781C27.2006 5.70014 27.5408 5.79915 27.8476 5.96783C28.1544 6.1365 28.4203 6.37069 28.6264 6.65375C28.8256 6.92754 28.9619 7.24192 29.0256 7.57446C29.0893 7.90699 29.0788 8.24949 28.9949 8.5775C28.838 9.21072 28.8636 9.87538 29.0685 10.4947C29.2735 11.114 29.6495 11.6627 30.153 12.0774C30.4185 12.2942 30.6323 12.5675 30.7789 12.8774C30.9255 13.1872 31.0012 13.5258 31.0006 13.8686C30.9999 14.2113 30.9229 14.5497 30.7751 14.8589C30.6274 15.1682 30.4126 15.4407 30.1463 15.6566C29.644 16.0723 29.2695 16.6216 29.0661 17.2411C28.8626 17.8606 28.8385 18.525 28.9965 19.1576C29.0796 19.4848 29.0895 19.8264 29.0255 20.1579C28.9616 20.4895 28.8253 20.8028 28.6264 21.0757C28.4196 21.3593 28.1527 21.5938 27.8449 21.7625C27.5371 21.9312 27.1959 22.0299 26.8455 22.0516C26.1931 22.0966 25.5661 22.3223 25.0346 22.7034C24.5031 23.0845 24.0882 23.6059 23.8362 24.2094C23.7056 24.5267 23.5073 24.8116 23.2552 25.0443C23.0031 25.277 22.7032 25.4518 22.3765 25.5566C22.0429 25.6661 21.6895 25.7014 21.3408 25.6601C20.9922 25.6187 20.6569 25.5016 20.3582 25.3169C19.7986 24.9752 19.1555 24.7944 18.4997 24.7944C17.844 24.7944 17.2009 24.9752 16.6412 25.3169ZM27.3585 31.2789C27.2322 31.2335 27.0938 31.2349 26.9684 31.2826C26.843 31.3304 26.7387 31.4214 26.6745 31.5393L24.7789 35.0212L21.6497 26.7997C22.015 26.7977 22.3777 26.7394 22.7252 26.627C23.2073 26.4715 23.6496 26.2127 24.0214 25.8687C24.3932 25.5247 24.6855 25.1037 24.8779 24.6352C25.05 24.2252 25.333 23.8712 25.695 23.6131C26.0571 23.355 26.484 23.2028 26.9277 23.1738C27.109 23.1599 27.2889 23.132 27.466 23.0906L31.0907 32.6199L27.3585 31.2789Z" fill="white"/>
<path d="M26.937 13.8643C26.937 12.1955 26.4422 10.5642 25.515 9.17664C24.5879 7.7891 23.2702 6.70764 21.7284 6.06903C20.1867 5.43041 18.4902 5.26332 16.8534 5.58889C15.2167 5.91445 13.7133 6.71804 12.5333 7.89805C11.3533 9.07805 10.5497 10.5815 10.2241 12.2182C9.89858 13.8549 10.0657 15.5514 10.7043 17.0932C11.3429 18.6349 12.4244 19.9527 13.8119 20.8798C15.1994 21.8069 16.8307 22.3018 18.4995 22.3018C20.7365 22.2992 22.8811 21.4095 24.4629 19.8277C26.0447 18.2459 26.9345 16.1012 26.937 13.8643ZM18.4995 21.1768C17.0532 21.1768 15.6394 20.7479 14.4369 19.9444C13.2344 19.1409 12.2971 17.9988 11.7436 16.6626C11.1902 15.3264 11.0454 13.8561 11.3275 12.4377C11.6097 11.0192 12.3061 9.71621 13.3288 8.69354C14.3515 7.67087 15.6544 6.97442 17.0729 6.69227C18.4914 6.41011 19.9617 6.55493 21.2979 7.10839C22.6341 7.66186 23.7761 8.59912 24.5796 9.80165C25.3831 11.0042 25.812 12.418 25.812 13.8643C25.8098 15.803 25.0386 17.6616 23.6678 19.0325C22.2969 20.4034 20.4382 21.1745 18.4995 21.1768Z" fill="white"/>
<path d="M22.9732 11.999L20.2305 11.6008L19.0042 9.11563C18.9526 9.02779 18.8789 8.95496 18.7904 8.90436C18.702 8.85377 18.6018 8.82715 18.4999 8.82715C18.398 8.82715 18.2979 8.85377 18.2095 8.90436C18.121 8.95496 18.0473 9.02779 17.9957 9.11563L16.7688 11.6008L14.0261 11.999C13.9222 12.014 13.8245 12.0578 13.7442 12.1254C13.6638 12.1931 13.604 12.2819 13.5715 12.3817C13.5391 12.4816 13.5352 12.5885 13.5603 12.6905C13.5855 12.7925 13.6387 12.8853 13.7139 12.9586L15.6995 14.8936L15.231 17.6246C15.2133 17.7279 15.2249 17.8342 15.2645 17.9313C15.304 18.0284 15.3699 18.1126 15.4547 18.1742C15.5395 18.2359 15.6399 18.2726 15.7445 18.2802C15.8491 18.2879 15.9537 18.2661 16.0466 18.2174L18.4997 16.9282L20.9527 18.2174C21.0456 18.2661 21.1502 18.2879 21.2548 18.2802C21.3594 18.2726 21.4598 18.2359 21.5446 18.1742C21.6294 18.1126 21.6953 18.0284 21.7349 17.9313C21.7744 17.8342 21.786 17.7279 21.7683 17.6246L21.2998 14.8931L23.2854 12.9586C23.3606 12.8853 23.4138 12.7925 23.439 12.6905C23.4642 12.5885 23.4603 12.4816 23.4278 12.3817C23.3953 12.2819 23.3355 12.1931 23.2552 12.1254C23.1748 12.0578 23.0772 12.014 22.9732 11.999ZM20.303 14.294C20.2378 14.3577 20.1891 14.4363 20.161 14.523C20.1328 14.6097 20.1262 14.702 20.1416 14.7918L20.4673 16.6914L18.7612 15.7948C18.6805 15.7524 18.5908 15.7302 18.4997 15.7302C18.4085 15.7302 18.3188 15.7524 18.2381 15.7948L16.532 16.6914L16.8583 14.7918C16.8736 14.7019 16.8669 14.6096 16.8387 14.5229C16.8104 14.4362 16.7616 14.3577 16.6963 14.294L15.3159 12.9485L17.2228 12.6712C17.3132 12.6582 17.399 12.6234 17.4729 12.5698C17.5468 12.5162 17.6065 12.4454 17.6469 12.3635L18.4997 10.6355L19.353 12.3635C19.3932 12.4453 19.4527 12.5162 19.5264 12.5699C19.6001 12.6236 19.6857 12.6585 19.776 12.6718L21.6834 12.9485L20.303 14.294Z" fill="white"/>
</g>
<defs>
<clipPath id="clip0_504_719">
<rect width="36" height="36" fill="white" transform="translate(0.499512 0.926758)"/>
</clipPath>
</defs>
</svg>
