<svg width="36" height="36" viewBox="0 0 36 36" fill="none" xmlns="http://www.w3.org/2000/svg">
<path d="M31.7994 28.8001H13.7382C13.4598 27.4321 12.2478 26.4001 10.7994 26.4001C9.35095 26.4001 8.13895 27.4321 7.86055 28.8001H4.19935C3.40495 28.8001 3.40615 30.0001 4.19935 30.0001H7.86055C8.13895 31.3681 9.35095 32.4001 10.7994 32.4001C12.2478 32.4001 13.4598 31.3681 13.7382 30.0001H31.7994C32.5938 30.0001 32.5926 28.8001 31.7994 28.8001ZM10.7994 31.2001C9.80695 31.2001 8.99935 30.3925 8.99935 29.4001C8.99935 28.4077 9.80695 27.6001 10.7994 27.6001C11.7918 27.6001 12.5994 28.4077 12.5994 29.4001C12.5994 30.3925 11.7918 31.2001 10.7994 31.2001ZM31.7994 17.4001H28.1382C27.8598 16.0321 26.6478 15.0001 25.1994 15.0001C23.751 15.0001 22.539 16.0321 22.2606 17.4001H4.19935C3.40495 17.4001 3.40615 18.6001 4.19935 18.6001H22.2606C22.539 19.9681 23.751 21.0001 25.1994 21.0001C26.6478 21.0001 27.8598 19.9681 28.1382 18.6001H31.7994C32.5938 18.6001 32.5926 17.4001 31.7994 17.4001ZM25.1994 19.8001C24.207 19.8001 23.3994 18.9925 23.3994 18.0001C23.3994 17.0077 24.207 16.2001 25.1994 16.2001C26.1918 16.2001 26.9994 17.0077 26.9994 18.0001C26.9994 18.9925 26.1918 19.8001 25.1994 19.8001ZM4.19935 7.2001H13.8606C14.139 8.5681 15.351 9.6001 16.7994 9.6001C18.2478 9.6001 19.4598 8.5681 19.7382 7.2001H31.7994C32.5938 7.2001 32.5926 6.0001 31.7994 6.0001H19.7382C19.4598 4.6321 18.2478 3.6001 16.7994 3.6001C15.351 3.6001 14.139 4.6321 13.8606 6.0001H4.19935C3.40495 6.0001 3.40615 7.2001 4.19935 7.2001ZM16.7994 4.8001C17.7918 4.8001 18.5994 5.6077 18.5994 6.6001C18.5994 7.5925 17.7918 8.4001 16.7994 8.4001C15.807 8.4001 14.9994 7.5925 14.9994 6.6001C14.9994 5.6077 15.807 4.8001 16.7994 4.8001Z" fill="white"/>
</svg>
