<svg width="36" height="37" viewBox="0 0 36 37" fill="none" xmlns="http://www.w3.org/2000/svg">
<g clip-path="url(#clip0_504_531)">
<path d="M30.7729 27.2686C30.7385 27.2032 30.6915 27.1451 30.6347 27.0978C30.5779 27.0505 30.5123 27.0149 30.4417 26.993L28.2943 26.3222C28.2238 26.3001 28.1497 26.2921 28.0761 26.2987C28.0025 26.3053 27.9309 26.3264 27.8655 26.3606C27.8001 26.3949 27.742 26.4418 27.6947 26.4985C27.6474 26.5553 27.6118 26.6208 27.5898 26.6914L27.4211 27.2306L22.592 25.7224L20.3237 25.0095C20.1007 24.9393 19.8655 24.9162 19.6331 24.9417C19.4007 24.9673 19.1762 25.0409 18.9737 25.1578L13.1272 28.5349C12.9251 28.6434 12.747 28.7919 12.6039 28.9712C12.4608 29.1506 12.3556 29.3572 12.2947 29.5784L7.69278 28.1419C7.26564 28.0085 6.80303 28.0503 6.40667 28.258C6.01031 28.4656 5.71267 28.8222 5.57918 29.2493L5.24379 30.323C5.11031 30.7502 5.152 31.213 5.35967 31.6095C5.56735 32.006 5.92401 32.3037 6.35121 32.4373L18.1954 36.1357C18.6174 36.2684 19.0747 36.2293 19.468 36.0267L24.3533 33.5131C24.4847 33.4461 24.6371 33.433 24.778 33.4765L25.4094 33.6741L25.2421 34.2085C25.1978 34.3508 25.2118 34.505 25.281 34.637C25.3502 34.7691 25.469 34.8683 25.6112 34.913L27.7593 35.5838C27.8137 35.6008 27.8703 35.6093 27.9273 35.6091C28.0471 35.609 28.1637 35.5707 28.2602 35.4998C28.3567 35.4288 28.428 35.3289 28.4638 35.2146L30.8115 27.6975C30.8558 27.5551 30.8419 27.4009 30.7729 27.2686ZM25.1134 32.4028C24.6904 32.2694 24.2317 32.3091 23.8379 32.5132L18.9554 35.0255C18.8241 35.0929 18.6715 35.1058 18.5307 35.0614L6.6866 31.3629C6.54424 31.3184 6.42538 31.2192 6.35615 31.0871C6.28693 30.955 6.27301 30.8008 6.31746 30.6584L6.65285 29.5847C6.67468 29.5141 6.71026 29.4485 6.75754 29.3917C6.80482 29.3348 6.86287 29.2879 6.92834 29.2536C6.99382 29.2193 7.06544 29.1983 7.13907 29.1918C7.2127 29.1852 7.28689 29.1933 7.35739 29.2156L12.422 30.7969C12.4239 30.8003 12.4256 30.8038 12.4269 30.8074L12.9493 31.8031C13.1571 32.1995 13.5139 32.4971 13.9411 32.6305C14.3683 32.764 14.831 32.7223 15.2275 32.5146L19.7113 30.1648C19.7771 30.1307 19.8355 30.084 19.8832 30.0272C19.9308 29.9705 19.9668 29.9049 19.9891 29.8342C20.0113 29.7635 20.0194 29.6891 20.0128 29.6153C20.0062 29.5415 19.9851 29.4698 19.9507 29.4041C19.9163 29.3385 19.8693 29.2803 19.8123 29.2329C19.7553 29.1855 19.6896 29.1499 19.6188 29.128C19.548 29.1061 19.4736 29.0984 19.3998 29.1053C19.326 29.1123 19.2543 29.1337 19.1889 29.1685L14.705 31.5183C14.5729 31.5874 14.4187 31.6013 14.2763 31.5569C14.134 31.5125 14.015 31.4134 13.9457 31.2814L13.4239 30.285C13.4063 30.2516 13.3919 30.2165 13.3811 30.1803C13.3452 30.0556 13.3534 29.9224 13.4044 29.8031C13.4554 29.6838 13.546 29.5858 13.6609 29.5256C13.6679 29.5221 13.6743 29.5179 13.6813 29.5144L19.5369 26.1317C19.6043 26.0928 19.6791 26.0683 19.7564 26.0598C19.8337 26.0514 19.912 26.0591 19.9862 26.0824L22.2559 26.7961L27.0857 28.3043L25.7448 32.5997L25.1134 32.4028ZM27.5575 34.3421L26.4838 34.0067L28.4961 27.5639L29.5698 27.8993L27.5575 34.3421ZM17.9992 23.8507C24.2025 23.8507 29.2492 18.804 29.2492 12.6007C29.2498 11.5022 29.089 10.4095 28.772 9.35764L29.7336 9.8629C29.8265 9.91172 29.9312 9.93357 30.0359 9.92598C30.1405 9.9184 30.241 9.88169 30.3259 9.81999C30.4108 9.7583 30.4767 9.67409 30.5163 9.57687C30.5558 9.47966 30.5674 9.37332 30.5496 9.26989L30.1348 6.85149L31.8918 5.13917C31.967 5.0659 32.0202 4.97306 32.0454 4.87114C32.0705 4.76921 32.0667 4.66228 32.0342 4.56244C32.0018 4.4626 31.942 4.37383 31.8618 4.30617C31.7815 4.23852 31.6839 4.19468 31.58 4.17961L29.1517 3.827L28.0662 1.62622C28.0197 1.53205 27.9479 1.45277 27.8587 1.39732C27.7696 1.34188 27.6667 1.3125 27.5617 1.3125C27.4567 1.3125 27.3538 1.34188 27.2646 1.39732C27.1755 1.45277 27.1036 1.53205 27.0572 1.62622L25.9717 3.827L25.1748 3.9428C23.16 2.26553 20.6207 1.34824 17.9992 1.35073C11.7959 1.35073 6.74918 6.39741 6.74918 12.6007C6.74918 18.804 11.7959 23.8507 17.9992 23.8507ZM26.8498 4.58996L27.5617 3.14672L28.2736 4.58996C28.314 4.67177 28.3736 4.74255 28.4474 4.79617C28.5212 4.8498 28.607 4.88467 28.6972 4.89778L30.2902 5.12911L29.1378 6.25228C29.0725 6.31595 29.0237 6.39455 28.9955 6.4813C28.9673 6.56805 28.9607 6.66035 28.9761 6.75024L29.2483 8.33698L28.1543 7.76217C27.6572 6.72438 27.0045 5.76863 26.2187 4.92802L26.4265 4.89778C26.5167 4.88462 26.6024 4.84972 26.6761 4.7961C26.7499 4.74247 26.8094 4.67173 26.8498 4.58996ZM17.9992 2.47573C23.582 2.47573 28.1242 7.01792 28.1242 12.6007C28.1242 18.1835 23.582 22.7257 17.9992 22.7257C12.4164 22.7257 7.87418 18.1835 7.87418 12.6007C7.87418 7.01792 12.4164 2.47573 17.9992 2.47573Z" fill="white"/>
<path d="M12.374 15.9757C12.374 18.457 14.8974 20.4757 17.999 20.4757C21.1007 20.4757 23.624 18.457 23.624 15.9757C23.624 15.8265 23.5648 15.6834 23.4593 15.5779C23.3538 15.4724 23.2107 15.4132 23.0615 15.4132H12.9365C12.7874 15.4132 12.6443 15.4724 12.5388 15.5779C12.4333 15.6834 12.374 15.8265 12.374 15.9757ZM22.4365 16.5382C22.0784 18.1324 20.2249 19.3507 17.999 19.3507C15.7732 19.3507 13.9197 18.1324 13.5616 16.5382H22.4365ZM11.249 11.4757C11.3982 11.4757 11.5413 11.4164 11.6468 11.3109C11.7523 11.2054 11.8115 11.0624 11.8115 10.9132C11.8115 10.4656 11.9893 10.0364 12.3058 9.71993C12.6223 9.40346 13.0515 9.22567 13.499 9.22567C13.9466 9.22567 14.3758 9.40346 14.6923 9.71993C15.0088 10.0364 15.1865 10.4656 15.1865 10.9132C15.1865 11.0624 15.2458 11.2054 15.3513 11.3109C15.4568 11.4164 15.5999 11.4757 15.749 11.4757C15.8982 11.4757 16.0413 11.4164 16.1468 11.3109C16.2523 11.2054 16.3115 11.0624 16.3115 10.9132C16.3115 10.1673 16.0152 9.45188 15.4878 8.92444C14.9603 8.39699 14.245 8.10067 13.499 8.10067C12.7531 8.10067 12.0378 8.39699 11.5103 8.92444C10.9829 9.45188 10.6865 10.1673 10.6865 10.9132C10.6865 11.0624 10.7458 11.2054 10.8513 11.3109C10.9568 11.4164 11.0999 11.4757 11.249 11.4757ZM20.249 11.4757C20.3982 11.4757 20.5413 11.4164 20.6468 11.3109C20.7523 11.2054 20.8115 11.0624 20.8115 10.9132C20.8115 10.4656 20.9893 10.0364 21.3058 9.71993C21.6223 9.40346 22.0515 9.22567 22.499 9.22567C22.9466 9.22567 23.3758 9.40346 23.6923 9.71993C24.0088 10.0364 24.1865 10.4656 24.1865 10.9132C24.1865 11.0624 24.2458 11.2054 24.3513 11.3109C24.4568 11.4164 24.5999 11.4757 24.749 11.4757C24.8982 11.4757 25.0413 11.4164 25.1468 11.3109C25.2523 11.2054 25.3115 11.0624 25.3115 10.9132C25.3115 10.1673 25.0152 9.45188 24.4878 8.92444C23.9603 8.39699 23.245 8.10067 22.499 8.10067C21.7531 8.10067 21.0378 8.39699 20.5103 8.92444C19.9829 9.45188 19.6865 10.1673 19.6865 10.9132C19.6865 11.0624 19.7458 11.2054 19.8513 11.3109C19.9568 11.4164 20.0999 11.4757 20.249 11.4757ZM7.49499 27.2946C7.57691 27.2946 7.65784 27.2767 7.73213 27.2422C7.80642 27.2077 7.87228 27.1573 7.92509 27.0947C7.97789 27.0321 8.01639 26.9587 8.03787 26.8796C8.05936 26.8006 8.06332 26.7178 8.04947 26.637L7.63463 24.2187L9.3916 22.5061C9.46677 22.4328 9.51994 22.34 9.5451 22.2381C9.57025 22.1362 9.5664 22.0293 9.53396 21.9294C9.50152 21.8296 9.4418 21.7408 9.36155 21.6732C9.28129 21.6055 9.18371 21.5617 9.07983 21.5466L6.65173 21.1938L5.56596 18.9936C5.51952 18.8995 5.44766 18.8203 5.35851 18.7648C5.26937 18.7094 5.1665 18.6801 5.06154 18.6801C4.95658 18.6801 4.85371 18.7094 4.76457 18.7648C4.67543 18.8203 4.60357 18.8995 4.55712 18.9936L3.47128 21.1938L1.04318 21.5466C0.939307 21.5617 0.841724 21.6055 0.76147 21.6732C0.681216 21.7408 0.621493 21.8296 0.589056 21.9294C0.556619 22.0293 0.552761 22.1362 0.577919 22.2381C0.603078 22.34 0.656248 22.4328 0.731418 22.5061L2.48811 24.2187L2.07326 26.637C2.05551 26.7405 2.06706 26.8468 2.1066 26.944C2.14615 27.0413 2.2121 27.1255 2.29701 27.1872C2.38192 27.2489 2.48239 27.2856 2.58708 27.2932C2.69176 27.3007 2.79647 27.2789 2.88938 27.23L5.06154 26.0882L7.23336 27.23C7.31404 27.2724 7.40383 27.2946 7.49499 27.2946ZM5.32332 24.9546C5.24259 24.9121 5.15275 24.89 5.06154 24.89C4.97034 24.89 4.8805 24.9121 4.79977 24.9546L3.3751 25.7038L3.64721 24.1174C3.66263 24.0276 3.65597 23.9353 3.6278 23.8485C3.59962 23.7618 3.55078 23.6832 3.48549 23.6196L2.33278 22.496L3.92571 22.2646C4.01596 22.2514 4.10167 22.2166 4.17545 22.163C4.24922 22.1093 4.30885 22.0386 4.34921 21.9568L5.06154 20.5135L5.77388 21.9568C5.81423 22.0386 5.87386 22.1093 5.94764 22.163C6.02142 22.2166 6.10712 22.2514 6.19737 22.2646L7.7903 22.496L6.63767 23.6196C6.57237 23.6832 6.52353 23.7618 6.49536 23.8485C6.46719 23.9353 6.46053 24.0276 6.47595 24.1174L6.74806 25.7038L5.32332 24.9546ZM35.409 19.2993C35.3766 19.1995 35.3169 19.1107 35.2366 19.0431C35.1564 18.9754 35.0588 18.9315 34.9549 18.9164L33.3042 18.6766L32.5659 17.1808C32.5194 17.0866 32.4476 17.0074 32.3584 16.952C32.2693 16.8966 32.1664 16.8672 32.0615 16.8672C31.9565 16.8672 31.8536 16.8966 31.7645 16.952C31.6754 17.0074 31.6035 17.0866 31.5571 17.1808L30.8188 18.6766L29.168 18.9164C29.0642 18.9315 28.9666 18.9754 28.8863 19.043C28.8061 19.1107 28.7464 19.1994 28.7139 19.2993C28.6815 19.3991 28.6776 19.506 28.7028 19.6079C28.7279 19.7098 28.7811 19.8026 28.8563 19.8759L30.0506 21.0402L29.7687 22.6843C29.7509 22.7877 29.7624 22.8941 29.802 22.9914C29.8415 23.0886 29.9075 23.1729 29.9924 23.2346C30.0774 23.2963 30.1779 23.333 30.2826 23.3405C30.3873 23.3481 30.4921 23.3262 30.585 23.2773L32.0615 22.501L33.5381 23.2773C33.631 23.3261 33.7357 23.348 33.8404 23.3404C33.9451 23.3328 34.0456 23.2961 34.1305 23.2344C34.2154 23.1727 34.2813 23.0885 34.3209 22.9913C34.3604 22.8941 34.372 22.7877 34.3542 22.6843L34.0723 21.0402L35.2667 19.8759C35.3419 19.8026 35.395 19.7098 35.4201 19.6079C35.4453 19.506 35.4414 19.3992 35.409 19.2993ZM33.0752 20.4411C33.0099 20.5047 32.961 20.5833 32.9329 20.6701C32.9047 20.7568 32.898 20.8491 32.9134 20.939L33.0529 21.7511L32.3235 21.3677C32.2428 21.3252 32.153 21.303 32.0618 21.303C31.9705 21.303 31.8807 21.3252 31.8 21.3677L31.0701 21.7511L31.2095 20.939C31.2249 20.8491 31.2183 20.7568 31.1901 20.6701C31.1619 20.5833 31.1131 20.5047 31.0478 20.4411L30.4576 19.8659L31.2733 19.7474C31.3635 19.7343 31.4492 19.6994 31.523 19.6458C31.5968 19.5922 31.6564 19.5214 31.6968 19.4396L32.0615 18.7007L32.4263 19.4396C32.4666 19.5214 32.5262 19.5922 32.6 19.6458C32.6738 19.6994 32.7595 19.7343 32.8497 19.7474L33.6654 19.8659L33.0752 20.4411ZM2.48811 6.13396L2.20615 7.77801C2.18838 7.88148 2.19992 7.98787 2.23946 8.08512C2.27901 8.18238 2.34499 8.26663 2.42993 8.32833C2.51488 8.39004 2.61539 8.42674 2.72011 8.43429C2.82483 8.44183 2.92957 8.41992 3.02248 8.37103L4.49904 7.59478L5.97561 8.37103C6.06851 8.41986 6.17322 8.44173 6.27791 8.43415C6.38259 8.42658 6.48307 8.38987 6.56798 8.32817C6.65289 8.26648 6.71884 8.18225 6.75838 8.08503C6.79792 7.9878 6.80947 7.88146 6.79172 7.77801L6.50998 6.13396L7.70417 4.96966C7.77934 4.8964 7.83251 4.80356 7.85767 4.70166C7.88282 4.59975 7.87897 4.49284 7.84653 4.39301C7.81409 4.29318 7.75437 4.20442 7.67412 4.13676C7.59386 4.06911 7.49628 4.02526 7.3924 4.01017L5.74168 3.77034L5.00339 2.27451C4.95694 2.18039 4.88509 2.10113 4.79594 2.04572C4.7068 1.99031 4.60393 1.96094 4.49897 1.96094C4.39401 1.96094 4.29114 1.99031 4.202 2.04572C4.11286 2.10113 4.041 2.18039 3.99455 2.27451L3.25627 3.77034L1.60568 4.01017C1.50181 4.02526 1.40422 4.06911 1.32397 4.13676C1.24372 4.20442 1.18399 4.29318 1.15156 4.39301C1.11912 4.49284 1.11526 4.59975 1.14042 4.70166C1.16558 4.80356 1.21875 4.8964 1.29392 4.96966L2.48811 6.13396ZM3.71084 4.84113C3.80109 4.828 3.88679 4.79313 3.96057 4.73952C4.03435 4.6859 4.09398 4.61516 4.13433 4.53337L4.49904 3.79446L4.86375 4.53337C4.90411 4.61516 4.96374 4.6859 5.03752 4.73952C5.11129 4.79313 5.197 4.828 5.28725 4.84113L6.10287 4.9596L5.51274 5.53483C5.44744 5.59849 5.3986 5.67708 5.37043 5.76381C5.34226 5.85055 5.3356 5.94283 5.35102 6.03271L5.49045 6.84489L4.76082 6.46141C4.68009 6.41896 4.59025 6.39678 4.49904 6.39678C4.40784 6.39678 4.318 6.41896 4.23727 6.46141L3.50764 6.84489L3.647 6.03271C3.66242 5.94283 3.65576 5.85055 3.62758 5.76381C3.59941 5.67708 3.55057 5.59849 3.48528 5.53483L2.89514 4.9596L3.71084 4.84113Z" fill="white"/>
</g>
<defs>
<clipPath id="clip0_504_531">
<rect width="36" height="36" fill="white" transform="translate(-0.000976562 0.788086)"/>
</clipPath>
</defs>
</svg>
