<svg width="36" height="37" viewBox="0 0 36 37" fill="none" xmlns="http://www.w3.org/2000/svg">
<g clip-path="url(#clip0_504_640)">
<path d="M33.9581 3.77109H14.5141C13.9801 3.77109 13.4679 3.98324 13.0903 4.36087C12.7126 4.7385 12.5005 5.25067 12.5005 5.78472V13.3487H2.48775C1.95402 13.3497 1.44246 13.5622 1.06505 13.9396C0.687652 14.317 0.475167 14.8286 0.474121 15.3623V28.1364C0.475167 28.6701 0.687652 29.1817 1.06505 29.5591C1.44246 29.9365 1.95402 30.1489 2.48775 30.15H6.32907L6.23412 33.2911C6.23018 33.413 6.2589 33.5338 6.31733 33.641C6.37576 33.7481 6.46176 33.8376 6.56643 33.9003C6.6748 33.9534 6.79388 33.981 6.91456 33.981C7.03524 33.981 7.15432 33.9534 7.26269 33.9003L14.0434 30.1342H22.0899C22.3544 30.1342 22.6162 30.0821 22.8605 29.9809C23.1048 29.8797 23.3268 29.7314 23.5138 29.5444C23.7008 29.3574 23.8491 29.1354 23.9503 28.8911C24.0515 28.6468 24.1036 28.385 24.1036 28.1205V22.1113H25.2666L30.631 25.8933C30.7382 25.9571 30.8589 25.9946 30.9834 26.0029C31.1078 26.0111 31.2324 25.9898 31.3471 25.9408C31.4645 25.8867 31.564 25.8003 31.634 25.6917C31.7041 25.5831 31.7418 25.4568 31.7427 25.3276V22.1113H33.9779C34.5119 22.1113 35.0241 21.8992 35.4017 21.5215C35.7793 21.1439 35.9915 20.6317 35.9915 20.0977V5.78472C35.9915 5.51861 35.9388 5.25514 35.8363 5.00954C35.7339 4.76394 35.5838 4.54107 35.3947 4.35383C35.2057 4.16659 34.9813 4.01868 34.7347 3.91866C34.4881 3.81863 34.2242 3.76848 33.9581 3.77109ZM22.719 28.1364C22.719 28.3032 22.6527 28.4632 22.5347 28.5811C22.4168 28.6991 22.2568 28.7654 22.0899 28.7654H13.8455C13.728 28.766 13.6124 28.7959 13.5093 28.8524L7.64247 32.1122L7.72159 29.4775C7.72362 29.3841 7.70641 29.2913 7.67101 29.2049C7.63562 29.1184 7.58282 29.0402 7.51588 28.975C7.45111 28.9084 7.3736 28.8556 7.28797 28.8195C7.20233 28.7835 7.11032 28.7651 7.01742 28.7654H2.48775C2.32092 28.7654 2.16093 28.6991 2.04297 28.5811C1.92501 28.4632 1.85874 28.3032 1.85874 28.1364V15.3623C1.85977 15.1958 1.92638 15.0364 2.04412 14.9187C2.16185 14.8009 2.32124 14.7343 2.48775 14.7333H12.5005V20.0977C12.5005 20.6317 12.7126 21.1439 13.0903 21.5215C13.4679 21.8992 13.9801 22.1113 14.5141 22.1113H22.719V28.1364ZM34.5871 20.0977C34.5871 20.2645 34.5208 20.4245 34.4029 20.5425C34.2849 20.6604 34.1249 20.7267 33.9581 20.7267H31.0306C30.847 20.7267 30.6709 20.7996 30.5411 20.9295C30.4112 21.0593 30.3383 21.2354 30.3383 21.419V23.9904L25.8878 20.8533C25.7719 20.7716 25.6339 20.7274 25.4921 20.7267H14.5141C14.3473 20.7267 14.1873 20.6604 14.0693 20.5425C13.9514 20.4245 13.8851 20.2645 13.8851 20.0977V5.78472C13.883 5.70079 13.8977 5.6173 13.9284 5.53915C13.959 5.46099 14.005 5.38977 14.0637 5.32968C14.1223 5.26958 14.1923 5.22183 14.2697 5.18923C14.3471 5.15664 14.4302 5.13986 14.5141 5.13988H33.9581C34.1249 5.13988 34.2849 5.20616 34.4029 5.32412C34.5208 5.44208 34.5871 5.60207 34.5871 5.7689V20.0977Z" fill="white"/>
<path d="M18.8975 11.6157C18.6134 11.6157 18.3358 11.7 18.0996 11.8577C17.8635 12.0155 17.6794 12.2398 17.5707 12.5022C17.462 12.7646 17.4336 13.0534 17.489 13.3319C17.5444 13.6105 17.6812 13.8664 17.882 14.0672C18.0829 14.268 18.3387 14.4048 18.6173 14.4602C18.8959 14.5156 19.1846 14.4872 19.447 14.3785C19.7094 14.2698 19.9337 14.0858 20.0915 13.8496C20.2493 13.6134 20.3335 13.3358 20.3335 13.0518C20.3335 12.6709 20.1822 12.3056 19.9129 12.0363C19.6436 11.767 19.2783 11.6157 18.8975 11.6157ZM24.6298 11.6157C24.3456 11.6149 24.0676 11.6985 23.8309 11.8558C23.5942 12.0131 23.4095 12.2371 23.3002 12.4995C23.1909 12.7618 23.1619 13.0507 23.2169 13.3295C23.2719 13.6083 23.4083 13.8646 23.609 14.0658C23.8097 14.267 24.0655 14.4042 24.3442 14.4599C24.6229 14.5157 24.9118 14.4875 25.1745 14.3789C25.4371 14.2703 25.6616 14.0862 25.8196 13.85C25.9775 13.6138 26.0619 13.336 26.0619 13.0518C26.0624 12.8634 26.0257 12.6767 25.954 12.5025C25.8823 12.3283 25.7768 12.17 25.6438 12.0366C25.5108 11.9032 25.3527 11.7973 25.1787 11.7251C25.0047 11.6529 24.8182 11.6157 24.6298 11.6157ZM30.3621 11.6157C30.0779 11.6149 29.7999 11.6985 29.5632 11.8558C29.3265 12.0131 29.1418 12.2371 29.0325 12.4995C28.9232 12.7618 28.8942 13.0507 28.9492 13.3295C29.0042 13.6083 29.1406 13.8646 29.3413 14.0658C29.542 14.267 29.7978 14.4042 30.0765 14.4599C30.3552 14.5157 30.6441 14.4875 30.9068 14.3789C31.1694 14.2703 31.3939 14.0862 31.5519 13.85C31.7098 13.6138 31.7942 13.336 31.7942 13.0518C31.7947 12.8634 31.758 12.6767 31.6863 12.5025C31.6146 12.3283 31.5092 12.17 31.3761 12.0366C31.2431 11.9032 31.085 11.7973 30.911 11.7251C30.737 11.6529 30.5505 11.6157 30.3621 11.6157Z" fill="white"/>
</g>
<defs>
<clipPath id="clip0_504_640">
<rect width="36" height="36" fill="white" transform="translate(-0.000488281 0.788086)"/>
</clipPath>
</defs>
</svg>
