<svg width="52" height="52" fill="none" xmlns="http://www.w3.org/2000/svg"><g opacity=".15" clip-path="url(#clip0_395_3155)" fill="#fff"><path d="M46.378 18.68l-.708-.002c.61-.952 1.395-1.968 2.426-3.243a.649.649 0 00-.505-1.059H10.337a.65.65 0 00-.54 1.01l.522.781c1.476 2.203 2.383 3.565 3.044 5.54-.148.58-.646 1.588-2.335 1.994-2.106.507-3.363 1.814-3.363 3.497 0 .588.144 1.151.411 1.65a4.2 4.2 0 00-3.393 4.118c0 1.125.483 2.164 1.252 2.926H5.02l-.326-.003H4.66a4.546 4.546 0 00-3.226 1.33 4.548 4.548 0 00-1.354 3.25c0 2.01 1.436 3.719 3.3 4.061l1.32 6.941a.65.65 0 00.639.529H22.85a.65.65 0 00.64-.53l.525-2.79H36.46c.6 0 1.16-.268 1.538-.733a1.957 1.957 0 00.405-1.628l-.702-4.235c2.99-2.09 4.76-5.094 5.178-8.819.937-2.405 2.382-2.803 4.056-3.261.81-.222 1.647-.452 2.434-.924a5.618 5.618 0 002.707-4.959c-.077-2.987-2.632-5.428-5.697-5.44zM8.976 35.86c-1.622 0-2.993-1.326-2.993-2.894a2.897 2.897 0 012.893-2.893c.14 0 .293.013.464.04a.648.648 0 00.733-.806.65.65 0 00-.234-.351 2.194 2.194 0 01-.874-1.758c0-1.447 1.483-2.02 2.367-2.232 2.328-.56 3.059-2.045 3.289-2.946a2.25 2.25 0 011.7 2.18c0 .33-.073.655-.218.962a.649.649 0 00.708.916c1.51-.284 2.761.862 2.761 2.285 0 .563-.207 1.109-.582 1.535-.174.197-.188.479-.072.716a.687.687 0 00.65.359c.034-.003.066-.005.1-.005a2.449 2.449 0 012.446 2.445 2.449 2.449 0 01-2.447 2.447c-.057 0-.108.018-.16.032H9.137c-.053-.014-.104-.033-.16-.033zM1.38 40.47c0-.881.345-1.709.97-2.329a3.257 3.257 0 012.31-.952h.025l.328.003h18.36a3.428 3.428 0 013.423 3.337.708.708 0 00-.006.087 2.688 2.688 0 01-2.688 2.68 2.688 2.688 0 01-2.69-2.68.65.65 0 00-1.3 0 2.688 2.688 0 01-2.688 2.68 2.688 2.688 0 01-2.689-2.68.65.65 0 00-1.3 0 2.688 2.688 0 01-2.689 2.68 2.688 2.688 0 01-2.688-2.68.65.65 0 00-1.3 0c0 .73-.289 1.412-.814 1.922-.526.51-1.223.79-1.959.757-1.436-.043-2.605-1.31-2.605-2.825zM22.312 50.7H5.876l-1.172-6.157a3.993 3.993 0 002.705-1.749 3.99 3.99 0 006.675-.002 3.991 3.991 0 006.678 0 3.991 3.991 0 002.71 1.75l-1.16 6.158zm14.813-4.14a.677.677 0 01-.373.753.677.677 0 01-.293.066H24.26l.537-2.847c.193-.034.38-.082.563-.143 1.176.284 2.38.428 3.59.43h.03a15.432 15.432 0 006.614-1.505c.31-.15.614-.309.913-.478l.618 3.723zm-2.093-4.418a14.124 14.124 0 01-6.068 1.377 14.12 14.12 0 01-1.992-.148 3.96 3.96 0 001.116-2.651.653.653 0 00.008-.104 4.73 4.73 0 00-4.724-4.724h-.903a3.727 3.727 0 00.945-2.479 3.753 3.753 0 00-2.832-3.632c.191-.449.29-.93.29-1.418a3.632 3.632 0 00-3.293-3.612 3.548 3.548 0 00-3.204-4.082c-.67-1.752-1.566-3.12-2.82-4.993h34.687c-3.706 4.735-3.824 6.335-4.54 16.094l-.061.83c-.323 4.382-2.547 7.592-6.61 9.542zm13.667-14.176c-.634.38-1.35.576-2.109.784-1.163.319-2.427.67-3.49 1.742.422-5.68.678-8.182 1.832-10.516l1.442.005c2.368.009 4.343 1.881 4.401 4.173a4.318 4.318 0 01-2.076 3.812zM38.122 8.854h-4.59a2.944 2.944 0 00-2.936 2.946v.285a.65.65 0 001.3 0V11.8c0-.907.734-1.646 1.636-1.646h4.59a2.393 2.393 0 000-4.787H27.33a1.138 1.138 0 01-1.134-1.139c0-.628.508-1.139 1.134-1.139h5.776A2.44 2.44 0 0035.539.65a.648.648 0 00-.898-.6.65.65 0 00-.402.6c0 .628-.508 1.14-1.133 1.14H27.33a2.439 2.439 0 000 4.877h10.792c.6 0 1.087.491 1.087 1.094 0 .603-.488 1.093-1.087 1.093zm-11.247 3.88a.651.651 0 00.65-.65V11.8a2.944 2.944 0 00-2.937-2.945h-4.59c-.599 0-1.087-.49-1.087-1.093s.488-1.094 1.088-1.094a.65.65 0 100-1.3 2.394 2.394 0 000 4.787h4.59c.902 0 1.636.739 1.636 1.645v.286a.65.65 0 00.65.65z"/><path d="M18.118 46.503a.65.65 0 00-.65.65v.99a.648.648 0 00.899.6.649.649 0 00.4-.6v-.99a.65.65 0 00-.649-.65zm-4.03 0a.65.65 0 00-.65.65v.99a.65.65 0 101.3 0v-.99a.65.65 0 00-.65-.65zm-4.03 0a.65.65 0 00-.65.65v.99a.65.65 0 101.299 0v-.99a.65.65 0 00-.65-.65z"/></g><defs><clipPath id="clip0_395_3155"><path fill="#fff" d="M0 0h52v52H0z"/></clipPath></defs></svg>