<svg width="18" height="18" fill="none" xmlns="http://www.w3.org/2000/svg"><g clip-path="url(#clip0_323_797)" fill="#fff"><path d="M17.28 10.755a8.462 8.462 0 00-2.296-7.74A8.463 8.463 0 007.245.719 4.736 4.736 0 00.72 7.244a8.462 8.462 0 002.296 7.74 8.463 8.463 0 007.74 2.296 4.743 4.743 0 002.898.704 4.736 4.736 0 003.627-7.229zm-1.449 5.076a3.619 3.619 0 01-4.649.405.555.555 0 00-.448-.085 7.313 7.313 0 01-6.936-1.949 7.313 7.313 0 01-1.949-6.936.554.554 0 00-.085-.448 3.619 3.619 0 01.405-4.649 3.619 3.619 0 014.649-.405.553.553 0 00.448.085 7.313 7.313 0 016.936 1.949 7.313 7.313 0 011.949 6.936.553.553 0 00.085.448 3.618 3.618 0 01-.405 4.649z"/><path d="M9.103 8.395c-1.142-.387-2.437-.825-2.437-1.473 0-.826 1.069-1.524 2.334-1.524 1.265 0 2.334.698 2.334 1.524a.553.553 0 001.107 0c0-.738-.382-1.419-1.076-1.918-.639-.46-1.479-.713-2.365-.713-.886 0-1.726.253-2.365.713-.694.499-1.076 1.18-1.076 1.918 0 .673.386 1.24 1.148 1.687.575.338 1.32.59 2.042.834 1.27.43 2.585.874 2.585 1.635 0 .826-1.069 1.524-2.334 1.524-1.265 0-2.334-.698-2.334-1.524a.553.553 0 10-1.107 0c0 .737.382 1.419 1.076 1.918.639.46 1.479.713 2.365.713.886 0 1.726-.253 2.365-.713.694-.5 1.076-1.18 1.076-1.918 0-1.554-1.773-2.154-3.338-2.683z"/></g><defs><clipPath id="clip0_323_797"><path fill="#fff" d="M0 0h18v18H0z"/></clipPath></defs></svg>