<svg width="25" height="25" fill="none" xmlns="http://www.w3.org/2000/svg"><g clip-path="url(#clip0_281_724)"><path d="M24.51 2.048a1.511 1.511 0 00-1.492-.32L1.037 8.974c-.6.197-1.006.732-1.035 1.362a1.5 1.5 0 00.902 1.454l5.436 2.378 1.64 7.607c.069.316.23.598.569.684.344.088.587-.1.843-.292l4.034-3.02 4.716 3.859a1.5 1.5 0 001.44.261 1.5 1.5 0 00.985-1.084L24.96 3.507a1.511 1.511 0 00-.45-1.459zM9.744 15.531a.2.2 0 00-.007.022l-.91 3.177-1.015-4.706 6.979-3.878-4.88 5.102a.734.734 0 00-.167.283zm.289 4.323l.413-1.444.395-1.38 1.416 1.159-2.224 1.665zM23.531 3.17l-4.393 18.677c-.002.01-.005.022-.027.03-.021.007-.031-.002-.039-.008l-5.16-4.223-2.392-1.957 7.682-8.032a.734.734 0 00-.887-1.149L6.94 12.828l-5.447-2.383c-.017-.008-.026-.012-.025-.04.002-.028.011-.031.028-.037l21.982-7.246c.01-.003.023-.007.04.009.018.016.015.028.013.04z" fill="#fff"/></g><defs><clipPath id="clip0_281_724"><path fill="#fff" d="M0 0h25v25H0z"/></clipPath></defs></svg>