<svg width="25" height="25" fill="none" xmlns="http://www.w3.org/2000/svg"><g clip-path="url(#clip0_281_727)" fill="#fff"><path d="M18.237 14.903l-.01.078c-2.29-1.141-2.53-1.293-2.826-.85-.205.308-.803 1.004-.983 1.21-.182.204-.364.22-.673.079-.313-.156-1.316-.485-2.503-1.547-.925-.828-1.546-1.844-1.73-2.156-.305-.527.334-.602.915-1.702.104-.22.051-.391-.026-.546-.078-.156-.7-1.688-.96-2.298-.25-.608-.508-.531-.7-.531-.6-.052-1.039-.044-1.425.358-1.681 1.848-1.258 3.754.181 5.781 2.827 3.7 4.333 4.381 7.088 5.327.743.237 1.421.203 1.958.126.598-.095 1.84-.75 2.1-1.485.265-.735.265-1.344.187-1.485-.077-.14-.28-.218-.593-.359z"/><path d="M21.375 3.593C13.365-4.15.11 1.466.105 12.389c0 2.183.572 4.312 1.662 6.192L0 25.001l6.599-1.722C14.833 27.727 24.996 21.821 25 12.395c0-3.308-1.292-6.422-3.64-8.762l.015-.04zm1.544 8.768c-.006 7.95-8.735 12.916-15.638 8.858l-.375-.223L3 22.012l1.047-3.797-.25-.391c-4.295-6.839.64-15.776 8.778-15.776a10.276 10.276 0 017.314 3.031 10.196 10.196 0 013.03 7.282z"/></g><defs><clipPath id="clip0_281_727"><path fill="#fff" d="M0 0h25v25H0z"/></clipPath></defs></svg>