<svg width="24" height="24" viewBox="0 0 24 24" fill="none" xmlns="http://www.w3.org/2000/svg">
<g clip-path="url(#clip0_281_936)">
<path d="M20.4652 10.9745V4.9215C20.4652 3.48289 19.2871 2.29467 17.8484 2.29467H17.5225V1.88434C17.5225 0.857919 16.6904 0.0258129 15.6639 0.0258129C14.6375 0.0258129 13.8054 0.857919 13.8054 1.88434V2.29467H6.99079V1.88434C6.99079 0.84367 6.14712 0 5.10645 0C4.06577 0 3.2221 0.84367 3.2221 1.88434V2.29467H2.94049C1.50183 2.29467 0.331055 3.48289 0.331055 4.9215V18.8204C0.331055 20.2591 1.50183 21.4479 2.94049 21.4479H11.128C11.7949 22.2455 12.6284 22.8873 13.5699 23.3283C14.5114 23.7692 15.5381 23.9985 16.5777 24C20.4858 24 23.6693 20.8159 23.6693 16.9077C23.6694 14.4306 22.3753 12.2421 20.4652 10.9745ZM14.8379 1.88434C14.83 1.43468 15.188 1.0637 15.6377 1.05575C15.6449 1.05565 15.6521 1.05559 15.6594 1.05565C16.1132 1.05084 16.4852 1.41491 16.49 1.86886C16.49 1.87402 16.49 1.87918 16.49 1.88434V3.89507H14.8379V1.88434ZM4.25462 1.88434C4.25953 1.42173 4.63856 1.05069 5.10118 1.05559C5.10198 1.05559 5.10277 1.0556 5.10356 1.05565C5.56788 1.05565 5.95828 1.42007 5.95828 1.88434V3.89507H4.25462V1.88434ZM1.36357 4.9215C1.36357 4.05217 2.07116 3.32719 2.94049 3.32719H3.2221V4.43281C3.2221 4.71788 3.4602 4.92759 3.74533 4.92759H6.46189C6.74697 4.92759 6.99079 4.71788 6.99079 4.43281V3.32719H13.8054V4.43281C13.8035 4.49836 13.8151 4.56362 13.8393 4.62456C13.8636 4.68549 13.9 4.74083 13.9464 4.78717C13.9928 4.83351 14.0482 4.86986 14.1092 4.89401C14.1702 4.91816 14.2355 4.92959 14.301 4.92759H17.0176C17.0836 4.92979 17.1494 4.91857 17.211 4.89461C17.2726 4.87065 17.3287 4.83445 17.3759 4.7882C17.4231 4.74195 17.4604 4.68661 17.4856 4.62553C17.5108 4.56444 17.5233 4.49888 17.5225 4.43281V3.32719H17.8484C18.7236 3.33601 19.4293 4.04628 19.4326 4.9215V6.57962H1.36357V4.9215ZM2.94049 20.4154C2.07116 20.4154 1.36357 19.6898 1.36357 18.8204V7.61213H19.4326V10.413C18.534 10.0185 17.5631 9.81494 16.5816 9.81532C12.6736 9.81532 9.49202 13.0041 9.49202 16.9123C9.49004 18.1401 9.80741 19.3473 10.413 20.4154H2.94049ZM16.5777 22.9583C13.2335 22.9583 10.5225 20.2473 10.5225 16.903C10.5225 13.5588 13.2335 10.8478 16.5777 10.8478C19.9219 10.8478 22.633 13.5588 22.633 16.903V16.9031C22.6292 20.2457 19.9204 22.9545 16.5777 22.9583Z" fill="white"/>
<path d="M19.0096 16.9048H16.7478V13.7985C16.7478 13.5134 16.5167 13.2822 16.2316 13.2822C15.9465 13.2822 15.7153 13.5134 15.7153 13.7985V17.4206C15.7175 17.5585 15.7739 17.6901 15.8723 17.7868C15.9708 17.8835 16.1033 17.9376 16.2413 17.9373H19.0096C19.2947 17.9373 19.5258 17.7062 19.5258 17.4211C19.5258 17.1359 19.2947 16.9048 19.0096 16.9048Z" fill="white"/>
</g>
<defs>
<clipPath id="clip0_281_936">
<rect width="24" height="24" fill="white"/>
</clipPath>
</defs>
</svg>
