<svg width="746" height="1057" fill="none" xmlns="http://www.w3.org/2000/svg"><path d="M729.33 114.829c-12.966-56.655-38.673-77.16-48.271-84.754-19.645-15.645-35.417-12-48.663-9.57-32.892 6.228-66.008.608-98.899 7.747-36.147 7.898-72.181 8.354-144.251 9.113-98.73 1.063-197.517 17.923-296.19 7.747-14.819-1.52-50.812-3.907-69.278 47.583-14.482 40.251-10.64 200.696-10.64 200.696v367.943c0 178.397-5.735 264.508 16.885 318.884 22.233 28.632 63.032 28.632 63.032 28.632 121.126 8.05 238.042-.3 299.727 0 236.246 1.06 274.245 5.92 274.245 5.92 11.226 1.37 43.949 5.93 59.216-47.688 8.924-31.442 7.858-69.11 7.016-117.867-1.572-95.538.898-191.229.337-286.767-.955-157.206-1.46-235.733-.337-274.313 2.582-86.729 6.511-128.043-3.817-173.154l-.112-.152z" fill="url(#paint0_linear_526_1421)"/><path d="M166.022 1042.87s0-.6-.056-.91c-1.515-.15-3.424-.45-5.725-.6-6.455-.92-15.94-1.68-28.064-2.74-12.068-1.06-26.774-2.28-43.556-3.64-8.42-.46-17.344-.92-26.773-1.37-2.358 0-4.771-.3-7.185-.46h-3.48l-3.704-.91c-4.49-1.36-8.925-4.55-13.247-9.87-8.587-10.63-15.996-30.379-20.15-55.137-2.077-12.303-3.424-25.821-3.76-39.795-.169-6.683-.113-14.733-.113-22.631s0-15.949.056-23.847c.169-64.249.337-131.992.505-202.013.337-70.021-.112-142.473-.224-215.987-.225-73.515-.45-148.244-.674-222.974l-.393-56.047c0-18.379-.673-38.277.506-53.769 2.357-33.568 10.552-64.401 21.946-80.198 5.613-8.05 11.9-13.063 18.298-13.974 6.623-.456 13.415-.304 20.038-.456 13.302-.151 26.493-.455 39.402-.607 51.751-.76 100.078-1.519 141.501-2.278 82.846-1.671 138.02-2.734 138.02-2.734s-55.231-1.064-138.02-2.734c-41.423-.608-89.75-1.367-141.501-2.279-12.965-.152-26.1-.456-39.402-.607-6.68 0-13.415-.152-20.15-.304-7.073-.152-14.257 3.797-20.768 12.303C16.215 52.554 6.168 86.729 2.856 125.917c-1.74 21.112-1.122 38.884-1.459 57.718l-.393 56.047C.78 314.412.555 389.142.331 462.656.218 536.171-.231 608.622.106 678.643c.168 70.021.337 137.764.505 202.013 0 8.051 0 15.949.056 23.847 0 7.898 0 15.645.225 24.454.505 17.164 2.189 33.72 4.94 48.605 5.5 29.768 14.817 52.398 25.2 63.948 5.165 5.77 10.665 9.11 16.054 10.17l3.704.31h3.817c2.413-.31 4.827-.46 7.184-.61 9.43-.46 18.41-.91 26.774-1.37 16.838-1.36 31.488-2.73 43.556-3.64 12.067-1.07 21.553-1.82 28.064-2.74 2.301-.3 4.21-.45 5.781-.6l.056-.16z" fill="url(#paint1_linear_526_1421)"/><path d="M736.851 802.281c-.617-77.615-1.628-142.32-2.077-187.583-.673-45.263-1.066-71.085-1.066-71.085s-.393 25.822-1.067 71.085c-.449 45.263-1.459 109.968-2.076 187.583-.393 38.58-.562 81.413-1.123 124.702-1.066 40.099-11.562 80.047-26.773 94.927-3.705 3.95-7.746 5.93-11.787 6.69l-3.087.3h-3.424l-6.904-.3c-9.205-.16-18.579-.31-27.952-.61-18.803-.15-37.943-.3-57.083-.46-19.14.16-38.224.31-57.083.46-18.803.45-37.325.91-55.287 1.21-35.866 1.07-69.318 2.59-98 4.56-28.682 1.67-52.593 4.41-69.319 5.62-4.154.46-135.439 2.43-138.638 2.73 0 1.07.224.76.168 1.83 3.2.3 134.372.76 138.47 1.21 16.726 1.22 40.637 3.95 69.319 5.62 28.682 1.98 62.134 3.5 98 4.56 17.905.46 36.428.76 55.287 1.21 18.803.16 37.943.31 57.083.46 19.14-.15 38.224-.3 57.083-.46 9.43-.15 18.747-.3 27.952-.6h6.904c2.245-.15 4.602-.31 7.184-.91 4.996-1.22 9.991-3.95 14.538-9.12 9.205-9.87 17.119-26.88 22.507-47.995 5.445-21.113 8.532-45.415 8.925-70.021.112-45.567-.506-86.881-.786-125.916l.112.303z" fill="url(#paint2_linear_526_1421)"/><path d="M725.962 61.211c-5.052-15.037-11.338-27.188-18.41-34.479-6.96-7.594-15.043-10.024-21.947-9.417-54.613 1.823-109.17 3.95-150.144 7.139-20.487 1.519-37.55 2.734-49.449 3.645-11.956 1.215-18.747 1.823-18.747 1.823s6.847.608 18.747 1.823c11.955.911 29.018 2.126 49.449 3.645 40.918 3.342 95.531 5.316 150.144 7.139 6.736 0 12.405 2.734 18.074 9.417 5.5 6.683 10.44 16.556 14.369 28.555 3.929 12 6.903 26.125 8.531 41.314 1.684 15.341 1.852 29.771 1.796 47.997.056 69.262.674 133.815 1.404 189.255a9511.677 9511.677 0 002.581 133.814c.337 16.101.674 28.86 1.011 37.517.28 8.658.449 13.215.449 13.215s.168-4.557.449-13.215c.337-8.657.617-21.416 1.01-37.517a9604.198 9604.198 0 002.582-133.814c.73-55.44 1.291-119.993 1.403-189.255.113-16.252.169-37.668-2.133-56.503-2.133-19.138-6.005-36.909-11.057-51.946l-.112-.152z" fill="url(#paint3_linear_526_1421)"/><path d="M394.691.152c-25.315.304-50.629.607-74.371.911-23.742.304-45.913 1.671-64.885 2.279-18.971.607-34.8 2.126-45.913 2.734-11.057.91-17.4 1.367-17.4 1.367s6.343.455 17.4 1.367c11.057.607 26.886 1.974 45.913 2.734 18.972.607 41.143 1.974 64.885 2.278 23.742.304 49.056.608 74.371.911 25.314-.303 50.628-.607 74.37-.911 23.742-.304 45.913-1.67 64.885-2.278 18.971-.608 34.8-2.127 45.913-2.734 11.057-.912 17.4-1.367 17.4-1.367s-6.343-.456-17.4-1.52c-11.057-.607-26.886-2.126-45.913-2.733-18.972-.608-41.143-1.975-64.885-2.279A95703.71 95703.71 0 00394.691 0v.152z" fill="url(#paint4_linear_526_1421)"/><path d="M743.306 303.931s.168 7.899.505 21.873c.225 13.973.73 33.719 1.01 57.566.225 23.846.674 51.642.842 81.412.225 29.771.281 61.668.337 93.413 0 31.745-.112 63.641-.337 93.412-.168 29.77-.617 57.566-.842 81.413-.224 23.846-.785 43.744-1.01 57.566-.337 13.974-.505 21.872-.505 21.872s-.168-7.898-.505-21.872c-.225-13.974-.786-33.72-1.01-57.566-.225-23.847-.73-51.643-.842-81.413-.225-29.771-.281-61.667-.337-93.412.056-31.745.112-63.642.337-93.413.168-29.77.617-57.566.842-81.412.224-23.847.785-43.745 1.01-57.566.337-13.974.505-21.873.505-21.873z" fill="url(#paint5_linear_526_1421)"/><defs><linearGradient id="paint0_linear_526_1421" x1="12.488" y1="18.317" x2="739.207" y2="20.519" gradientUnits="userSpaceOnUse"><stop stop-color="#fff" stop-opacity=".05"/><stop offset=".997" stop-color="#fff" stop-opacity="0"/></linearGradient><linearGradient id="paint1_linear_526_1421" x1="-.017" y1="23.995" x2="624.854" y2="196.037" gradientUnits="userSpaceOnUse"><stop stop-color="#FC466B" stop-opacity=".2"/><stop offset="1" stop-color="#3F5EFB" stop-opacity=".2"/></linearGradient><linearGradient id="paint2_linear_526_1421" x1="174.105" y1="543.613" x2="768.603" y2="1018.08" gradientUnits="userSpaceOnUse"><stop stop-color="#FC466B" stop-opacity=".2"/><stop offset="1" stop-color="#3F5EFB" stop-opacity=".2"/></linearGradient><linearGradient id="paint3_linear_526_1421" x1="467.265" y1="17.226" x2="878.983" y2="171.96" gradientUnits="userSpaceOnUse"><stop stop-color="#FC466B" stop-opacity=".2"/><stop offset="1" stop-color="#3F5EFB" stop-opacity=".2"/></linearGradient><linearGradient id="paint4_linear_526_1421" x1="192.122" y1="0" x2="193.868" y2="34.906" gradientUnits="userSpaceOnUse"><stop stop-color="#FC466B" stop-opacity=".2"/><stop offset="1" stop-color="#3F5EFB" stop-opacity=".2"/></linearGradient><linearGradient id="paint5_linear_526_1421" x1="740.612" y1="303.931" x2="749.918" y2="304.003" gradientUnits="userSpaceOnUse"><stop stop-color="#FC466B" stop-opacity=".2"/><stop offset="1" stop-color="#3F5EFB" stop-opacity=".2"/></linearGradient></defs></svg>