<svg width="477" height="1193" viewBox="0 0 477 1193" fill="none" xmlns="http://www.w3.org/2000/svg">
<g clip-path="url(#clip0_451_1343)">
<g opacity="0.1" clip-path="url(#clip1_451_1343)">
<path d="M266.094 45.2835C267.342 45.3297 268.586 45.0262 269.692 44.3921C272.574 42.741 273.82 39.1689 272.592 36.0831C272.354 35.4839 272.032 34.9219 271.635 34.414C272.366 31.8567 271.831 27.8672 271.224 24.8673C270.953 23.5314 271.428 22.2181 272.493 21.3547C273.544 20.5031 274.905 20.3121 276.136 20.8442C276.237 20.888 276.278 20.912 276.278 20.9111L276.278 20.9108C276.416 21.0094 276.578 21.0689 276.747 21.083C276.916 21.0972 277.086 21.0655 277.239 20.9912C277.391 20.9169 277.521 20.8029 277.614 20.6611C277.708 20.5193 277.761 20.3549 277.768 20.1854C277.872 17.9062 277.228 15.6012 275.955 13.6951C274.639 11.7238 272.756 10.2709 270.511 9.49345C267.097 8.3121 263.302 8.94733 260.458 11.0892C260.308 10.7248 260.126 10.3741 259.916 10.0409C258.184 7.2978 254.74 6.1902 251.728 7.40732C250.546 7.88501 249.538 8.67488 248.802 9.68491C246.076 7.40255 242.124 7.00562 238.963 8.8216C237.141 9.86852 235.77 11.5556 235.102 13.5718C235.022 13.8122 234.953 14.0559 234.895 14.3022L218.06 25.6403C217.902 25.7467 217.78 25.8984 217.71 26.0756C217.639 26.2527 217.625 26.4469 217.667 26.6327C219.021 32.5738 221.069 38.3667 223.737 43.8587C226.405 49.3507 229.691 54.5417 233.524 59.2791C233.644 59.4272 233.806 59.5356 233.988 59.59C234.171 59.6444 234.366 59.6422 234.547 59.5839L253.867 53.3607C254.096 53.4673 254.331 53.5637 254.569 53.6499C256.566 54.3712 258.74 54.3363 260.69 53.5513C264.071 52.1891 266.202 48.8378 266.094 45.2835ZM234.672 16.7275C234.728 17.8599 235.009 18.9699 235.499 19.9925L220.292 29.3444C220.065 28.5139 219.852 27.6798 219.653 26.8422L234.672 16.7275ZM248.923 44.6757C248.823 45.6528 248.891 46.6398 249.124 47.594L231.868 53.9521C231.353 53.2193 230.85 52.4777 230.36 51.7276L248.33 44.4281C248.526 44.5143 248.724 44.5968 248.923 44.6757ZM229.33 50.109C228.868 49.3628 228.418 48.6089 227.98 47.8478L243.259 41.0433C244.138 41.8893 245.104 42.6394 246.141 43.2807L229.33 50.109ZM227.058 46.1926C226.644 45.4283 226.241 44.6576 225.852 43.8799L240.122 36.9484C240.636 37.878 241.233 38.7587 241.907 39.5795L227.058 46.1926ZM225.027 42.1826C224.657 41.3959 224.3 40.6031 223.955 39.8046L238.333 32.2216C238.562 33.2587 238.885 34.2728 239.298 35.2511L225.027 42.1826ZM238.019 30.2538L223.225 38.0564C222.897 37.242 222.583 36.4223 222.282 35.5974L238.042 26.6059C237.904 27.8176 237.897 29.0405 238.019 30.2538ZM238.493 24.1757L221.646 33.7877C221.359 32.9394 221.088 32.0863 220.83 31.2287L236.495 21.5948C237.102 22.3676 237.835 23.0312 238.665 23.557C238.604 23.7622 238.547 23.9684 238.493 24.1757ZM234.587 57.588C234.052 56.9143 233.528 56.2316 233.016 55.5404L249.767 49.3684C250.268 50.3856 250.966 51.2926 251.822 52.0365L234.587 57.588ZM259.985 51.8003C258.466 52.4118 256.77 52.4381 255.21 51.8746C253.649 51.311 252.36 50.2073 251.58 48.7664C250.821 47.3651 250.583 45.7988 250.895 44.2416C250.94 44.0176 250.902 43.7849 250.788 43.5868C250.674 43.3886 250.493 43.2385 250.277 43.1641C246.354 41.8148 243.196 39.0172 241.384 35.2866C239.572 31.5561 239.326 27.3444 240.69 23.4272C240.731 23.3099 240.748 23.1856 240.741 23.0616C240.734 22.9375 240.702 22.8161 240.648 22.7044C240.56 22.5244 240.415 22.3713 240.225 22.2752C238.809 21.5578 237.725 20.4035 237.092 18.9397C236.442 17.4356 236.372 15.74 236.893 14.1649C237.415 12.5899 238.484 11.2731 239.904 10.4577C242.653 8.87787 246.168 9.44014 248.274 11.7921C248.422 11.9573 248.614 12.0826 248.833 12.121C249.038 12.1582 249.25 12.1266 249.435 12.031C249.621 11.9354 249.769 11.7813 249.858 11.5925C250.377 10.4834 251.293 9.61857 252.435 9.15682C254.566 8.296 257.096 9.10909 258.32 11.0482L258.345 11.088C258.81 11.8393 258.989 12.7311 258.892 13.6092C258.774 14.6718 258.673 16.4892 258.936 18.8071C259.206 21.1921 259.916 24.4552 261.662 28.0503C262.396 29.5622 263.314 31.1333 264.46 32.7216C264.764 33.1432 265.353 33.2789 265.782 32.9862C265.886 32.9152 265.976 32.824 266.044 32.718C266.113 32.612 266.159 32.4933 266.181 32.369C266.203 32.2447 266.199 32.1172 266.171 31.9943C266.143 31.8713 266.09 31.7552 266.016 31.653C262.389 26.6383 261.189 21.8299 260.821 18.6788C260.5 15.9262 260.738 13.9215 260.847 13.2281C263.246 10.9614 266.764 10.1938 269.894 11.2769C273.176 12.4131 275.483 15.3909 275.843 18.7769C274.257 18.4345 272.62 18.8224 271.305 19.8888C269.708 21.1835 268.968 23.2348 269.375 25.2419C270.211 29.3703 270.33 32.651 269.702 34.2503C269.566 34.596 269.627 34.9902 269.88 35.2621C270.291 35.7044 270.616 36.2196 270.839 36.7811C271.722 38.9998 270.778 41.4869 268.755 42.7547C265.437 44.8339 254.299 41.0641 250.35 23.7957C250.322 23.6726 250.269 23.5564 250.195 23.454C250.121 23.3516 250.028 23.265 249.92 23.1995C249.812 23.1339 249.692 23.0907 249.567 23.0724C249.442 23.054 249.315 23.0609 249.193 23.0927C248.694 23.222 248.403 23.7485 248.518 24.2508C249.286 27.596 250.306 30.3999 251.445 32.7459C253.567 37.1137 256.101 39.8922 258.181 41.6057C260.77 43.7379 263.082 44.6201 264.184 44.9488C264.447 47.8679 262.752 50.686 259.985 51.8003Z" fill="white"/>
</g>
<path d="M425.016 1165.38C450.378 1144.61 459.487 1103.52 462.861 1088.18C469.811 1056.78 468.123 1031.58 466.989 1010.42C464.086 957.874 466.496 904.959 463.184 852.414C459.521 794.669 459.196 737.096 458.614 621.951C457.807 464.208 449.916 306.391 454.149 148.728C454.78 125.052 455.731 67.5423 432.579 38.0867C414.48 14.9877 342.543 21.2754 342.543 21.2754C219.043 21.5342 177.544 21.6212 177.544 21.6212C97.5438 21.7889 58.9092 12.7075 34.6004 48.8987C21.8347 84.4477 21.9713 149.634 21.9713 149.634C18.7669 343.166 22.9046 529.957 22.9749 628.513C23.2892 1005.97 21.2368 1066.68 21.2368 1066.68C20.6614 1084.62 18.7276 1136.91 42.8226 1161.25C56.9519 1175.48 73.8404 1173.74 95.7019 1172.35C138.54 1169.75 181.459 1173.6 224.301 1172.62C294.794 1170.94 330.007 1170.06 347.312 1171.82C386.213 1175.87 404.753 1182.1 424.948 1165.56L425.016 1165.38Z" fill="url(#paint0_linear_451_1343)"/>
<path d="M6.95856 266.247C6.95856 266.247 7.23105 266.246 7.36709 266.156C7.43013 263.735 7.55991 260.686 7.62032 257.009C8.00738 246.695 8.31619 231.539 8.75239 212.167C9.18877 192.885 9.68448 169.389 10.2413 142.574C10.4175 129.122 10.5919 114.863 10.7647 99.7962C10.7568 96.0297 10.8849 92.1733 10.9449 88.317L10.9333 82.757L11.3296 76.8374C11.9276 69.6619 13.343 62.5743 15.7125 55.6642C20.4517 41.9335 29.2816 30.0774 40.3701 23.418C45.8803 20.0884 51.9379 17.9234 58.2031 17.3722C61.1996 17.0969 64.8097 17.179 68.3516 17.1716C71.8935 17.1641 75.5035 17.1566 79.0456 17.2388C107.858 17.4475 138.237 17.6529 169.638 17.8561C201.039 18.3283 233.527 17.5428 266.494 17.2944C299.46 16.8666 332.971 16.4376 366.482 16.0087L391.614 15.3283C399.856 15.311 408.776 14.2162 415.728 16.0848C430.789 19.8198 444.643 32.8838 451.765 51.0735C455.394 60.0337 457.662 70.0729 458.093 80.2953C458.319 90.8769 458.274 101.728 458.364 112.31C458.477 133.563 458.657 154.637 458.768 175.263C459.282 257.945 459.785 335.157 460.264 401.339C461.291 533.702 461.952 621.854 461.952 621.854C461.952 621.854 462.244 533.61 462.716 401.334C462.85 335.151 463.028 257.938 463.264 175.254C463.289 154.538 463.381 133.553 463.404 112.299C463.382 101.628 463.428 90.8662 463.473 80.1047C463.518 68.8051 461.723 57.3301 457.886 46.9355C450.554 25.9661 435.195 9.94593 417.611 4.69177C408.137 1.9316 400.17 2.93476 391.723 2.41439L366.588 1.83932C333.076 1.55084 299.563 1.26236 266.596 0.972739C233.629 0.862474 201.137 0.213142 169.738 0.817015C138.339 1.15186 107.961 1.48455 79.1495 1.81397C75.5395 1.82154 71.9976 1.82896 68.4559 1.92606C64.914 1.93348 61.4403 1.94076 57.4904 2.30775C49.7954 3.13098 42.3767 5.83688 35.7108 10.2451C22.3791 19.0615 12.2614 33.9693 7.11962 50.5705C4.54862 58.8263 3.0685 67.6179 2.60975 76.2279L2.48596 82.1469L2.49874 88.245C2.64305 92.1009 2.71925 95.9569 2.79526 99.7232C3.03117 114.789 3.26554 129.137 3.49788 142.498C4.16728 169.4 4.8294 192.805 5.27848 212.085C5.79568 231.365 6.16802 246.519 6.5985 256.921C6.74243 260.598 6.81688 263.647 6.89025 266.157L6.95856 266.247Z" fill="url(#paint1_linear_451_1343)"/>
<path d="M116.761 1178.04C151.565 1176.98 180.578 1175.31 200.874 1174.55C221.169 1173.43 232.747 1172.78 232.747 1172.78C232.747 1172.78 221.167 1172.18 200.867 1171.14C180.567 1170.47 151.548 1168.91 116.74 1168C99.4379 1167.41 80.2295 1167.18 60.8154 1166.32C42.8299 1164.66 24.8811 1147.93 18.1551 1123.64C16.3717 1117.72 15.4727 1111.27 15.1186 1104.81L14.972 1099.88L14.9605 1094.41L15.0737 1083.38C15.111 1068.67 15.1477 1053.69 15.2525 1038.72C15.2577 1008.68 15.2617 978.095 15.2657 947.515C15.1335 916.935 15.0015 886.445 14.8703 856.313C14.603 826.271 14.3366 796.678 14.1402 767.981C13.5433 710.678 12.7502 657.232 11.7687 611.408C10.9234 565.585 9.61732 527.384 9.01641 500.662C8.79817 494.026 7.4731 284.271 7.32616 279.16C6.84937 279.161 6.98633 279.519 6.50935 279.431C6.38383 284.543 6.6187 494.12 6.42808 500.667C5.93918 527.392 4.79325 565.597 4.14004 611.424C3.35061 657.252 2.78147 710.701 2.42477 768.006C2.28039 796.614 2.20617 826.208 2.06498 856.34C2.05983 886.382 2.05581 916.962 2.05178 947.543C2.18399 978.123 2.31599 1008.61 2.44725 1038.74C2.54694 1053.81 2.64626 1068.7 2.81331 1083.4L2.83642 1094.43C2.91205 1098.02 2.98809 1101.79 3.26919 1105.91C3.83082 1113.89 5.07358 1121.87 7.40464 1129.13C11.8628 1143.83 19.518 1156.46 29.0037 1165.05C38.4897 1173.72 49.3981 1178.63 60.4337 1179.24C80.868 1179.37 99.3927 1178.35 116.897 1177.86L116.761 1178.04Z" fill="url(#paint2_linear_451_1343)"/>
<path d="M449.048 1159.95C455.775 1151.86 461.203 1141.81 464.448 1130.5C467.831 1119.38 468.893 1106.46 468.598 1095.43C467.598 1008.18 466.461 921.011 464.894 855.549C464.144 822.818 463.542 795.557 463.094 776.546C462.509 757.446 462.213 746.596 462.213 746.596C462.213 746.596 461.964 757.537 461.459 776.55C461.09 795.652 460.602 822.915 459.99 855.559C458.628 920.938 457.926 1008.2 457.291 1095.45C457.314 1106.22 456.107 1115.28 453.129 1124.34C450.15 1133.13 445.739 1141.03 440.371 1147.32C435.004 1153.61 428.679 1158.38 421.873 1160.99C414.999 1163.7 408.529 1163.98 400.356 1163.91C369.296 1164.06 340.35 1165.11 315.491 1166.33C290.632 1167.46 269.93 1169.2 255.492 1170.58C248.274 1171.13 242.553 1171.68 238.672 1172.23C234.79 1172.69 232.747 1172.96 232.747 1172.96C232.747 1172.96 234.791 1173.22 238.675 1173.66C242.558 1174.19 248.281 1174.63 255.502 1175.24C270.013 1176.56 290.723 1178.22 315.518 1179.24C340.382 1180.36 369.332 1181.19 400.392 1181.31C407.68 1181.47 417.285 1181.54 425.723 1177.84C434.298 1174.42 442.254 1168.21 448.981 1160.13L449.048 1159.95Z" fill="url(#paint3_linear_451_1343)"/>
<path d="M475.321 630.614C475.1 590.17 474.879 549.726 474.663 511.792C474.447 473.859 473.76 438.437 473.424 408.127C473.088 377.816 472.354 352.529 472.044 334.773C471.598 317.107 471.373 306.974 471.373 306.974C471.373 306.974 471.19 317.108 470.818 334.775C470.583 352.443 470.023 377.733 469.746 408.134C469.537 438.446 468.998 473.87 468.941 511.804C468.885 549.738 468.833 590.183 468.782 630.628C469.003 671.072 469.224 711.517 469.439 749.45C469.655 787.384 470.342 822.805 470.678 853.116C471.014 883.426 471.749 908.714 472.058 926.47C472.504 944.135 472.729 954.268 472.729 954.268C472.729 954.268 472.913 944.134 473.352 926.467C473.588 908.8 474.216 883.509 474.425 853.108C474.634 822.796 475.172 787.372 475.229 749.438C475.286 711.504 475.337 671.059 475.389 630.614L475.321 630.614Z" fill="url(#paint4_linear_451_1343)"/>
<path d="M340.261 1187.89C340.261 1187.89 336.72 1188.17 330.455 1188.72C324.189 1189.09 315.336 1189.91 304.643 1190.38C293.95 1190.77 281.487 1191.51 268.138 1191.81C254.788 1192.19 240.485 1192.31 226.249 1192.43C212.014 1192.46 197.709 1192.31 184.359 1191.98C171.008 1191.74 158.542 1191.05 147.847 1190.71C137.153 1190.38 128.228 1189.5 122.029 1189.15C115.761 1188.63 112.219 1188.37 112.219 1188.37C112.219 1188.37 115.76 1188.09 122.025 1187.54C128.291 1187.17 137.144 1186.25 147.837 1185.87C158.53 1185.49 170.993 1184.66 184.343 1184.45C197.692 1184.06 211.996 1183.94 226.231 1183.82C240.467 1183.88 254.771 1183.94 268.122 1184.27C281.473 1184.51 293.939 1185.21 304.633 1185.54C315.328 1185.88 324.252 1186.76 330.451 1187.1C336.719 1187.63 340.261 1187.89 340.261 1187.89Z" fill="url(#paint5_linear_451_1343)"/>
<g opacity="0.1" clip-path="url(#clip2_451_1343)">
<path d="M205.26 1157.41C207.022 1146.67 226.199 1136.84 232.689 1123.96C238.11 1113.22 252.275 1106.11 255.279 1092.96C258.578 1078.52 229.653 1079.08 222.83 1082.07C222.83 1082.07 208.943 1072.88 194.845 1075.48C194.845 1075.48 171.582 1110.13 172.427 1137.97C172.542 1141.85 190.202 1145.78 190.202 1145.78C185.766 1168.73 203.498 1168.15 205.26 1157.41Z" fill="url(#paint6_linear_451_1343)"/>
<path d="M206.184 1154.77C207.946 1144.03 227.123 1134.19 233.613 1121.32C239.034 1110.57 253.199 1103.46 256.204 1090.32C259.502 1075.87 230.577 1076.43 223.754 1079.42C223.754 1079.42 209.867 1070.24 195.769 1072.84C195.769 1072.84 172.507 1107.49 173.351 1135.33C173.466 1139.21 191.126 1143.13 191.126 1143.13C186.69 1166.09 204.422 1165.51 206.184 1154.77Z" stroke="white" stroke-width="3" stroke-miterlimit="10" stroke-linecap="round"/>
<path d="M212.775 1092.31C212.775 1092.31 212.877 1092.24 213.064 1092.1C213.265 1091.97 213.483 1091.77 214.002 1091.52C214.238 1091.4 214.513 1091.26 214.794 1091.14C215.066 1091.05 215.359 1090.94 215.675 1090.84C215.989 1090.71 216.328 1090.65 216.676 1090.57C217.028 1090.49 217.398 1090.39 217.787 1090.34C218.178 1090.28 218.579 1090.22 218.994 1090.16C219.409 1090.13 219.837 1090.1 220.284 1090.06C220.726 1090.01 221.177 1090.03 221.64 1090.02C222.097 1090.01 222.576 1090 223.052 1090.03C223.533 1090.05 224.014 1090.07 224.501 1090.09C224.989 1090.14 225.483 1090.19 225.979 1090.23C226.973 1090.32 227.971 1090.49 228.975 1090.64C229.967 1090.84 230.968 1090.98 231.929 1091.23C232.897 1091.45 233.845 1091.66 234.75 1091.93C235.662 1092.18 236.535 1092.43 237.352 1092.71C238.173 1092.97 238.949 1093.21 239.651 1093.49C240.357 1093.75 241.003 1093.99 241.578 1094.2C242.141 1094.43 242.636 1094.63 243.04 1094.81C243.854 1095.14 244.314 1095.33 244.314 1095.33C244.627 1095.45 244.772 1095.82 244.647 1096.13C244.525 1096.43 244.178 1096.58 243.87 1096.47L243.849 1096.46C243.849 1096.46 243.391 1096.29 242.582 1095.99C242.177 1095.84 241.691 1095.65 241.123 1095.44C240.555 1095.25 239.908 1095.04 239.208 1094.8C238.511 1094.56 237.742 1094.34 236.934 1094.11C236.128 1093.86 235.261 1093.64 234.367 1093.43C233.473 1093.19 232.546 1093.01 231.596 1092.82C230.656 1092.61 229.679 1092.5 228.715 1092.33C227.745 1092.23 226.781 1092.08 225.822 1092.04C225.343 1092.01 224.867 1091.97 224.405 1091.94C223.936 1091.93 223.48 1091.93 223.025 1091.93C222.574 1091.91 222.13 1091.94 221.697 1091.96C221.262 1091.98 220.836 1091.98 220.431 1092.03C220.021 1092.08 219.627 1092.12 219.24 1092.16C218.867 1092.23 218.506 1092.29 218.158 1092.36C217.808 1092.4 217.492 1092.51 217.185 1092.59C216.883 1092.68 216.584 1092.73 216.338 1092.84C216.08 1092.94 215.847 1093.03 215.624 1093.11C215.428 1093.21 215.281 1093.29 215.123 1093.37C214.839 1093.47 214.546 1093.73 214.362 1093.86C214.175 1094 214.077 1094.08 214.077 1094.08L214.074 1094.09C213.583 1094.45 212.898 1094.35 212.533 1093.87C212.167 1093.38 212.267 1092.7 212.751 1092.33C212.754 1092.33 212.772 1092.32 212.782 1092.31L212.775 1092.31Z" fill="white"/>
<path d="M210.001 1100.36C210.001 1100.36 210.079 1100.4 210.233 1100.49C210.382 1100.57 210.602 1100.7 210.88 1100.86C211.451 1101.17 212.273 1101.62 213.285 1102.11C214.296 1102.61 215.493 1103.15 216.789 1103.7C217.44 1103.96 218.113 1104.23 218.803 1104.49C219.501 1104.74 220.202 1105.01 220.916 1105.23C221.627 1105.46 222.34 1105.7 223.052 1105.88C223.764 1106.08 224.464 1106.27 225.149 1106.42C225.829 1106.58 226.491 1106.72 227.13 1106.82C227.76 1106.93 228.357 1107.06 228.913 1107.1C229.472 1107.17 229.978 1107.23 230.43 1107.29C230.878 1107.31 231.273 1107.33 231.599 1107.35C232.246 1107.39 232.618 1107.41 232.618 1107.41L232.678 1107.41C233.127 1107.44 233.473 1107.82 233.448 1108.27C233.425 1108.71 233.05 1109.05 232.611 1109.05C232.611 1109.05 232.22 1109.04 231.538 1109.01C231.194 1109 230.78 1108.99 230.306 1108.97C229.833 1108.93 229.302 1108.87 228.717 1108.82C228.135 1108.78 227.51 1108.66 226.846 1108.57C226.178 1108.48 225.491 1108.34 224.777 1108.19C224.057 1108.06 223.329 1107.88 222.582 1107.69C221.838 1107.51 221.097 1107.29 220.35 1107.07C219.602 1106.86 218.875 1106.59 218.143 1106.36C217.425 1106.11 216.719 1105.85 216.043 1105.59C214.688 1105.05 213.438 1104.53 212.388 1104.03C211.334 1103.55 210.463 1103.11 209.855 1102.79C209.548 1102.63 209.307 1102.5 209.144 1102.41C208.981 1102.32 208.898 1102.27 208.898 1102.27C208.366 1101.98 208.182 1101.31 208.476 1100.78C208.77 1100.24 209.439 1100.06 209.971 1100.35C209.971 1100.35 209.985 1100.36 209.992 1100.36L210.013 1100.37L210.001 1100.36Z" fill="white"/>
<path d="M206.6 1108.18C206.6 1108.18 206.631 1108.25 206.692 1108.36C206.742 1108.47 206.843 1108.64 206.967 1108.86C207.231 1109.3 207.641 1109.93 208.204 1110.64C208.493 1110.99 208.797 1111.38 209.152 1111.76C209.505 1112.15 209.883 1112.55 210.296 1112.95C210.695 1113.36 211.152 1113.73 211.606 1114.14C212.065 1114.53 212.567 1114.89 213.044 1115.28C213.55 1115.62 214.052 1115.99 214.565 1116.31C215.09 1116.63 215.601 1116.94 216.094 1117.23C216.613 1117.5 217.109 1117.77 217.582 1118.01C218.054 1118.25 218.523 1118.44 218.951 1118.63C219.38 1118.82 219.766 1119.01 220.125 1119.13C220.484 1119.26 220.79 1119.38 221.05 1119.48C221.565 1119.66 221.853 1119.77 221.853 1119.77L221.887 1119.79C222.17 1119.88 222.307 1120.2 222.203 1120.48C222.109 1120.75 221.811 1120.89 221.54 1120.8C221.54 1120.8 221.231 1120.71 220.695 1120.54C220.423 1120.45 220.101 1120.35 219.723 1120.24C219.343 1120.13 218.936 1119.96 218.483 1119.8C218.035 1119.62 217.535 1119.45 217.025 1119.22C216.517 1118.99 215.982 1118.75 215.435 1118.5C214.898 1118.22 214.343 1117.92 213.774 1117.62C213.219 1117.31 212.669 1116.95 212.112 1116.62C211.578 1116.24 211.028 1115.88 210.521 1115.5C210.018 1115.09 209.505 1114.72 209.048 1114.3C208.576 1113.9 208.147 1113.49 207.743 1113.09C207.34 1112.7 206.985 1112.29 206.648 1111.93C205.995 1111.18 205.496 1110.5 205.156 1110.01C204.988 1109.76 204.862 1109.57 204.772 1109.4C204.69 1109.26 204.648 1109.18 204.648 1109.18C204.343 1108.66 204.524 1107.99 205.048 1107.68C205.573 1107.38 206.246 1107.56 206.548 1108.09C206.557 1108.11 206.568 1108.12 206.577 1108.14L206.6 1108.18Z" fill="white"/>
<path d="M198.698 1125.14C198.698 1125.14 198.773 1125.37 198.913 1125.66C198.982 1125.82 199.051 1126 199.182 1126.22C199.297 1126.45 199.434 1126.69 199.578 1126.97C199.748 1127.24 199.926 1127.52 200.121 1127.83C200.216 1127.98 200.315 1128.14 200.422 1128.3C200.54 1128.45 200.655 1128.61 200.778 1128.77C201.016 1129.08 201.266 1129.41 201.52 1129.75C201.788 1130.07 202.091 1130.37 202.376 1130.69C202.67 1131 202.943 1131.33 203.251 1131.62C203.563 1131.9 203.876 1132.18 204.178 1132.45C204.479 1132.72 204.766 1132.98 205.045 1133.23C205.326 1133.46 205.624 1133.65 205.88 1133.85C206.931 1134.61 207.626 1135.13 207.626 1135.13L207.688 1135.17C208.04 1135.43 208.117 1135.92 207.864 1136.26C207.614 1136.6 207.144 1136.69 206.798 1136.46C206.798 1136.46 206.037 1135.95 204.899 1135.2C204.617 1135 204.296 1134.81 203.985 1134.57C203.683 1134.33 203.359 1134.06 203.027 1133.79C202.696 1133.52 202.353 1133.24 202.003 1132.95C201.665 1132.66 201.351 1132.31 201.02 1132C200.701 1131.67 200.361 1131.36 200.054 1131.02C199.759 1130.67 199.477 1130.32 199.197 1129.99C199.061 1129.82 198.917 1129.66 198.788 1129.5C198.67 1129.32 198.55 1129.16 198.437 1128.99C198.21 1128.67 197.995 1128.35 197.793 1128.07C197.613 1127.76 197.448 1127.48 197.304 1127.23C197.154 1126.99 197.04 1126.74 196.941 1126.54C196.737 1126.12 196.663 1125.94 196.663 1125.94L196.639 1125.87C196.427 1125.3 196.716 1124.68 197.286 1124.46C197.855 1124.25 198.483 1124.54 198.694 1125.11C198.694 1125.11 198.703 1125.13 198.707 1125.14L198.698 1125.14Z" fill="white"/>
<path d="M194.054 1136.53C194.054 1136.53 194.058 1136.58 194.066 1136.69C194.071 1136.79 194.083 1136.93 194.115 1137.13C194.162 1137.52 194.258 1138.09 194.424 1138.77C194.583 1139.45 194.819 1140.23 195.134 1141.04C195.295 1141.44 195.485 1141.85 195.674 1142.27C195.899 1142.66 196.082 1143.09 196.352 1143.47C196.603 1143.86 196.854 1144.25 197.143 1144.6C197.281 1144.78 197.422 1144.95 197.563 1145.13C197.716 1145.29 197.871 1145.44 198.019 1145.6C198.174 1145.75 198.31 1145.91 198.466 1146.05C198.628 1146.18 198.786 1146.31 198.934 1146.43C199.085 1146.56 199.233 1146.69 199.377 1146.81C199.533 1146.91 199.687 1147.01 199.831 1147.1C200.124 1147.28 200.383 1147.48 200.638 1147.61C200.897 1147.73 201.115 1147.84 201.301 1147.93C201.674 1148.1 201.878 1148.21 201.878 1148.21L201.954 1148.23C202.268 1148.4 202.399 1148.78 202.242 1149.09C202.097 1149.4 201.734 1149.53 201.428 1149.41C201.428 1149.41 201.191 1149.31 200.771 1149.14C200.561 1149.05 200.304 1148.94 200.012 1148.83C199.727 1148.69 199.42 1148.5 199.083 1148.31C198.915 1148.22 198.732 1148.12 198.553 1148.01C198.379 1147.89 198.207 1147.76 198.029 1147.63C197.85 1147.5 197.658 1147.36 197.475 1147.22C197.285 1147.07 197.121 1146.9 196.939 1146.74C196.756 1146.57 196.576 1146.4 196.389 1146.23C196.213 1146.04 196.047 1145.85 195.874 1145.66C195.517 1145.29 195.208 1144.86 194.907 1144.44C194.577 1144.03 194.346 1143.56 194.063 1143.13C193.817 1142.68 193.579 1142.23 193.377 1141.79C192.974 1140.9 192.66 1140.05 192.435 1139.3C192.207 1138.55 192.066 1137.92 191.978 1137.46C191.933 1137.23 191.905 1137.05 191.884 1136.91C191.865 1136.78 191.857 1136.72 191.857 1136.72C191.773 1136.12 192.19 1135.57 192.793 1135.48C193.395 1135.4 193.947 1135.81 194.03 1136.42C194.033 1136.43 194.032 1136.46 194.041 1136.48L194.045 1136.51L194.054 1136.53Z" fill="white"/>
<path d="M218.753 1083.83C218.753 1083.83 218.857 1083.79 219.066 1083.73C219.294 1083.65 219.575 1083.58 219.951 1083.48C220.325 1083.38 220.782 1083.27 221.303 1083.18C221.823 1083.06 222.412 1082.97 223.058 1082.87C223.705 1082.8 224.4 1082.69 225.138 1082.64C225.877 1082.57 226.657 1082.53 227.46 1082.49C228.266 1082.45 229.093 1082.47 229.942 1082.46C230.781 1082.5 231.646 1082.51 232.491 1082.57C233.341 1082.64 234.194 1082.68 235.032 1082.79C235.86 1082.9 236.685 1082.98 237.476 1083.11C238.265 1083.25 239.026 1083.37 239.744 1083.49C240.459 1083.64 241.137 1083.79 241.764 1083.92C243.018 1084.16 244.031 1084.48 244.752 1084.65C245.469 1084.84 245.881 1084.95 245.881 1084.95C246.192 1085.03 246.377 1085.35 246.299 1085.66C246.216 1085.96 245.913 1086.14 245.608 1086.08L245.581 1086.07C245.581 1086.07 245.17 1085.99 244.458 1085.83C243.743 1085.68 242.736 1085.41 241.495 1085.22C240.881 1085.11 240.21 1085 239.509 1084.87C238.798 1084.78 238.05 1084.68 237.279 1084.58C236.506 1084.49 235.702 1084.44 234.884 1084.37C234.074 1084.29 233.239 1084.29 232.409 1084.24C231.582 1084.22 230.753 1084.24 229.942 1084.23C229.129 1084.28 228.327 1084.29 227.56 1084.36C226.787 1084.42 226.046 1084.48 225.344 1084.58C224.642 1084.66 223.988 1084.78 223.381 1084.88C222.78 1085 222.226 1085.1 221.75 1085.22C221.27 1085.33 220.857 1085.45 220.52 1085.55C220.19 1085.65 219.921 1085.74 219.769 1085.79C219.6 1085.86 219.511 1085.89 219.511 1085.89L219.467 1085.9C218.898 1086.11 218.263 1085.82 218.059 1085.26C217.847 1084.69 218.139 1084.05 218.706 1083.85C218.715 1083.84 218.732 1083.84 218.741 1083.84L218.753 1083.83Z" fill="white"/>
<path d="M223.747 1079.42C223.747 1079.42 213.101 1089.56 201.491 1116.2" stroke="white" stroke-width="3" stroke-miterlimit="10" stroke-linecap="round"/>
<path d="M191.126 1143.13C191.126 1143.13 193.43 1133.33 197.854 1123.88" stroke="white" stroke-width="3" stroke-miterlimit="10" stroke-linecap="round"/>
<path d="M217.779 1076.79C217.779 1076.79 217.699 1076.87 217.547 1076.99C217.418 1077.12 217.237 1077.3 217.003 1077.53C216.766 1077.74 216.483 1078.11 216.15 1078.46C215.985 1078.65 215.806 1078.85 215.625 1079.05C215.453 1079.28 215.272 1079.51 215.079 1079.75C214.704 1080.25 214.278 1080.76 213.858 1081.34C213.452 1081.93 213.024 1082.55 212.582 1083.2C212.36 1083.52 212.138 1083.85 211.907 1084.18C211.694 1084.52 211.481 1084.86 211.27 1085.22C210.839 1085.92 210.403 1086.64 209.967 1087.36C209.513 1088.06 209.134 1088.81 208.733 1089.53C208.334 1090.25 207.944 1090.97 207.571 1091.66C207.198 1092.35 206.812 1093.01 206.506 1093.67C206.187 1094.31 205.887 1094.93 205.61 1095.5C204.5 1097.77 203.764 1099.28 203.764 1099.28L203.754 1099.3C203.597 1099.62 203.209 1099.76 202.885 1099.6C202.575 1099.44 202.441 1099.07 202.582 1098.76C202.582 1098.76 203.278 1097.21 204.322 1094.89C204.58 1094.3 204.869 1093.68 205.163 1093.01C205.446 1092.34 205.821 1091.66 206.171 1090.95C206.528 1090.24 206.902 1089.5 207.278 1088.75C207.663 1088.01 208.024 1087.24 208.46 1086.5C208.882 1085.76 209.305 1085.02 209.715 1084.29C209.922 1083.92 210.133 1083.56 210.334 1083.2C210.557 1082.85 210.777 1082.51 210.99 1082.17C211.428 1081.49 211.842 1080.84 212.244 1080.22C212.653 1079.6 213.086 1079.05 213.464 1078.52C213.655 1078.26 213.837 1078.01 214.014 1077.77C214.202 1077.54 214.388 1077.32 214.553 1077.11C214.905 1076.7 215.163 1076.34 215.468 1076.05C215.749 1075.75 215.977 1075.52 216.125 1075.36C216.273 1075.23 216.345 1075.15 216.345 1075.15C216.791 1074.74 217.486 1074.77 217.896 1075.22C218.306 1075.66 218.28 1076.36 217.835 1076.77C217.832 1076.77 217.82 1076.78 217.811 1076.79L217.788 1076.81L217.779 1076.79Z" fill="white"/>
</g>
</g>
<defs>
<linearGradient id="paint0_linear_451_1343" x1="465.895" y1="19.9797" x2="455.794" y2="1180.97" gradientUnits="userSpaceOnUse">
<stop stop-color="white" stop-opacity="0.05"/>
<stop offset="0.9966" stop-color="white" stop-opacity="0"/>
</linearGradient>
<linearGradient id="paint1_linear_451_1343" x1="463.307" y1="0.00512695" x2="-72.4705" y2="548.487" gradientUnits="userSpaceOnUse">
<stop stop-color="#FC466B" stop-opacity="0.2"/>
<stop offset="1" stop-color="#3F5EFB" stop-opacity="0.2"/>
</linearGradient>
<linearGradient id="paint2_linear_451_1343" x1="230.873" y1="278.691" x2="-255.391" y2="450.848" gradientUnits="userSpaceOnUse">
<stop stop-color="#FC466B" stop-opacity="0.2"/>
<stop offset="1" stop-color="#3F5EFB" stop-opacity="0.2"/>
</linearGradient>
<linearGradient id="paint3_linear_451_1343" x1="467.907" y1="746.584" x2="108.555" y2="1016.13" gradientUnits="userSpaceOnUse">
<stop stop-color="#FC466B" stop-opacity="0.2"/>
<stop offset="1" stop-color="#3F5EFB" stop-opacity="0.2"/>
</linearGradient>
<linearGradient id="paint4_linear_451_1343" x1="474.71" y1="306.967" x2="459.022" y2="307.22" gradientUnits="userSpaceOnUse">
<stop stop-color="#FC466B" stop-opacity="0.2"/>
<stop offset="1" stop-color="#3F5EFB" stop-opacity="0.2"/>
</linearGradient>
<linearGradient id="paint5_linear_451_1343" x1="340.252" y1="1183.58" x2="339.876" y2="1198.44" gradientUnits="userSpaceOnUse">
<stop stop-color="#FC466B" stop-opacity="0.2"/>
<stop offset="1" stop-color="#3F5EFB" stop-opacity="0.2"/>
</linearGradient>
<linearGradient id="paint6_linear_451_1343" x1="257.946" y1="1085.76" x2="226.048" y2="1175.36" gradientUnits="userSpaceOnUse">
<stop stop-color="white" stop-opacity="0.05"/>
<stop offset="0.9966" stop-color="white" stop-opacity="0"/>
</linearGradient>
<clipPath id="clip0_451_1343">
<rect width="1192" height="474" fill="white" transform="translate(473.999) rotate(89.8799)"/>
</clipPath>
<clipPath id="clip1_451_1343">
<rect width="60.2483" height="60.2483" fill="white" transform="translate(264.769 -9.56152) rotate(64.0932)"/>
</clipPath>
<clipPath id="clip2_451_1343">
<rect width="98.6128" height="70" fill="white" transform="translate(260.267 1082.44) rotate(109.262)"/>
</clipPath>
</defs>
</svg>
