<svg width="746" height="1334" viewBox="0 0 746 1334" fill="none" xmlns="http://www.w3.org/2000/svg">
<path d="M729.347 1189.08C716.382 1260.58 690.675 1286.46 681.077 1296.04C661.432 1315.79 645.659 1311.19 632.413 1308.12C599.522 1300.26 566.406 1307.35 533.514 1298.34C497.367 1288.38 461.333 1287.8 389.264 1286.84C290.533 1285.5 191.747 1264.22 93.0723 1277.07C78.2543 1278.98 42.261 1282 23.7946 1217.01C9.31344 1166.21 13.1545 963.722 13.1545 963.722C13.1545 616.15 13.1545 499.355 13.1545 499.355C13.1545 274.207 7.4199 165.53 30.0398 96.9031C52.2727 60.7663 93.0723 60.7663 93.0723 60.7663C214.198 50.6065 331.114 61.1497 392.8 60.7663C629.045 59.4245 667.044 53.2904 667.044 53.2904C678.27 51.5651 710.993 45.8143 726.26 113.482C735.185 153.163 734.118 200.703 733.276 262.237C731.705 382.813 734.174 503.58 733.613 624.156C732.659 822.559 732.154 921.665 733.276 970.355C735.858 1079.81 739.787 1131.95 729.459 1188.89L729.347 1189.08Z" fill="url(#paint0_linear_554_6013)"/>
<path d="M166.04 17.8277C166.04 17.8277 166.04 18.5946 165.983 18.9779C164.468 19.1696 162.56 19.5529 160.258 19.7446C153.803 20.8947 144.318 21.8532 132.194 23.1951C120.126 24.5369 105.421 26.0706 88.638 27.7959C80.2187 28.371 71.2943 28.946 61.8647 29.5211C59.5072 29.5211 57.0937 29.9044 54.6802 30.0961H51.2002L47.4957 31.2464C43.0054 32.9716 38.5712 36.9971 34.2493 43.7064C25.6616 57.125 18.2526 82.0453 14.0991 113.291C12.0224 128.819 10.6753 145.879 10.3385 163.515C10.1701 171.95 10.2262 182.11 10.2262 192.078C10.2262 202.046 10.2262 212.206 10.2824 222.174C10.4508 303.26 10.6191 388.756 10.7875 477.127C11.1243 565.498 10.6753 656.936 10.563 749.716C10.3385 842.496 10.114 936.81 9.88947 1031.12L9.49657 1101.86C9.49657 1125.05 8.82303 1150.17 10.0017 1169.72C12.3591 1212.08 20.5539 1251 31.9481 1270.93C37.5609 1281.09 43.8473 1287.42 50.246 1288.57C56.8692 1289.14 63.6608 1288.95 70.284 1289.14C83.5865 1289.34 96.7767 1289.72 109.686 1289.91C161.437 1290.87 209.764 1291.83 251.187 1292.79C334.033 1294.89 389.207 1296.24 389.207 1296.24C389.207 1296.24 333.977 1297.58 251.187 1299.69C209.764 1300.45 161.437 1301.41 109.686 1302.56C96.7206 1302.75 83.5865 1303.14 70.284 1303.33C63.6046 1303.33 56.8692 1303.52 50.1338 1303.71C43.0615 1303.9 35.8771 1298.92 29.3661 1288.19C16.232 1267.67 6.18498 1224.54 2.87338 1175.09C1.13339 1148.44 1.75081 1126.01 1.41404 1102.24L1.02114 1031.51C0.796621 937.193 0.572107 842.88 0.347592 750.1C0.235334 657.32 -0.213695 565.881 0.123077 477.51C0.291463 389.139 0.459849 303.644 0.628235 222.557C0.628235 212.397 0.628235 202.429 0.684364 192.461C0.684364 182.493 0.684364 172.717 0.908879 161.598C1.41404 139.937 3.0979 119.042 5.8482 100.256C11.3488 62.6841 20.6662 34.1218 31.05 19.553C36.2138 12.2687 41.7144 8.05127 47.1028 6.70941L50.8073 6.3261H54.624C57.0376 6.70948 59.4511 6.9012 61.8085 7.0929C71.2381 7.66798 80.2187 8.24294 88.5819 8.81802C105.421 10.5433 120.07 12.2687 132.138 13.4188C144.205 14.7607 153.691 15.7192 160.202 16.8693C162.503 17.2527 164.412 17.4443 165.983 17.636L166.04 17.8277Z" fill="url(#paint1_linear_554_6013)"/>
<path d="M736.868 321.471C736.251 419.427 735.241 501.089 734.792 558.213C734.118 615.338 733.725 647.926 733.725 647.926C733.725 647.926 733.332 615.338 732.659 558.213C732.21 501.089 731.199 419.427 730.582 321.471C730.189 272.781 730.021 218.723 729.459 164.09C728.393 113.483 717.897 63.0674 702.686 44.2814C698.982 39.2973 694.94 36.8053 690.899 35.8468L687.812 35.4633H684.388L677.484 35.8468C668.279 36.0385 658.906 36.2302 649.532 36.6136C630.729 36.8053 611.589 36.997 592.449 37.1887C573.309 36.997 554.226 36.8053 535.366 36.6136C516.563 36.0385 498.041 35.4634 480.08 35.08C444.213 33.7381 410.761 31.8211 382.079 29.3291C353.397 27.2205 329.486 23.7701 312.76 22.2365C308.606 21.6614 177.321 19.1694 174.122 18.786C174.122 17.4442 174.347 17.8275 174.29 16.4856C177.49 16.1023 308.663 15.5271 312.76 14.9521C329.486 13.4185 353.397 9.9681 382.079 7.85947C410.761 5.36744 444.213 3.45044 480.08 2.10858C497.985 1.5335 516.507 1.15008 535.366 0.574995C554.17 0.383301 573.309 0.19163 592.449 -6.42225e-05C611.589 0.19163 630.673 0.383301 649.532 0.574995C658.962 0.766689 668.279 0.958401 677.484 1.34179H684.388C686.633 1.53348 688.991 1.72528 691.573 2.49205C696.568 4.02561 701.563 7.47607 706.11 13.9937C715.315 26.4538 723.229 47.9235 728.617 74.569C734.062 101.214 737.149 131.886 737.542 162.94C737.654 220.448 737.037 272.589 736.756 321.854L736.868 321.471Z" fill="url(#paint2_linear_554_6013)"/>
<path d="M725.979 1256.75C720.928 1275.73 714.641 1291.06 707.569 1300.26C700.609 1309.85 692.527 1312.91 685.623 1312.15C631.01 1309.85 576.453 1307.16 535.479 1303.14C514.992 1301.22 497.928 1299.69 486.029 1298.54C474.074 1297 467.282 1296.24 467.282 1296.24C467.282 1296.24 474.13 1295.47 486.029 1293.94C497.985 1292.79 515.048 1291.25 535.479 1289.34C576.396 1285.12 631.01 1282.63 685.623 1280.33C692.358 1280.33 698.027 1276.88 703.696 1268.44C709.197 1260.01 714.136 1247.55 718.065 1232.4C721.994 1217.26 724.969 1199.43 726.597 1180.26C728.281 1160.9 728.449 1142.69 728.393 1119.69C728.449 1032.27 729.067 950.804 729.796 880.835C730.47 810.867 731.536 752.592 732.378 711.953C732.715 691.633 733.052 675.531 733.388 664.604C733.669 653.678 733.837 647.927 733.837 647.927C733.837 647.927 734.006 653.678 734.287 664.604C734.623 675.531 734.904 691.633 735.297 711.953C736.139 752.783 737.205 811.058 737.879 880.835C738.608 950.804 739.17 1032.27 739.282 1119.69C739.394 1140.2 739.45 1167.23 737.149 1191C735.016 1215.15 731.143 1237.58 726.092 1256.56L725.979 1256.75Z" fill="url(#paint3_linear_554_6013)"/>
<path d="M394.708 1333.81C369.394 1333.42 344.08 1333.04 320.337 1332.66C296.595 1332.27 274.424 1330.55 255.452 1329.78C236.481 1329.02 220.653 1327.1 209.539 1326.33C198.482 1325.18 192.139 1324.61 192.139 1324.61C192.139 1324.61 198.482 1324.03 209.539 1322.88C220.596 1322.11 236.425 1320.39 255.452 1319.43C274.424 1318.66 296.595 1316.94 320.337 1316.56C344.08 1316.17 369.394 1315.79 394.708 1315.41C420.022 1315.79 445.336 1316.17 469.078 1316.56C492.821 1316.94 514.991 1318.66 533.963 1319.43C552.934 1320.2 568.763 1322.11 579.876 1322.88C590.934 1324.03 597.276 1324.61 597.276 1324.61C597.276 1324.61 590.934 1325.18 579.876 1326.52C568.819 1327.29 552.991 1329.21 533.963 1329.97C514.991 1330.74 492.821 1332.47 469.078 1332.85C445.336 1333.23 420.022 1333.62 394.708 1334V1333.81Z" fill="url(#paint4_linear_554_6013)"/>
<path d="M743.323 950.42C743.323 950.42 743.492 940.452 743.828 922.816C744.053 905.18 744.558 880.26 744.839 850.164C745.063 820.068 745.512 784.988 745.681 747.416C745.905 709.843 745.961 669.588 746.017 629.524C746.017 589.459 745.905 549.204 745.681 511.632C745.512 474.06 745.063 438.98 744.839 408.884C744.614 378.788 744.053 353.676 743.828 336.231C743.492 318.596 743.323 308.628 743.323 308.628C743.323 308.628 743.155 318.596 742.818 336.231C742.593 353.867 742.032 378.788 741.808 408.884C741.583 438.98 741.078 474.06 740.966 511.632C740.741 549.204 740.685 589.459 740.629 629.524C740.685 669.588 740.741 709.843 740.966 747.416C741.134 784.988 741.583 820.068 741.808 850.164C742.032 880.26 742.593 905.372 742.818 922.816C743.155 940.452 743.323 950.42 743.323 950.42Z" fill="url(#paint5_linear_554_6013)"/>
<defs>
<linearGradient id="paint0_linear_554_6013" x1="12.5054" y1="1310.88" x2="739.227" y2="1309.14" gradientUnits="userSpaceOnUse">
<stop stop-color="white" stop-opacity="0.05"/>
<stop offset="0.9966" stop-color="white" stop-opacity="0"/>
</linearGradient>
<linearGradient id="paint1_linear_554_6013" x1="0" y1="1303.72" x2="641.7" y2="1163.73" gradientUnits="userSpaceOnUse">
<stop stop-color="#FC466B" stop-opacity="0.2"/>
<stop offset="1" stop-color="#3F5EFB" stop-opacity="0.2"/>
</linearGradient>
<linearGradient id="paint2_linear_554_6013" x1="174.122" y1="647.926" x2="869.292" y2="208.321" gradientUnits="userSpaceOnUse">
<stop stop-color="#FC466B" stop-opacity="0.2"/>
<stop offset="1" stop-color="#3F5EFB" stop-opacity="0.2"/>
</linearGradient>
<linearGradient id="paint3_linear_554_6013" x1="467.282" y1="1312.26" x2="898.881" y2="1183.74" gradientUnits="userSpaceOnUse">
<stop stop-color="#FC466B" stop-opacity="0.2"/>
<stop offset="1" stop-color="#3F5EFB" stop-opacity="0.2"/>
</linearGradient>
<linearGradient id="paint4_linear_554_6013" x1="192.139" y1="1334" x2="194.915" y2="1290.01" gradientUnits="userSpaceOnUse">
<stop stop-color="#FC466B" stop-opacity="0.2"/>
<stop offset="1" stop-color="#3F5EFB" stop-opacity="0.2"/>
</linearGradient>
<linearGradient id="paint5_linear_554_6013" x1="740.629" y1="950.42" x2="749.935" y2="950.363" gradientUnits="userSpaceOnUse">
<stop stop-color="#FC466B" stop-opacity="0.2"/>
<stop offset="1" stop-color="#3F5EFB" stop-opacity="0.2"/>
</linearGradient>
</defs>
</svg>
