<svg width="112" height="112" viewBox="0 0 112 112" fill="none" xmlns="http://www.w3.org/2000/svg">
<g opacity="0.2" clip-path="url(#clip0_248_676)">
<path d="M19.2819 98.4476C23.8655 100.103 28.7046 100.94 33.5781 100.919C38.8998 100.901 44.1809 99.9917 49.2021 98.2288C59.2955 94.7181 67.6762 88.1851 72.8002 79.8335C77.9935 71.3694 79.2345 62.0533 76.2947 53.6012C76.2377 53.4402 76.172 53.2825 76.0979 53.1287C76.8355 53.6509 77.68 54.0028 78.5703 54.1589C79.4605 54.315 80.3743 54.2714 81.2457 54.0313L109.023 40.5528C109.651 40.2512 110.212 39.8277 110.675 39.307C111.137 38.7864 111.491 38.1789 111.717 37.52C111.942 36.8611 112.034 36.164 111.987 35.4692C111.941 34.7744 111.756 34.0958 111.445 33.4729L111.035 32.6533C110.43 31.4388 109.378 30.5062 108.1 30.0515C106.822 29.5968 105.417 29.6554 104.181 30.2151L78.0231 42.1588C76.7197 42.5205 75.5711 43.3002 74.754 44.378C73.9368 45.4559 73.4962 46.7724 73.5 48.125C73.4997 48.8194 73.6181 49.5088 73.85 50.1633L73.3353 50.5065C66.4685 47.0722 49.8146 49.8409 34.2545 55.2534C33.3403 55.5713 32.4288 55.899 31.5201 56.2365C29.8005 49.8658 34.2505 45.229 34.4927 44.9833L32.0134 42.5132C30.3176 44.347 29.0492 46.5338 28.2992 48.9162C27.4138 51.7069 27.3893 54.6996 28.229 57.5043C25.429 58.6224 22.7384 59.8043 20.1924 61.0326C18.7803 55.7909 18.655 50.3825 18.8473 46.4743C18.885 45.6855 18.7647 44.8971 18.4935 44.1554C18.2222 43.4137 17.8055 42.7338 17.2678 42.1554C16.73 41.577 16.0821 41.112 15.3622 40.7875C14.6422 40.463 13.8646 40.2857 13.0751 40.266C12.2857 40.2463 11.5002 40.3845 10.7649 40.6726C10.0296 40.9606 9.35929 41.3928 8.79334 41.9435C8.22738 42.4943 7.7772 43.1526 7.46923 43.8798C7.16126 44.607 7.00173 45.3884 6.99999 46.1781V58.555C6.99947 58.8057 6.89959 59.0459 6.72224 59.223C6.5449 59.4002 6.30455 59.4998 6.05389 59.5C5.46783 59.4998 4.88752 59.6155 4.34634 59.8404C3.80517 60.0654 3.31382 60.3951 2.90057 60.8106C2.48733 61.2262 2.16034 61.7194 1.93844 62.2618C1.71654 62.8042 1.60409 63.3852 1.60758 63.9713C1.68517 66.8107 2.19115 69.6221 3.10843 72.3104C0.430708 75.1772 -0.52698 77.7757 0.262489 80.0461C3.20271 88.4982 9.95727 95.0333 19.2819 98.4476ZM48.0524 94.922C38.7201 98.168 28.9301 98.2531 20.4853 95.1611C14.2456 92.8764 9.30715 89.0566 6.13527 84.1503C7.96512 84.5084 9.82714 84.676 11.6915 84.6503C12.7635 84.6503 13.9083 84.6086 15.1259 84.5252C21.1597 84.1113 28.4213 82.6717 36.0421 80.4092C36.1952 80.4337 40.3681 79.0667 42.3041 78.3934C46.7199 76.8652 51.0536 75.1093 55.2877 73.1327L55.377 73.0912C59.9552 70.9367 64.0522 68.6453 67.4209 66.3355C70.435 64.269 72.7053 62.3135 74.2319 60.4688C75.5486 74.4441 64.8727 89.0715 48.0524 94.922ZM66.2714 59.7032C65.9026 62.8401 65.2883 63.4863 65.2625 63.5123L65.2964 63.5462C63.8476 64.5328 62.2586 65.5167 60.5495 66.4878C61.6915 64.2274 62.4459 61.7914 62.7812 59.2813C62.839 58.8574 63.0482 58.4688 63.3703 58.1873C63.6923 57.9058 64.1055 57.7505 64.5332 57.75C64.7803 57.7499 65.0245 57.8022 65.2499 57.9033C65.4753 58.0044 65.6768 58.1521 65.841 58.3366C66.0052 58.5212 66.1285 58.7384 66.2028 58.974C66.2771 59.2096 66.3006 59.4583 66.2718 59.7037L66.2714 59.7032ZM105.624 33.4031C106.036 33.2176 106.503 33.1987 106.928 33.3505C107.354 33.5023 107.703 33.813 107.905 34.2173L108.314 35.037C108.419 35.2453 108.48 35.4723 108.495 35.7047C108.511 35.9371 108.48 36.1703 108.404 36.3905C108.328 36.6106 108.208 36.8134 108.053 36.9869C107.898 37.1605 107.709 37.3012 107.499 37.401L85.7469 47.997C85.7292 47.1317 85.5279 46.2801 85.1563 45.4984C84.7847 44.7167 84.2514 44.0229 83.5916 43.4628L105.624 33.4031ZM79.625 45.5C80.1726 45.4993 80.7067 45.6702 81.1523 45.9885C81.5978 46.3068 81.9326 46.7567 82.1095 47.2749C82.2864 47.7932 82.2966 48.3538 82.1387 48.8781C81.9807 49.4025 81.6626 49.8642 81.2289 50.1985L80.2664 50.6678C79.9551 50.7499 79.6308 50.7709 79.3115 50.7294L79.7215 50.4562C79.9151 50.3298 80.0819 50.1663 80.212 49.9751C80.3421 49.7839 80.433 49.5688 80.4794 49.3423C80.5259 49.1157 80.527 48.8822 80.4827 48.6552C80.4384 48.4282 80.3495 48.2123 80.2212 48.0199C80.0929 47.8274 79.9278 47.6624 79.7353 47.5341C79.5428 47.4059 79.3268 47.3172 79.0998 47.2729C78.8728 47.2287 78.6393 47.2299 78.4128 47.2765C78.1862 47.323 77.9712 47.414 77.7801 47.5442L77.0039 48.0616C77.0209 47.3772 77.3043 46.7266 77.7939 46.2481C78.2834 45.7696 78.9404 45.5012 79.625 45.5ZM31.9056 64.1204L34.5944 61.8798C33.9589 61.1228 33.3882 60.3137 32.8882 59.4611C33.7239 59.1526 34.5625 58.8519 35.4038 58.5589C44.9741 55.2302 54.3038 53.1184 61.6717 52.6131C65.1002 52.3782 67.9901 52.5151 70.028 53.0097C71.6863 53.4118 72.7374 54.0299 72.9879 54.7503C73.2384 55.4706 72.7976 56.6075 71.7471 57.9519C71.1392 58.7109 70.4714 59.4199 69.7502 60.0723C69.8979 58.6977 69.4983 57.3203 68.638 56.2382C67.7776 55.1561 66.5256 54.4564 65.1531 54.2906C63.7806 54.1248 62.3981 54.5063 61.3048 55.3524C60.2115 56.1985 59.4954 57.4412 59.3116 58.8114C58.4226 65.3544 54.5547 69.1674 53.4758 70.1168C49.4539 71.979 45.3409 73.638 41.1525 75.0877C39.3673 75.7086 37.5942 76.2863 35.8334 76.8206C28.9194 75.4863 24.0308 71.3081 21.2933 64.3851C23.9035 63.112 26.6833 61.8879 29.5802 60.732C30.2427 61.9348 31.0215 63.0697 31.9056 64.1204ZM5.38124 63.2796C5.46914 63.1906 5.57391 63.12 5.68941 63.072C5.80491 63.024 5.92882 62.9995 6.05389 63C7.23266 62.9987 8.36277 62.5298 9.19629 61.6963C10.0298 60.8628 10.4987 59.7327 10.5 58.5539V46.1781C10.5004 45.5343 10.7563 44.9169 11.2116 44.4616C11.6669 44.0064 12.2843 43.7504 12.9281 43.75C13.2573 43.7502 13.583 43.8173 13.8854 43.9472C14.1879 44.0772 14.4607 44.2672 14.6874 44.5059C14.9141 44.7446 15.0899 45.0268 15.2041 45.3355C15.3184 45.6443 15.3686 45.973 15.3519 46.3017C15.1016 51.3861 15.3617 58.8661 18.0221 65.6265C19.5545 69.5203 21.7219 72.7245 24.4637 75.1494C26.0251 76.5264 27.7825 77.6638 29.6782 78.5242C25.6759 79.5599 21.6068 80.3181 17.5 80.7933L16.0381 80.5238C12.1295 79.8724 9.16102 77.4029 7.21502 73.1843C5.91587 70.2733 5.20004 67.1358 5.10802 63.9494C5.1068 63.8252 5.13033 63.702 5.17724 63.587C5.22415 63.472 5.2935 63.3675 5.38124 63.2796ZM3.56846 78.8963C3.3263 78.2005 3.72705 77.1391 4.66046 75.8936C5.69354 77.8561 7.10527 79.5946 8.81408 81.0084C8.04467 80.9366 7.28106 80.8123 6.52858 80.6365C4.87111 80.2344 3.82024 79.6169 3.56911 78.8972V78.8961L3.56846 78.8963ZM15.75 22.75C14.7116 22.75 13.6966 23.0579 12.8332 23.6348C11.9699 24.2117 11.297 25.0316 10.8996 25.9909C10.5023 26.9502 10.3983 28.0058 10.6009 29.0242C10.8034 30.0426 11.3035 30.9781 12.0377 31.7123C12.7719 32.4465 13.7074 32.9466 14.7258 33.1491C15.7442 33.3517 16.7998 33.2477 17.7591 32.8504C18.7184 32.453 19.5383 31.7801 20.1152 30.9167C20.6921 30.0534 21 29.0384 21 28C20.9984 26.6081 20.4448 25.2736 19.4606 24.2894C18.4763 23.3052 17.1419 22.7516 15.75 22.75ZM15.75 29.75C15.4039 29.75 15.0655 29.6474 14.7777 29.4551C14.49 29.2628 14.2657 28.9895 14.1332 28.6697C14.0007 28.3499 13.9661 27.9981 14.0336 27.6586C14.1011 27.3191 14.2678 27.0073 14.5126 26.7626C14.7573 26.5178 15.0691 26.3512 15.4086 26.2836C15.748 26.2161 16.0999 26.2508 16.4197 26.3832C16.7395 26.5157 17.0128 26.74 17.2051 27.0278C17.3974 27.3155 17.5 27.6539 17.5 28C17.4995 28.464 17.3149 28.9088 16.9868 29.2369C16.6588 29.5649 16.214 29.7495 15.75 29.75ZM33.25 15.75C33.25 14.7116 32.9421 13.6966 32.3652 12.8333C31.7883 11.9699 30.9684 11.297 30.0091 10.8996C29.0498 10.5023 27.9942 10.3983 26.9758 10.6009C25.9574 10.8035 25.0219 11.3035 24.2877 12.0377C23.5535 12.7719 23.0534 13.7074 22.8509 14.7258C22.6483 15.7442 22.7523 16.7998 23.1496 17.7591C23.547 18.7184 24.2199 19.5383 25.0832 20.1152C25.9466 20.6921 26.9616 21 28 21C29.3919 20.9984 30.7263 20.4448 31.7106 19.4606C32.6948 18.4764 33.2484 17.1419 33.25 15.75ZM26.25 15.75C26.25 15.4039 26.3526 15.0655 26.5449 14.7778C26.7372 14.49 27.0105 14.2657 27.3303 14.1332C27.6501 14.0008 28.0019 13.9661 28.3414 14.0336C28.6809 14.1012 28.9927 14.2678 29.2374 14.5126C29.4822 14.7573 29.6488 15.0691 29.7164 15.4086C29.7839 15.7481 29.7492 16.0999 29.6168 16.4197C29.4843 16.7395 29.26 17.0128 28.9722 17.2051C28.6845 17.3974 28.3461 17.5 28 17.5C27.536 17.4995 27.0912 17.3149 26.7631 16.9869C26.4351 16.6588 26.2505 16.214 26.25 15.75Z" fill="white"/>
<path d="M22.75 35.0002H26.25V38.5002H22.75V35.0002ZM21 50.7502H24.5V54.2502H21V50.7502ZM31.5 66.5002H35V70.0002H31.5V66.5002ZM3.5 33.2502H7V36.7502H3.5V33.2502ZM18.2794 80.2062L20.2208 77.2942C15.9438 74.4428 15.755 71.8158 15.75 71.7053C15.7515 71.7349 15.75 71.7502 15.75 71.7502H12.25C12.25 72.2043 12.4191 76.3002 18.2794 80.2062ZM35.5445 27.0571C36.2674 25.9635 37.0854 24.9359 37.989 23.9861L35.5125 21.5127C35.2774 21.7481 29.75 27.3439 29.75 33.2502H33.25C33.25 31.4656 34.0434 29.324 35.5445 27.0571Z" fill="white"/>
</g>
<defs>
<clipPath id="clip0_248_676">
<rect width="112" height="112" fill="white"/>
</clipPath>
</defs>
</svg>
