<svg width="25" height="25" viewBox="0 0 25 25" fill="none" xmlns="http://www.w3.org/2000/svg">
<path d="M21.3181 0.838623H3.68138C2.11124 0.838623 0.838379 2.11148 0.838379 3.68163V21.3183C0.838379 22.8885 2.11124 24.1613 3.68138 24.1613H21.3181C22.8882 24.1613 24.1611 22.8885 24.1611 21.3183V3.68163C24.1611 2.11148 22.8882 0.838623 21.3181 0.838623Z" stroke="white" stroke-width="1.20765" stroke-miterlimit="10"/>
<path d="M12.5039 17.5193C15.2736 17.5193 17.519 15.274 17.519 12.5042C17.519 9.73447 15.2736 7.48914 12.5039 7.48914C9.7341 7.48914 7.48877 9.73447 7.48877 12.5042C7.48877 15.274 9.7341 17.5193 12.5039 17.5193Z" stroke="white" stroke-width="1.20765" stroke-miterlimit="10"/>
<path d="M20.6135 5.87052C20.6151 6.1615 20.5302 6.4464 20.3696 6.68903C20.209 6.93166 19.9799 7.12107 19.7113 7.23319C19.4428 7.34531 19.1471 7.37508 18.8616 7.31872C18.5761 7.26236 18.3138 7.12241 18.1081 6.91665C17.9023 6.7109 17.7624 6.44862 17.706 6.16315C17.6497 5.87768 17.6794 5.5819 17.7915 5.31339C17.9037 5.04487 18.0931 4.81575 18.3357 4.65512C18.5783 4.4945 18.8632 4.40962 19.1542 4.41128C19.5412 4.41128 19.9124 4.56502 20.1861 4.83868C20.4597 5.11234 20.6135 5.48351 20.6135 5.87052Z" fill="white"/>
</svg>
