<svg width="36" height="36" viewBox="0 0 36 36" fill="none" xmlns="http://www.w3.org/2000/svg">
<g clip-path="url(#clip0_504_63)">
<path d="M28.46 13.1087C29.7997 15.4199 30.5078 18.061 30.5078 20.7462C30.5078 24.8206 28.9211 28.6512 26.0401 31.5321C23.159 34.4131 19.3285 35.9998 15.2542 35.9998C11.1798 35.9998 7.3492 34.4131 4.46821 31.5321C1.58716 28.6512 0.000488281 24.8206 0.000488281 20.7462C0.000488281 16.6718 1.58716 12.8413 4.46821 9.96027C7.34927 7.07928 11.1798 5.49254 15.2542 5.49254C17.9395 5.49254 20.5806 6.20066 22.8918 7.54032C23.0203 7.61539 23.1139 7.73836 23.1519 7.88227C23.19 8.02619 23.1694 8.17932 23.0948 8.30811C23.0201 8.43691 22.8975 8.53086 22.7537 8.56939C22.6099 8.60791 22.4567 8.58787 22.3277 8.51366C20.1877 7.2732 17.7417 6.61761 15.2542 6.61761C7.4636 6.61754 1.12549 12.9556 1.12549 20.7462C1.12549 28.5368 7.4636 34.8749 15.2542 34.8749C23.0447 34.8749 29.3828 28.5368 29.3828 20.7463C29.3828 18.2589 28.7272 15.8129 27.4867 13.6728C27.4119 13.5438 27.3914 13.3903 27.4298 13.2461C27.4682 13.1019 27.5622 12.9789 27.6913 12.9041C27.8204 12.8293 27.9739 12.8088 28.118 12.8472C28.2622 12.8855 28.3852 12.9796 28.46 13.1087ZM35.8357 7.1754L31.0625 11.9486C30.9927 12.0185 30.9057 12.0687 30.8104 12.0942C30.715 12.1198 30.6146 12.1198 30.5192 12.0943L25.9311 10.8648L15.6519 21.144C15.5421 21.2538 15.3982 21.3087 15.2542 21.3087C15.1102 21.3087 14.9662 21.2538 14.8564 21.144C14.7509 21.0385 14.6917 20.8954 14.6917 20.7462C14.6917 20.5971 14.7509 20.454 14.8564 20.3485L25.1356 10.0693L23.9062 5.48122C23.8806 5.38584 23.8806 5.28541 23.9062 5.19002C23.9317 5.09464 23.982 5.00767 24.0518 4.93785L28.825 0.164612C28.8949 0.0948387 28.9818 0.0446686 29.0772 0.0191394C29.1726 -0.00638989 29.273 -0.00637962 29.3683 0.0191692C29.4637 0.0447179 29.5506 0.0949058 29.6204 0.164693C29.6903 0.23448 29.7405 0.32141 29.7661 0.416752L30.9954 5.00485L35.5836 6.2342C35.679 6.25974 35.766 6.30996 35.8358 6.37979C35.9057 6.44962 35.9559 6.5366 35.9814 6.632C36.007 6.72739 36.007 6.82783 35.9814 6.92322C35.9558 7.01861 35.9056 7.10559 35.8357 7.1754ZM34.3513 7.06881L30.3905 6.00751C30.2952 5.98196 30.2082 5.93174 30.1384 5.86192C30.0685 5.7921 30.0183 5.70513 29.9928 5.60975L28.9315 1.64905L25.0768 5.50372L26.2221 9.77816L30.4966 10.9235L34.3513 7.06881ZM15.2542 12.8671C16.4254 12.8671 17.5528 13.1182 18.605 13.6135C18.7399 13.677 18.8946 13.6843 19.035 13.6338C19.1753 13.5833 19.2899 13.4791 19.3534 13.3441C19.3849 13.2773 19.4029 13.2049 19.4064 13.1311C19.4099 13.0573 19.3988 12.9836 19.3738 12.9141C19.3488 12.8446 19.3103 12.7807 19.2606 12.7261C19.2109 12.6714 19.1509 12.6271 19.0841 12.5957C17.881 12.0293 16.5923 11.7421 15.2542 11.7421C10.2892 11.7421 6.25 15.7813 6.25 20.7462C6.25 25.7111 10.2892 29.7504 15.2542 29.7504C20.2191 29.7504 24.2583 25.7111 24.2583 20.7462C24.2583 19.4082 23.9711 18.1196 23.4047 16.9163C23.3412 16.7813 23.2266 16.6771 23.0863 16.6266C22.9459 16.576 22.7912 16.5833 22.6562 16.6468C22.5212 16.7104 22.417 16.8249 22.3665 16.9653C22.316 17.1056 22.3233 17.2603 22.3868 17.3953C22.8821 18.4477 23.1332 19.575 23.1332 20.7461C23.1332 25.0907 19.5987 28.6253 15.2541 28.6253C10.9095 28.6253 7.37493 25.0907 7.37493 20.7461C7.37493 16.4015 10.9095 12.8671 15.2542 12.8671Z" fill="white"/>
</g>
<defs>
<clipPath id="clip0_504_63">
<rect width="36" height="36" fill="white" transform="translate(0.000488281)"/>
</clipPath>
</defs>
</svg>
