<svg width="52" height="52" viewBox="0 0 52 52" fill="none" xmlns="http://www.w3.org/2000/svg">
<g opacity="0.15" clip-path="url(#clip0_395_3155)">
<path d="M46.378 18.6808L45.6704 18.6782C46.2809 17.7258 47.0649 16.7097 48.0963 15.4348C48.1737 15.3394 48.2224 15.2241 48.2368 15.1021C48.2513 14.9802 48.2309 14.8567 48.178 14.7459C48.1251 14.6351 48.0419 14.5415 47.9381 14.476C47.8342 14.4106 47.7139 14.3759 47.5911 14.3761H10.3373C10.2197 14.3761 10.1043 14.408 10.0035 14.4684C9.90258 14.5289 9.81999 14.6155 9.76451 14.7192C9.70903 14.8229 9.68273 14.9397 9.68841 15.0572C9.69409 15.1746 9.73154 15.2883 9.79677 15.3862L10.319 16.1671C11.7951 18.3699 12.7018 19.732 13.3627 21.7072C13.2149 22.2868 12.7165 23.295 11.0276 23.7011C8.92212 24.2084 7.66548 25.5155 7.66548 27.198C7.66548 27.7857 7.80893 28.3494 8.07615 28.8488C6.14519 29.2233 4.6829 30.9271 4.6829 32.9657C4.6829 34.0913 5.1658 35.1296 5.93535 35.8918H5.02007L4.6942 35.8892H4.65853C3.44163 35.8892 2.2976 36.3605 1.43285 37.2184C0.55959 38.0851 0.0791016 39.2394 0.0791016 40.4698C0.0791016 42.4796 1.51523 44.1879 3.37828 44.53L4.69928 51.4714C4.72761 51.6201 4.80689 51.7542 4.92346 51.8507C5.04004 51.9471 5.18661 52 5.33794 52H22.8504C23.0019 52 23.1487 51.9471 23.2653 51.8504C23.382 51.7537 23.4612 51.6193 23.4892 51.4704L24.0153 48.6791H36.459C37.0584 48.6791 37.6188 48.4123 37.9967 47.9471C38.3741 47.482 38.5203 46.879 38.4023 46.3192L37.6996 42.0843C40.6903 39.9948 42.4606 36.9902 42.8781 33.2651C43.8148 30.8602 45.2604 30.4619 46.934 30.0038C47.7432 29.7816 48.5807 29.5525 49.3677 29.0799C51.0884 28.0479 52.1262 26.1478 52.0752 24.1211C51.9984 21.1335 49.4431 18.6932 46.378 18.6808ZM8.9762 35.8595C7.35383 35.8595 5.98257 34.5342 5.98257 32.9657C5.98257 31.3709 7.28084 30.0726 8.87604 30.0726C9.01593 30.0726 9.16864 30.0861 9.34027 30.1139C9.4834 30.1374 9.63028 30.1122 9.7574 30.0423C9.88451 29.9725 9.98452 29.862 10.0414 29.7286C10.0984 29.5955 10.1094 29.4472 10.0727 29.3072C10.0359 29.1672 9.95354 29.0434 9.83854 28.9555C9.28315 28.5325 8.96541 27.8913 8.96541 27.198C8.96541 25.7511 10.4481 25.1783 11.3322 24.9656C13.6598 24.4052 14.3908 22.9211 14.6208 22.0205C15.5968 22.2651 16.3218 23.1491 16.3218 24.1995C16.3218 24.5308 16.2484 24.8545 16.103 25.162C16.0515 25.2703 16.0311 25.3907 16.0439 25.51C16.0568 25.6292 16.1025 25.7425 16.1759 25.8373C16.2489 25.9326 16.347 26.0056 16.4592 26.0482C16.5714 26.0908 16.6933 26.1013 16.8111 26.0784C18.3217 25.7942 19.5722 26.9402 19.5722 28.3629C19.5722 28.9262 19.3654 29.4716 18.99 29.8977C18.8155 30.0949 18.8016 30.3766 18.9177 30.6136C19.0347 30.8503 19.3055 30.9876 19.5683 30.9726C19.6015 30.9701 19.6338 30.9677 19.6674 30.9677C21.0162 30.9677 22.1136 32.0645 22.1136 33.4134C22.1136 34.7623 21.0162 35.8597 19.6674 35.8597C19.6104 35.8597 19.5594 35.8779 19.5068 35.8918H9.13691C9.08435 35.8779 9.03332 35.8595 8.9762 35.8595ZM1.3789 40.4698C1.3789 39.5886 1.72355 38.7615 2.34876 38.1411C2.96762 37.5267 3.7873 37.189 4.65866 37.189H4.68392L5.0122 37.1921H23.3717C25.2307 37.1921 26.7485 38.6806 26.7948 40.5288C26.7912 40.5578 26.7893 40.5869 26.7893 40.616C26.7893 42.0943 25.5833 43.2968 24.1006 43.2968C22.6179 43.2968 21.4119 42.0943 21.4119 40.616C21.4119 40.4436 21.3434 40.2783 21.2215 40.1564C21.0996 40.0345 20.9342 39.966 20.7618 39.966C20.5894 39.966 20.424 40.0345 20.3021 40.1564C20.1802 40.2783 20.1117 40.4436 20.1117 40.616C20.1117 42.0943 18.9057 43.2968 17.423 43.2968C15.9403 43.2968 14.7343 42.0943 14.7343 40.616C14.7343 40.4436 14.6658 40.2783 14.5439 40.1564C14.422 40.0345 14.2566 39.966 14.0842 39.966C13.9118 39.966 13.7465 40.0345 13.6245 40.1564C13.5026 40.2783 13.4341 40.4436 13.4341 40.616C13.4341 42.0943 12.2282 43.2968 10.7454 43.2968C9.26284 43.2968 8.05686 42.0943 8.05686 40.616C8.05686 40.4437 7.98839 40.2784 7.86653 40.1565C7.74466 40.0347 7.57937 39.9662 7.40702 39.9662C7.23468 39.9662 7.06939 40.0347 6.94752 40.1565C6.82565 40.2784 6.75719 40.4437 6.75719 40.616C6.75719 41.346 6.46814 42.0283 5.94347 42.5376C5.41677 43.0483 4.7201 43.3276 3.9842 43.2954C2.54768 43.2522 1.3789 41.9846 1.3789 40.4698ZM22.3119 50.7003H5.87555L4.70385 44.543C5.50754 44.415 6.25131 44.05 6.84846 43.4703C7.05951 43.2663 7.24743 43.0396 7.4088 42.7944C8.12185 43.8785 9.35107 44.5965 10.7456 44.5965C12.1409 44.5965 13.3717 43.878 14.0842 42.792C14.7974 43.878 16.0281 44.5965 17.4231 44.5965C18.8181 44.5965 20.0488 43.878 20.7618 42.792C21.067 43.2562 21.4658 43.6515 21.9325 43.9527C22.3992 44.254 22.9237 44.4545 23.4723 44.5415L22.3119 50.7003ZM37.1249 46.5592C37.1459 46.6583 37.1444 46.7608 37.1205 46.8592C37.0967 46.9577 37.0511 47.0495 36.9871 47.128C36.9234 47.2066 36.8429 47.27 36.7515 47.3135C36.6601 47.357 36.5602 47.3795 36.459 47.3793H24.2603L24.7968 44.5319C24.9897 44.4983 25.1776 44.4502 25.3601 44.3892C26.5356 44.6726 27.7402 44.8167 28.9493 44.8187H28.9796C31.2651 44.8146 33.5515 44.2944 35.5941 43.3136C35.9036 43.1644 36.2081 43.005 36.5071 42.8357L37.1249 46.5592ZM35.0317 42.1419C33.1584 43.0415 31.0609 43.5175 28.9643 43.5189C28.2968 43.5185 27.6308 43.465 26.9717 43.3706C27.6392 42.6779 28.0612 41.7483 28.0879 40.7198C28.0934 40.6855 28.0959 40.6512 28.0959 40.6157C28.0959 38.0107 25.9765 35.8918 23.3717 35.8918H22.4687C23.0543 35.2308 23.4138 34.364 23.4138 33.4134C23.4138 31.6635 22.2068 30.1896 20.5823 29.7806C20.7735 29.3324 20.8722 28.8502 20.8724 28.3629C20.8724 26.4751 19.4225 24.92 17.5788 24.7513C17.6071 24.5698 17.6219 24.3854 17.6219 24.1995C17.6219 22.3453 16.1904 20.8215 14.3744 20.6692C13.7045 18.9169 12.8094 17.5497 11.5543 15.6757H46.2416C42.5365 20.4109 42.4184 22.0107 41.7018 31.7696L41.6409 32.5992C41.3181 36.9817 39.0945 40.192 35.0317 42.1419ZM48.6987 27.9657C48.065 28.3455 47.3485 28.5419 46.5902 28.7502C45.4269 29.069 44.163 29.4205 43.0997 30.4916C43.5217 24.8113 43.7776 22.3101 44.9316 19.976L46.3737 19.9806C48.7425 19.99 50.717 21.8624 50.7755 24.1539C50.8147 25.7128 50.0188 27.1733 48.6987 27.9657ZM38.1216 8.85444H33.5323C31.9132 8.85444 30.5956 10.1754 30.5956 11.7996V12.0846C30.5956 12.2569 30.6641 12.4222 30.786 12.5441C30.9078 12.6659 31.0731 12.7344 31.2455 12.7344C31.4178 12.7344 31.5831 12.6659 31.705 12.5441C31.8268 12.4222 31.8953 12.2569 31.8953 12.0846V11.7996C31.8953 10.8927 32.6298 10.1544 33.5323 10.1544H38.1216C39.4381 10.1544 40.5093 9.08066 40.5093 7.76119C40.5093 6.44108 39.4381 5.3675 38.1216 5.3675H27.3298C26.7045 5.3675 26.1962 4.8563 26.1962 4.22804C26.1962 3.60017 26.7045 3.08934 27.3298 3.08934H33.1058C34.4477 3.08934 35.5395 1.99507 35.5395 0.650214C35.5396 0.56482 35.5229 0.480245 35.4902 0.401328C35.4576 0.322412 35.4098 0.250705 35.3494 0.19031C35.289 0.129915 35.2173 0.0820195 35.1384 0.0493637C35.0595 0.0167079 34.9749 -6.66263e-05 34.8896 1.98875e-07C34.8042 -4.98511e-05 34.7196 0.0167301 34.6407 0.0493807C34.5618 0.0820314 34.4901 0.129913 34.4297 0.190287C34.3693 0.250661 34.3214 0.322345 34.2888 0.401241C34.2561 0.480137 34.2393 0.564697 34.2393 0.650087C34.2393 1.27847 33.7311 1.78917 33.1057 1.78917H27.3297C25.9879 1.78917 24.8965 2.88344 24.8965 4.22779C24.8965 5.57265 25.9879 6.66717 27.3298 6.66717H38.1216C38.7211 6.66717 39.2095 7.15807 39.2095 7.76106C39.2095 8.36405 38.7211 8.85444 38.1216 8.85444ZM26.8745 12.7347C26.9599 12.7347 27.0444 12.7179 27.1233 12.6853C27.2022 12.6526 27.2739 12.6048 27.3343 12.5444C27.3947 12.484 27.4426 12.4124 27.4752 12.3335C27.5079 12.2546 27.5247 12.1701 27.5247 12.0847V11.7994C27.5247 10.1754 26.207 8.85444 24.5881 8.85444H19.9987C19.3992 8.85444 18.9108 8.36405 18.9108 7.76106C18.9108 7.15807 19.3992 6.66717 19.9987 6.66717C20.0841 6.66724 20.1687 6.65046 20.2476 6.61781C20.3265 6.58515 20.3982 6.53726 20.4586 6.47686C20.5189 6.41647 20.5668 6.34476 20.5994 6.26584C20.6321 6.18693 20.6488 6.10235 20.6487 6.01696C20.6487 5.93161 20.6319 5.8471 20.5993 5.76825C20.5666 5.6894 20.5187 5.61776 20.4584 5.55743C20.398 5.4971 20.3263 5.44926 20.2475 5.41665C20.1686 5.38404 20.0841 5.36729 19.9987 5.36738C18.6826 5.36738 17.611 6.44095 17.611 7.76106C17.611 9.08053 18.6826 10.1541 19.9987 10.1541H24.5881C25.4906 10.1541 26.2249 10.8925 26.2249 11.7994V12.0846C26.2248 12.1699 26.2416 12.2544 26.2742 12.3333C26.3069 12.4122 26.3547 12.4839 26.4151 12.5442C26.4754 12.6046 26.547 12.6525 26.6259 12.6852C26.7047 12.7178 26.7893 12.7347 26.8746 12.7347H26.8745Z" fill="white"/>
<path d="M18.1183 46.5029C18.033 46.5028 17.9484 46.5196 17.8695 46.5522C17.7906 46.5849 17.7189 46.6328 17.6585 46.6932C17.5981 46.7535 17.5502 46.8252 17.5176 46.9041C17.4849 46.983 17.4682 47.0676 17.4683 47.153V48.1433C17.4682 48.2287 17.485 48.3132 17.5177 48.3921C17.5504 48.4709 17.5982 48.5426 17.6586 48.6029C17.719 48.6632 17.7907 48.7111 17.8696 48.7437C17.9485 48.7763 18.033 48.793 18.1183 48.7929C18.2037 48.7929 18.2881 48.7762 18.367 48.7435C18.4458 48.7109 18.5174 48.663 18.5777 48.6027C18.6381 48.5424 18.6859 48.4708 18.7185 48.3919C18.7512 48.3131 18.768 48.2286 18.7679 48.1433V47.1531C18.768 47.0678 18.7513 46.9832 18.7187 46.9043C18.6861 46.8254 18.6383 46.7537 18.578 46.6933C18.5176 46.6329 18.446 46.585 18.3671 46.5524C18.2882 46.5197 18.2037 46.5029 18.1183 46.5029ZM14.0878 46.5029C14.0024 46.5028 13.9179 46.5196 13.839 46.5522C13.76 46.5849 13.6883 46.6328 13.628 46.6932C13.5676 46.7535 13.5197 46.8252 13.4871 46.9041C13.4544 46.983 13.4377 47.0676 13.4377 47.153V48.1433C13.4377 48.2287 13.4545 48.3132 13.4872 48.3921C13.5198 48.4709 13.5677 48.5426 13.6281 48.6029C13.6885 48.6632 13.7602 48.7111 13.8391 48.7437C13.9179 48.7763 14.0025 48.793 14.0878 48.7929C14.1731 48.7929 14.2576 48.7762 14.3365 48.7435C14.4153 48.7109 14.4869 48.663 14.5472 48.6027C14.6076 48.5424 14.6554 48.4708 14.688 48.3919C14.7207 48.3131 14.7374 48.2286 14.7374 48.1433V47.1531C14.7375 47.0678 14.7208 46.9832 14.6882 46.9043C14.6556 46.8254 14.6078 46.7537 14.5475 46.6933C14.4871 46.6329 14.4155 46.585 14.3366 46.5524C14.2577 46.5197 14.1732 46.5029 14.0878 46.5029ZM10.0573 46.5029C9.97192 46.5028 9.88735 46.5196 9.80844 46.5522C9.72953 46.5849 9.65783 46.6328 9.59745 46.6932C9.53706 46.7535 9.48918 46.8252 9.45654 46.9041C9.4239 46.983 9.40714 47.0676 9.40723 47.153V48.1433C9.40719 48.2287 9.42399 48.3132 9.45665 48.3921C9.48932 48.4709 9.53721 48.5426 9.59759 48.6029C9.65797 48.6632 9.72965 48.7111 9.80854 48.7437C9.88742 48.7763 9.97196 48.793 10.0573 48.7929C10.1426 48.7929 10.2271 48.7762 10.3059 48.7435C10.3848 48.7109 10.4564 48.663 10.5167 48.6027C10.577 48.5424 10.6249 48.4708 10.6575 48.3919C10.6901 48.3131 10.7069 48.2286 10.7069 48.1433V47.1531C10.707 47.0678 10.6903 46.9832 10.6577 46.9043C10.6251 46.8254 10.5773 46.7537 10.5169 46.6933C10.4566 46.6329 10.385 46.585 10.3061 46.5524C10.2272 46.5197 10.1427 46.5029 10.0573 46.5029Z" fill="white"/>
</g>
<defs>
<clipPath id="clip0_395_3155">
<rect width="52" height="52" fill="white"/>
</clipPath>
</defs>
</svg>
