<svg width="18" height="18" viewBox="0 0 18 18" fill="none" xmlns="http://www.w3.org/2000/svg">
<g clip-path="url(#clip0_323_797)">
<path d="M17.2804 10.755C17.5572 9.44228 17.5191 8.07235 17.1679 6.77709C16.7837 5.3599 16.0287 4.05902 14.9847 3.01502C13.9407 1.97105 12.6398 1.21607 11.2227 0.831848C9.92739 0.480637 8.55746 0.442563 7.24469 0.719348C6.38529 0.181633 5.36601 -0.0673785 4.34714 0.0156606C3.2309 0.10668 2.17948 0.593524 1.3865 1.38651C0.593512 2.17949 0.106703 3.23088 0.0156838 4.34712C-0.0674256 5.36602 0.181586 6.3852 0.719371 7.24466C0.442551 8.55736 0.480696 9.9274 0.831871 11.2226C1.21609 12.6398 1.97104 13.9407 3.01504 14.9847C4.05904 16.0287 5.35993 16.7836 6.77707 17.1679C8.07234 17.5191 9.44231 17.5572 10.755 17.2804C11.5062 17.7504 12.3793 18 13.2676 18C13.3957 18 13.5242 17.9948 13.6527 17.9843C14.769 17.8933 15.8205 17.4065 16.6135 16.6135C17.4065 15.8204 17.8933 14.7689 17.9843 13.6526C18.0674 12.6337 17.8182 11.6144 17.2804 10.755ZM15.831 15.831C14.5808 17.0812 12.6255 17.2517 11.182 16.2361C11.1177 16.1909 11.0444 16.1599 10.9671 16.1451C10.8898 16.1304 10.8103 16.1324 10.7338 16.1508C8.21799 16.7581 5.62497 16.0296 3.79751 14.2022C1.97005 12.3748 1.24165 9.78175 1.84898 7.26586C1.88631 7.11118 1.8552 6.94788 1.76369 6.81769C0.74834 5.37421 0.918778 3.4191 2.16897 2.16895C3.41913 0.918789 5.3742 0.748246 6.81772 1.76366C6.88206 1.80892 6.95531 1.83993 7.03259 1.85464C7.10986 1.86935 7.18938 1.86741 7.26585 1.84895C9.78177 1.24166 12.3747 1.97007 14.2022 3.79756C16.0297 5.62498 16.7581 8.218 16.1508 10.7338C16.1323 10.8103 16.1304 10.8898 16.1451 10.9671C16.1598 11.0444 16.1909 11.1177 16.2361 11.182C17.2517 12.6255 17.0813 14.5808 15.831 15.831Z" fill="white"/>
<path d="M9.10343 8.39452C7.96075 8.00802 6.66566 7.56986 6.66566 6.92204C6.66566 6.09566 7.73459 5.39752 8.99993 5.39752C10.2652 5.39752 11.3342 6.09569 11.3342 6.92204C11.3342 7.22758 11.5819 7.47533 11.8875 7.47533C12.1931 7.47533 12.4408 7.22762 12.4408 6.92204C12.4408 6.18421 12.0587 5.50299 11.3649 5.00374C10.7261 4.54411 9.88625 4.29102 8.99993 4.29102C8.11361 4.29102 7.27372 4.54414 6.63497 5.00374C5.94116 5.50296 5.55908 6.18421 5.55908 6.92204C5.55908 7.59482 5.94541 8.16253 6.70729 8.6094C7.2823 8.94665 8.02782 9.19883 8.74881 9.44271C10.0198 9.87267 11.3342 10.3173 11.3342 11.0776C11.3342 11.904 10.2652 12.6021 8.99993 12.6021C7.73462 12.6021 6.66566 11.9039 6.66566 11.0776C6.66566 10.772 6.41795 10.5243 6.11237 10.5243C5.80679 10.5243 5.55908 10.772 5.55908 11.0776C5.55908 11.8154 5.94112 12.4966 6.63497 12.9959C7.27372 13.4555 8.11361 13.7086 8.99993 13.7086C9.88629 13.7086 10.7261 13.4555 11.3649 12.9959C12.0587 12.4967 12.4408 11.8154 12.4408 11.0776C12.4408 9.5235 10.6677 8.92373 9.10343 8.39452Z" fill="white"/>
</g>
<defs>
<clipPath id="clip0_323_797">
<rect width="18" height="18" fill="white"/>
</clipPath>
</defs>
</svg>
