<svg width="25" height="25" fill="none" xmlns="http://www.w3.org/2000/svg"><path d="M24.89 5.349a.745.745 0 00-.7-.353l-1.247.109 1.192-2.402a.746.746 0 00-.996-1.001l-3.154 1.544c-1.948-1.028-4.382-.723-6.057.803-1.398 1.273-2.133 3.232-1.996 5.185-3.654-.366-6.747-2.458-8.575-5.837a.746.746 0 00-1.255-.089C.967 4.841.888 6.942 1.777 8.67a11.307 11.307 0 01-.795-.242.746.746 0 00-.972.828C.362 11.39 1.606 13.03 3.57 14c-.255.09-.516.162-.782.217a.746.746 0 00-.392 1.24c1.415 1.512 3.46 2.256 4.911 2.613-1.65 1.293-3.433 1.51-6.022 1.42a.747.747 0 00-.578 1.247c1.08 1.19 5.012 2.531 9.147 2.632.163.004.33.006.5.006 2.903 0 6.74-.622 9.494-3.376 2.084-2.085 3.388-4.484 3.874-7.132.393-2.138.145-3.85.026-4.674-.01-.06-.018-.124-.026-.18l1.166-1.88a.744.744 0 00.002-.783zm-2.618 3.057c.221 1.525.894 6.164-3.479 10.537-2.542 2.542-6.244 2.999-8.903 2.934-2.269-.055-4.298-.489-5.768-.984a9.216 9.216 0 001.631-.342c1.385-.43 2.555-1.205 3.681-2.437a.745.745 0 00-.455-1.243c-.71-.09-2.847-.45-4.529-1.61a8.028 8.028 0 001.399-.743.745.745 0 00-.223-1.343c-1.377-.36-3.039-1.168-3.805-2.971.49.086 1.021.106 1.589-.02a.745.745 0 00.373-1.246C2.83 7.95 2.473 6.528 2.78 5.31a12.72 12.72 0 003.725 3.607 12.367 12.367 0 006.277 1.862.748.748 0 00.746-.907c-.387-1.738.165-3.591 1.405-4.72 1.286-1.172 3.187-1.35 4.622-.433a.745.745 0 00.73.042l1.54-.755-.807 1.625a.745.745 0 00.733 1.074l1.086-.094-.5.806c-.168.27-.133.511-.064.99z" fill="#fff"/></svg>